<svg width="1440" height="345" viewBox="0 0 1440 345" fill="none" xmlns="http://www.w3.org/2000/svg">
<mask id="mask0_158_48" style="mask-type:alpha" maskUnits="userSpaceOnUse" x="0" y="0" width="1440" height="345">
<rect width="1440" height="345" fill="white"/>
</mask>
<g mask="url(#mask0_158_48)">
<rect width="1440" height="345" fill="#7762FF" fill-opacity="0.73"/>
<path d="M1223 -2H1374.34L1482.49 4.26392L1562.27 151.283L1658 261.72L1635.79 345H1498.36L1321.03 120.506L1223 -2Z" fill="url(#paint0_linear_158_48)"/>
<path d="M-173 -17H-39.4456L55.9863 -10.4653L196 95.6922L97.3297 154.242L191.269 345H69.9969L-86.4945 110.802L-173 -17Z" fill="url(#paint1_linear_158_48)"/>
<path d="M282 -2H442.587L557.335 4.26392L720 265.944L511.533 73.9504L720 345H574.181L386.015 120.506L339.696 197.148L282 -2Z" fill="url(#paint2_linear_158_48)"/>
<path d="M684 -2H867.502L998.623 4.26392L1191 106.023L946.286 73.9504L1184.5 345H1017.87L802.857 120.506L684 -2Z" fill="url(#paint3_linear_158_48)"/>
<g opacity="0.75" filter="url(#filter0_f_158_48)">
<rect x="-180" y="162" width="1267" height="247" fill="white"/>
</g>
<path d="M303.5 109.648V107.364H313.335V109.648H309.807V119H307.034V109.648H303.5ZM317.523 119.165C316.61 119.165 315.822 118.985 315.159 118.625C314.5 118.261 313.992 117.744 313.636 117.074C313.284 116.4 313.108 115.598 313.108 114.67C313.108 113.769 313.286 112.981 313.642 112.307C313.998 111.629 314.5 111.102 315.148 110.727C315.795 110.348 316.559 110.159 317.438 110.159C318.059 110.159 318.627 110.256 319.142 110.449C319.657 110.642 320.102 110.928 320.477 111.307C320.852 111.686 321.144 112.153 321.352 112.71C321.561 113.263 321.665 113.898 321.665 114.614V115.307H314.08V113.693H319.08C319.076 113.398 319.006 113.134 318.869 112.903C318.733 112.672 318.545 112.492 318.307 112.364C318.072 112.231 317.801 112.165 317.494 112.165C317.184 112.165 316.905 112.235 316.659 112.375C316.413 112.511 316.218 112.699 316.074 112.938C315.93 113.172 315.854 113.439 315.847 113.739V115.381C315.847 115.737 315.917 116.049 316.057 116.318C316.197 116.583 316.396 116.79 316.653 116.938C316.911 117.085 317.218 117.159 317.574 117.159C317.82 117.159 318.044 117.125 318.244 117.057C318.445 116.989 318.617 116.888 318.761 116.756C318.905 116.623 319.013 116.46 319.085 116.267L321.636 116.341C321.53 116.913 321.297 117.411 320.938 117.835C320.581 118.256 320.114 118.583 319.534 118.818C318.955 119.049 318.284 119.165 317.523 119.165ZM325.544 119.148C324.987 119.148 324.493 119.055 324.061 118.869C323.633 118.68 323.294 118.396 323.044 118.017C322.798 117.634 322.675 117.155 322.675 116.58C322.675 116.095 322.76 115.686 322.93 115.352C323.101 115.019 323.336 114.748 323.635 114.54C323.934 114.331 324.279 114.174 324.669 114.068C325.059 113.958 325.476 113.884 325.919 113.847C326.415 113.801 326.815 113.754 327.118 113.705C327.421 113.652 327.641 113.578 327.777 113.483C327.917 113.384 327.987 113.246 327.987 113.068V113.04C327.987 112.748 327.887 112.523 327.686 112.364C327.485 112.205 327.214 112.125 326.874 112.125C326.506 112.125 326.211 112.205 325.987 112.364C325.764 112.523 325.622 112.742 325.561 113.023L322.999 112.932C323.074 112.402 323.269 111.928 323.584 111.511C323.902 111.091 324.338 110.761 324.891 110.523C325.447 110.28 326.116 110.159 326.896 110.159C327.453 110.159 327.966 110.225 328.436 110.358C328.906 110.487 329.315 110.676 329.663 110.926C330.012 111.172 330.281 111.475 330.47 111.835C330.663 112.195 330.76 112.606 330.76 113.068V119H328.146V117.784H328.078C327.923 118.08 327.724 118.33 327.482 118.534C327.243 118.739 326.961 118.892 326.635 118.994C326.313 119.097 325.949 119.148 325.544 119.148ZM326.402 117.33C326.701 117.33 326.97 117.269 327.209 117.148C327.451 117.027 327.644 116.86 327.788 116.648C327.932 116.432 328.004 116.182 328.004 115.898V115.068C327.925 115.11 327.828 115.148 327.714 115.182C327.605 115.216 327.483 115.248 327.351 115.278C327.218 115.309 327.082 115.335 326.942 115.358C326.802 115.381 326.667 115.402 326.538 115.42C326.277 115.462 326.054 115.527 325.868 115.614C325.686 115.701 325.546 115.814 325.447 115.955C325.353 116.091 325.305 116.254 325.305 116.443C325.305 116.731 325.408 116.951 325.612 117.102C325.821 117.254 326.084 117.33 326.402 117.33ZM332.459 119V110.273H335.101V111.875H335.197C335.379 111.345 335.686 110.926 336.118 110.619C336.55 110.312 337.065 110.159 337.663 110.159C338.269 110.159 338.788 110.314 339.22 110.625C339.652 110.936 339.927 111.352 340.044 111.875H340.135C340.298 111.356 340.616 110.941 341.089 110.631C341.563 110.316 342.122 110.159 342.766 110.159C343.591 110.159 344.262 110.424 344.777 110.955C345.292 111.481 345.55 112.205 345.55 113.125V119H342.771V113.761C342.771 113.326 342.66 112.994 342.436 112.767C342.213 112.536 341.923 112.42 341.567 112.42C341.184 112.42 340.883 112.545 340.663 112.795C340.447 113.042 340.339 113.373 340.339 113.79V119H337.669V113.733C337.669 113.328 337.559 113.008 337.339 112.773C337.12 112.538 336.83 112.42 336.47 112.42C336.228 112.42 336.014 112.479 335.828 112.597C335.643 112.71 335.497 112.873 335.391 113.085C335.288 113.297 335.237 113.547 335.237 113.835V119H332.459ZM354.891 112.938L352.339 113.006C352.313 112.824 352.241 112.663 352.124 112.523C352.006 112.379 351.853 112.267 351.663 112.188C351.478 112.104 351.262 112.062 351.016 112.062C350.694 112.062 350.419 112.127 350.192 112.256C349.968 112.384 349.858 112.559 349.862 112.778C349.858 112.949 349.927 113.097 350.067 113.222C350.211 113.347 350.466 113.447 350.834 113.523L352.516 113.841C353.387 114.008 354.035 114.284 354.459 114.67C354.887 115.057 355.103 115.568 355.107 116.205C355.103 116.803 354.925 117.324 354.572 117.767C354.224 118.21 353.747 118.555 353.141 118.801C352.535 119.044 351.841 119.165 351.061 119.165C349.815 119.165 348.832 118.909 348.112 118.398C347.396 117.883 346.987 117.193 346.885 116.33L349.629 116.261C349.69 116.58 349.847 116.822 350.101 116.989C350.355 117.155 350.679 117.239 351.072 117.239C351.429 117.239 351.718 117.172 351.942 117.04C352.165 116.907 352.279 116.731 352.283 116.511C352.279 116.314 352.192 116.157 352.021 116.04C351.851 115.919 351.584 115.824 351.22 115.756L349.697 115.466C348.822 115.307 348.171 115.013 347.743 114.585C347.315 114.153 347.103 113.604 347.107 112.938C347.103 112.354 347.258 111.856 347.572 111.443C347.887 111.027 348.334 110.708 348.913 110.489C349.493 110.269 350.177 110.159 350.964 110.159C352.146 110.159 353.078 110.407 353.76 110.903C354.442 111.396 354.819 112.074 354.891 112.938Z" fill="white"/>
<path d="M297.205 229V227.977L301.045 223.773C301.496 223.28 301.867 222.852 302.159 222.489C302.451 222.121 302.667 221.777 302.807 221.455C302.951 221.129 303.023 220.788 303.023 220.432C303.023 220.023 302.924 219.669 302.727 219.369C302.534 219.07 302.269 218.839 301.932 218.676C301.595 218.513 301.216 218.432 300.795 218.432C300.348 218.432 299.958 218.525 299.625 218.71C299.295 218.892 299.04 219.148 298.858 219.477C298.68 219.807 298.591 220.193 298.591 220.636H297.25C297.25 219.955 297.407 219.356 297.722 218.841C298.036 218.326 298.464 217.924 299.006 217.636C299.551 217.348 300.163 217.205 300.841 217.205C301.523 217.205 302.127 217.348 302.653 217.636C303.18 217.924 303.593 218.312 303.892 218.801C304.191 219.29 304.341 219.833 304.341 220.432C304.341 220.86 304.263 221.278 304.108 221.688C303.956 222.093 303.691 222.545 303.312 223.045C302.938 223.542 302.417 224.148 301.75 224.864L299.136 227.659V227.75H304.545V229H297.205ZM310.824 229.159C310.074 229.159 309.405 229.03 308.818 228.773C308.235 228.515 307.771 228.157 307.426 227.699C307.085 227.237 306.9 226.701 306.869 226.091H308.301C308.331 226.466 308.46 226.79 308.688 227.062C308.915 227.331 309.212 227.54 309.58 227.688C309.947 227.835 310.354 227.909 310.801 227.909C311.301 227.909 311.744 227.822 312.131 227.648C312.517 227.473 312.82 227.231 313.04 226.92C313.259 226.61 313.369 226.25 313.369 225.841C313.369 225.413 313.263 225.036 313.051 224.71C312.839 224.381 312.528 224.123 312.119 223.938C311.71 223.752 311.21 223.659 310.619 223.659H309.688V222.409H310.619C311.081 222.409 311.487 222.326 311.835 222.159C312.188 221.992 312.462 221.758 312.659 221.455C312.86 221.152 312.96 220.795 312.96 220.386C312.96 219.992 312.873 219.65 312.699 219.358C312.525 219.066 312.278 218.839 311.96 218.676C311.646 218.513 311.275 218.432 310.847 218.432C310.445 218.432 310.066 218.506 309.71 218.653C309.358 218.797 309.07 219.008 308.847 219.284C308.623 219.557 308.502 219.886 308.483 220.273H307.119C307.142 219.663 307.326 219.129 307.67 218.67C308.015 218.208 308.466 217.848 309.023 217.591C309.583 217.333 310.199 217.205 310.869 217.205C311.589 217.205 312.206 217.35 312.722 217.642C313.237 217.93 313.633 218.311 313.909 218.784C314.186 219.258 314.324 219.769 314.324 220.318C314.324 220.973 314.152 221.532 313.807 221.994C313.466 222.456 313.002 222.777 312.415 222.955V223.045C313.15 223.167 313.723 223.479 314.136 223.983C314.549 224.483 314.756 225.102 314.756 225.841C314.756 226.473 314.583 227.042 314.239 227.545C313.898 228.045 313.432 228.439 312.841 228.727C312.25 229.015 311.578 229.159 310.824 229.159ZM325.375 229H321.784V217.364H325.534C326.663 217.364 327.629 217.597 328.432 218.062C329.235 218.525 329.85 219.189 330.278 220.057C330.706 220.92 330.92 221.955 330.92 223.159C330.92 224.371 330.705 225.415 330.273 226.29C329.841 227.161 329.212 227.831 328.386 228.301C327.561 228.767 326.557 229 325.375 229ZM323.193 227.75H325.284C326.246 227.75 327.044 227.564 327.676 227.193C328.309 226.822 328.78 226.294 329.091 225.608C329.402 224.922 329.557 224.106 329.557 223.159C329.557 222.22 329.403 221.411 329.097 220.733C328.79 220.051 328.331 219.528 327.722 219.165C327.112 218.797 326.352 218.614 325.443 218.614H323.193V227.75ZM336.761 229.182C335.92 229.182 335.195 228.996 334.585 228.625C333.979 228.25 333.511 227.727 333.182 227.057C332.856 226.383 332.693 225.598 332.693 224.705C332.693 223.811 332.856 223.023 333.182 222.341C333.511 221.655 333.97 221.121 334.557 220.739C335.148 220.352 335.837 220.159 336.625 220.159C337.08 220.159 337.528 220.235 337.972 220.386C338.415 220.538 338.818 220.784 339.182 221.125C339.545 221.462 339.835 221.909 340.051 222.466C340.267 223.023 340.375 223.708 340.375 224.523V225.091H333.648V223.932H339.011C339.011 223.439 338.913 223 338.716 222.614C338.523 222.227 338.246 221.922 337.886 221.699C337.53 221.475 337.11 221.364 336.625 221.364C336.091 221.364 335.629 221.496 335.239 221.761C334.852 222.023 334.555 222.364 334.347 222.784C334.138 223.205 334.034 223.655 334.034 224.136V224.909C334.034 225.568 334.148 226.127 334.375 226.585C334.606 227.04 334.926 227.386 335.335 227.625C335.744 227.86 336.22 227.977 336.761 227.977C337.114 227.977 337.432 227.928 337.716 227.83C338.004 227.727 338.252 227.576 338.46 227.375C338.669 227.17 338.83 226.917 338.943 226.614L340.239 226.977C340.102 227.417 339.873 227.803 339.551 228.136C339.229 228.466 338.831 228.723 338.358 228.909C337.884 229.091 337.352 229.182 336.761 229.182ZM345.96 229.182C345.142 229.182 344.438 228.989 343.847 228.602C343.256 228.216 342.801 227.684 342.483 227.006C342.165 226.328 342.006 225.553 342.006 224.682C342.006 223.795 342.169 223.013 342.494 222.335C342.824 221.653 343.282 221.121 343.869 220.739C344.46 220.352 345.15 220.159 345.938 220.159C346.551 220.159 347.104 220.273 347.597 220.5C348.089 220.727 348.492 221.045 348.807 221.455C349.121 221.864 349.316 222.341 349.392 222.886H348.051C347.949 222.489 347.722 222.136 347.369 221.83C347.021 221.519 346.551 221.364 345.96 221.364C345.438 221.364 344.979 221.5 344.585 221.773C344.195 222.042 343.89 222.422 343.67 222.915C343.455 223.403 343.347 223.977 343.347 224.636C343.347 225.311 343.453 225.898 343.665 226.398C343.881 226.898 344.184 227.286 344.574 227.562C344.968 227.839 345.43 227.977 345.96 227.977C346.309 227.977 346.625 227.917 346.909 227.795C347.193 227.674 347.434 227.5 347.631 227.273C347.828 227.045 347.968 226.773 348.051 226.455H349.392C349.316 226.97 349.129 227.434 348.83 227.847C348.534 228.256 348.142 228.581 347.653 228.824C347.169 229.062 346.604 229.182 345.96 229.182ZM355.83 229V227.977L359.67 223.773C360.121 223.28 360.492 222.852 360.784 222.489C361.076 222.121 361.292 221.777 361.432 221.455C361.576 221.129 361.648 220.788 361.648 220.432C361.648 220.023 361.549 219.669 361.352 219.369C361.159 219.07 360.894 218.839 360.557 218.676C360.22 218.513 359.841 218.432 359.42 218.432C358.973 218.432 358.583 218.525 358.25 218.71C357.92 218.892 357.665 219.148 357.483 219.477C357.305 219.807 357.216 220.193 357.216 220.636H355.875C355.875 219.955 356.032 219.356 356.347 218.841C356.661 218.326 357.089 217.924 357.631 217.636C358.176 217.348 358.788 217.205 359.466 217.205C360.148 217.205 360.752 217.348 361.278 217.636C361.805 217.924 362.218 218.312 362.517 218.801C362.816 219.29 362.966 219.833 362.966 220.432C362.966 220.86 362.888 221.278 362.733 221.688C362.581 222.093 362.316 222.545 361.938 223.045C361.562 223.542 361.042 224.148 360.375 224.864L357.761 227.659V227.75H363.17V229H355.83ZM369.312 229.159C368.456 229.159 367.727 228.926 367.125 228.46C366.523 227.991 366.063 227.311 365.744 226.42C365.426 225.527 365.267 224.447 365.267 223.182C365.267 221.924 365.426 220.85 365.744 219.96C366.066 219.066 366.528 218.384 367.131 217.915C367.737 217.441 368.464 217.205 369.312 217.205C370.161 217.205 370.886 217.441 371.489 217.915C372.095 218.384 372.557 219.066 372.875 219.96C373.197 220.85 373.358 221.924 373.358 223.182C373.358 224.447 373.199 225.527 372.881 226.42C372.562 227.311 372.102 227.991 371.5 228.46C370.898 228.926 370.169 229.159 369.312 229.159ZM369.312 227.909C370.161 227.909 370.82 227.5 371.29 226.682C371.759 225.864 371.994 224.697 371.994 223.182C371.994 222.174 371.886 221.316 371.67 220.608C371.458 219.9 371.152 219.36 370.75 218.989C370.352 218.617 369.873 218.432 369.312 218.432C368.472 218.432 367.814 218.847 367.341 219.676C366.867 220.502 366.631 221.67 366.631 223.182C366.631 224.189 366.737 225.045 366.949 225.75C367.161 226.455 367.466 226.991 367.864 227.358C368.265 227.725 368.748 227.909 369.312 227.909ZM375.517 229V227.977L379.358 223.773C379.809 223.28 380.18 222.852 380.472 222.489C380.763 222.121 380.979 221.777 381.119 221.455C381.263 221.129 381.335 220.788 381.335 220.432C381.335 220.023 381.237 219.669 381.04 219.369C380.847 219.07 380.581 218.839 380.244 218.676C379.907 218.513 379.528 218.432 379.108 218.432C378.661 218.432 378.271 218.525 377.938 218.71C377.608 218.892 377.352 219.148 377.17 219.477C376.992 219.807 376.903 220.193 376.903 220.636H375.562C375.562 219.955 375.72 219.356 376.034 218.841C376.348 218.326 376.777 217.924 377.318 217.636C377.864 217.348 378.475 217.205 379.153 217.205C379.835 217.205 380.439 217.348 380.966 217.636C381.492 217.924 381.905 218.312 382.205 218.801C382.504 219.29 382.653 219.833 382.653 220.432C382.653 220.86 382.576 221.278 382.42 221.688C382.269 222.093 382.004 222.545 381.625 223.045C381.25 223.542 380.729 224.148 380.062 224.864L377.449 227.659V227.75H382.858V229H375.517ZM389.136 229.159C388.386 229.159 387.718 229.03 387.131 228.773C386.547 228.515 386.083 228.157 385.739 227.699C385.398 227.237 385.212 226.701 385.182 226.091H386.614C386.644 226.466 386.773 226.79 387 227.062C387.227 227.331 387.525 227.54 387.892 227.688C388.259 227.835 388.667 227.909 389.114 227.909C389.614 227.909 390.057 227.822 390.443 227.648C390.83 227.473 391.133 227.231 391.352 226.92C391.572 226.61 391.682 226.25 391.682 225.841C391.682 225.413 391.576 225.036 391.364 224.71C391.152 224.381 390.841 224.123 390.432 223.938C390.023 223.752 389.523 223.659 388.932 223.659H388V222.409H388.932C389.394 222.409 389.799 222.326 390.148 222.159C390.5 221.992 390.775 221.758 390.972 221.455C391.172 221.152 391.273 220.795 391.273 220.386C391.273 219.992 391.186 219.65 391.011 219.358C390.837 219.066 390.591 218.839 390.273 218.676C389.958 218.513 389.587 218.432 389.159 218.432C388.758 218.432 388.379 218.506 388.023 218.653C387.67 218.797 387.383 219.008 387.159 219.284C386.936 219.557 386.814 219.886 386.795 220.273H385.432C385.455 219.663 385.638 219.129 385.983 218.67C386.328 218.208 386.778 217.848 387.335 217.591C387.896 217.333 388.511 217.205 389.182 217.205C389.902 217.205 390.519 217.35 391.034 217.642C391.549 217.93 391.945 218.311 392.222 218.784C392.498 219.258 392.636 219.769 392.636 220.318C392.636 220.973 392.464 221.532 392.119 221.994C391.778 222.456 391.314 222.777 390.727 222.955V223.045C391.462 223.167 392.036 223.479 392.449 223.983C392.862 224.483 393.068 225.102 393.068 225.841C393.068 226.473 392.896 227.042 392.551 227.545C392.21 228.045 391.744 228.439 391.153 228.727C390.563 229.015 389.89 229.159 389.136 229.159Z" fill="white"/>
<path d="M302.673 155.773V145.909H341.864V155.773H328.301V191H316.236V155.773H302.673ZM358.8 171.977V191H346.647V145.909H358.36V163.611H358.712C359.475 161.453 360.745 159.772 362.521 158.569C364.297 157.351 366.433 156.741 368.928 156.741C371.321 156.741 373.398 157.285 375.159 158.371C376.935 159.457 378.307 160.954 379.276 162.862C380.26 164.77 380.744 166.957 380.729 169.423V191H368.576V171.977C368.59 170.304 368.172 168.99 367.321 168.036C366.484 167.082 365.288 166.605 363.732 166.605C362.749 166.605 361.883 166.825 361.134 167.266C360.4 167.691 359.828 168.308 359.417 169.115C359.02 169.908 358.815 170.862 358.8 171.977ZM386.729 191V157.182H398.53V163.611H398.882C399.499 161.233 400.475 159.494 401.811 158.393C403.161 157.292 404.739 156.741 406.544 156.741C407.073 156.741 407.594 156.786 408.107 156.874C408.636 156.947 409.142 157.057 409.627 157.204V167.574C409.025 167.368 408.284 167.214 407.403 167.112C406.522 167.009 405.766 166.957 405.135 166.957C403.946 166.957 402.875 167.229 401.921 167.772C400.981 168.3 400.24 169.049 399.697 170.018C399.154 170.972 398.882 172.095 398.882 173.386V191H386.729ZM427.967 191.616C424.297 191.616 421.156 190.89 418.544 189.437C415.931 187.969 413.927 185.929 412.533 183.316C411.138 180.689 410.441 177.643 410.441 174.179C410.441 170.715 411.138 167.677 412.533 165.064C413.927 162.437 415.931 160.396 418.544 158.943C421.156 157.475 424.297 156.741 427.967 156.741C431.636 156.741 434.777 157.475 437.39 158.943C440.003 160.396 442.006 162.437 443.401 165.064C444.795 167.677 445.492 170.715 445.492 174.179C445.492 177.643 444.795 180.689 443.401 183.316C442.006 185.929 440.003 187.969 437.39 189.437C434.777 190.89 431.636 191.616 427.967 191.616ZM428.055 182.634C429.082 182.634 429.97 182.289 430.719 181.599C431.468 180.909 432.047 179.925 432.458 178.648C432.869 177.371 433.075 175.852 433.075 174.091C433.075 172.315 432.869 170.796 432.458 169.533C432.047 168.256 431.468 167.273 430.719 166.583C429.97 165.893 429.082 165.548 428.055 165.548C426.969 165.548 426.037 165.893 425.259 166.583C424.481 167.273 423.886 168.256 423.475 169.533C423.064 170.796 422.859 172.315 422.859 174.091C422.859 175.852 423.064 177.371 423.475 178.648C423.886 179.925 424.481 180.909 425.259 181.599C426.037 182.289 426.969 182.634 428.055 182.634ZM472.353 176.205V157.182H484.507V191H472.97V184.571H472.617C471.883 186.729 470.599 188.417 468.764 189.635C466.93 190.839 464.75 191.44 462.225 191.44C459.862 191.44 457.793 190.897 456.017 189.811C454.255 188.725 452.883 187.228 451.899 185.32C450.931 183.411 450.439 181.224 450.424 178.759V157.182H462.578V176.205C462.592 177.878 463.018 179.192 463.855 180.146C464.706 181.1 465.895 181.577 467.421 181.577C468.434 181.577 469.307 181.364 470.041 180.938C470.79 180.498 471.362 179.881 471.759 179.089C472.17 178.281 472.368 177.32 472.353 176.205ZM506.98 204.386C503.59 204.386 500.684 203.902 498.262 202.933C495.855 201.979 493.983 200.658 492.647 198.97C491.326 197.297 490.585 195.374 490.424 193.202H502.137C502.254 193.921 502.548 194.501 503.017 194.941C503.487 195.381 504.089 195.697 504.823 195.888C505.571 196.093 506.408 196.196 507.333 196.196C508.903 196.196 510.202 195.814 511.23 195.051C512.272 194.288 512.793 192.908 512.793 190.912V185.188H512.441C512 186.332 511.325 187.308 510.415 188.116C509.505 188.908 508.412 189.518 507.135 189.943C505.858 190.354 504.456 190.56 502.929 190.56C500.522 190.56 498.306 190.002 496.28 188.886C494.269 187.771 492.655 186.002 491.436 183.58C490.233 181.158 489.631 177.995 489.631 174.091C489.631 170.01 490.262 166.693 491.525 164.139C492.801 161.585 494.445 159.714 496.456 158.525C498.482 157.336 500.61 156.741 502.841 156.741C504.515 156.741 505.982 157.035 507.245 157.622C508.507 158.195 509.564 158.965 510.415 159.934C511.266 160.888 511.912 161.937 512.353 163.082H512.617V157.182H524.77V190.912C524.77 193.774 524.029 196.203 522.547 198.2C521.079 200.21 519.009 201.744 516.338 202.801C513.666 203.858 510.547 204.386 506.98 204.386ZM507.421 181.929C508.536 181.929 509.49 181.621 510.283 181.004C511.09 180.373 511.707 179.478 512.132 178.318C512.573 177.144 512.793 175.735 512.793 174.091C512.793 172.418 512.573 170.987 512.132 169.798C511.707 168.594 511.09 167.677 510.283 167.045C509.49 166.4 508.536 166.077 507.421 166.077C506.305 166.077 505.351 166.4 504.559 167.045C503.781 167.677 503.179 168.594 502.753 169.798C502.342 170.987 502.137 172.418 502.137 174.091C502.137 175.764 502.342 177.188 502.753 178.362C503.179 179.522 503.781 180.41 504.559 181.026C505.351 181.628 506.305 181.929 507.421 181.929ZM543.105 171.977V191H530.952V145.909H542.665V163.611H543.017C543.78 161.453 545.05 159.772 546.826 158.569C548.602 157.351 550.738 156.741 553.233 156.741C555.625 156.741 557.702 157.285 559.464 158.371C561.24 159.457 562.612 160.954 563.581 162.862C564.564 164.77 565.049 166.957 565.034 169.423V191H552.881V171.977C552.895 170.304 552.477 168.99 551.626 168.036C550.789 167.082 549.593 166.605 548.037 166.605C547.053 166.605 546.187 166.825 545.439 167.266C544.705 167.691 544.132 168.308 543.721 169.115C543.325 169.908 543.12 170.862 543.105 171.977ZM603.553 157.182V165.989H581.271V157.182H603.553ZM585.587 149.08H597.74V180.124C597.74 180.593 597.821 180.99 597.982 181.312C598.144 181.621 598.393 181.856 598.731 182.017C599.069 182.164 599.502 182.237 600.03 182.237C600.397 182.237 600.823 182.193 601.307 182.105C601.806 182.017 602.173 181.944 602.408 181.885L604.169 190.428C603.626 190.589 602.848 190.787 601.835 191.022C600.837 191.257 599.648 191.411 598.269 191.484C595.48 191.631 593.139 191.345 591.245 190.626C589.352 189.892 587.928 188.74 586.974 187.169C586.02 185.598 585.557 183.632 585.587 181.268V149.08ZM621.392 171.977V191H609.239V145.909H620.952V163.611H621.304C622.067 161.453 623.337 159.772 625.113 158.569C626.889 157.351 629.025 156.741 631.52 156.741C633.912 156.741 635.989 157.285 637.751 158.371C639.527 159.457 640.899 160.954 641.868 162.862C642.851 164.77 643.336 166.957 643.321 169.423V191H631.168V171.977C631.182 170.304 630.764 168.99 629.913 168.036C629.076 167.082 627.88 166.605 626.324 166.605C625.34 166.605 624.474 166.825 623.726 167.266C622.992 167.691 622.42 168.308 622.009 169.115C621.612 169.908 621.407 170.862 621.392 171.977ZM649.321 191V157.182H661.474V191H649.321ZM655.397 153.659C653.753 153.659 652.344 153.116 651.17 152.03C649.996 150.944 649.409 149.637 649.409 148.111C649.409 146.584 649.996 145.278 651.17 144.192C652.344 143.106 653.753 142.562 655.397 142.562C657.056 142.562 658.465 143.106 659.625 144.192C660.799 145.278 661.386 146.584 661.386 148.111C661.386 149.637 660.799 150.944 659.625 152.03C658.465 153.116 657.056 153.659 655.397 153.659ZM683.959 191.616C680.289 191.616 677.148 190.89 674.536 189.437C671.923 187.969 669.919 185.929 668.525 183.316C667.131 180.689 666.433 177.643 666.433 174.179C666.433 170.715 667.131 167.677 668.525 165.064C669.919 162.437 671.923 160.396 674.536 158.943C677.148 157.475 680.289 156.741 683.959 156.741C687.276 156.741 690.146 157.343 692.568 158.547C695.004 159.736 696.89 161.424 698.226 163.611C699.562 165.783 700.237 168.337 700.252 171.273H688.979C688.817 169.497 688.304 168.146 687.438 167.222C686.586 166.282 685.485 165.812 684.135 165.812C683.078 165.812 682.154 166.121 681.361 166.737C680.568 167.339 679.952 168.256 679.512 169.489C679.071 170.708 678.851 172.241 678.851 174.091C678.851 175.94 679.071 177.482 679.512 178.714C679.952 179.933 680.568 180.85 681.361 181.467C682.154 182.068 683.078 182.369 684.135 182.369C685.03 182.369 685.823 182.164 686.513 181.753C687.203 181.327 687.761 180.711 688.186 179.903C688.627 179.081 688.891 178.083 688.979 176.909H700.252C700.208 179.889 699.525 182.487 698.204 184.703C696.883 186.905 695.012 188.607 692.59 189.811C690.182 191.015 687.306 191.616 683.959 191.616ZM716.186 182.986L716.275 168.543H717.86L726.05 157.182H739.701L725.962 174.884H722.527L716.186 182.986ZM705.266 191V145.909H717.419V191H705.266ZM726.138 191L718.388 177.614L726.314 168.983L740.053 191H726.138ZM764.64 191.528C762.483 191.528 760.575 191.176 758.916 190.472C757.272 189.752 755.98 188.666 755.041 187.213C754.102 185.76 753.632 183.911 753.632 181.665C753.632 179.815 753.948 178.237 754.579 176.931C755.21 175.61 756.09 174.531 757.221 173.695C758.351 172.858 759.665 172.219 761.162 171.779C762.674 171.339 764.303 171.053 766.05 170.92C767.943 170.774 769.462 170.598 770.607 170.392C771.767 170.172 772.603 169.871 773.117 169.489C773.631 169.093 773.888 168.572 773.888 167.926V167.838C773.888 166.957 773.55 166.282 772.875 165.812C772.2 165.343 771.334 165.108 770.277 165.108C769.117 165.108 768.171 165.365 767.437 165.879C766.717 166.378 766.284 167.148 766.138 168.19H754.953C755.1 166.135 755.753 164.242 756.912 162.51C758.087 160.763 759.797 159.369 762.042 158.327C764.288 157.27 767.092 156.741 770.453 156.741C772.875 156.741 775.047 157.028 776.97 157.6C778.893 158.158 780.529 158.943 781.88 159.956C783.23 160.954 784.258 162.128 784.962 163.479C785.681 164.814 786.041 166.268 786.041 167.838V191H774.68V186.244H774.416C773.741 187.507 772.919 188.527 771.95 189.305C770.996 190.083 769.903 190.648 768.67 191C767.451 191.352 766.108 191.528 764.64 191.528ZM768.604 183.866C769.528 183.866 770.394 183.676 771.202 183.294C772.023 182.912 772.691 182.362 773.205 181.643C773.719 180.924 773.976 180.05 773.976 179.023V176.205C773.653 176.337 773.308 176.461 772.941 176.579C772.589 176.696 772.207 176.806 771.796 176.909C771.4 177.012 770.974 177.107 770.519 177.195C770.079 177.283 769.616 177.364 769.132 177.438C768.193 177.584 767.422 177.826 766.82 178.164C766.233 178.487 765.793 178.891 765.499 179.375C765.22 179.845 765.081 180.373 765.081 180.96C765.081 181.9 765.411 182.619 766.072 183.118C766.732 183.617 767.576 183.866 768.604 183.866ZM804.001 171.977V191H791.848V157.182H803.385V163.611H803.737C804.471 161.468 805.763 159.787 807.612 158.569C809.476 157.351 811.649 156.741 814.129 156.741C816.522 156.741 818.599 157.292 820.36 158.393C822.136 159.479 823.509 160.976 824.477 162.884C825.461 164.792 825.945 166.972 825.93 169.423V191H813.777V171.977C813.792 170.304 813.366 168.99 812.5 168.036C811.649 167.082 810.46 166.605 808.933 166.605C807.935 166.605 807.062 166.825 806.313 167.266C805.579 167.691 805.014 168.308 804.618 169.115C804.222 169.908 804.016 170.862 804.001 171.977ZM844.172 191.44C841.764 191.44 839.548 190.809 837.522 189.547C835.511 188.285 833.897 186.369 832.679 183.8C831.475 181.232 830.873 177.995 830.873 174.091C830.873 170.01 831.504 166.693 832.767 164.139C834.044 161.585 835.688 159.714 837.699 158.525C839.724 157.336 841.852 156.741 844.083 156.741C845.757 156.741 847.225 157.035 848.487 157.622C849.749 158.195 850.806 158.965 851.657 159.934C852.509 160.888 853.154 161.937 853.595 163.082H853.771V145.909H865.924V191H853.859V185.452H853.595C853.125 186.597 852.45 187.624 851.569 188.534C850.703 189.429 849.646 190.141 848.399 190.67C847.166 191.183 845.757 191.44 844.172 191.44ZM848.663 182.105C849.779 182.105 850.733 181.782 851.525 181.136C852.333 180.476 852.949 179.551 853.375 178.362C853.815 177.159 854.035 175.735 854.035 174.091C854.035 172.418 853.815 170.987 853.375 169.798C852.949 168.594 852.333 167.677 851.525 167.045C850.733 166.4 849.779 166.077 848.663 166.077C847.547 166.077 846.593 166.4 845.801 167.045C845.023 167.677 844.421 168.594 843.995 169.798C843.584 170.987 843.379 172.418 843.379 174.091C843.379 175.764 843.584 177.203 843.995 178.406C844.421 179.595 845.023 180.513 845.801 181.158C846.593 181.79 847.547 182.105 848.663 182.105ZM904.41 157.182V165.989H882.129V157.182H904.41ZM886.444 149.08H898.598V180.124C898.598 180.593 898.678 180.99 898.84 181.312C899.001 181.621 899.251 181.856 899.588 182.017C899.926 182.164 900.359 182.237 900.887 182.237C901.254 182.237 901.68 182.193 902.164 182.105C902.663 182.017 903.03 181.944 903.265 181.885L905.027 190.428C904.484 190.589 903.706 190.787 902.693 191.022C901.695 191.257 900.506 191.411 899.126 191.484C896.337 191.631 893.996 191.345 892.103 190.626C890.209 189.892 888.785 188.74 887.831 187.169C886.877 185.598 886.415 183.632 886.444 181.268V149.08ZM922.249 171.977V191H910.096V145.909H921.809V163.611H922.161C922.925 161.453 924.194 159.772 925.97 158.569C927.746 157.351 929.882 156.741 932.377 156.741C934.77 156.741 936.847 157.285 938.608 158.371C940.384 159.457 941.757 160.954 942.725 162.862C943.709 164.77 944.193 166.957 944.178 169.423V191H932.025V171.977C932.04 170.304 931.621 168.99 930.77 168.036C929.933 167.082 928.737 166.605 927.181 166.605C926.198 166.605 925.332 166.825 924.583 167.266C923.849 167.691 923.277 168.308 922.866 169.115C922.47 169.908 922.264 170.862 922.249 171.977ZM950.178 191V157.182H962.331V191H950.178ZM956.255 153.659C954.611 153.659 953.202 153.116 952.028 152.03C950.853 150.944 950.266 149.637 950.266 148.111C950.266 146.584 950.853 145.278 952.028 144.192C953.202 143.106 954.611 142.562 956.255 142.562C957.913 142.562 959.323 143.106 960.482 144.192C961.656 145.278 962.243 146.584 962.243 148.111C962.243 149.637 961.656 150.944 960.482 152.03C959.323 153.116 957.913 153.659 956.255 153.659ZM980.677 171.977V191H968.524V157.182H980.061V163.611H980.413C981.147 161.468 982.439 159.787 984.288 158.569C986.152 157.351 988.324 156.741 990.805 156.741C993.198 156.741 995.275 157.292 997.036 158.393C998.812 159.479 1000.18 160.976 1001.15 162.884C1002.14 164.792 1002.62 166.972 1002.61 169.423V191H990.453V171.977C990.467 170.304 990.042 168.99 989.176 168.036C988.324 167.082 987.136 166.605 985.609 166.605C984.611 166.605 983.738 166.825 982.989 167.266C982.255 167.691 981.69 168.308 981.294 169.115C980.897 169.908 980.692 170.862 980.677 171.977Z" fill="white"/>
</g>
<defs>
<filter id="filter0_f_158_48" x="-680" y="-338" width="2267" height="1247" filterUnits="userSpaceOnUse" color-interpolation-filters="sRGB">
<feFlood flood-opacity="0" result="BackgroundImageFix"/>
<feBlend mode="normal" in="SourceGraphic" in2="BackgroundImageFix" result="shape"/>
<feGaussianBlur stdDeviation="250" result="effect1_foregroundBlur_158_48"/>
</filter>
<linearGradient id="paint0_linear_158_48" x1="1448.5" y1="229.535" x2="1390.85" y2="-53.9909" gradientUnits="userSpaceOnUse">
<stop stop-color="#8E45FF"/>
<stop offset="0.835" stop-color="#548CFF" stop-opacity="0"/>
</linearGradient>
<linearGradient id="paint1_linear_158_48" x1="-21" y1="234.123" x2="-102.49" y2="-56.564" gradientUnits="userSpaceOnUse">
<stop stop-color="#AE85FF"/>
<stop offset="0.835" stop-color="#AD85FE" stop-opacity="0"/>
</linearGradient>
<linearGradient id="paint2_linear_158_48" x1="501.406" y1="330.517" x2="484.354" y2="-99.1053" gradientUnits="userSpaceOnUse">
<stop stop-color="#9E6EFE"/>
<stop offset="0.835" stop-color="#A070FE" stop-opacity="0"/>
</linearGradient>
<linearGradient id="paint3_linear_158_48" x1="937" y1="462.279" x2="837.648" y2="-161.518" gradientUnits="userSpaceOnUse">
<stop stop-color="#8B51FF"/>
<stop offset="0.835" stop-color="#9159FF" stop-opacity="0"/>
</linearGradient>
</defs>
</svg>
