<svg width="1440" height="345" viewBox="0 0 1440 345" fill="none" xmlns="http://www.w3.org/2000/svg">
<mask id="mask0_158_48" style="mask-type:alpha" maskUnits="userSpaceOnUse" x="0" y="0" width="1440" height="345">
<rect width="1440" height="345" fill="white"/>
</mask>
<g mask="url(#mask0_158_48)">
<rect width="1440" height="345" fill="#7762FF" fill-opacity="0.73"/>
<path d="M1223 -2H1374.34L1482.49 4.26392L1562.27 151.283L1658 261.72L1635.79 345H1498.36L1321.03 120.506L1223 -2Z" fill="url(#paint0_linear_158_48)"/>
<path d="M-173 -17H-39.4456L55.9863 -10.4653L196 95.6922L97.3297 154.242L191.269 345H69.9969L-86.4945 110.802L-173 -17Z" fill="url(#paint1_linear_158_48)"/>
<path d="M282 -2H442.587L557.335 4.26392L720 265.944L511.533 73.9504L720 345H574.181L386.015 120.506L339.696 197.148L282 -2Z" fill="url(#paint2_linear_158_48)"/>
<path d="M684 -2H867.502L998.623 4.26392L1191 106.023L946.286 73.9504L1184.5 345H1017.87L802.857 120.506L684 -2Z" fill="url(#paint3_linear_158_48)"/>
<g opacity="0.75" filter="url(#filter0_f_158_48)">
<rect x="-180" y="162" width="1267" height="247" fill="white"/>
</g>
<path d="M306.398 101H303.375L307.301 89.3636H311.045L314.972 101H311.949L309.216 92.2955H309.125L306.398 101ZM305.994 96.4205H312.312V98.5568H305.994V96.4205ZM316.761 101L314.489 92.2727H317.278L318.455 97.8636H318.528L319.79 92.2727H322.511L323.807 97.8239H323.881L325.023 92.2727H327.812L325.534 101H322.562L321.199 95.9148H321.102L319.739 101H316.761ZM331.388 101.148C330.831 101.148 330.337 101.055 329.905 100.869C329.477 100.68 329.138 100.396 328.888 100.017C328.642 99.6345 328.518 99.1553 328.518 98.5795C328.518 98.0947 328.604 97.6856 328.774 97.3523C328.945 97.0189 329.179 96.7481 329.479 96.5398C329.778 96.3314 330.123 96.1742 330.513 96.0682C330.903 95.9583 331.32 95.8845 331.763 95.8466C332.259 95.8011 332.659 95.7538 332.962 95.7045C333.265 95.6515 333.484 95.5777 333.621 95.483C333.761 95.3845 333.831 95.2462 333.831 95.0682V95.0398C333.831 94.7481 333.731 94.5227 333.53 94.3636C333.329 94.2045 333.058 94.125 332.717 94.125C332.35 94.125 332.054 94.2045 331.831 94.3636C331.607 94.5227 331.465 94.7424 331.405 95.0227L328.842 94.9318C328.918 94.4015 329.113 93.928 329.428 93.5114C329.746 93.0909 330.181 92.7614 330.734 92.5227C331.291 92.2803 331.96 92.1591 332.74 92.1591C333.297 92.1591 333.81 92.2254 334.28 92.358C334.75 92.4867 335.159 92.6761 335.507 92.9261C335.856 93.1723 336.125 93.4754 336.314 93.8352C336.507 94.1951 336.604 94.6061 336.604 95.0682V101H333.99V99.7841H333.922C333.767 100.08 333.568 100.33 333.325 100.534C333.087 100.739 332.804 100.892 332.479 100.994C332.157 101.097 331.793 101.148 331.388 101.148ZM332.246 99.3295C332.545 99.3295 332.814 99.2689 333.053 99.1477C333.295 99.0265 333.488 98.8598 333.632 98.6477C333.776 98.4318 333.848 98.1818 333.848 97.8977V97.0682C333.768 97.1098 333.672 97.1477 333.558 97.1818C333.448 97.2159 333.327 97.2481 333.195 97.2784C333.062 97.3087 332.926 97.3352 332.786 97.358C332.645 97.3807 332.511 97.4015 332.382 97.4205C332.121 97.4621 331.897 97.5265 331.712 97.6136C331.53 97.7008 331.39 97.8144 331.291 97.9545C331.196 98.0909 331.149 98.2538 331.149 98.4432C331.149 98.7311 331.251 98.9508 331.456 99.1023C331.664 99.2538 331.928 99.3295 332.246 99.3295ZM338.303 101V92.2727H341.001V93.8636H341.092C341.251 93.2879 341.511 92.8598 341.871 92.5795C342.231 92.2955 342.649 92.1534 343.126 92.1534C343.255 92.1534 343.388 92.1629 343.524 92.1818C343.661 92.197 343.787 92.2216 343.905 92.2557V94.6705C343.772 94.625 343.598 94.589 343.382 94.5625C343.17 94.536 342.981 94.5227 342.814 94.5227C342.484 94.5227 342.187 94.5966 341.922 94.7443C341.661 94.8883 341.454 95.0909 341.303 95.3523C341.155 95.6098 341.081 95.9129 341.081 96.2614V101H338.303ZM347.771 101.125C347.127 101.125 346.542 100.958 346.016 100.625C345.489 100.292 345.069 99.7917 344.754 99.125C344.44 98.4583 344.283 97.6307 344.283 96.642C344.283 95.6155 344.446 94.7708 344.771 94.108C345.097 93.4451 345.523 92.9545 346.05 92.6364C346.58 92.3182 347.15 92.1591 347.76 92.1591C348.218 92.1591 348.61 92.2386 348.936 92.3977C349.262 92.553 349.531 92.7538 349.743 93C349.955 93.2462 350.116 93.5019 350.226 93.767H350.283V89.3636H353.061V101H350.311V99.5852H350.226C350.108 99.8542 349.942 100.106 349.726 100.341C349.51 100.576 349.239 100.765 348.913 100.909C348.591 101.053 348.211 101.125 347.771 101.125ZM348.737 98.9602C349.074 98.9602 349.362 98.8655 349.601 98.6761C349.839 98.483 350.023 98.2121 350.152 97.8636C350.281 97.5152 350.345 97.1061 350.345 96.6364C350.345 96.1591 350.281 95.7481 350.152 95.4034C350.027 95.0587 349.843 94.7936 349.601 94.608C349.362 94.4223 349.074 94.3295 348.737 94.3295C348.393 94.3295 348.101 94.4242 347.862 94.6136C347.624 94.803 347.442 95.0701 347.317 95.4148C347.196 95.7595 347.135 96.1667 347.135 96.6364C347.135 97.1061 347.197 97.5152 347.322 97.8636C347.447 98.2121 347.627 98.483 347.862 98.6761C348.101 98.8655 348.393 98.9602 348.737 98.9602ZM362.438 94.9375L359.886 95.0057C359.86 94.8239 359.788 94.6629 359.67 94.5227C359.553 94.3788 359.4 94.267 359.21 94.1875C359.025 94.1042 358.809 94.0625 358.562 94.0625C358.241 94.0625 357.966 94.1269 357.739 94.2557C357.515 94.3845 357.405 94.5587 357.409 94.7784C357.405 94.9489 357.473 95.0966 357.614 95.2216C357.758 95.3466 358.013 95.447 358.381 95.5227L360.062 95.8409C360.934 96.0076 361.581 96.2841 362.006 96.6705C362.434 97.0568 362.65 97.5682 362.653 98.2045C362.65 98.803 362.472 99.3239 362.119 99.767C361.771 100.21 361.294 100.555 360.688 100.801C360.081 101.044 359.388 101.165 358.608 101.165C357.362 101.165 356.379 100.909 355.659 100.398C354.943 99.8826 354.534 99.1932 354.432 98.3295L357.176 98.2614C357.237 98.5795 357.394 98.822 357.648 98.9886C357.902 99.1553 358.225 99.2386 358.619 99.2386C358.975 99.2386 359.265 99.1723 359.489 99.0398C359.712 98.9072 359.826 98.7311 359.83 98.5114C359.826 98.3144 359.739 98.1572 359.568 98.0398C359.398 97.9186 359.131 97.8239 358.767 97.7557L357.244 97.4659C356.369 97.3068 355.718 97.0133 355.29 96.5852C354.862 96.1534 354.65 95.6042 354.653 94.9375C354.65 94.3542 354.805 93.8561 355.119 93.4432C355.434 93.0265 355.881 92.7083 356.46 92.4886C357.04 92.2689 357.723 92.1591 358.511 92.1591C359.693 92.1591 360.625 92.4072 361.307 92.9034C361.989 93.3958 362.366 94.0739 362.438 94.9375Z" fill="white"/>
<path d="M300.295 272.364V284H298.886V273.841H298.818L295.977 275.727V274.295L298.886 272.364H300.295ZM304.006 284L309.21 273.705V273.614H303.21V272.364H310.665V273.682L305.483 284H304.006ZM321.078 284H317.487V272.364H321.237C322.366 272.364 323.332 272.597 324.135 273.062C324.938 273.525 325.554 274.189 325.982 275.057C326.41 275.92 326.624 276.955 326.624 278.159C326.624 279.371 326.408 280.415 325.976 281.29C325.544 282.161 324.915 282.831 324.089 283.301C323.264 283.767 322.26 284 321.078 284ZM318.896 282.75H320.987C321.949 282.75 322.747 282.564 323.379 282.193C324.012 281.822 324.483 281.294 324.794 280.608C325.105 279.922 325.26 279.106 325.26 278.159C325.26 277.22 325.107 276.411 324.8 275.733C324.493 275.051 324.035 274.528 323.425 274.165C322.815 273.797 322.055 273.614 321.146 273.614H318.896V282.75ZM332.464 284.182C331.624 284.182 330.898 283.996 330.288 283.625C329.682 283.25 329.214 282.727 328.885 282.057C328.559 281.383 328.396 280.598 328.396 279.705C328.396 278.811 328.559 278.023 328.885 277.341C329.214 276.655 329.673 276.121 330.26 275.739C330.851 275.352 331.54 275.159 332.328 275.159C332.783 275.159 333.232 275.235 333.675 275.386C334.118 275.538 334.521 275.784 334.885 276.125C335.249 276.462 335.538 276.909 335.754 277.466C335.97 278.023 336.078 278.708 336.078 279.523V280.091H329.351V278.932H334.714C334.714 278.439 334.616 278 334.419 277.614C334.226 277.227 333.949 276.922 333.589 276.699C333.233 276.475 332.813 276.364 332.328 276.364C331.794 276.364 331.332 276.496 330.942 276.761C330.555 277.023 330.258 277.364 330.05 277.784C329.841 278.205 329.737 278.655 329.737 279.136V279.909C329.737 280.568 329.851 281.127 330.078 281.585C330.309 282.04 330.629 282.386 331.038 282.625C331.447 282.86 331.923 282.977 332.464 282.977C332.817 282.977 333.135 282.928 333.419 282.83C333.707 282.727 333.955 282.576 334.163 282.375C334.372 282.17 334.533 281.917 334.646 281.614L335.942 281.977C335.805 282.417 335.576 282.803 335.254 283.136C334.932 283.466 334.535 283.723 334.061 283.909C333.588 284.091 333.055 284.182 332.464 284.182ZM341.663 284.182C340.845 284.182 340.141 283.989 339.55 283.602C338.959 283.216 338.504 282.684 338.186 282.006C337.868 281.328 337.709 280.553 337.709 279.682C337.709 278.795 337.872 278.013 338.197 277.335C338.527 276.653 338.985 276.121 339.572 275.739C340.163 275.352 340.853 275.159 341.641 275.159C342.254 275.159 342.807 275.273 343.3 275.5C343.792 275.727 344.196 276.045 344.51 276.455C344.824 276.864 345.019 277.341 345.095 277.886H343.754C343.652 277.489 343.425 277.136 343.072 276.83C342.724 276.519 342.254 276.364 341.663 276.364C341.141 276.364 340.682 276.5 340.288 276.773C339.898 277.042 339.593 277.422 339.374 277.915C339.158 278.403 339.05 278.977 339.05 279.636C339.05 280.311 339.156 280.898 339.368 281.398C339.584 281.898 339.887 282.286 340.277 282.562C340.671 282.839 341.133 282.977 341.663 282.977C342.012 282.977 342.328 282.917 342.612 282.795C342.896 282.674 343.137 282.5 343.334 282.273C343.531 282.045 343.671 281.773 343.754 281.455H345.095C345.019 281.97 344.832 282.434 344.533 282.847C344.237 283.256 343.845 283.581 343.357 283.824C342.872 284.062 342.307 284.182 341.663 284.182ZM351.533 284V282.977L355.374 278.773C355.824 278.28 356.196 277.852 356.487 277.489C356.779 277.121 356.995 276.777 357.135 276.455C357.279 276.129 357.351 275.788 357.351 275.432C357.351 275.023 357.252 274.669 357.055 274.369C356.862 274.07 356.597 273.839 356.26 273.676C355.923 273.513 355.544 273.432 355.124 273.432C354.677 273.432 354.286 273.525 353.953 273.71C353.624 273.892 353.368 274.148 353.186 274.477C353.008 274.807 352.919 275.193 352.919 275.636H351.578C351.578 274.955 351.735 274.356 352.05 273.841C352.364 273.326 352.792 272.924 353.334 272.636C353.879 272.348 354.491 272.205 355.169 272.205C355.851 272.205 356.455 272.348 356.982 272.636C357.508 272.924 357.921 273.312 358.22 273.801C358.519 274.29 358.669 274.833 358.669 275.432C358.669 275.86 358.591 276.278 358.436 276.688C358.285 277.093 358.019 277.545 357.641 278.045C357.266 278.542 356.745 279.148 356.078 279.864L353.464 282.659V282.75H358.874V284H351.533ZM365.016 284.159C364.16 284.159 363.43 283.926 362.828 283.46C362.226 282.991 361.766 282.311 361.447 281.42C361.129 280.527 360.97 279.447 360.97 278.182C360.97 276.924 361.129 275.85 361.447 274.96C361.769 274.066 362.232 273.384 362.834 272.915C363.44 272.441 364.167 272.205 365.016 272.205C365.864 272.205 366.589 272.441 367.192 272.915C367.798 273.384 368.26 274.066 368.578 274.96C368.9 275.85 369.061 276.924 369.061 278.182C369.061 279.447 368.902 280.527 368.584 281.42C368.266 282.311 367.805 282.991 367.203 283.46C366.601 283.926 365.872 284.159 365.016 284.159ZM365.016 282.909C365.864 282.909 366.523 282.5 366.993 281.682C367.463 280.864 367.697 279.697 367.697 278.182C367.697 277.174 367.589 276.316 367.374 275.608C367.161 274.9 366.855 274.36 366.453 273.989C366.055 273.617 365.576 273.432 365.016 273.432C364.175 273.432 363.518 273.847 363.044 274.676C362.571 275.502 362.334 276.67 362.334 278.182C362.334 279.189 362.44 280.045 362.652 280.75C362.864 281.455 363.169 281.991 363.567 282.358C363.968 282.725 364.451 282.909 365.016 282.909ZM371.22 284V282.977L375.061 278.773C375.512 278.28 375.883 277.852 376.175 277.489C376.466 277.121 376.682 276.777 376.822 276.455C376.966 276.129 377.038 275.788 377.038 275.432C377.038 275.023 376.94 274.669 376.743 274.369C376.55 274.07 376.285 273.839 375.947 273.676C375.61 273.513 375.232 273.432 374.811 273.432C374.364 273.432 373.974 273.525 373.641 273.71C373.311 273.892 373.055 274.148 372.874 274.477C372.696 274.807 372.607 275.193 372.607 275.636H371.266C371.266 274.955 371.423 274.356 371.737 273.841C372.052 273.326 372.48 272.924 373.021 272.636C373.567 272.348 374.179 272.205 374.857 272.205C375.538 272.205 376.143 272.348 376.669 272.636C377.196 272.924 377.608 273.312 377.908 273.801C378.207 274.29 378.357 274.833 378.357 275.432C378.357 275.86 378.279 276.278 378.124 276.688C377.972 277.093 377.707 277.545 377.328 278.045C376.953 278.542 376.432 279.148 375.766 279.864L373.152 282.659V282.75H378.561V284H371.22ZM384.839 284.159C384.089 284.159 383.421 284.03 382.834 283.773C382.25 283.515 381.786 283.157 381.442 282.699C381.101 282.237 380.915 281.701 380.885 281.091H382.317C382.347 281.466 382.476 281.79 382.703 282.062C382.93 282.331 383.228 282.54 383.595 282.688C383.963 282.835 384.37 282.909 384.817 282.909C385.317 282.909 385.76 282.822 386.146 282.648C386.533 282.473 386.836 282.231 387.055 281.92C387.275 281.61 387.385 281.25 387.385 280.841C387.385 280.413 387.279 280.036 387.067 279.71C386.855 279.381 386.544 279.123 386.135 278.938C385.726 278.752 385.226 278.659 384.635 278.659H383.703V277.409H384.635C385.097 277.409 385.502 277.326 385.851 277.159C386.203 276.992 386.478 276.758 386.675 276.455C386.875 276.152 386.976 275.795 386.976 275.386C386.976 274.992 386.889 274.65 386.714 274.358C386.54 274.066 386.294 273.839 385.976 273.676C385.661 273.513 385.29 273.432 384.862 273.432C384.461 273.432 384.082 273.506 383.726 273.653C383.374 273.797 383.086 274.008 382.862 274.284C382.639 274.557 382.518 274.886 382.499 275.273H381.135C381.158 274.663 381.341 274.129 381.686 273.67C382.031 273.208 382.482 272.848 383.038 272.591C383.599 272.333 384.214 272.205 384.885 272.205C385.605 272.205 386.222 272.35 386.737 272.642C387.252 272.93 387.648 273.311 387.925 273.784C388.201 274.258 388.339 274.769 388.339 275.318C388.339 275.973 388.167 276.532 387.822 276.994C387.482 277.456 387.018 277.777 386.43 277.955V278.045C387.165 278.167 387.739 278.479 388.152 278.983C388.565 279.483 388.771 280.102 388.771 280.841C388.771 281.473 388.599 282.042 388.254 282.545C387.913 283.045 387.447 283.439 386.857 283.727C386.266 284.015 385.593 284.159 384.839 284.159Z" fill="white"/>
<path d="M319.619 172H306.409L321.293 126.909H338.026L352.909 172H339.699L329.835 139.327H329.483L319.619 172ZM317.153 154.21H341.989V163.369H317.153V154.21ZM357.428 172V138.182H369.229V144.611H369.581C370.198 142.233 371.174 140.494 372.51 139.393C373.86 138.292 375.438 137.741 377.243 137.741C377.772 137.741 378.293 137.786 378.807 137.874C379.335 137.947 379.841 138.057 380.326 138.204V148.574C379.724 148.368 378.983 148.214 378.102 148.112C377.221 148.009 376.465 147.957 375.834 147.957C374.645 147.957 373.574 148.229 372.62 148.772C371.68 149.3 370.939 150.049 370.396 151.018C369.853 151.972 369.581 153.095 369.581 154.386V172H357.428ZM384.311 138.182H396.464V173.145C396.464 176.11 395.84 178.429 394.593 180.102C393.36 181.776 391.628 182.957 389.397 183.647C387.166 184.337 384.56 184.682 381.581 184.682C381.14 184.682 380.737 184.674 380.37 184.66C379.988 184.645 379.57 184.623 379.115 184.594V175.611C379.408 175.64 379.665 175.662 379.885 175.677C380.091 175.692 380.304 175.699 380.524 175.699C381.977 175.699 382.968 175.471 383.496 175.016C384.039 174.576 384.311 173.864 384.311 172.881V138.182ZM390.388 134.659C388.744 134.659 387.335 134.116 386.16 133.03C384.986 131.944 384.399 130.637 384.399 129.111C384.399 127.584 384.986 126.278 386.16 125.192C387.335 124.106 388.744 123.562 390.388 123.562C392.046 123.562 393.455 124.106 394.615 125.192C395.789 126.278 396.376 127.584 396.376 129.111C396.376 130.637 395.789 131.944 394.615 133.03C393.455 134.116 392.046 134.659 390.388 134.659ZM402.657 172V138.182H414.81V172H402.657ZM408.733 134.659C407.089 134.659 405.68 134.116 404.506 133.03C403.332 131.944 402.745 130.637 402.745 129.111C402.745 127.584 403.332 126.278 404.506 125.192C405.68 124.106 407.089 123.562 408.733 123.562C410.392 123.562 411.801 124.106 412.961 125.192C414.135 126.278 414.722 127.584 414.722 129.111C414.722 130.637 414.135 131.944 412.961 133.03C411.801 134.116 410.392 134.659 408.733 134.659ZM441.17 138.182V146.989H418.889V138.182H441.17ZM423.204 130.08H435.357V161.124C435.357 161.593 435.438 161.99 435.6 162.312C435.761 162.621 436.011 162.856 436.348 163.017C436.686 163.164 437.119 163.237 437.647 163.237C438.014 163.237 438.44 163.193 438.924 163.105C439.423 163.017 439.79 162.944 440.025 162.885L441.786 171.428C441.243 171.589 440.465 171.787 439.453 172.022C438.454 172.257 437.266 172.411 435.886 172.484C433.097 172.631 430.756 172.345 428.862 171.626C426.969 170.892 425.545 169.74 424.591 168.169C423.637 166.598 423.175 164.632 423.204 162.268V130.08ZM474.773 172.616C471.104 172.616 467.963 171.89 465.35 170.437C462.737 168.969 460.734 166.929 459.339 164.316C457.945 161.689 457.248 158.643 457.248 155.179C457.248 151.715 457.945 148.677 459.339 146.064C460.734 143.437 462.737 141.396 465.35 139.943C467.963 138.475 471.104 137.741 474.773 137.741C478.091 137.741 480.96 138.343 483.382 139.547C485.819 140.736 487.705 142.424 489.04 144.611C490.376 146.783 491.051 149.337 491.066 152.273H479.793C479.632 150.497 479.118 149.146 478.252 148.222C477.401 147.282 476.3 146.812 474.95 146.812C473.893 146.812 472.968 147.121 472.175 147.737C471.383 148.339 470.766 149.256 470.326 150.489C469.886 151.708 469.665 153.241 469.665 155.091C469.665 156.94 469.886 158.482 470.326 159.714C470.766 160.933 471.383 161.85 472.175 162.467C472.968 163.068 473.893 163.369 474.95 163.369C475.845 163.369 476.638 163.164 477.327 162.753C478.017 162.327 478.575 161.711 479.001 160.903C479.441 160.081 479.705 159.083 479.793 157.909H491.066C491.022 160.889 490.339 163.487 489.018 165.703C487.697 167.905 485.826 169.607 483.404 170.811C480.997 172.015 478.12 172.616 474.773 172.616ZM508.234 126.909V172H496.08V126.909H508.234ZM523.849 172.528C521.692 172.528 519.784 172.176 518.125 171.472C516.481 170.752 515.189 169.666 514.25 168.213C513.311 166.76 512.841 164.911 512.841 162.665C512.841 160.815 513.156 159.237 513.788 157.931C514.419 156.61 515.299 155.531 516.43 154.695C517.56 153.858 518.874 153.219 520.371 152.779C521.883 152.339 523.512 152.053 525.259 151.92C527.152 151.774 528.671 151.598 529.816 151.392C530.976 151.172 531.812 150.871 532.326 150.489C532.84 150.093 533.097 149.572 533.097 148.926V148.838C533.097 147.957 532.759 147.282 532.084 146.812C531.409 146.343 530.543 146.108 529.486 146.108C528.326 146.108 527.379 146.365 526.646 146.879C525.926 147.378 525.493 148.148 525.347 149.19H514.162C514.309 147.135 514.962 145.242 516.121 143.51C517.296 141.763 519.006 140.369 521.251 139.327C523.497 138.27 526.301 137.741 529.662 137.741C532.084 137.741 534.256 138.028 536.179 138.6C538.102 139.158 539.738 139.943 541.089 140.956C542.439 141.954 543.467 143.128 544.171 144.479C544.89 145.814 545.25 147.268 545.25 148.838V172H533.889V167.244H533.625C532.95 168.507 532.128 169.527 531.159 170.305C530.205 171.083 529.112 171.648 527.879 172C526.66 172.352 525.317 172.528 523.849 172.528ZM527.812 164.866C528.737 164.866 529.603 164.676 530.411 164.294C531.232 163.912 531.9 163.362 532.414 162.643C532.928 161.924 533.185 161.05 533.185 160.023V157.205C532.862 157.337 532.517 157.461 532.15 157.579C531.798 157.696 531.416 157.806 531.005 157.909C530.609 158.012 530.183 158.107 529.728 158.195C529.288 158.283 528.825 158.364 528.341 158.438C527.402 158.584 526.631 158.826 526.029 159.164C525.442 159.487 525.002 159.891 524.708 160.375C524.429 160.845 524.29 161.373 524.29 161.96C524.29 162.9 524.62 163.619 525.281 164.118C525.941 164.617 526.785 164.866 527.812 164.866ZM551.057 172V138.182H563.21V172H551.057ZM557.134 134.659C555.49 134.659 554.081 134.116 552.906 133.03C551.732 131.944 551.145 130.637 551.145 129.111C551.145 127.584 551.732 126.278 552.906 125.192C554.081 124.106 555.49 123.562 557.134 123.562C558.792 123.562 560.201 124.106 561.361 125.192C562.535 126.278 563.122 127.584 563.122 129.111C563.122 130.637 562.535 131.944 561.361 133.03C560.201 134.116 558.792 134.659 557.134 134.659ZM569.403 172V138.182H580.94V144.611H581.292C581.996 142.497 583.2 140.824 584.903 139.591C586.605 138.358 588.631 137.741 590.979 137.741C593.357 137.741 595.405 138.373 597.122 139.635C598.839 140.883 599.874 142.541 600.227 144.611H600.579C601.151 142.541 602.37 140.883 604.234 139.635C606.098 138.373 608.285 137.741 610.795 137.741C614.039 137.741 616.666 138.784 618.677 140.868C620.702 142.952 621.715 145.726 621.715 149.19V172H609.562V152.273C609.562 150.79 609.188 149.631 608.439 148.794C607.69 147.943 606.685 147.517 605.423 147.517C604.175 147.517 603.184 147.943 602.45 148.794C601.731 149.631 601.371 150.79 601.371 152.273V172H589.746V152.273C589.746 150.79 589.372 149.631 588.624 148.794C587.875 147.943 586.87 147.517 585.607 147.517C584.771 147.517 584.051 147.708 583.45 148.089C582.848 148.471 582.378 149.022 582.04 149.741C581.718 150.445 581.556 151.289 581.556 152.273V172H569.403ZM658.621 149.19H647.437C647.378 148.5 647.136 147.906 646.71 147.407C646.284 146.908 645.734 146.526 645.059 146.262C644.398 145.983 643.664 145.844 642.857 145.844C641.815 145.844 640.92 146.035 640.171 146.416C639.422 146.798 639.055 147.341 639.07 148.045C639.055 148.545 639.268 149.007 639.709 149.433C640.164 149.858 641.037 150.188 642.329 150.423L649.198 151.656C652.662 152.287 655.238 153.352 656.926 154.849C658.629 156.331 659.487 158.32 659.502 160.815C659.487 163.223 658.768 165.314 657.344 167.09C655.935 168.852 654.005 170.217 651.554 171.185C649.117 172.139 646.336 172.616 643.209 172.616C638.043 172.616 633.999 171.56 631.078 169.446C628.172 167.332 626.55 164.544 626.212 161.08H638.278C638.439 162.151 638.967 162.98 639.863 163.567C640.773 164.14 641.918 164.426 643.297 164.426C644.413 164.426 645.33 164.235 646.05 163.854C646.783 163.472 647.158 162.929 647.172 162.224C647.158 161.579 646.835 161.065 646.204 160.683C645.587 160.302 644.618 159.993 643.297 159.759L637.309 158.702C633.859 158.1 631.276 156.955 629.559 155.267C627.841 153.579 626.99 151.407 627.005 148.75C626.99 146.402 627.607 144.413 628.854 142.783C630.117 141.139 631.915 139.892 634.248 139.04C636.597 138.174 639.378 137.741 642.593 137.741C647.481 137.741 651.334 138.754 654.152 140.78C656.985 142.805 658.474 145.609 658.621 149.19ZM696.678 138.182V146.989H674.396V138.182H696.678ZM678.712 130.08H690.865V161.124C690.865 161.593 690.946 161.99 691.107 162.312C691.269 162.621 691.518 162.856 691.856 163.017C692.194 163.164 692.627 163.237 693.155 163.237C693.522 163.237 693.948 163.193 694.432 163.105C694.931 163.017 695.298 162.944 695.533 162.885L697.294 171.428C696.751 171.589 695.973 171.787 694.96 172.022C693.962 172.257 692.773 172.411 691.394 172.484C688.605 172.631 686.264 172.345 684.37 171.626C682.477 170.892 681.053 169.74 680.099 168.169C679.145 166.598 678.682 164.632 678.712 162.268V130.08ZM714.517 152.977V172H702.364V126.909H714.077V144.611H714.429C715.192 142.453 716.462 140.772 718.238 139.569C720.014 138.351 722.15 137.741 724.645 137.741C727.037 137.741 729.114 138.285 730.876 139.371C732.652 140.457 734.024 141.954 734.993 143.862C735.976 145.77 736.461 147.957 736.446 150.423V172H724.293V152.977C724.307 151.304 723.889 149.99 723.038 149.036C722.201 148.082 721.005 147.605 719.449 147.605C718.465 147.605 717.599 147.825 716.851 148.266C716.117 148.691 715.545 149.308 715.134 150.115C714.737 150.908 714.532 151.862 714.517 152.977ZM758.65 172.616C755.039 172.616 751.928 171.927 749.315 170.547C746.717 169.152 744.713 167.156 743.304 164.558C741.91 161.946 741.213 158.819 741.213 155.179C741.213 151.686 741.917 148.633 743.326 146.02C744.735 143.407 746.724 141.374 749.293 139.921C751.862 138.468 754.893 137.741 758.386 137.741C760.94 137.741 763.252 138.138 765.321 138.93C767.391 139.723 769.16 140.875 770.627 142.387C772.095 143.884 773.225 145.704 774.018 147.847C774.811 149.99 775.207 152.405 775.207 155.091V157.909H745V151.216H764.022C764.008 150.247 763.758 149.396 763.274 148.662C762.804 147.913 762.166 147.334 761.358 146.923C760.566 146.497 759.663 146.284 758.65 146.284C757.667 146.284 756.764 146.497 755.942 146.923C755.12 147.334 754.46 147.906 753.961 148.64C753.476 149.374 753.219 150.232 753.19 151.216V158.438C753.19 159.524 753.417 160.492 753.873 161.344C754.328 162.195 754.981 162.863 755.832 163.347C756.683 163.832 757.711 164.074 758.914 164.074C759.751 164.074 760.514 163.956 761.204 163.722C761.909 163.487 762.511 163.149 763.01 162.709C763.509 162.254 763.876 161.711 764.11 161.08H775.207C774.825 163.428 773.923 165.468 772.499 167.2C771.075 168.918 769.189 170.253 766.841 171.207C764.507 172.147 761.777 172.616 758.65 172.616ZM792.342 172V126.909H811.805C815.151 126.909 818.08 127.57 820.59 128.891C823.1 130.212 825.052 132.068 826.446 134.461C827.841 136.853 828.538 139.65 828.538 142.849C828.538 146.079 827.819 148.875 826.38 151.238C824.956 153.601 822.953 155.421 820.369 156.698C817.801 157.975 814.799 158.614 811.365 158.614H799.74V149.102H808.899C810.337 149.102 811.563 148.853 812.575 148.354C813.603 147.84 814.388 147.113 814.931 146.174C815.489 145.235 815.768 144.126 815.768 142.849C815.768 141.558 815.489 140.457 814.931 139.547C814.388 138.622 813.603 137.918 812.575 137.433C811.563 136.934 810.337 136.685 808.899 136.685H804.583V172H792.342ZM845.359 126.909V172H833.205V126.909H845.359ZM860.974 172.528C858.817 172.528 856.909 172.176 855.25 171.472C853.606 170.752 852.314 169.666 851.375 168.213C850.436 166.76 849.966 164.911 849.966 162.665C849.966 160.815 850.281 159.237 850.913 157.931C851.544 156.61 852.424 155.531 853.555 154.695C854.685 153.858 855.999 153.219 857.496 152.779C859.008 152.339 860.637 152.053 862.384 151.92C864.277 151.774 865.796 151.598 866.941 151.392C868.101 151.172 868.937 150.871 869.451 150.489C869.965 150.093 870.222 149.572 870.222 148.926V148.838C870.222 147.957 869.884 147.282 869.209 146.812C868.534 146.343 867.668 146.108 866.611 146.108C865.451 146.108 864.504 146.365 863.771 146.879C863.051 147.378 862.618 148.148 862.472 149.19H851.287C851.434 147.135 852.087 145.242 853.246 143.51C854.421 141.763 856.131 140.369 858.376 139.327C860.622 138.27 863.426 137.741 866.787 137.741C869.209 137.741 871.381 138.028 873.304 138.6C875.227 139.158 876.863 139.943 878.214 140.956C879.564 141.954 880.592 143.128 881.296 144.479C882.015 145.814 882.375 147.268 882.375 148.838V172H871.014V167.244H870.75C870.075 168.507 869.253 169.527 868.284 170.305C867.33 171.083 866.237 171.648 865.004 172C863.785 172.352 862.442 172.528 860.974 172.528ZM864.938 164.866C865.862 164.866 866.728 164.676 867.536 164.294C868.357 163.912 869.025 163.362 869.539 162.643C870.053 161.924 870.31 161.05 870.31 160.023V157.205C869.987 157.337 869.642 157.461 869.275 157.579C868.923 157.696 868.541 157.806 868.13 157.909C867.734 158.012 867.308 158.107 866.853 158.195C866.413 158.283 865.95 158.364 865.466 158.438C864.527 158.584 863.756 158.826 863.154 159.164C862.567 159.487 862.127 159.891 861.833 160.375C861.554 160.845 861.415 161.373 861.415 161.96C861.415 162.9 861.745 163.619 862.406 164.118C863.066 164.617 863.91 164.866 864.938 164.866ZM894.369 184.682C892.974 184.682 891.646 184.572 890.384 184.352C889.121 184.146 888.013 183.86 887.059 183.493L889.701 174.862C890.699 175.214 891.609 175.442 892.431 175.545C893.268 175.647 893.98 175.589 894.567 175.369C895.169 175.148 895.602 174.73 895.866 174.114L896.13 173.497L884.241 138.182H896.923L902.383 161.608H902.735L908.284 138.182H921.053L908.724 174.818C908.107 176.682 907.212 178.356 906.038 179.838C904.878 181.335 903.352 182.517 901.458 183.383C899.565 184.249 897.202 184.682 894.369 184.682ZM939.685 172.616C936.075 172.616 932.963 171.927 930.35 170.547C927.752 169.152 925.749 167.156 924.339 164.558C922.945 161.946 922.248 158.819 922.248 155.179C922.248 151.686 922.952 148.633 924.362 146.02C925.771 143.407 927.759 141.374 930.328 139.921C932.897 138.468 935.928 137.741 939.421 137.741C941.975 137.741 944.287 138.138 946.357 138.93C948.426 139.723 950.195 140.875 951.663 142.387C953.13 143.884 954.261 145.704 955.053 147.847C955.846 149.99 956.242 152.405 956.242 155.091V157.909H926.035V151.216H945.058C945.043 150.247 944.793 149.396 944.309 148.662C943.839 147.913 943.201 147.334 942.393 146.923C941.601 146.497 940.698 146.284 939.685 146.284C938.702 146.284 937.799 146.497 936.977 146.923C936.155 147.334 935.495 147.906 934.996 148.64C934.511 149.374 934.254 150.232 934.225 151.216V158.438C934.225 159.524 934.453 160.492 934.908 161.344C935.363 162.195 936.016 162.863 936.867 163.347C937.719 163.832 938.746 164.074 939.95 164.074C940.786 164.074 941.549 163.956 942.239 163.722C942.944 163.487 943.546 163.149 944.045 162.709C944.544 162.254 944.911 161.711 945.146 161.08H956.242C955.861 163.428 954.958 165.468 953.534 167.2C952.11 168.918 950.224 170.253 947.876 171.207C945.542 172.147 942.812 172.616 939.685 172.616ZM961.202 172V138.182H973.003V144.611H973.355C973.971 142.233 974.948 140.494 976.283 139.393C977.634 138.292 979.211 137.741 981.017 137.741C981.545 137.741 982.066 137.786 982.58 137.874C983.108 137.947 983.615 138.057 984.099 138.204V148.574C983.497 148.368 982.756 148.214 981.876 148.112C980.995 148.009 980.239 147.957 979.608 147.957C978.419 147.957 977.347 148.229 976.393 148.772C975.454 149.3 974.713 150.049 974.17 151.018C973.626 151.972 973.355 153.095 973.355 154.386V172H961.202ZM1016.73 172.616C1013.06 172.616 1009.92 171.89 1007.31 170.437C1004.69 168.969 1002.69 166.929 1001.29 164.316C999.9 161.689 999.203 158.643 999.203 155.179C999.203 151.715 999.9 148.677 1001.29 146.064C1002.69 143.437 1004.69 141.396 1007.31 139.943C1009.92 138.475 1013.06 137.741 1016.73 137.741C1020.4 137.741 1023.54 138.475 1026.15 139.943C1028.76 141.396 1030.77 143.437 1032.16 146.064C1033.56 148.677 1034.25 151.715 1034.25 155.179C1034.25 158.643 1033.56 161.689 1032.16 164.316C1030.77 166.929 1028.76 168.969 1026.15 170.437C1023.54 171.89 1020.4 172.616 1016.73 172.616ZM1016.82 163.634C1017.84 163.634 1018.73 163.289 1019.48 162.599C1020.23 161.909 1020.81 160.925 1021.22 159.648C1021.63 158.371 1021.84 156.852 1021.84 155.091C1021.84 153.315 1021.63 151.796 1021.22 150.533C1020.81 149.256 1020.23 148.273 1019.48 147.583C1018.73 146.893 1017.84 146.548 1016.82 146.548C1015.73 146.548 1014.8 146.893 1014.02 147.583C1013.24 148.273 1012.65 149.256 1012.24 150.533C1011.83 151.796 1011.62 153.315 1011.62 155.091C1011.62 156.852 1011.83 158.371 1012.24 159.648C1012.65 160.925 1013.24 161.909 1014.02 162.599C1014.8 163.289 1015.73 163.634 1016.82 163.634ZM1059.44 138.182V146.989H1036.81V138.182H1059.44ZM1041.12 172V137.213C1041.12 134.424 1041.62 132.112 1042.62 130.278C1043.62 128.443 1045.03 127.071 1046.85 126.161C1048.67 125.25 1050.81 124.795 1053.28 124.795C1054.82 124.795 1056.32 124.913 1057.77 125.148C1059.24 125.383 1060.32 125.588 1061.03 125.764L1059.27 134.483C1058.83 134.351 1058.31 134.248 1057.72 134.175C1057.14 134.087 1056.62 134.043 1056.18 134.043C1055.04 134.043 1054.27 134.285 1053.87 134.769C1053.47 135.254 1053.28 135.892 1053.28 136.685V172H1041.12ZM1096.65 138.182V146.989H1074.37V138.182H1096.65ZM1078.68 130.08H1090.84V161.124C1090.84 161.593 1090.92 161.99 1091.08 162.312C1091.24 162.621 1091.49 162.856 1091.83 163.017C1092.17 163.164 1092.6 163.237 1093.13 163.237C1093.49 163.237 1093.92 163.193 1094.4 163.105C1094.9 163.017 1095.27 162.944 1095.51 162.885L1097.27 171.428C1096.72 171.589 1095.95 171.787 1094.93 172.022C1093.93 172.257 1092.75 172.411 1091.37 172.484C1088.58 172.631 1086.24 172.345 1084.34 171.626C1082.45 170.892 1081.03 169.74 1080.07 168.169C1079.12 166.598 1078.66 164.632 1078.68 162.268V130.08ZM1114.49 152.977V172H1102.34V126.909H1114.05V144.611H1114.4C1115.16 142.453 1116.43 140.772 1118.21 139.569C1119.99 138.351 1122.12 137.741 1124.62 137.741C1127.01 137.741 1129.09 138.285 1130.85 139.371C1132.62 140.457 1134 141.954 1134.97 143.862C1135.95 145.77 1136.43 147.957 1136.42 150.423V172H1124.27V152.977C1124.28 151.304 1123.86 149.99 1123.01 149.036C1122.17 148.082 1120.98 147.605 1119.42 147.605C1118.44 147.605 1117.57 147.825 1116.82 148.266C1116.09 148.691 1115.52 149.308 1115.11 150.115C1114.71 150.908 1114.5 151.862 1114.49 152.977ZM1158.62 172.616C1155.01 172.616 1151.9 171.927 1149.29 170.547C1146.69 169.152 1144.69 167.156 1143.28 164.558C1141.88 161.946 1141.19 158.819 1141.19 155.179C1141.19 151.686 1141.89 148.633 1143.3 146.02C1144.71 143.407 1146.7 141.374 1149.27 139.921C1151.83 138.468 1154.87 137.741 1158.36 137.741C1160.91 137.741 1163.22 138.138 1165.29 138.93C1167.36 139.723 1169.13 140.875 1170.6 142.387C1172.07 143.884 1173.2 145.704 1173.99 147.847C1174.78 149.99 1175.18 152.405 1175.18 155.091V157.909H1144.97V151.216H1164C1163.98 150.247 1163.73 149.396 1163.25 148.662C1162.78 147.913 1162.14 147.334 1161.33 146.923C1160.54 146.497 1159.64 146.284 1158.62 146.284C1157.64 146.284 1156.74 146.497 1155.91 146.923C1155.09 147.334 1154.43 147.906 1153.93 148.64C1153.45 149.374 1153.19 150.232 1153.16 151.216V158.438C1153.16 159.524 1153.39 160.492 1153.85 161.344C1154.3 162.195 1154.95 162.863 1155.8 163.347C1156.66 163.832 1157.68 164.074 1158.89 164.074C1159.72 164.074 1160.49 163.956 1161.18 163.722C1161.88 163.487 1162.48 163.149 1162.98 162.709C1163.48 162.254 1163.85 161.711 1164.08 161.08H1175.18C1174.8 163.428 1173.9 165.468 1172.47 167.2C1171.05 168.918 1169.16 170.253 1166.81 171.207C1164.48 172.147 1161.75 172.616 1158.62 172.616ZM306.673 211.773V201.909H345.864V211.773H332.301V247H320.236V211.773H306.673ZM362.035 247.616C358.366 247.616 355.225 246.89 352.612 245.437C349.999 243.969 347.996 241.929 346.601 239.316C345.207 236.689 344.51 233.643 344.51 230.179C344.51 226.715 345.207 223.677 346.601 221.064C347.996 218.437 349.999 216.396 352.612 214.943C355.225 213.475 358.366 212.741 362.035 212.741C365.705 212.741 368.846 213.475 371.458 214.943C374.071 216.396 376.075 218.437 377.469 221.064C378.864 223.677 379.561 226.715 379.561 230.179C379.561 233.643 378.864 236.689 377.469 239.316C376.075 241.929 374.071 243.969 371.458 245.437C368.846 246.89 365.705 247.616 362.035 247.616ZM362.123 238.634C363.151 238.634 364.039 238.289 364.787 237.599C365.536 236.909 366.116 235.925 366.527 234.648C366.938 233.371 367.143 231.852 367.143 230.091C367.143 228.315 366.938 226.796 366.527 225.533C366.116 224.256 365.536 223.273 364.787 222.583C364.039 221.893 363.151 221.548 362.123 221.548C361.037 221.548 360.105 221.893 359.327 222.583C358.549 223.273 357.955 224.256 357.544 225.533C357.133 226.796 356.927 228.315 356.927 230.091C356.927 231.852 357.133 233.371 357.544 234.648C357.955 235.925 358.549 236.909 359.327 237.599C360.105 238.289 361.037 238.634 362.123 238.634ZM406.422 232.205V213.182H418.575V247H407.038V240.571H406.686C405.952 242.729 404.667 244.417 402.833 245.635C400.998 246.839 398.818 247.44 396.294 247.44C393.931 247.44 391.861 246.897 390.085 245.811C388.324 244.725 386.951 243.228 385.968 241.32C384.999 239.411 384.507 237.224 384.493 234.759V213.182H396.646V232.205C396.661 233.878 397.086 235.192 397.923 236.146C398.774 237.1 399.963 237.577 401.49 237.577C402.502 237.577 403.376 237.364 404.11 236.938C404.858 236.498 405.431 235.881 405.827 235.089C406.238 234.281 406.436 233.32 406.422 232.205ZM424.756 247V213.182H436.557V219.611H436.91C437.526 217.233 438.502 215.494 439.838 214.393C441.188 213.292 442.766 212.741 444.572 212.741C445.1 212.741 445.621 212.786 446.135 212.874C446.663 212.947 447.17 213.057 447.654 213.204V223.574C447.052 223.368 446.311 223.214 445.43 223.112C444.55 223.009 443.794 222.957 443.162 222.957C441.974 222.957 440.902 223.229 439.948 223.772C439.009 224.3 438.267 225.049 437.724 226.018C437.181 226.972 436.91 228.095 436.91 229.386V247H424.756ZM463.792 227.977V247H451.639V213.182H463.176V219.611H463.528C464.262 217.468 465.554 215.787 467.403 214.569C469.267 213.351 471.44 212.741 473.92 212.741C476.313 212.741 478.39 213.292 480.151 214.393C481.927 215.479 483.3 216.976 484.268 218.884C485.252 220.792 485.736 222.972 485.721 225.423V247H473.568V227.977C473.583 226.304 473.157 224.99 472.291 224.036C471.44 223.082 470.251 222.605 468.724 222.605C467.726 222.605 466.853 222.825 466.104 223.266C465.37 223.691 464.805 224.308 464.409 225.115C464.013 225.908 463.807 226.862 463.792 227.977ZM501.144 247.528C498.987 247.528 497.079 247.176 495.42 246.472C493.776 245.752 492.484 244.666 491.545 243.213C490.606 241.76 490.136 239.911 490.136 237.665C490.136 235.815 490.451 234.237 491.083 232.931C491.714 231.61 492.594 230.531 493.725 229.695C494.855 228.858 496.169 228.219 497.666 227.779C499.177 227.339 500.807 227.053 502.553 226.92C504.447 226.774 505.966 226.598 507.111 226.392C508.271 226.172 509.107 225.871 509.621 225.489C510.135 225.093 510.392 224.572 510.392 223.926V223.838C510.392 222.957 510.054 222.282 509.379 221.812C508.704 221.343 507.838 221.108 506.781 221.108C505.621 221.108 504.674 221.365 503.941 221.879C503.221 222.378 502.788 223.148 502.642 224.19H491.457C491.604 222.135 492.257 220.242 493.416 218.51C494.591 216.763 496.301 215.369 498.546 214.327C500.792 213.27 503.596 212.741 506.957 212.741C509.379 212.741 511.551 213.028 513.474 213.6C515.397 214.158 517.033 214.943 518.384 215.956C519.734 216.954 520.762 218.128 521.466 219.479C522.185 220.814 522.545 222.268 522.545 223.838V247H511.184V242.244H510.92C510.245 243.507 509.423 244.527 508.454 245.305C507.5 246.083 506.406 246.648 505.173 247C503.955 247.352 502.612 247.528 501.144 247.528ZM505.107 239.866C506.032 239.866 506.898 239.676 507.705 239.294C508.527 238.912 509.195 238.362 509.709 237.643C510.223 236.924 510.48 236.05 510.48 235.023V232.205C510.157 232.337 509.812 232.461 509.445 232.579C509.093 232.696 508.711 232.806 508.3 232.909C507.904 233.012 507.478 233.107 507.023 233.195C506.583 233.283 506.12 233.364 505.636 233.438C504.696 233.584 503.926 233.826 503.324 234.164C502.737 234.487 502.297 234.891 502.003 235.375C501.724 235.845 501.585 236.373 501.585 236.96C501.585 237.9 501.915 238.619 502.575 239.118C503.236 239.617 504.08 239.866 505.107 239.866ZM528.352 247V213.182H539.889V219.611H540.241C540.946 217.497 542.149 215.824 543.852 214.591C545.555 213.358 547.58 212.741 549.929 212.741C552.306 212.741 554.354 213.373 556.071 214.635C557.789 215.883 558.824 217.541 559.176 219.611H559.528C560.1 217.541 561.319 215.883 563.183 214.635C565.047 213.373 567.234 212.741 569.744 212.741C572.988 212.741 575.615 213.784 577.626 215.868C579.652 217.952 580.664 220.726 580.664 224.19V247H568.511V227.273C568.511 225.79 568.137 224.631 567.388 223.794C566.64 222.943 565.634 222.517 564.372 222.517C563.124 222.517 562.133 222.943 561.4 223.794C560.68 224.631 560.321 225.79 560.321 227.273V247H548.696V227.273C548.696 225.79 548.321 224.631 547.573 223.794C546.824 222.943 545.819 222.517 544.556 222.517C543.72 222.517 543.001 222.708 542.399 223.089C541.797 223.471 541.327 224.022 540.99 224.741C540.667 225.445 540.505 226.289 540.505 227.273V247H528.352ZM602.863 247.616C599.252 247.616 596.141 246.927 593.528 245.547C590.93 244.152 588.926 242.156 587.517 239.558C586.123 236.946 585.426 233.819 585.426 230.179C585.426 226.686 586.13 223.633 587.539 221.02C588.948 218.407 590.937 216.374 593.506 214.921C596.075 213.468 599.106 212.741 602.599 212.741C605.153 212.741 607.465 213.138 609.534 213.93C611.604 214.723 613.373 215.875 614.84 217.387C616.308 218.884 617.438 220.704 618.231 222.847C619.024 224.99 619.42 227.405 619.42 230.091V232.909H589.213V226.216H608.235C608.221 225.247 607.971 224.396 607.487 223.662C607.017 222.913 606.378 222.334 605.571 221.923C604.779 221.497 603.876 221.284 602.863 221.284C601.88 221.284 600.977 221.497 600.155 221.923C599.333 222.334 598.673 222.906 598.173 223.64C597.689 224.374 597.432 225.232 597.403 226.216V233.438C597.403 234.524 597.63 235.492 598.085 236.344C598.54 237.195 599.194 237.863 600.045 238.347C600.896 238.832 601.924 239.074 603.127 239.074C603.964 239.074 604.727 238.956 605.417 238.722C606.122 238.487 606.723 238.149 607.222 237.709C607.722 237.254 608.088 236.711 608.323 236.08H619.42C619.038 238.428 618.136 240.468 616.712 242.2C615.288 243.918 613.402 245.253 611.053 246.207C608.72 247.147 605.99 247.616 602.863 247.616ZM636.533 227.977V247H624.379V213.182H635.916V219.611H636.268C637.002 217.468 638.294 215.787 640.143 214.569C642.008 213.351 644.18 212.741 646.661 212.741C649.053 212.741 651.13 213.292 652.891 214.393C654.667 215.479 656.04 216.976 657.009 218.884C657.992 220.792 658.476 222.972 658.462 225.423V247H646.308V227.977C646.323 226.304 645.897 224.99 645.031 224.036C644.18 223.082 642.991 222.605 641.464 222.605C640.466 222.605 639.593 222.825 638.844 223.266C638.111 223.691 637.545 224.308 637.149 225.115C636.753 225.908 636.547 226.862 636.533 227.977ZM684.629 213.182V221.989H662.348V213.182H684.629ZM666.663 205.08H678.816V236.124C678.816 236.593 678.897 236.99 679.059 237.312C679.22 237.621 679.47 237.856 679.807 238.017C680.145 238.164 680.578 238.237 681.106 238.237C681.473 238.237 681.899 238.193 682.383 238.105C682.882 238.017 683.249 237.944 683.484 237.885L685.245 246.428C684.702 246.589 683.924 246.787 682.912 247.022C681.913 247.257 680.725 247.411 679.345 247.484C676.556 247.631 674.215 247.345 672.321 246.626C670.428 245.892 669.004 244.74 668.05 243.169C667.096 241.598 666.634 239.632 666.663 237.268V205.08ZM713.477 247H700.267L715.15 201.909H731.883L746.767 247H733.556L723.693 214.327H723.34L713.477 247ZM711.011 229.21H735.846V238.369H711.011V229.21ZM753.036 247L744.581 213.182H756.735L760.61 233.79H760.874L765.189 213.182H776.99L781.482 233.614H781.746L785.445 213.182H797.598L789.144 247H776.022L771.266 228.858H770.914L766.158 247H753.036ZM810.721 247.528C808.563 247.528 806.655 247.176 804.996 246.472C803.352 245.752 802.06 244.666 801.121 243.213C800.182 241.76 799.712 239.911 799.712 237.665C799.712 235.815 800.028 234.237 800.659 232.931C801.29 231.61 802.171 230.531 803.301 229.695C804.431 228.858 805.745 228.219 807.242 227.779C808.754 227.339 810.383 227.053 812.13 226.92C814.023 226.774 815.542 226.598 816.687 226.392C817.847 226.172 818.683 225.871 819.197 225.489C819.711 225.093 819.968 224.572 819.968 223.926V223.838C819.968 222.957 819.63 222.282 818.955 221.812C818.28 221.343 817.414 221.108 816.357 221.108C815.197 221.108 814.251 221.365 813.517 221.879C812.797 222.378 812.364 223.148 812.218 224.19H801.033C801.18 222.135 801.833 220.242 802.993 218.51C804.167 216.763 805.877 215.369 808.123 214.327C810.368 213.27 813.172 212.741 816.533 212.741C818.955 212.741 821.127 213.028 823.05 213.6C824.973 214.158 826.609 214.943 827.96 215.956C829.31 216.954 830.338 218.128 831.042 219.479C831.761 220.814 832.121 222.268 832.121 223.838V247H820.76V242.244H820.496C819.821 243.507 818.999 244.527 818.03 245.305C817.076 246.083 815.983 246.648 814.75 247C813.531 247.352 812.188 247.528 810.721 247.528ZM814.684 239.866C815.608 239.866 816.474 239.676 817.282 239.294C818.104 238.912 818.771 238.362 819.285 237.643C819.799 236.924 820.056 236.05 820.056 235.023V232.205C819.733 232.337 819.388 232.461 819.021 232.579C818.669 232.696 818.287 232.806 817.876 232.909C817.48 233.012 817.054 233.107 816.599 233.195C816.159 233.283 815.696 233.364 815.212 233.438C814.273 233.584 813.502 233.826 812.9 234.164C812.313 234.487 811.873 234.891 811.579 235.375C811.3 235.845 811.161 236.373 811.161 236.96C811.161 237.9 811.491 238.619 812.152 239.118C812.812 239.617 813.656 239.866 814.684 239.866ZM837.928 247V213.182H849.729V219.611H850.081C850.698 217.233 851.674 215.494 853.01 214.393C854.36 213.292 855.938 212.741 857.743 212.741C858.272 212.741 858.793 212.786 859.307 212.874C859.835 212.947 860.341 213.057 860.826 213.204V223.574C860.224 223.368 859.483 223.214 858.602 223.112C857.721 223.009 856.965 222.957 856.334 222.957C855.145 222.957 854.074 223.229 853.12 223.772C852.18 224.3 851.439 225.049 850.896 226.018C850.353 226.972 850.081 228.095 850.081 229.386V247H837.928ZM875.115 247.44C872.708 247.44 870.491 246.809 868.466 245.547C866.455 244.285 864.84 242.369 863.622 239.8C862.418 237.232 861.817 233.995 861.817 230.091C861.817 226.01 862.448 222.693 863.71 220.139C864.987 217.585 866.631 215.714 868.642 214.525C870.667 213.336 872.796 212.741 875.027 212.741C876.7 212.741 878.168 213.035 879.43 213.622C880.693 214.195 881.749 214.965 882.601 215.934C883.452 216.888 884.098 217.937 884.538 219.082H884.714V201.909H896.868V247H884.802V241.452H884.538C884.068 242.597 883.393 243.624 882.513 244.534C881.647 245.429 880.59 246.141 879.342 246.67C878.109 247.183 876.7 247.44 875.115 247.44ZM879.606 238.105C880.722 238.105 881.676 237.782 882.469 237.136C883.276 236.476 883.892 235.551 884.318 234.362C884.758 233.159 884.979 231.735 884.979 230.091C884.979 228.418 884.758 226.987 884.318 225.798C883.892 224.594 883.276 223.677 882.469 223.045C881.676 222.4 880.722 222.077 879.606 222.077C878.491 222.077 877.537 222.4 876.744 223.045C875.966 223.677 875.364 224.594 874.939 225.798C874.528 226.987 874.322 228.418 874.322 230.091C874.322 231.764 874.528 233.203 874.939 234.406C875.364 235.595 875.966 236.513 876.744 237.158C877.537 237.79 878.491 238.105 879.606 238.105Z" fill="white"/>
</g>
<defs>
<filter id="filter0_f_158_48" x="-680" y="-338" width="2267" height="1247" filterUnits="userSpaceOnUse" color-interpolation-filters="sRGB">
<feFlood flood-opacity="0" result="BackgroundImageFix"/>
<feBlend mode="normal" in="SourceGraphic" in2="BackgroundImageFix" result="shape"/>
<feGaussianBlur stdDeviation="250" result="effect1_foregroundBlur_158_48"/>
</filter>
<linearGradient id="paint0_linear_158_48" x1="1448.5" y1="229.535" x2="1390.85" y2="-53.9909" gradientUnits="userSpaceOnUse">
<stop stop-color="#8E45FF"/>
<stop offset="0.835" stop-color="#548CFF" stop-opacity="0"/>
</linearGradient>
<linearGradient id="paint1_linear_158_48" x1="-21" y1="234.123" x2="-102.49" y2="-56.564" gradientUnits="userSpaceOnUse">
<stop stop-color="#AE85FF"/>
<stop offset="0.835" stop-color="#AD85FE" stop-opacity="0"/>
</linearGradient>
<linearGradient id="paint2_linear_158_48" x1="501.406" y1="330.517" x2="484.354" y2="-99.1053" gradientUnits="userSpaceOnUse">
<stop stop-color="#9E6EFE"/>
<stop offset="0.835" stop-color="#A070FE" stop-opacity="0"/>
</linearGradient>
<linearGradient id="paint3_linear_158_48" x1="937" y1="462.279" x2="837.648" y2="-161.518" gradientUnits="userSpaceOnUse">
<stop stop-color="#8B51FF"/>
<stop offset="0.835" stop-color="#9159FF" stop-opacity="0"/>
</linearGradient>
</defs>
</svg>
