<svg width="1440" height="345" viewBox="0 0 1440 345" fill="none" xmlns="http://www.w3.org/2000/svg">
<mask id="mask0_158_48" style="mask-type:alpha" maskUnits="userSpaceOnUse" x="0" y="0" width="1440" height="345">
<rect width="1440" height="345" fill="white"/>
</mask>
<g mask="url(#mask0_158_48)">
<rect width="1440" height="345" fill="#7762FF" fill-opacity="0.73"/>
<path d="M1223 -2H1374.34L1482.49 4.26392L1562.27 151.283L1658 261.72L1635.79 345H1498.36L1321.03 120.506L1223 -2Z" fill="url(#paint0_linear_158_48)"/>
<path d="M-173 -17H-39.4456L55.9863 -10.4653L196 95.6922L97.3297 154.242L191.269 345H69.9969L-86.4945 110.802L-173 -17Z" fill="url(#paint1_linear_158_48)"/>
<path d="M282 -2H442.587L557.335 4.26392L720 265.944L511.533 73.9504L720 345H574.181L386.015 120.506L339.696 197.148L282 -2Z" fill="url(#paint2_linear_158_48)"/>
<path d="M684 -2H867.502L998.623 4.26392L1191 106.023L946.286 73.9504L1184.5 345H1017.87L802.857 120.506L684 -2Z" fill="url(#paint3_linear_158_48)"/>
<g opacity="0.75" filter="url(#filter0_f_158_48)">
<rect x="-180" y="162" width="1267" height="247" fill="white"/>
</g>
<path d="M304.881 82V70.3636H312.824V72.6477H307.693V75.0341H312.318V77.3239H307.693V82H304.881ZM317.679 82.1648C316.766 82.1648 315.978 81.9848 315.315 81.625C314.656 81.2614 314.149 80.7443 313.793 80.0739C313.44 79.3996 313.264 78.5985 313.264 77.6705C313.264 76.7689 313.442 75.9811 313.798 75.3068C314.154 74.6288 314.656 74.1023 315.304 73.7273C315.952 73.3485 316.715 73.1591 317.594 73.1591C318.215 73.1591 318.783 73.2557 319.298 73.4489C319.813 73.642 320.259 73.928 320.634 74.3068C321.009 74.6856 321.3 75.1534 321.509 75.7102C321.717 76.2633 321.821 76.8977 321.821 77.6136V78.3068H314.236V76.6932H319.236C319.232 76.3977 319.162 76.1345 319.026 75.9034C318.889 75.6723 318.702 75.4924 318.463 75.3636C318.228 75.2311 317.957 75.1648 317.651 75.1648C317.34 75.1648 317.062 75.2348 316.815 75.375C316.569 75.5114 316.374 75.6989 316.23 75.9375C316.086 76.1723 316.01 76.4394 316.003 76.7386V78.3807C316.003 78.7367 316.073 79.0492 316.213 79.3182C316.353 79.5833 316.552 79.7898 316.81 79.9375C317.067 80.0852 317.374 80.1591 317.73 80.1591C317.976 80.1591 318.2 80.125 318.401 80.0568C318.601 79.9886 318.774 79.8883 318.918 79.7557C319.062 79.6231 319.17 79.4602 319.241 79.267L321.793 79.3409C321.687 79.9129 321.454 80.411 321.094 80.8352C320.738 81.2557 320.27 81.5833 319.69 81.8182C319.111 82.0492 318.44 82.1648 317.679 82.1648ZM325.7 82.1477C325.143 82.1477 324.649 82.0549 324.217 81.8693C323.789 81.6799 323.45 81.3958 323.2 81.017C322.954 80.6345 322.831 80.1553 322.831 79.5795C322.831 79.0947 322.916 78.6856 323.087 78.3523C323.257 78.0189 323.492 77.7481 323.791 77.5398C324.09 77.3314 324.435 77.1742 324.825 77.0682C325.215 76.9583 325.632 76.8845 326.075 76.8466C326.571 76.8011 326.971 76.7538 327.274 76.7045C327.577 76.6515 327.797 76.5777 327.933 76.483C328.073 76.3845 328.143 76.2462 328.143 76.0682V76.0398C328.143 75.7481 328.043 75.5227 327.842 75.3636C327.642 75.2045 327.371 75.125 327.03 75.125C326.662 75.125 326.367 75.2045 326.143 75.3636C325.92 75.5227 325.778 75.7424 325.717 76.0227L323.155 75.9318C323.231 75.4015 323.426 74.928 323.74 74.5114C324.058 74.0909 324.494 73.7614 325.047 73.5227C325.604 73.2803 326.272 73.1591 327.053 73.1591C327.609 73.1591 328.123 73.2254 328.592 73.358C329.062 73.4867 329.471 73.6761 329.82 73.9261C330.168 74.1723 330.437 74.4754 330.626 74.8352C330.82 75.1951 330.916 75.6061 330.916 76.0682V82H328.303V80.7841H328.234C328.079 81.0795 327.88 81.3295 327.638 81.5341C327.399 81.7386 327.117 81.892 326.791 81.9943C326.469 82.0966 326.106 82.1477 325.7 82.1477ZM326.558 80.3295C326.857 80.3295 327.126 80.2689 327.365 80.1477C327.607 80.0265 327.801 79.8598 327.945 79.6477C328.089 79.4318 328.161 79.1818 328.161 78.8977V78.0682C328.081 78.1098 327.984 78.1477 327.871 78.1818C327.761 78.2159 327.64 78.2481 327.507 78.2784C327.375 78.3087 327.238 78.3352 327.098 78.358C326.958 78.3807 326.823 78.4015 326.695 78.4205C326.433 78.4621 326.21 78.5265 326.024 78.6136C325.842 78.7008 325.702 78.8144 325.604 78.9545C325.509 79.0909 325.462 79.2538 325.462 79.4432C325.462 79.7311 325.564 79.9508 325.768 80.1023C325.977 80.2538 326.24 80.3295 326.558 80.3295ZM337.541 73.2727V75.3182H332.036V73.2727H337.541ZM333.189 71.1818H335.967V79.2557C335.967 79.4261 335.994 79.5644 336.047 79.6705C336.104 79.7727 336.185 79.8466 336.291 79.892C336.397 79.9337 336.524 79.9545 336.672 79.9545C336.778 79.9545 336.89 79.9451 337.007 79.9261C337.128 79.9034 337.219 79.8845 337.28 79.8693L337.7 81.875C337.568 81.9129 337.38 81.9602 337.138 82.017C336.899 82.0739 336.613 82.1098 336.28 82.125C335.628 82.1553 335.07 82.0795 334.604 81.8977C334.142 81.7121 333.787 81.4242 333.541 81.0341C333.299 80.6439 333.181 80.1534 333.189 79.5625V71.1818ZM344.589 78.233V73.2727H347.362V82H344.714V80.375H344.624C344.43 80.9091 344.101 81.3333 343.635 81.6477C343.173 81.9583 342.614 82.1136 341.959 82.1136C341.364 82.1136 340.841 81.9773 340.391 81.7045C339.94 81.4318 339.589 81.0511 339.339 80.5625C339.089 80.0701 338.963 79.4943 338.959 78.8352V73.2727H341.737V78.2898C341.741 78.7633 341.866 79.1364 342.112 79.4091C342.358 79.6818 342.694 79.8182 343.118 79.8182C343.394 79.8182 343.643 79.7576 343.862 79.6364C344.086 79.5114 344.262 79.3314 344.391 79.0966C344.523 78.858 344.589 78.5701 344.589 78.233ZM349.131 82V73.2727H351.83V74.8636H351.92C352.08 74.2879 352.339 73.8598 352.699 73.5795C353.059 73.2955 353.477 73.1534 353.955 73.1534C354.083 73.1534 354.216 73.1629 354.352 73.1818C354.489 73.197 354.616 73.2216 354.733 73.2557V75.6705C354.6 75.625 354.426 75.589 354.21 75.5625C353.998 75.536 353.809 75.5227 353.642 75.5227C353.313 75.5227 353.015 75.5966 352.75 75.7443C352.489 75.8883 352.282 76.0909 352.131 76.3523C351.983 76.6098 351.909 76.9129 351.909 77.2614V82H349.131ZM359.491 82.1648C358.579 82.1648 357.791 81.9848 357.128 81.625C356.469 81.2614 355.961 80.7443 355.605 80.0739C355.253 79.3996 355.077 78.5985 355.077 77.6705C355.077 76.7689 355.255 75.9811 355.611 75.3068C355.967 74.6288 356.469 74.1023 357.116 73.7273C357.764 73.3485 358.527 73.1591 359.406 73.1591C360.027 73.1591 360.596 73.2557 361.111 73.4489C361.626 73.642 362.071 73.928 362.446 74.3068C362.821 74.6856 363.113 75.1534 363.321 75.7102C363.529 76.2633 363.634 76.8977 363.634 77.6136V78.3068H356.048V76.6932H361.048C361.045 76.3977 360.974 76.1345 360.838 75.9034C360.702 75.6723 360.514 75.4924 360.276 75.3636C360.041 75.2311 359.77 75.1648 359.463 75.1648C359.152 75.1648 358.874 75.2348 358.628 75.375C358.382 75.5114 358.187 75.6989 358.043 75.9375C357.899 76.1723 357.823 76.4394 357.815 76.7386V78.3807C357.815 78.7367 357.885 79.0492 358.026 79.3182C358.166 79.5833 358.365 79.7898 358.622 79.9375C358.88 80.0852 359.187 80.1591 359.543 80.1591C359.789 80.1591 360.012 80.125 360.213 80.0568C360.414 79.9886 360.586 79.8883 360.73 79.7557C360.874 79.6231 360.982 79.4602 361.054 79.267L363.605 79.3409C363.499 79.9129 363.266 80.411 362.906 80.8352C362.55 81.2557 362.082 81.5833 361.503 81.8182C360.923 82.0492 360.253 82.1648 359.491 82.1648Z" fill="white"/>
<path d="M302.295 253.364V265H300.886V254.841H300.818L297.977 256.727V255.295L300.886 253.364H302.295ZM306.006 265L311.21 254.705V254.614H305.21V253.364H312.665V254.682L307.483 265H306.006ZM323.078 265H319.487V253.364H323.237C324.366 253.364 325.332 253.597 326.135 254.062C326.938 254.525 327.554 255.189 327.982 256.057C328.41 256.92 328.624 257.955 328.624 259.159C328.624 260.371 328.408 261.415 327.976 262.29C327.544 263.161 326.915 263.831 326.089 264.301C325.264 264.767 324.26 265 323.078 265ZM320.896 263.75H322.987C323.949 263.75 324.747 263.564 325.379 263.193C326.012 262.822 326.483 262.294 326.794 261.608C327.105 260.922 327.26 260.106 327.26 259.159C327.26 258.22 327.107 257.411 326.8 256.733C326.493 256.051 326.035 255.528 325.425 255.165C324.815 254.797 324.055 254.614 323.146 254.614H320.896V263.75ZM334.464 265.182C333.624 265.182 332.898 264.996 332.288 264.625C331.682 264.25 331.214 263.727 330.885 263.057C330.559 262.383 330.396 261.598 330.396 260.705C330.396 259.811 330.559 259.023 330.885 258.341C331.214 257.655 331.673 257.121 332.26 256.739C332.851 256.352 333.54 256.159 334.328 256.159C334.783 256.159 335.232 256.235 335.675 256.386C336.118 256.538 336.521 256.784 336.885 257.125C337.249 257.462 337.538 257.909 337.754 258.466C337.97 259.023 338.078 259.708 338.078 260.523V261.091H331.351V259.932H336.714C336.714 259.439 336.616 259 336.419 258.614C336.226 258.227 335.949 257.922 335.589 257.699C335.233 257.475 334.813 257.364 334.328 257.364C333.794 257.364 333.332 257.496 332.942 257.761C332.555 258.023 332.258 258.364 332.05 258.784C331.841 259.205 331.737 259.655 331.737 260.136V260.909C331.737 261.568 331.851 262.127 332.078 262.585C332.309 263.04 332.629 263.386 333.038 263.625C333.447 263.86 333.923 263.977 334.464 263.977C334.817 263.977 335.135 263.928 335.419 263.83C335.707 263.727 335.955 263.576 336.163 263.375C336.372 263.17 336.533 262.917 336.646 262.614L337.942 262.977C337.805 263.417 337.576 263.803 337.254 264.136C336.932 264.466 336.535 264.723 336.061 264.909C335.588 265.091 335.055 265.182 334.464 265.182ZM343.663 265.182C342.845 265.182 342.141 264.989 341.55 264.602C340.959 264.216 340.504 263.684 340.186 263.006C339.868 262.328 339.709 261.553 339.709 260.682C339.709 259.795 339.872 259.013 340.197 258.335C340.527 257.653 340.985 257.121 341.572 256.739C342.163 256.352 342.853 256.159 343.641 256.159C344.254 256.159 344.807 256.273 345.3 256.5C345.792 256.727 346.196 257.045 346.51 257.455C346.824 257.864 347.019 258.341 347.095 258.886H345.754C345.652 258.489 345.425 258.136 345.072 257.83C344.724 257.519 344.254 257.364 343.663 257.364C343.141 257.364 342.682 257.5 342.288 257.773C341.898 258.042 341.593 258.422 341.374 258.915C341.158 259.403 341.05 259.977 341.05 260.636C341.05 261.311 341.156 261.898 341.368 262.398C341.584 262.898 341.887 263.286 342.277 263.562C342.671 263.839 343.133 263.977 343.663 263.977C344.012 263.977 344.328 263.917 344.612 263.795C344.896 263.674 345.137 263.5 345.334 263.273C345.531 263.045 345.671 262.773 345.754 262.455H347.095C347.019 262.97 346.832 263.434 346.533 263.847C346.237 264.256 345.845 264.581 345.357 264.824C344.872 265.062 344.307 265.182 343.663 265.182ZM353.533 265V263.977L357.374 259.773C357.824 259.28 358.196 258.852 358.487 258.489C358.779 258.121 358.995 257.777 359.135 257.455C359.279 257.129 359.351 256.788 359.351 256.432C359.351 256.023 359.252 255.669 359.055 255.369C358.862 255.07 358.597 254.839 358.26 254.676C357.923 254.513 357.544 254.432 357.124 254.432C356.677 254.432 356.286 254.525 355.953 254.71C355.624 254.892 355.368 255.148 355.186 255.477C355.008 255.807 354.919 256.193 354.919 256.636H353.578C353.578 255.955 353.735 255.356 354.05 254.841C354.364 254.326 354.792 253.924 355.334 253.636C355.879 253.348 356.491 253.205 357.169 253.205C357.851 253.205 358.455 253.348 358.982 253.636C359.508 253.924 359.921 254.312 360.22 254.801C360.519 255.29 360.669 255.833 360.669 256.432C360.669 256.86 360.591 257.278 360.436 257.688C360.285 258.093 360.019 258.545 359.641 259.045C359.266 259.542 358.745 260.148 358.078 260.864L355.464 263.659V263.75H360.874V265H353.533ZM367.016 265.159C366.16 265.159 365.43 264.926 364.828 264.46C364.226 263.991 363.766 263.311 363.447 262.42C363.129 261.527 362.97 260.447 362.97 259.182C362.97 257.924 363.129 256.85 363.447 255.96C363.769 255.066 364.232 254.384 364.834 253.915C365.44 253.441 366.167 253.205 367.016 253.205C367.864 253.205 368.589 253.441 369.192 253.915C369.798 254.384 370.26 255.066 370.578 255.96C370.9 256.85 371.061 257.924 371.061 259.182C371.061 260.447 370.902 261.527 370.584 262.42C370.266 263.311 369.805 263.991 369.203 264.46C368.601 264.926 367.872 265.159 367.016 265.159ZM367.016 263.909C367.864 263.909 368.523 263.5 368.993 262.682C369.463 261.864 369.697 260.697 369.697 259.182C369.697 258.174 369.589 257.316 369.374 256.608C369.161 255.9 368.855 255.36 368.453 254.989C368.055 254.617 367.576 254.432 367.016 254.432C366.175 254.432 365.518 254.847 365.044 255.676C364.571 256.502 364.334 257.67 364.334 259.182C364.334 260.189 364.44 261.045 364.652 261.75C364.864 262.455 365.169 262.991 365.567 263.358C365.968 263.725 366.451 263.909 367.016 263.909ZM373.22 265V263.977L377.061 259.773C377.512 259.28 377.883 258.852 378.175 258.489C378.466 258.121 378.682 257.777 378.822 257.455C378.966 257.129 379.038 256.788 379.038 256.432C379.038 256.023 378.94 255.669 378.743 255.369C378.55 255.07 378.285 254.839 377.947 254.676C377.61 254.513 377.232 254.432 376.811 254.432C376.364 254.432 375.974 254.525 375.641 254.71C375.311 254.892 375.055 255.148 374.874 255.477C374.696 255.807 374.607 256.193 374.607 256.636H373.266C373.266 255.955 373.423 255.356 373.737 254.841C374.052 254.326 374.48 253.924 375.021 253.636C375.567 253.348 376.179 253.205 376.857 253.205C377.538 253.205 378.143 253.348 378.669 253.636C379.196 253.924 379.608 254.312 379.908 254.801C380.207 255.29 380.357 255.833 380.357 256.432C380.357 256.86 380.279 257.278 380.124 257.688C379.972 258.093 379.707 258.545 379.328 259.045C378.953 259.542 378.432 260.148 377.766 260.864L375.152 263.659V263.75H380.561V265H373.22ZM386.839 265.159C386.089 265.159 385.421 265.03 384.834 264.773C384.25 264.515 383.786 264.157 383.442 263.699C383.101 263.237 382.915 262.701 382.885 262.091H384.317C384.347 262.466 384.476 262.79 384.703 263.062C384.93 263.331 385.228 263.54 385.595 263.688C385.963 263.835 386.37 263.909 386.817 263.909C387.317 263.909 387.76 263.822 388.146 263.648C388.533 263.473 388.836 263.231 389.055 262.92C389.275 262.61 389.385 262.25 389.385 261.841C389.385 261.413 389.279 261.036 389.067 260.71C388.855 260.381 388.544 260.123 388.135 259.938C387.726 259.752 387.226 259.659 386.635 259.659H385.703V258.409H386.635C387.097 258.409 387.502 258.326 387.851 258.159C388.203 257.992 388.478 257.758 388.675 257.455C388.875 257.152 388.976 256.795 388.976 256.386C388.976 255.992 388.889 255.65 388.714 255.358C388.54 255.066 388.294 254.839 387.976 254.676C387.661 254.513 387.29 254.432 386.862 254.432C386.461 254.432 386.082 254.506 385.726 254.653C385.374 254.797 385.086 255.008 384.862 255.284C384.639 255.557 384.518 255.886 384.499 256.273H383.135C383.158 255.663 383.341 255.129 383.686 254.67C384.031 254.208 384.482 253.848 385.038 253.591C385.599 253.333 386.214 253.205 386.885 253.205C387.605 253.205 388.222 253.35 388.737 253.642C389.252 253.93 389.648 254.311 389.925 254.784C390.201 255.258 390.339 255.769 390.339 256.318C390.339 256.973 390.167 257.532 389.822 257.994C389.482 258.456 389.018 258.777 388.43 258.955V259.045C389.165 259.167 389.739 259.479 390.152 259.983C390.565 260.483 390.771 261.102 390.771 261.841C390.771 262.473 390.599 263.042 390.254 263.545C389.913 264.045 389.447 264.439 388.857 264.727C388.266 265.015 387.593 265.159 386.839 265.159Z" fill="white"/>
<path d="M303.906 153V107.909H336.403V117.773H316.148V125.523H334.73V135.386H316.148V143.136H336.315V153H303.906ZM354.804 133.977V153H342.651V119.182H354.188V125.611H354.54C355.274 123.468 356.566 121.787 358.415 120.569C360.279 119.351 362.451 118.741 364.932 118.741C367.325 118.741 369.401 119.292 371.163 120.393C372.939 121.479 374.311 122.976 375.28 124.884C376.263 126.792 376.748 128.972 376.733 131.423V153H364.58V133.977C364.594 132.304 364.169 130.99 363.303 130.036C362.451 129.082 361.262 128.605 359.736 128.605C358.738 128.605 357.865 128.825 357.116 129.266C356.382 129.691 355.817 130.308 355.421 131.115C355.024 131.908 354.819 132.862 354.804 133.977ZM402.9 119.182V127.989H380.619V119.182H402.9ZM384.934 111.08H397.088V142.124C397.088 142.593 397.169 142.99 397.33 143.312C397.492 143.621 397.741 143.856 398.079 144.017C398.416 144.164 398.849 144.237 399.378 144.237C399.745 144.237 400.17 144.193 400.655 144.105C401.154 144.017 401.521 143.944 401.756 143.885L403.517 152.428C402.974 152.589 402.196 152.787 401.183 153.022C400.185 153.257 398.996 153.411 397.616 153.484C394.827 153.631 392.486 153.345 390.593 152.626C388.699 151.892 387.276 150.74 386.322 149.169C385.367 147.598 384.905 145.632 384.934 143.268V111.08ZM420.74 133.977V153H408.586V107.909H420.299V125.611H420.652C421.415 123.453 422.685 121.772 424.461 120.569C426.237 119.351 428.372 118.741 430.868 118.741C433.26 118.741 435.337 119.285 437.098 120.371C438.874 121.457 440.247 122.954 441.216 124.862C442.199 126.77 442.683 128.957 442.669 131.423V153H430.515V133.977C430.53 132.304 430.112 130.99 429.26 130.036C428.424 129.082 427.227 128.605 425.672 128.605C424.688 128.605 423.822 128.825 423.074 129.266C422.34 129.691 421.767 130.308 421.356 131.115C420.96 131.908 420.754 132.862 420.74 133.977ZM448.668 153V119.182H460.469V125.611H460.822C461.438 123.233 462.414 121.494 463.75 120.393C465.1 119.292 466.678 118.741 468.484 118.741C469.012 118.741 469.533 118.786 470.047 118.874C470.575 118.947 471.082 119.057 471.566 119.204V129.574C470.964 129.368 470.223 129.214 469.342 129.112C468.462 129.009 467.706 128.957 467.075 128.957C465.886 128.957 464.814 129.229 463.86 129.772C462.921 130.3 462.179 131.049 461.636 132.018C461.093 132.972 460.822 134.095 460.822 135.386V153H448.668ZM483.4 153.528C481.243 153.528 479.334 153.176 477.676 152.472C476.032 151.752 474.74 150.666 473.801 149.213C472.861 147.76 472.392 145.911 472.392 143.665C472.392 141.815 472.707 140.237 473.338 138.931C473.97 137.61 474.85 136.531 475.98 135.695C477.111 134.858 478.424 134.219 479.922 133.779C481.433 133.339 483.063 133.053 484.809 132.92C486.703 132.774 488.222 132.598 489.367 132.392C490.526 132.172 491.363 131.871 491.877 131.489C492.391 131.093 492.647 130.572 492.647 129.926V129.838C492.647 128.957 492.31 128.282 491.635 127.812C490.959 127.343 490.093 127.108 489.037 127.108C487.877 127.108 486.93 127.365 486.196 127.879C485.477 128.378 485.044 129.148 484.897 130.19H473.713C473.859 128.135 474.513 126.242 475.672 124.51C476.846 122.763 478.556 121.369 480.802 120.327C483.048 119.27 485.851 118.741 489.213 118.741C491.635 118.741 493.807 119.028 495.73 119.6C497.653 120.158 499.289 120.943 500.64 121.956C501.99 122.954 503.017 124.128 503.722 125.479C504.441 126.814 504.801 128.268 504.801 129.838V153H493.44V148.244H493.176C492.501 149.507 491.679 150.527 490.71 151.305C489.756 152.083 488.662 152.648 487.429 153C486.211 153.352 484.868 153.528 483.4 153.528ZM487.363 145.866C488.288 145.866 489.154 145.676 489.961 145.294C490.783 144.912 491.451 144.362 491.965 143.643C492.479 142.924 492.735 142.05 492.735 141.023V138.205C492.413 138.337 492.068 138.461 491.701 138.579C491.348 138.696 490.967 138.806 490.556 138.909C490.159 139.012 489.734 139.107 489.279 139.195C488.838 139.283 488.376 139.364 487.892 139.438C486.952 139.584 486.182 139.826 485.58 140.164C484.993 140.487 484.552 140.891 484.259 141.375C483.98 141.845 483.841 142.373 483.841 142.96C483.841 143.9 484.171 144.619 484.831 145.118C485.492 145.617 486.336 145.866 487.363 145.866ZM522.761 107.909V153H510.608V107.909H522.761ZM541.107 107.909V153H528.953V107.909H541.107ZM547.299 153V119.182H559.453V153H547.299ZM553.376 115.659C551.732 115.659 550.323 115.116 549.149 114.03C547.974 112.944 547.387 111.637 547.387 110.111C547.387 108.584 547.974 107.278 549.149 106.192C550.323 105.106 551.732 104.562 553.376 104.562C555.035 104.562 556.444 105.106 557.603 106.192C558.777 107.278 559.365 108.584 559.365 110.111C559.365 111.637 558.777 112.944 557.603 114.03C556.444 115.116 555.035 115.659 553.376 115.659ZM577.798 133.977V153H565.645V119.182H577.182V125.611H577.534C578.268 123.468 579.56 121.787 581.409 120.569C583.273 119.351 585.446 118.741 587.926 118.741C590.319 118.741 592.396 119.292 594.157 120.393C595.933 121.479 597.305 122.976 598.274 124.884C599.258 126.792 599.742 128.972 599.727 131.423V153H587.574V133.977C587.589 132.304 587.163 130.99 586.297 130.036C585.446 129.082 584.257 128.605 582.73 128.605C581.732 128.605 580.859 128.825 580.11 129.266C579.376 129.691 578.811 130.308 578.415 131.115C578.018 131.908 577.813 132.862 577.798 133.977ZM622.02 166.386C618.629 166.386 615.723 165.902 613.301 164.933C610.894 163.979 609.022 162.658 607.686 160.97C606.365 159.297 605.624 157.374 605.463 155.202H617.176C617.293 155.921 617.587 156.501 618.056 156.941C618.526 157.381 619.128 157.697 619.862 157.888C620.61 158.093 621.447 158.196 622.372 158.196C623.942 158.196 625.241 157.814 626.269 157.051C627.311 156.288 627.832 154.908 627.832 152.912V147.188H627.48C627.039 148.332 626.364 149.308 625.454 150.116C624.544 150.908 623.451 151.518 622.174 151.943C620.897 152.354 619.495 152.56 617.968 152.56C615.561 152.56 613.345 152.002 611.319 150.886C609.308 149.771 607.694 148.002 606.475 145.58C605.272 143.158 604.67 139.995 604.67 136.091C604.67 132.01 605.301 128.693 606.564 126.139C607.841 123.585 609.484 121.714 611.495 120.525C613.521 119.336 615.649 118.741 617.88 118.741C619.554 118.741 621.021 119.035 622.284 119.622C623.546 120.195 624.603 120.965 625.454 121.934C626.306 122.888 626.951 123.937 627.392 125.082H627.656V119.182H639.809V152.912C639.809 155.774 639.068 158.203 637.586 160.2C636.118 162.21 634.048 163.744 631.377 164.801C628.705 165.858 625.586 166.386 622.02 166.386ZM622.46 143.929C623.575 143.929 624.529 143.621 625.322 143.004C626.129 142.373 626.746 141.478 627.172 140.318C627.612 139.144 627.832 137.735 627.832 136.091C627.832 134.418 627.612 132.987 627.172 131.798C626.746 130.594 626.129 129.677 625.322 129.045C624.529 128.4 623.575 128.077 622.46 128.077C621.344 128.077 620.39 128.4 619.598 129.045C618.82 129.677 618.218 130.594 617.792 131.798C617.381 132.987 617.176 134.418 617.176 136.091C617.176 137.764 617.381 139.188 617.792 140.362C618.218 141.522 618.82 142.41 619.598 143.026C620.39 143.628 621.344 143.929 622.46 143.929ZM660.081 107.909L658.937 138.909H648.897L647.752 107.909H660.081ZM653.917 153.705C652.214 153.705 650.754 153.11 649.535 151.921C648.332 150.718 647.737 149.257 647.752 147.54C647.737 145.866 648.332 144.435 649.535 143.246C650.754 142.058 652.214 141.463 653.917 141.463C655.531 141.463 656.955 142.058 658.188 143.246C659.436 144.435 660.067 145.866 660.081 147.54C660.067 148.685 659.766 149.727 659.179 150.666C658.606 151.591 657.858 152.332 656.933 152.89C656.008 153.433 655.003 153.705 653.917 153.705ZM719.219 107.909V153H709.003L692.711 129.31H692.447V153H680.205V107.909H690.597L706.626 131.511H706.978V107.909H719.219ZM725.01 153V107.909H756.714V117.773H737.251V125.523H754.777V135.386H737.251V153H725.01ZM803.313 124.818H790.896C790.808 123.791 790.573 122.859 790.191 122.022C789.824 121.185 789.311 120.466 788.65 119.864C788.004 119.248 787.219 118.778 786.294 118.455C785.369 118.118 784.32 117.949 783.146 117.949C781.091 117.949 779.352 118.448 777.928 119.446C776.519 120.444 775.447 121.875 774.713 123.739C773.994 125.603 773.634 127.842 773.634 130.455C773.634 133.214 774.001 135.526 774.735 137.39C775.484 139.239 776.563 140.634 777.972 141.573C779.381 142.498 781.076 142.96 783.058 142.96C784.188 142.96 785.201 142.821 786.096 142.542C786.991 142.248 787.769 141.83 788.43 141.287C789.09 140.744 789.626 140.091 790.037 139.327C790.463 138.549 790.749 137.676 790.896 136.707L803.313 136.795C803.167 138.704 802.631 140.648 801.706 142.63C800.781 144.597 799.468 146.417 797.765 148.09C796.077 149.749 793.985 151.085 791.49 152.097C788.995 153.11 786.096 153.616 782.794 153.616C778.654 153.616 774.941 152.728 771.653 150.952C768.38 149.176 765.789 146.564 763.881 143.114C761.987 139.665 761.041 135.445 761.041 130.455C761.041 125.435 762.009 121.207 763.947 117.773C765.884 114.323 768.497 111.718 771.785 109.957C775.073 108.181 778.742 107.293 782.794 107.293C785.641 107.293 788.261 107.682 790.654 108.46C793.046 109.237 795.145 110.375 796.95 111.872C798.756 113.355 800.209 115.182 801.31 117.354C802.411 119.527 803.079 122.015 803.313 124.818ZM830.818 153.528C828.661 153.528 826.752 153.176 825.094 152.472C823.45 151.752 822.158 150.666 821.219 149.213C820.279 147.76 819.81 145.911 819.81 143.665C819.81 141.815 820.125 140.237 820.756 138.931C821.388 137.61 822.268 136.531 823.398 135.695C824.529 134.858 825.842 134.219 827.339 133.779C828.851 133.339 830.481 133.053 832.227 132.92C834.121 132.774 835.64 132.598 836.785 132.392C837.944 132.172 838.781 131.871 839.295 131.489C839.808 131.093 840.065 130.572 840.065 129.926V129.838C840.065 128.957 839.728 128.282 839.053 127.812C838.377 127.343 837.511 127.108 836.455 127.108C835.295 127.108 834.348 127.365 833.614 127.879C832.895 128.378 832.462 129.148 832.315 130.19H821.131C821.277 128.135 821.931 126.242 823.09 124.51C824.264 122.763 825.974 121.369 828.22 120.327C830.466 119.27 833.269 118.741 836.631 118.741C839.053 118.741 841.225 119.028 843.148 119.6C845.071 120.158 846.707 120.943 848.058 121.956C849.408 122.954 850.435 124.128 851.14 125.479C851.859 126.814 852.219 128.268 852.219 129.838V153H840.858V148.244H840.594C839.919 149.507 839.097 150.527 838.128 151.305C837.174 152.083 836.08 152.648 834.847 153C833.629 153.352 832.286 153.528 830.818 153.528ZM834.781 145.866C835.706 145.866 836.572 145.676 837.379 145.294C838.201 144.912 838.869 144.362 839.383 143.643C839.897 142.924 840.153 142.05 840.153 141.023V138.205C839.83 138.337 839.486 138.461 839.119 138.579C838.766 138.696 838.385 138.806 837.974 138.909C837.577 139.012 837.152 139.107 836.697 139.195C836.256 139.283 835.794 139.364 835.31 139.438C834.37 139.584 833.6 139.826 832.998 140.164C832.411 140.487 831.97 140.891 831.677 141.375C831.398 141.845 831.259 142.373 831.259 142.96C831.259 143.9 831.589 144.619 832.249 145.118C832.91 145.617 833.754 145.866 834.781 145.866ZM858.026 153V119.182H869.827V125.611H870.179C870.796 123.233 871.772 121.494 873.107 120.393C874.458 119.292 876.036 118.741 877.841 118.741C878.369 118.741 878.891 118.786 879.404 118.874C879.933 118.947 880.439 119.057 880.923 119.204V129.574C880.322 129.368 879.58 129.214 878.7 129.112C877.819 129.009 877.063 128.957 876.432 128.957C875.243 128.957 874.172 129.229 873.218 129.772C872.278 130.3 871.537 131.049 870.994 132.018C870.451 132.972 870.179 134.095 870.179 135.386V153H858.026ZM899.176 153.616C895.565 153.616 892.453 152.927 889.84 151.547C887.242 150.152 885.239 148.156 883.83 145.558C882.435 142.946 881.738 139.819 881.738 136.179C881.738 132.686 882.443 129.633 883.852 127.02C885.261 124.407 887.25 122.374 889.818 120.921C892.387 119.468 895.418 118.741 898.911 118.741C901.465 118.741 903.777 119.138 905.847 119.93C907.916 120.723 909.685 121.875 911.153 123.387C912.621 124.884 913.751 126.704 914.544 128.847C915.336 130.99 915.732 133.405 915.732 136.091V138.909H885.525V132.216H904.548C904.533 131.247 904.284 130.396 903.799 129.662C903.329 128.913 902.691 128.334 901.884 127.923C901.091 127.497 900.188 127.284 899.176 127.284C898.192 127.284 897.289 127.497 896.468 127.923C895.646 128.334 894.985 128.906 894.486 129.64C894.002 130.374 893.745 131.232 893.715 132.216V139.438C893.715 140.524 893.943 141.492 894.398 142.344C894.853 143.195 895.506 143.863 896.357 144.347C897.209 144.832 898.236 145.074 899.44 145.074C900.276 145.074 901.04 144.956 901.73 144.722C902.434 144.487 903.036 144.149 903.535 143.709C904.034 143.254 904.401 142.711 904.636 142.08H915.732C915.351 144.428 914.448 146.468 913.024 148.2C911.601 149.918 909.714 151.253 907.366 152.207C905.032 153.147 902.302 153.616 899.176 153.616ZM962.15 122.793C961.959 122.015 961.658 121.332 961.247 120.745C960.836 120.143 960.322 119.637 959.706 119.226C959.104 118.8 958.4 118.485 957.592 118.279C956.8 118.059 955.926 117.949 954.972 117.949C952.917 117.949 951.163 118.441 949.71 119.424C948.272 120.407 947.171 121.824 946.408 123.673C945.659 125.523 945.285 127.754 945.285 130.366C945.285 133.009 945.644 135.269 946.364 137.148C947.083 139.027 948.154 140.465 949.578 141.463C951.002 142.461 952.771 142.96 954.884 142.96C956.748 142.96 958.297 142.689 959.53 142.146C960.777 141.603 961.71 140.832 962.326 139.834C962.942 138.836 963.251 137.661 963.251 136.311L965.364 136.531H955.06V127.812H975.052V134.065C975.052 138.175 974.179 141.691 972.432 144.612C970.7 147.518 968.307 149.749 965.254 151.305C962.216 152.846 958.73 153.616 954.796 153.616C950.407 153.616 946.554 152.684 943.237 150.82C939.92 148.956 937.329 146.299 935.465 142.85C933.616 139.401 932.691 135.298 932.691 130.543C932.691 126.814 933.256 123.512 934.386 120.635C935.531 117.758 937.116 115.329 939.142 113.347C941.168 111.351 943.509 109.847 946.165 108.834C948.822 107.806 951.67 107.293 954.708 107.293C957.379 107.293 959.86 107.674 962.15 108.438C964.454 109.186 966.487 110.258 968.249 111.652C970.025 113.032 971.456 114.668 972.542 116.562C973.628 118.455 974.289 120.532 974.523 122.793H962.15ZM980.76 153V107.909H993.001V125.523H1009.21V107.909H1021.45V153H1009.21V135.386H993.001V153H980.76ZM1044.61 153H1027.26V107.909H1044.43C1049.07 107.909 1053.08 108.812 1056.45 110.617C1059.84 112.408 1062.46 114.991 1064.29 118.367C1066.14 121.728 1067.07 125.758 1067.07 130.455C1067.07 135.152 1066.15 139.188 1064.31 142.564C1062.48 145.925 1059.88 148.509 1056.52 150.314C1053.16 152.105 1049.19 153 1044.61 153ZM1039.5 142.608H1044.17C1046.4 142.608 1048.3 142.248 1049.87 141.529C1051.46 140.81 1052.66 139.57 1053.48 137.808C1054.32 136.047 1054.74 133.596 1054.74 130.455C1054.74 127.313 1054.31 124.862 1053.46 123.101C1052.62 121.339 1051.39 120.099 1049.76 119.38C1048.15 118.661 1046.17 118.301 1043.82 118.301H1039.5V142.608ZM1072.73 153V107.909H1084.97V143.136H1103.2V153H1072.73ZM303.994 228V219.193L320.815 205.278C321.931 204.354 322.885 203.488 323.678 202.68C324.485 201.858 325.101 201.014 325.527 200.148C325.967 199.282 326.188 198.321 326.188 197.264C326.188 196.105 325.938 195.114 325.439 194.292C324.955 193.47 324.279 192.839 323.413 192.398C322.547 191.943 321.549 191.716 320.419 191.716C319.289 191.716 318.291 191.943 317.425 192.398C316.573 192.853 315.913 193.521 315.443 194.402C314.973 195.283 314.739 196.354 314.739 197.616H303.114C303.114 194.446 303.826 191.716 305.249 189.426C306.673 187.136 308.684 185.375 311.282 184.142C313.88 182.909 316.926 182.293 320.419 182.293C324.03 182.293 327.156 182.872 329.798 184.032C332.455 185.177 334.503 186.791 335.941 188.876C337.394 190.96 338.121 193.404 338.121 196.207C338.121 197.939 337.761 199.664 337.042 201.381C336.323 203.084 335.031 204.97 333.167 207.04C331.303 209.109 328.653 211.575 325.219 214.438L320.991 217.96V218.224H338.605V228H303.994ZM361.69 228.616C358.138 228.616 354.982 228.007 352.223 226.789C349.478 225.556 347.32 223.861 345.75 221.703C344.179 219.545 343.386 217.065 343.372 214.261H355.701C355.716 215.127 355.98 215.905 356.494 216.595C357.022 217.27 357.742 217.799 358.652 218.18C359.562 218.562 360.604 218.753 361.778 218.753C362.908 218.753 363.906 218.555 364.772 218.158C365.638 217.747 366.314 217.182 366.798 216.463C367.282 215.744 367.517 214.922 367.502 213.997C367.517 213.087 367.238 212.28 366.666 211.575C366.108 210.871 365.323 210.32 364.31 209.924C363.297 209.528 362.13 209.33 360.809 209.33H356.23V200.875H360.809C362.028 200.875 363.099 200.677 364.024 200.281C364.963 199.884 365.69 199.334 366.203 198.629C366.732 197.925 366.989 197.117 366.974 196.207C366.989 195.327 366.776 194.549 366.336 193.874C365.895 193.198 365.279 192.67 364.486 192.288C363.708 191.907 362.806 191.716 361.778 191.716C360.663 191.716 359.664 191.914 358.784 192.31C357.918 192.707 357.235 193.257 356.736 193.962C356.237 194.666 355.98 195.473 355.966 196.384H344.252C344.267 193.624 345.023 191.187 346.52 189.074C348.032 186.96 350.102 185.302 352.729 184.098C355.356 182.894 358.373 182.293 361.778 182.293C365.11 182.293 368.053 182.858 370.607 183.988C373.176 185.118 375.179 186.674 376.618 188.656C378.071 190.622 378.79 192.875 378.775 195.415C378.805 197.939 377.939 200.009 376.177 201.624C374.431 203.238 372.214 204.192 369.528 204.486V204.838C373.168 205.234 375.906 206.35 377.74 208.185C379.575 210.005 380.478 212.295 380.449 215.054C380.463 217.696 379.671 220.037 378.071 222.077C376.485 224.118 374.276 225.718 371.444 226.877C368.625 228.037 365.374 228.616 361.69 228.616ZM408.107 180.795L393.576 234.781H383.272L397.803 180.795H408.107ZM411.465 228V219.193L428.286 205.278C429.402 204.354 430.356 203.488 431.148 202.68C431.956 201.858 432.572 201.014 432.998 200.148C433.438 199.282 433.658 198.321 433.658 197.264C433.658 196.105 433.409 195.114 432.91 194.292C432.425 193.47 431.75 192.839 430.884 192.398C430.018 191.943 429.02 191.716 427.89 191.716C426.76 191.716 425.761 191.943 424.895 192.398C424.044 192.853 423.384 193.521 422.914 194.402C422.444 195.283 422.209 196.354 422.209 197.616H410.584C410.584 194.446 411.296 191.716 412.72 189.426C414.144 187.136 416.155 185.375 418.753 184.142C421.351 182.909 424.396 182.293 427.89 182.293C431.501 182.293 434.627 182.872 437.269 184.032C439.926 185.177 441.973 186.791 443.412 188.876C444.865 190.96 445.591 193.404 445.591 196.207C445.591 197.939 445.232 199.664 444.513 201.381C443.793 203.084 442.502 204.97 440.638 207.04C438.773 209.109 436.124 211.575 432.689 214.438L428.462 217.96V218.224H446.076V228H411.465ZM450.138 220.955V211.443L468.28 182.909H476.911V195.591H471.979L462.203 211.091V211.443H488.976V220.955H450.138ZM472.067 228V218.048L472.331 213.909V182.909H483.78V228H472.067ZM522.844 228.616C519.174 228.616 516.033 227.89 513.42 226.437C510.808 224.969 508.804 222.929 507.41 220.316C506.015 217.689 505.318 214.643 505.318 211.179C505.318 207.715 506.015 204.677 507.41 202.064C508.804 199.437 510.808 197.396 513.42 195.943C516.033 194.475 519.174 193.741 522.844 193.741C526.161 193.741 529.031 194.343 531.452 195.547C533.889 196.736 535.775 198.424 537.111 200.611C538.446 202.783 539.122 205.337 539.136 208.273H527.864C527.702 206.497 527.188 205.146 526.322 204.222C525.471 203.282 524.37 202.812 523.02 202.812C521.963 202.812 521.038 203.121 520.246 203.737C519.453 204.339 518.837 205.256 518.396 206.489C517.956 207.708 517.736 209.241 517.736 211.091C517.736 212.94 517.956 214.482 518.396 215.714C518.837 216.933 519.453 217.85 520.246 218.467C521.038 219.068 521.963 219.369 523.02 219.369C523.915 219.369 524.708 219.164 525.398 218.753C526.088 218.327 526.645 217.711 527.071 216.903C527.511 216.081 527.776 215.083 527.864 213.909H539.136C539.092 216.889 538.41 219.487 537.089 221.703C535.768 223.905 533.896 225.607 531.474 226.811C529.067 228.015 526.19 228.616 522.844 228.616ZM556.304 208.977V228H544.151V182.909H555.864V200.611H556.216C556.979 198.453 558.249 196.772 560.025 195.569C561.801 194.351 563.937 193.741 566.432 193.741C568.825 193.741 570.901 194.285 572.663 195.371C574.439 196.457 575.811 197.954 576.78 199.862C577.763 201.77 578.248 203.957 578.233 206.423V228H566.08V208.977C566.094 207.304 565.676 205.99 564.825 205.036C563.988 204.082 562.792 203.605 561.236 203.605C560.253 203.605 559.387 203.825 558.638 204.266C557.904 204.691 557.332 205.308 556.921 206.115C556.524 206.908 556.319 207.862 556.304 208.977ZM593.656 228.528C591.498 228.528 589.59 228.176 587.932 227.472C586.288 226.752 584.996 225.666 584.057 224.213C583.117 222.76 582.648 220.911 582.648 218.665C582.648 216.815 582.963 215.237 583.594 213.931C584.225 212.61 585.106 211.531 586.236 210.695C587.367 209.858 588.68 209.219 590.177 208.779C591.689 208.339 593.318 208.053 595.065 207.92C596.959 207.774 598.478 207.598 599.623 207.392C600.782 207.172 601.619 206.871 602.133 206.489C602.646 206.093 602.903 205.572 602.903 204.926V204.838C602.903 203.957 602.566 203.282 601.89 202.812C601.215 202.343 600.349 202.108 599.292 202.108C598.133 202.108 597.186 202.365 596.452 202.879C595.733 203.378 595.3 204.148 595.153 205.19H583.969C584.115 203.135 584.769 201.242 585.928 199.51C587.102 197.763 588.812 196.369 591.058 195.327C593.304 194.27 596.107 193.741 599.469 193.741C601.89 193.741 604.063 194.028 605.986 194.6C607.908 195.158 609.545 195.943 610.895 196.956C612.246 197.954 613.273 199.128 613.978 200.479C614.697 201.814 615.057 203.268 615.057 204.838V228H603.696V223.244H603.432C602.756 224.507 601.934 225.527 600.966 226.305C600.012 227.083 598.918 227.648 597.685 228C596.467 228.352 595.124 228.528 593.656 228.528ZM597.619 220.866C598.544 220.866 599.41 220.676 600.217 220.294C601.039 219.912 601.707 219.362 602.221 218.643C602.734 217.924 602.991 217.05 602.991 216.023V213.205C602.668 213.337 602.323 213.461 601.956 213.579C601.604 213.696 601.223 213.806 600.812 213.909C600.415 214.012 599.99 214.107 599.535 214.195C599.094 214.283 598.632 214.364 598.148 214.438C597.208 214.584 596.438 214.826 595.836 215.164C595.249 215.487 594.808 215.891 594.515 216.375C594.236 216.845 594.096 217.373 594.096 217.96C594.096 218.9 594.427 219.619 595.087 220.118C595.748 220.617 596.592 220.866 597.619 220.866ZM620.864 228V194.182H632.401V200.611H632.753C633.457 198.497 634.661 196.824 636.364 195.591C638.066 194.358 640.092 193.741 642.44 193.741C644.818 193.741 646.866 194.373 648.583 195.635C650.3 196.883 651.335 198.541 651.688 200.611H652.04C652.612 198.541 653.83 196.883 655.695 195.635C657.559 194.373 659.746 193.741 662.256 193.741C665.5 193.741 668.127 194.784 670.138 196.868C672.163 198.952 673.176 201.726 673.176 205.19V228H661.023V208.273C661.023 206.79 660.648 205.631 659.9 204.794C659.151 203.943 658.146 203.517 656.884 203.517C655.636 203.517 654.645 203.943 653.911 204.794C653.192 205.631 652.832 206.79 652.832 208.273V228H641.207V208.273C641.207 206.79 640.833 205.631 640.085 204.794C639.336 203.943 638.33 203.517 637.068 203.517C636.232 203.517 635.512 203.708 634.911 204.089C634.309 204.471 633.839 205.022 633.501 205.741C633.179 206.445 633.017 207.289 633.017 208.273V228H620.864ZM679.17 240.682V194.182H691.236V200.082H691.5C691.94 198.937 692.586 197.888 693.437 196.934C694.289 195.965 695.345 195.195 696.608 194.622C697.87 194.035 699.338 193.741 701.011 193.741C703.242 193.741 705.363 194.336 707.374 195.525C709.4 196.714 711.044 198.585 712.306 201.139C713.583 203.693 714.221 207.01 714.221 211.091C714.221 214.995 713.612 218.232 712.394 220.8C711.19 223.369 709.576 225.285 707.55 226.547C705.539 227.809 703.33 228.44 700.923 228.44C699.338 228.44 697.921 228.183 696.674 227.67C695.441 227.141 694.384 226.429 693.503 225.534C692.637 224.624 691.97 223.597 691.5 222.452H691.324V240.682H679.17ZM691.059 211.091C691.059 212.735 691.272 214.159 691.698 215.362C692.138 216.551 692.755 217.476 693.547 218.136C694.355 218.782 695.316 219.105 696.432 219.105C697.547 219.105 698.494 218.79 699.272 218.158C700.064 217.513 700.666 216.595 701.077 215.406C701.503 214.203 701.716 212.764 701.716 211.091C701.716 209.418 701.503 207.987 701.077 206.798C700.666 205.594 700.064 204.677 699.272 204.045C698.494 203.4 697.547 203.077 696.432 203.077C695.316 203.077 694.355 203.4 693.547 204.045C692.755 204.677 692.138 205.594 691.698 206.798C691.272 207.987 691.059 209.418 691.059 211.091ZM719.313 228V194.182H731.466V228H719.313ZM725.39 190.659C723.746 190.659 722.337 190.116 721.162 189.03C719.988 187.944 719.401 186.637 719.401 185.111C719.401 183.584 719.988 182.278 721.162 181.192C722.337 180.106 723.746 179.562 725.39 179.562C727.048 179.562 728.457 180.106 729.617 181.192C730.791 182.278 731.378 183.584 731.378 185.111C731.378 186.637 730.791 187.944 729.617 189.03C728.457 190.116 727.048 190.659 725.39 190.659ZM753.951 228.616C750.282 228.616 747.141 227.89 744.528 226.437C741.915 224.969 739.912 222.929 738.517 220.316C737.123 217.689 736.426 214.643 736.426 211.179C736.426 207.715 737.123 204.677 738.517 202.064C739.912 199.437 741.915 197.396 744.528 195.943C747.141 194.475 750.282 193.741 753.951 193.741C757.621 193.741 760.762 194.475 763.374 195.943C765.987 197.396 767.991 199.437 769.385 202.064C770.78 204.677 771.477 207.715 771.477 211.179C771.477 214.643 770.78 217.689 769.385 220.316C767.991 222.929 765.987 224.969 763.374 226.437C760.762 227.89 757.621 228.616 753.951 228.616ZM754.039 219.634C755.067 219.634 755.955 219.289 756.703 218.599C757.452 217.909 758.032 216.925 758.443 215.648C758.854 214.371 759.059 212.852 759.059 211.091C759.059 209.315 758.854 207.796 758.443 206.533C758.032 205.256 757.452 204.273 756.703 203.583C755.955 202.893 755.067 202.548 754.039 202.548C752.953 202.548 752.021 202.893 751.243 203.583C750.465 204.273 749.871 205.256 749.46 206.533C749.049 207.796 748.843 209.315 748.843 211.091C748.843 212.852 749.049 214.371 749.46 215.648C749.871 216.925 750.465 217.909 751.243 218.599C752.021 219.289 752.953 219.634 754.039 219.634ZM788.562 208.977V228H776.409V194.182H787.945V200.611H788.298C789.032 198.468 790.323 196.787 792.173 195.569C794.037 194.351 796.209 193.741 798.69 193.741C801.082 193.741 803.159 194.292 804.921 195.393C806.697 196.479 808.069 197.976 809.038 199.884C810.021 201.792 810.506 203.972 810.491 206.423V228H798.338V208.977C798.352 207.304 797.927 205.99 797.061 205.036C796.209 204.082 795.02 203.605 793.494 203.605C792.496 203.605 791.622 203.825 790.874 204.266C790.14 204.691 789.575 205.308 789.178 206.115C788.782 206.908 788.577 207.862 788.562 208.977ZM847.403 205.19H836.218C836.159 204.5 835.917 203.906 835.491 203.407C835.066 202.908 834.515 202.526 833.84 202.262C833.18 201.983 832.446 201.844 831.638 201.844C830.596 201.844 829.701 202.035 828.952 202.416C828.204 202.798 827.837 203.341 827.851 204.045C827.837 204.545 828.05 205.007 828.49 205.433C828.945 205.858 829.818 206.188 831.11 206.423L837.979 207.656C841.443 208.287 844.019 209.352 845.707 210.849C847.41 212.331 848.269 214.32 848.283 216.815C848.269 219.223 847.549 221.314 846.126 223.09C844.716 224.852 842.786 226.217 840.335 227.185C837.898 228.139 835.117 228.616 831.991 228.616C826.824 228.616 822.78 227.56 819.859 225.446C816.953 223.332 815.331 220.544 814.993 217.08H827.059C827.22 218.151 827.749 218.98 828.644 219.567C829.554 220.14 830.699 220.426 832.079 220.426C833.194 220.426 834.112 220.235 834.831 219.854C835.565 219.472 835.939 218.929 835.954 218.224C835.939 217.579 835.616 217.065 834.985 216.683C834.368 216.302 833.4 215.993 832.079 215.759L826.09 214.702C822.641 214.1 820.057 212.955 818.34 211.267C816.623 209.579 815.771 207.407 815.786 204.75C815.771 202.402 816.388 200.413 817.635 198.783C818.898 197.139 820.696 195.892 823.03 195.04C825.378 194.174 828.16 193.741 831.374 193.741C836.262 193.741 840.115 194.754 842.933 196.78C845.766 198.805 847.256 201.609 847.403 205.19Z" fill="white"/>
</g>
<defs>
<filter id="filter0_f_158_48" x="-680" y="-338" width="2267" height="1247" filterUnits="userSpaceOnUse" color-interpolation-filters="sRGB">
<feFlood flood-opacity="0" result="BackgroundImageFix"/>
<feBlend mode="normal" in="SourceGraphic" in2="BackgroundImageFix" result="shape"/>
<feGaussianBlur stdDeviation="250" result="effect1_foregroundBlur_158_48"/>
</filter>
<linearGradient id="paint0_linear_158_48" x1="1448.5" y1="229.535" x2="1390.85" y2="-53.9909" gradientUnits="userSpaceOnUse">
<stop stop-color="#8E45FF"/>
<stop offset="0.835" stop-color="#548CFF" stop-opacity="0"/>
</linearGradient>
<linearGradient id="paint1_linear_158_48" x1="-21" y1="234.123" x2="-102.49" y2="-56.564" gradientUnits="userSpaceOnUse">
<stop stop-color="#AE85FF"/>
<stop offset="0.835" stop-color="#AD85FE" stop-opacity="0"/>
</linearGradient>
<linearGradient id="paint2_linear_158_48" x1="501.406" y1="330.517" x2="484.354" y2="-99.1053" gradientUnits="userSpaceOnUse">
<stop stop-color="#9E6EFE"/>
<stop offset="0.835" stop-color="#A070FE" stop-opacity="0"/>
</linearGradient>
<linearGradient id="paint3_linear_158_48" x1="937" y1="462.279" x2="837.648" y2="-161.518" gradientUnits="userSpaceOnUse">
<stop stop-color="#8B51FF"/>
<stop offset="0.835" stop-color="#9159FF" stop-opacity="0"/>
</linearGradient>
</defs>
</svg>
