<svg width="1440" height="345" viewBox="0 0 1440 345" fill="none" xmlns="http://www.w3.org/2000/svg">
<mask id="mask0_158_48" style="mask-type:alpha" maskUnits="userSpaceOnUse" x="0" y="0" width="1440" height="345">
<rect width="1440" height="345" fill="white"/>
</mask>
<g mask="url(#mask0_158_48)">
<rect width="1440" height="345" fill="#7762FF" fill-opacity="0.73"/>
<path d="M1223 -2H1374.34L1482.49 4.26392L1562.27 151.283L1658 261.72L1635.79 345H1498.36L1321.03 120.506L1223 -2Z" fill="url(#paint0_linear_158_48)"/>
<path d="M-173 -17H-39.4456L55.9863 -10.4653L196 95.6922L97.3297 154.242L191.269 345H69.9969L-86.4945 110.802L-173 -17Z" fill="url(#paint1_linear_158_48)"/>
<path d="M282 -2H442.587L557.335 4.26392L720 265.944L511.533 73.9504L720 345H574.181L386.015 120.506L339.696 197.148L282 -2Z" fill="url(#paint2_linear_158_48)"/>
<path d="M684 -2H867.502L998.623 4.26392L1191 106.023L946.286 73.9504L1184.5 345H1017.87L802.857 120.506L684 -2Z" fill="url(#paint3_linear_158_48)"/>
<g opacity="0.75" filter="url(#filter0_f_158_48)">
<rect x="-180" y="162" width="1267" height="247" fill="white"/>
</g>
<path d="M305.881 43V31.3636H313.824V33.6477H308.693V36.0341H313.318V38.3239H308.693V43H305.881ZM318.679 43.1648C317.766 43.1648 316.978 42.9848 316.315 42.625C315.656 42.2614 315.149 41.7443 314.793 41.0739C314.44 40.3996 314.264 39.5985 314.264 38.6705C314.264 37.7689 314.442 36.9811 314.798 36.3068C315.154 35.6288 315.656 35.1023 316.304 34.7273C316.952 34.3485 317.715 34.1591 318.594 34.1591C319.215 34.1591 319.783 34.2557 320.298 34.4489C320.813 34.642 321.259 34.928 321.634 35.3068C322.009 35.6856 322.3 36.1534 322.509 36.7102C322.717 37.2633 322.821 37.8977 322.821 38.6136V39.3068H315.236V37.6932H320.236C320.232 37.3977 320.162 37.1345 320.026 36.9034C319.889 36.6723 319.702 36.4924 319.463 36.3636C319.228 36.2311 318.957 36.1648 318.651 36.1648C318.34 36.1648 318.062 36.2348 317.815 36.375C317.569 36.5114 317.374 36.6989 317.23 36.9375C317.086 37.1723 317.01 37.4394 317.003 37.7386V39.3807C317.003 39.7367 317.073 40.0492 317.213 40.3182C317.353 40.5833 317.552 40.7898 317.81 40.9375C318.067 41.0852 318.374 41.1591 318.73 41.1591C318.976 41.1591 319.2 41.125 319.401 41.0568C319.601 40.9886 319.774 40.8883 319.918 40.7557C320.062 40.6231 320.17 40.4602 320.241 40.267L322.793 40.3409C322.687 40.9129 322.454 41.411 322.094 41.8352C321.738 42.2557 321.27 42.5833 320.69 42.8182C320.111 43.0492 319.44 43.1648 318.679 43.1648ZM326.7 43.1477C326.143 43.1477 325.649 43.0549 325.217 42.8693C324.789 42.6799 324.45 42.3958 324.2 42.017C323.954 41.6345 323.831 41.1553 323.831 40.5795C323.831 40.0947 323.916 39.6856 324.087 39.3523C324.257 39.0189 324.492 38.7481 324.791 38.5398C325.09 38.3314 325.435 38.1742 325.825 38.0682C326.215 37.9583 326.632 37.8845 327.075 37.8466C327.571 37.8011 327.971 37.7538 328.274 37.7045C328.577 37.6515 328.797 37.5777 328.933 37.483C329.073 37.3845 329.143 37.2462 329.143 37.0682V37.0398C329.143 36.7481 329.043 36.5227 328.842 36.3636C328.642 36.2045 328.371 36.125 328.03 36.125C327.662 36.125 327.367 36.2045 327.143 36.3636C326.92 36.5227 326.778 36.7424 326.717 37.0227L324.155 36.9318C324.231 36.4015 324.426 35.928 324.74 35.5114C325.058 35.0909 325.494 34.7614 326.047 34.5227C326.604 34.2803 327.272 34.1591 328.053 34.1591C328.609 34.1591 329.123 34.2254 329.592 34.358C330.062 34.4867 330.471 34.6761 330.82 34.9261C331.168 35.1723 331.437 35.4754 331.626 35.8352C331.82 36.1951 331.916 36.6061 331.916 37.0682V43H329.303V41.7841H329.234C329.079 42.0795 328.88 42.3295 328.638 42.5341C328.399 42.7386 328.117 42.892 327.791 42.9943C327.469 43.0966 327.106 43.1477 326.7 43.1477ZM327.558 41.3295C327.857 41.3295 328.126 41.2689 328.365 41.1477C328.607 41.0265 328.801 40.8598 328.945 40.6477C329.089 40.4318 329.161 40.1818 329.161 39.8977V39.0682C329.081 39.1098 328.984 39.1477 328.871 39.1818C328.761 39.2159 328.64 39.2481 328.507 39.2784C328.375 39.3087 328.238 39.3352 328.098 39.358C327.958 39.3807 327.823 39.4015 327.695 39.4205C327.433 39.4621 327.21 39.5265 327.024 39.6136C326.842 39.7008 326.702 39.8144 326.604 39.9545C326.509 40.0909 326.462 40.2538 326.462 40.4432C326.462 40.7311 326.564 40.9508 326.768 41.1023C326.977 41.2538 327.24 41.3295 327.558 41.3295ZM338.541 34.2727V36.3182H333.036V34.2727H338.541ZM334.189 32.1818H336.967V40.2557C336.967 40.4261 336.994 40.5644 337.047 40.6705C337.104 40.7727 337.185 40.8466 337.291 40.892C337.397 40.9337 337.524 40.9545 337.672 40.9545C337.778 40.9545 337.89 40.9451 338.007 40.9261C338.128 40.9034 338.219 40.8845 338.28 40.8693L338.7 42.875C338.568 42.9129 338.38 42.9602 338.138 43.017C337.899 43.0739 337.613 43.1098 337.28 43.125C336.628 43.1553 336.07 43.0795 335.604 42.8977C335.142 42.7121 334.787 42.4242 334.541 42.0341C334.299 41.6439 334.181 41.1534 334.189 40.5625V32.1818ZM345.589 39.233V34.2727H348.362V43H345.714V41.375H345.624C345.43 41.9091 345.101 42.3333 344.635 42.6477C344.173 42.9583 343.614 43.1136 342.959 43.1136C342.364 43.1136 341.841 42.9773 341.391 42.7045C340.94 42.4318 340.589 42.0511 340.339 41.5625C340.089 41.0701 339.963 40.4943 339.959 39.8352V34.2727H342.737V39.2898C342.741 39.7633 342.866 40.1364 343.112 40.4091C343.358 40.6818 343.694 40.8182 344.118 40.8182C344.394 40.8182 344.643 40.7576 344.862 40.6364C345.086 40.5114 345.262 40.3314 345.391 40.0966C345.523 39.858 345.589 39.5701 345.589 39.233ZM350.131 43V34.2727H352.83V35.8636H352.92C353.08 35.2879 353.339 34.8598 353.699 34.5795C354.059 34.2955 354.477 34.1534 354.955 34.1534C355.083 34.1534 355.216 34.1629 355.352 34.1818C355.489 34.197 355.616 34.2216 355.733 34.2557V36.6705C355.6 36.625 355.426 36.589 355.21 36.5625C354.998 36.536 354.809 36.5227 354.642 36.5227C354.313 36.5227 354.015 36.5966 353.75 36.7443C353.489 36.8883 353.282 37.0909 353.131 37.3523C352.983 37.6098 352.909 37.9129 352.909 38.2614V43H350.131ZM360.491 43.1648C359.579 43.1648 358.791 42.9848 358.128 42.625C357.469 42.2614 356.961 41.7443 356.605 41.0739C356.253 40.3996 356.077 39.5985 356.077 38.6705C356.077 37.7689 356.255 36.9811 356.611 36.3068C356.967 35.6288 357.469 35.1023 358.116 34.7273C358.764 34.3485 359.527 34.1591 360.406 34.1591C361.027 34.1591 361.596 34.2557 362.111 34.4489C362.626 34.642 363.071 34.928 363.446 35.3068C363.821 35.6856 364.113 36.1534 364.321 36.7102C364.529 37.2633 364.634 37.8977 364.634 38.6136V39.3068H357.048V37.6932H362.048C362.045 37.3977 361.974 37.1345 361.838 36.9034C361.702 36.6723 361.514 36.4924 361.276 36.3636C361.041 36.2311 360.77 36.1648 360.463 36.1648C360.152 36.1648 359.874 36.2348 359.628 36.375C359.382 36.5114 359.187 36.6989 359.043 36.9375C358.899 37.1723 358.823 37.4394 358.815 37.7386V39.3807C358.815 39.7367 358.885 40.0492 359.026 40.3182C359.166 40.5833 359.365 40.7898 359.622 40.9375C359.88 41.0852 360.187 41.1591 360.543 41.1591C360.789 41.1591 361.012 41.125 361.213 41.0568C361.414 40.9886 361.586 40.8883 361.73 40.7557C361.874 40.6231 361.982 40.4602 362.054 40.267L364.605 40.3409C364.499 40.9129 364.266 41.411 363.906 41.8352C363.55 42.2557 363.082 42.5833 362.503 42.8182C361.923 43.0492 361.253 43.1648 360.491 43.1648Z" fill="white"/>
<path d="M304.295 293.364V305H302.886V294.841H302.818L299.977 296.727V295.295L302.886 293.364H304.295ZM308.006 305L313.21 294.705V294.614H307.21V293.364H314.665V294.682L309.483 305H308.006ZM325.078 305H321.487V293.364H325.237C326.366 293.364 327.332 293.597 328.135 294.062C328.938 294.525 329.554 295.189 329.982 296.057C330.41 296.92 330.624 297.955 330.624 299.159C330.624 300.371 330.408 301.415 329.976 302.29C329.544 303.161 328.915 303.831 328.089 304.301C327.264 304.767 326.26 305 325.078 305ZM322.896 303.75H324.987C325.949 303.75 326.747 303.564 327.379 303.193C328.012 302.822 328.483 302.294 328.794 301.608C329.105 300.922 329.26 300.106 329.26 299.159C329.26 298.22 329.107 297.411 328.8 296.733C328.493 296.051 328.035 295.528 327.425 295.165C326.815 294.797 326.055 294.614 325.146 294.614H322.896V303.75ZM336.464 305.182C335.624 305.182 334.898 304.996 334.288 304.625C333.682 304.25 333.214 303.727 332.885 303.057C332.559 302.383 332.396 301.598 332.396 300.705C332.396 299.811 332.559 299.023 332.885 298.341C333.214 297.655 333.673 297.121 334.26 296.739C334.851 296.352 335.54 296.159 336.328 296.159C336.783 296.159 337.232 296.235 337.675 296.386C338.118 296.538 338.521 296.784 338.885 297.125C339.249 297.462 339.538 297.909 339.754 298.466C339.97 299.023 340.078 299.708 340.078 300.523V301.091H333.351V299.932H338.714C338.714 299.439 338.616 299 338.419 298.614C338.226 298.227 337.949 297.922 337.589 297.699C337.233 297.475 336.813 297.364 336.328 297.364C335.794 297.364 335.332 297.496 334.942 297.761C334.555 298.023 334.258 298.364 334.05 298.784C333.841 299.205 333.737 299.655 333.737 300.136V300.909C333.737 301.568 333.851 302.127 334.078 302.585C334.309 303.04 334.629 303.386 335.038 303.625C335.447 303.86 335.923 303.977 336.464 303.977C336.817 303.977 337.135 303.928 337.419 303.83C337.707 303.727 337.955 303.576 338.163 303.375C338.372 303.17 338.533 302.917 338.646 302.614L339.942 302.977C339.805 303.417 339.576 303.803 339.254 304.136C338.932 304.466 338.535 304.723 338.061 304.909C337.588 305.091 337.055 305.182 336.464 305.182ZM345.663 305.182C344.845 305.182 344.141 304.989 343.55 304.602C342.959 304.216 342.504 303.684 342.186 303.006C341.868 302.328 341.709 301.553 341.709 300.682C341.709 299.795 341.872 299.013 342.197 298.335C342.527 297.653 342.985 297.121 343.572 296.739C344.163 296.352 344.853 296.159 345.641 296.159C346.254 296.159 346.807 296.273 347.3 296.5C347.792 296.727 348.196 297.045 348.51 297.455C348.824 297.864 349.019 298.341 349.095 298.886H347.754C347.652 298.489 347.425 298.136 347.072 297.83C346.724 297.519 346.254 297.364 345.663 297.364C345.141 297.364 344.682 297.5 344.288 297.773C343.898 298.042 343.593 298.422 343.374 298.915C343.158 299.403 343.05 299.977 343.05 300.636C343.05 301.311 343.156 301.898 343.368 302.398C343.584 302.898 343.887 303.286 344.277 303.562C344.671 303.839 345.133 303.977 345.663 303.977C346.012 303.977 346.328 303.917 346.612 303.795C346.896 303.674 347.137 303.5 347.334 303.273C347.531 303.045 347.671 302.773 347.754 302.455H349.095C349.019 302.97 348.832 303.434 348.533 303.847C348.237 304.256 347.845 304.581 347.357 304.824C346.872 305.062 346.307 305.182 345.663 305.182ZM355.533 305V303.977L359.374 299.773C359.824 299.28 360.196 298.852 360.487 298.489C360.779 298.121 360.995 297.777 361.135 297.455C361.279 297.129 361.351 296.788 361.351 296.432C361.351 296.023 361.252 295.669 361.055 295.369C360.862 295.07 360.597 294.839 360.26 294.676C359.923 294.513 359.544 294.432 359.124 294.432C358.677 294.432 358.286 294.525 357.953 294.71C357.624 294.892 357.368 295.148 357.186 295.477C357.008 295.807 356.919 296.193 356.919 296.636H355.578C355.578 295.955 355.735 295.356 356.05 294.841C356.364 294.326 356.792 293.924 357.334 293.636C357.879 293.348 358.491 293.205 359.169 293.205C359.851 293.205 360.455 293.348 360.982 293.636C361.508 293.924 361.921 294.312 362.22 294.801C362.519 295.29 362.669 295.833 362.669 296.432C362.669 296.86 362.591 297.278 362.436 297.688C362.285 298.093 362.019 298.545 361.641 299.045C361.266 299.542 360.745 300.148 360.078 300.864L357.464 303.659V303.75H362.874V305H355.533ZM369.016 305.159C368.16 305.159 367.43 304.926 366.828 304.46C366.226 303.991 365.766 303.311 365.447 302.42C365.129 301.527 364.97 300.447 364.97 299.182C364.97 297.924 365.129 296.85 365.447 295.96C365.769 295.066 366.232 294.384 366.834 293.915C367.44 293.441 368.167 293.205 369.016 293.205C369.864 293.205 370.589 293.441 371.192 293.915C371.798 294.384 372.26 295.066 372.578 295.96C372.9 296.85 373.061 297.924 373.061 299.182C373.061 300.447 372.902 301.527 372.584 302.42C372.266 303.311 371.805 303.991 371.203 304.46C370.601 304.926 369.872 305.159 369.016 305.159ZM369.016 303.909C369.864 303.909 370.523 303.5 370.993 302.682C371.463 301.864 371.697 300.697 371.697 299.182C371.697 298.174 371.589 297.316 371.374 296.608C371.161 295.9 370.855 295.36 370.453 294.989C370.055 294.617 369.576 294.432 369.016 294.432C368.175 294.432 367.518 294.847 367.044 295.676C366.571 296.502 366.334 297.67 366.334 299.182C366.334 300.189 366.44 301.045 366.652 301.75C366.864 302.455 367.169 302.991 367.567 303.358C367.968 303.725 368.451 303.909 369.016 303.909ZM375.22 305V303.977L379.061 299.773C379.512 299.28 379.883 298.852 380.175 298.489C380.466 298.121 380.682 297.777 380.822 297.455C380.966 297.129 381.038 296.788 381.038 296.432C381.038 296.023 380.94 295.669 380.743 295.369C380.55 295.07 380.285 294.839 379.947 294.676C379.61 294.513 379.232 294.432 378.811 294.432C378.364 294.432 377.974 294.525 377.641 294.71C377.311 294.892 377.055 295.148 376.874 295.477C376.696 295.807 376.607 296.193 376.607 296.636H375.266C375.266 295.955 375.423 295.356 375.737 294.841C376.052 294.326 376.48 293.924 377.021 293.636C377.567 293.348 378.179 293.205 378.857 293.205C379.538 293.205 380.143 293.348 380.669 293.636C381.196 293.924 381.608 294.312 381.908 294.801C382.207 295.29 382.357 295.833 382.357 296.432C382.357 296.86 382.279 297.278 382.124 297.688C381.972 298.093 381.707 298.545 381.328 299.045C380.953 299.542 380.432 300.148 379.766 300.864L377.152 303.659V303.75H382.561V305H375.22ZM388.839 305.159C388.089 305.159 387.421 305.03 386.834 304.773C386.25 304.515 385.786 304.157 385.442 303.699C385.101 303.237 384.915 302.701 384.885 302.091H386.317C386.347 302.466 386.476 302.79 386.703 303.062C386.93 303.331 387.228 303.54 387.595 303.688C387.963 303.835 388.37 303.909 388.817 303.909C389.317 303.909 389.76 303.822 390.146 303.648C390.533 303.473 390.836 303.231 391.055 302.92C391.275 302.61 391.385 302.25 391.385 301.841C391.385 301.413 391.279 301.036 391.067 300.71C390.855 300.381 390.544 300.123 390.135 299.938C389.726 299.752 389.226 299.659 388.635 299.659H387.703V298.409H388.635C389.097 298.409 389.502 298.326 389.851 298.159C390.203 297.992 390.478 297.758 390.675 297.455C390.875 297.152 390.976 296.795 390.976 296.386C390.976 295.992 390.889 295.65 390.714 295.358C390.54 295.066 390.294 294.839 389.976 294.676C389.661 294.513 389.29 294.432 388.862 294.432C388.461 294.432 388.082 294.506 387.726 294.653C387.374 294.797 387.086 295.008 386.862 295.284C386.639 295.557 386.518 295.886 386.499 296.273H385.135C385.158 295.663 385.341 295.129 385.686 294.67C386.031 294.208 386.482 293.848 387.038 293.591C387.599 293.333 388.214 293.205 388.885 293.205C389.605 293.205 390.222 293.35 390.737 293.642C391.252 293.93 391.648 294.311 391.925 294.784C392.201 295.258 392.339 295.769 392.339 296.318C392.339 296.973 392.167 297.532 391.822 297.994C391.482 298.456 391.018 298.777 390.43 298.955V299.045C391.165 299.167 391.739 299.479 392.152 299.983C392.565 300.483 392.771 301.102 392.771 301.841C392.771 302.473 392.599 303.042 392.254 303.545C391.913 304.045 391.447 304.439 390.857 304.727C390.266 305.015 389.593 305.159 388.839 305.159Z" fill="white"/>
<path d="M315.619 116H302.409L317.293 70.9091H334.026L348.909 116H335.699L325.835 83.3267H325.483L315.619 116ZM313.153 98.2102H337.989V107.369H313.153V98.2102ZM353.428 116V82.1818H365.229V88.6108H365.581C366.198 86.233 367.174 84.4936 368.51 83.3928C369.86 82.2919 371.438 81.7415 373.243 81.7415C373.772 81.7415 374.293 81.7855 374.807 81.8736C375.335 81.947 375.841 82.0571 376.326 82.2038V92.5739C375.724 92.3684 374.983 92.2143 374.102 92.1115C373.221 92.0088 372.465 91.9574 371.834 91.9574C370.645 91.9574 369.574 92.2289 368.62 92.772C367.68 93.3004 366.939 94.049 366.396 95.0178C365.853 95.9718 365.581 97.0947 365.581 98.3864V116H353.428ZM380.311 82.1818H392.464V117.145C392.464 120.11 391.84 122.429 390.593 124.102C389.36 125.776 387.628 126.957 385.397 127.647C383.166 128.337 380.56 128.682 377.581 128.682C377.14 128.682 376.737 128.674 376.37 128.66C375.988 128.645 375.57 128.623 375.115 128.594V119.611C375.408 119.64 375.665 119.662 375.885 119.677C376.091 119.692 376.304 119.699 376.524 119.699C377.977 119.699 378.968 119.471 379.496 119.016C380.039 118.576 380.311 117.864 380.311 116.881V82.1818ZM386.388 78.6591C384.744 78.6591 383.335 78.116 382.16 77.0298C380.986 75.9437 380.399 74.6373 380.399 73.1108C380.399 71.5843 380.986 70.2779 382.16 69.1918C383.335 68.1056 384.744 67.5625 386.388 67.5625C388.046 67.5625 389.455 68.1056 390.615 69.1918C391.789 70.2779 392.376 71.5843 392.376 73.1108C392.376 74.6373 391.789 75.9437 390.615 77.0298C389.455 78.116 388.046 78.6591 386.388 78.6591ZM398.657 116V82.1818H410.81V116H398.657ZM404.733 78.6591C403.089 78.6591 401.68 78.116 400.506 77.0298C399.332 75.9437 398.745 74.6373 398.745 73.1108C398.745 71.5843 399.332 70.2779 400.506 69.1918C401.68 68.1056 403.089 67.5625 404.733 67.5625C406.392 67.5625 407.801 68.1056 408.961 69.1918C410.135 70.2779 410.722 71.5843 410.722 73.1108C410.722 74.6373 410.135 75.9437 408.961 77.0298C407.801 78.116 406.392 78.6591 404.733 78.6591ZM437.17 82.1818V90.9886H414.889V82.1818H437.17ZM419.204 74.0795H431.357V105.124C431.357 105.593 431.438 105.99 431.6 106.312C431.761 106.621 432.011 106.856 432.348 107.017C432.686 107.164 433.119 107.237 433.647 107.237C434.014 107.237 434.44 107.193 434.924 107.105C435.423 107.017 435.79 106.944 436.025 106.885L437.786 115.428C437.243 115.589 436.465 115.787 435.453 116.022C434.454 116.257 433.266 116.411 431.886 116.484C429.097 116.631 426.756 116.345 424.862 115.626C422.969 114.892 421.545 113.74 420.591 112.169C419.637 110.598 419.175 108.632 419.204 106.268V74.0795ZM463.904 116.528C461.746 116.528 459.838 116.176 458.18 115.472C456.536 114.752 455.244 113.666 454.305 112.213C453.365 110.76 452.896 108.911 452.896 106.665C452.896 104.815 453.211 103.237 453.842 101.931C454.473 100.61 455.354 99.5312 456.484 98.6946C457.615 97.858 458.928 97.2195 460.425 96.7791C461.937 96.3388 463.567 96.0526 465.313 95.9205C467.207 95.7737 468.726 95.5975 469.871 95.392C471.03 95.1719 471.867 94.871 472.381 94.4893C472.894 94.093 473.151 93.572 473.151 92.9261V92.8381C473.151 91.9574 472.814 91.2822 472.138 90.8125C471.463 90.3428 470.597 90.108 469.54 90.108C468.381 90.108 467.434 90.3648 466.7 90.8786C465.981 91.3776 465.548 92.1482 465.401 93.1903H454.217C454.363 91.1354 455.017 89.2419 456.176 87.5099C457.35 85.7633 459.06 84.3688 461.306 83.3267C463.552 82.2699 466.355 81.7415 469.717 81.7415C472.138 81.7415 474.311 82.0277 476.234 82.6001C478.156 83.1579 479.793 83.9432 481.143 84.956C482.494 85.9541 483.521 87.1283 484.226 88.4787C484.945 89.8144 485.305 91.2675 485.305 92.8381V116H473.944V111.244H473.68C473.004 112.507 472.183 113.527 471.214 114.305C470.26 115.083 469.166 115.648 467.933 116C466.715 116.352 465.372 116.528 463.904 116.528ZM467.867 108.866C468.792 108.866 469.658 108.676 470.465 108.294C471.287 107.912 471.955 107.362 472.469 106.643C472.982 105.924 473.239 105.05 473.239 104.023V101.205C472.916 101.337 472.571 101.461 472.205 101.579C471.852 101.696 471.471 101.806 471.06 101.909C470.663 102.012 470.238 102.107 469.783 102.195C469.342 102.283 468.88 102.364 468.396 102.438C467.456 102.584 466.686 102.826 466.084 103.164C465.497 103.487 465.056 103.891 464.763 104.375C464.484 104.845 464.344 105.373 464.344 105.96C464.344 106.9 464.675 107.619 465.335 108.118C465.996 108.617 466.84 108.866 467.867 108.866ZM503.265 96.9773V116H491.112V82.1818H502.649V88.6108H503.001C503.735 86.4678 505.026 84.7872 506.876 83.5689C508.74 82.3506 510.912 81.7415 513.393 81.7415C515.785 81.7415 517.862 82.2919 519.624 83.3928C521.4 84.4789 522.772 85.9761 523.741 87.8842C524.724 89.7924 525.209 91.9721 525.194 94.4233V116H513.041V96.9773C513.055 95.304 512.63 93.9903 511.764 93.0362C510.912 92.0821 509.723 91.6051 508.197 91.6051C507.199 91.6051 506.325 91.8253 505.577 92.2656C504.843 92.6913 504.278 93.3078 503.882 94.1151C503.485 94.9077 503.28 95.8617 503.265 96.9773ZM543.435 116.44C541.028 116.44 538.812 115.809 536.786 114.547C534.775 113.285 533.161 111.369 531.942 108.8C530.739 106.232 530.137 102.995 530.137 99.0909C530.137 95.0104 530.768 91.6932 532.03 89.1392C533.307 86.5852 534.951 84.7138 536.962 83.5249C538.988 82.3359 541.116 81.7415 543.347 81.7415C545.02 81.7415 546.488 82.035 547.751 82.6222C549.013 83.1946 550.07 83.9652 550.921 84.9339C551.772 85.888 552.418 86.9375 552.858 88.0824H553.035V70.9091H565.188V116H553.123V110.452H552.858C552.389 111.597 551.714 112.624 550.833 113.534C549.967 114.429 548.91 115.141 547.662 115.67C546.43 116.183 545.02 116.44 543.435 116.44ZM547.927 107.105C549.042 107.105 549.996 106.782 550.789 106.136C551.596 105.476 552.213 104.551 552.638 103.362C553.079 102.159 553.299 100.735 553.299 99.0909C553.299 97.4176 553.079 95.9865 552.638 94.7976C552.213 93.594 551.596 92.6766 550.789 92.0455C549.996 91.3996 549.042 91.0767 547.927 91.0767C546.811 91.0767 545.857 91.3996 545.064 92.0455C544.287 92.6766 543.685 93.594 543.259 94.7976C542.848 95.9865 542.643 97.4176 542.643 99.0909C542.643 100.764 542.848 102.203 543.259 103.406C543.685 104.595 544.287 105.513 545.064 106.158C545.857 106.79 546.811 107.105 547.927 107.105ZM581.481 70.9091H595.131L603.938 89.2273H604.29L613.097 70.9091H626.748L610.191 101.821V116H598.037V101.821L581.481 70.9091ZM632.406 116.528C630.248 116.528 628.34 116.176 626.682 115.472C625.038 114.752 623.746 113.666 622.807 112.213C621.867 110.76 621.398 108.911 621.398 106.665C621.398 104.815 621.713 103.237 622.344 101.931C622.975 100.61 623.856 99.5312 624.986 98.6946C626.117 97.858 627.43 97.2195 628.927 96.7791C630.439 96.3388 632.068 96.0526 633.815 95.9205C635.709 95.7737 637.228 95.5975 638.373 95.392C639.532 95.1719 640.369 94.871 640.883 94.4893C641.396 94.093 641.653 93.572 641.653 92.9261V92.8381C641.653 91.9574 641.316 91.2822 640.64 90.8125C639.965 90.3428 639.099 90.108 638.042 90.108C636.883 90.108 635.936 90.3648 635.202 90.8786C634.483 91.3776 634.05 92.1482 633.903 93.1903H622.719C622.865 91.1354 623.519 89.2419 624.678 87.5099C625.852 85.7633 627.562 84.3688 629.808 83.3267C632.054 82.2699 634.857 81.7415 638.219 81.7415C640.64 81.7415 642.813 82.0277 644.736 82.6001C646.658 83.1579 648.295 83.9432 649.645 84.956C650.996 85.9541 652.023 87.1283 652.728 88.4787C653.447 89.8144 653.807 91.2675 653.807 92.8381V116H642.446V111.244H642.182C641.506 112.507 640.684 113.527 639.716 114.305C638.762 115.083 637.668 115.648 636.435 116C635.217 116.352 633.874 116.528 632.406 116.528ZM636.369 108.866C637.294 108.866 638.16 108.676 638.967 108.294C639.789 107.912 640.457 107.362 640.971 106.643C641.484 105.924 641.741 105.05 641.741 104.023V101.205C641.418 101.337 641.073 101.461 640.706 101.579C640.354 101.696 639.973 101.806 639.562 101.909C639.165 102.012 638.74 102.107 638.285 102.195C637.844 102.283 637.382 102.364 636.898 102.438C635.958 102.584 635.188 102.826 634.586 103.164C633.999 103.487 633.558 103.891 633.265 104.375C632.986 104.845 632.846 105.373 632.846 105.96C632.846 106.9 633.177 107.619 633.837 108.118C634.498 108.617 635.342 108.866 636.369 108.866ZM690.526 93.1903H679.341C679.282 92.5005 679.04 91.906 678.614 91.407C678.189 90.9079 677.638 90.5263 676.963 90.2621C676.303 89.9832 675.569 89.8438 674.761 89.8438C673.719 89.8438 672.824 90.0346 672.075 90.4162C671.327 90.7978 670.96 91.3409 670.974 92.0455C670.96 92.5445 671.173 93.0069 671.613 93.4325C672.068 93.8582 672.941 94.1884 674.233 94.4233L681.102 95.6562C684.566 96.2874 687.142 97.3516 688.83 98.8487C690.533 100.331 691.392 102.32 691.406 104.815C691.392 107.223 690.672 109.314 689.249 111.09C687.839 112.852 685.909 114.217 683.458 115.185C681.022 116.139 678.24 116.616 675.114 116.616C669.947 116.616 665.903 115.56 662.982 113.446C660.076 111.332 658.454 108.544 658.116 105.08H670.182C670.343 106.151 670.872 106.98 671.767 107.567C672.677 108.14 673.822 108.426 675.202 108.426C676.317 108.426 677.235 108.235 677.954 107.854C678.688 107.472 679.062 106.929 679.077 106.224C679.062 105.579 678.739 105.065 678.108 104.683C677.491 104.302 676.523 103.993 675.202 103.759L669.213 102.702C665.764 102.1 663.18 100.955 661.463 99.267C659.746 97.5791 658.894 95.4067 658.909 92.75C658.894 90.4015 659.511 88.4126 660.759 86.7834C662.021 85.1394 663.819 83.8918 666.153 83.0405C668.501 82.1745 671.283 81.7415 674.497 81.7415C679.385 81.7415 683.238 82.7543 686.056 84.7798C688.889 86.8054 690.379 89.6089 690.526 93.1903ZM708.216 96.9773V116H696.063V70.9091H707.776V88.6108H708.128C708.891 86.4531 710.161 84.7725 711.937 83.5689C713.713 82.3506 715.849 81.7415 718.344 81.7415C720.737 81.7415 722.814 82.2846 724.575 83.3707C726.351 84.4569 727.723 85.9541 728.692 87.8622C729.676 89.7704 730.16 91.9574 730.145 94.4233V116H717.992V96.9773C718.007 95.304 717.588 93.9903 716.737 93.0362C715.9 92.0821 714.704 91.6051 713.148 91.6051C712.165 91.6051 711.299 91.8253 710.55 92.2656C709.816 92.6913 709.244 93.3078 708.833 94.1151C708.436 94.9077 708.231 95.8617 708.216 96.9773ZM779.408 93.1903H768.224C768.165 92.5005 767.923 91.906 767.497 91.407C767.071 90.9079 766.521 90.5263 765.846 90.2621C765.185 89.9832 764.451 89.8438 763.644 89.8438C762.602 89.8438 761.707 90.0346 760.958 90.4162C760.21 90.7978 759.843 91.3409 759.857 92.0455C759.843 92.5445 760.055 93.0069 760.496 93.4325C760.951 93.8582 761.824 94.1884 763.116 94.4233L769.985 95.6562C773.449 96.2874 776.025 97.3516 777.713 98.8487C779.416 100.331 780.274 102.32 780.289 104.815C780.274 107.223 779.555 109.314 778.131 111.09C776.722 112.852 774.792 114.217 772.341 115.185C769.904 116.139 767.123 116.616 763.996 116.616C758.83 116.616 754.786 115.56 751.865 113.446C748.959 111.332 747.337 108.544 746.999 105.08H759.065C759.226 106.151 759.754 106.98 760.65 107.567C761.56 108.14 762.705 108.426 764.085 108.426C765.2 108.426 766.117 108.235 766.837 107.854C767.571 107.472 767.945 106.929 767.96 106.224C767.945 105.579 767.622 105.065 766.991 104.683C766.374 104.302 765.406 103.993 764.085 103.759L758.096 102.702C754.647 102.1 752.063 100.955 750.346 99.267C748.629 97.5791 747.777 95.4067 747.792 92.75C747.777 90.4015 748.394 88.4126 749.641 86.7834C750.904 85.1394 752.702 83.8918 755.036 83.0405C757.384 82.1745 760.165 81.7415 763.38 81.7415C768.268 81.7415 772.121 82.7543 774.939 84.7798C777.772 86.8054 779.262 89.6089 779.408 93.1903ZM801.15 116.616C797.539 116.616 794.428 115.927 791.815 114.547C789.217 113.152 787.213 111.156 785.804 108.558C784.41 105.946 783.713 102.819 783.713 99.179C783.713 95.6856 784.417 92.6326 785.826 90.0199C787.235 87.4072 789.224 85.3743 791.793 83.9212C794.362 82.468 797.393 81.7415 800.886 81.7415C803.44 81.7415 805.752 82.1378 807.821 82.9304C809.891 83.723 811.66 84.8752 813.127 86.3871C814.595 87.8842 815.725 89.7043 816.518 91.8473C817.311 93.9903 817.707 96.4048 817.707 99.0909V101.909H787.5V95.2159H806.522C806.508 94.2472 806.258 93.3958 805.774 92.6619C805.304 91.9134 804.666 91.3336 803.858 90.9226C803.066 90.4969 802.163 90.2841 801.15 90.2841C800.167 90.2841 799.264 90.4969 798.442 90.9226C797.62 91.3336 796.96 91.906 796.461 92.6399C795.976 93.3738 795.719 94.2325 795.69 95.2159V102.438C795.69 103.524 795.917 104.492 796.373 105.344C796.828 106.195 797.481 106.863 798.332 107.347C799.183 107.832 800.211 108.074 801.414 108.074C802.251 108.074 803.014 107.956 803.704 107.722C804.409 107.487 805.011 107.149 805.51 106.709C806.009 106.254 806.376 105.711 806.61 105.08H817.707C817.325 107.428 816.423 109.468 814.999 111.2C813.575 112.918 811.689 114.253 809.341 115.207C807.007 116.147 804.277 116.616 801.15 116.616ZM838.959 116.616C835.289 116.616 832.148 115.89 829.536 114.437C826.923 112.969 824.919 110.929 823.525 108.316C822.131 105.689 821.433 102.643 821.433 99.179C821.433 95.715 822.131 92.6766 823.525 90.0639C824.919 87.4366 826.923 85.3963 829.536 83.9432C832.148 82.4754 835.289 81.7415 838.959 81.7415C842.276 81.7415 845.146 82.3433 847.568 83.5469C850.004 84.7358 851.89 86.4238 853.226 88.6108C854.562 90.7831 855.237 93.3371 855.252 96.2727H843.979C843.817 94.4967 843.304 93.1463 842.438 92.2216C841.586 91.2822 840.485 90.8125 839.135 90.8125C838.078 90.8125 837.154 91.1207 836.361 91.7372C835.568 92.339 834.952 93.2564 834.512 94.4893C834.071 95.7076 833.851 97.2415 833.851 99.0909C833.851 100.94 834.071 102.482 834.512 103.714C834.952 104.933 835.568 105.85 836.361 106.467C837.154 107.068 838.078 107.369 839.135 107.369C840.03 107.369 840.823 107.164 841.513 106.753C842.203 106.327 842.761 105.711 843.186 104.903C843.627 104.081 843.891 103.083 843.979 101.909H855.252C855.208 104.889 854.525 107.487 853.204 109.703C851.883 111.905 850.012 113.607 847.59 114.811C845.182 116.015 842.306 116.616 838.959 116.616ZM882.195 101.205V82.1818H894.348V116H882.811V109.571H882.459C881.725 111.729 880.441 113.417 878.606 114.635C876.771 115.839 874.592 116.44 872.067 116.44C869.704 116.44 867.634 115.897 865.858 114.811C864.097 113.725 862.725 112.228 861.741 110.32C860.772 108.411 860.281 106.224 860.266 103.759V82.1818H872.419V101.205C872.434 102.878 872.86 104.192 873.696 105.146C874.548 106.1 875.737 106.577 877.263 106.577C878.276 106.577 879.149 106.364 879.883 105.938C880.632 105.498 881.204 104.881 881.6 104.089C882.011 103.281 882.21 102.32 882.195 101.205ZM900.53 116V82.1818H912.331V88.6108H912.683C913.3 86.233 914.276 84.4936 915.611 83.3928C916.962 82.2919 918.54 81.7415 920.345 81.7415C920.873 81.7415 921.394 81.7855 921.908 81.8736C922.437 81.947 922.943 82.0571 923.427 82.2038V92.5739C922.826 92.3684 922.084 92.2143 921.204 92.1115C920.323 92.0088 919.567 91.9574 918.936 91.9574C917.747 91.9574 916.675 92.2289 915.721 92.772C914.782 93.3004 914.041 94.049 913.498 95.0178C912.955 95.9718 912.683 97.0947 912.683 98.3864V116H900.53ZM941.68 116.616C938.069 116.616 934.957 115.927 932.344 114.547C929.746 113.152 927.743 111.156 926.334 108.558C924.939 105.946 924.242 102.819 924.242 99.179C924.242 95.6856 924.947 92.6326 926.356 90.0199C927.765 87.4072 929.754 85.3743 932.322 83.9212C934.891 82.468 937.922 81.7415 941.415 81.7415C943.969 81.7415 946.281 82.1378 948.351 82.9304C950.42 83.723 952.189 84.8752 953.657 86.3871C955.125 87.8842 956.255 89.7043 957.047 91.8473C957.84 93.9903 958.236 96.4048 958.236 99.0909V101.909H928.029V95.2159H947.052C947.037 94.2472 946.787 93.3958 946.303 92.6619C945.833 91.9134 945.195 91.3336 944.388 90.9226C943.595 90.4969 942.692 90.2841 941.68 90.2841C940.696 90.2841 939.793 90.4969 938.971 90.9226C938.149 91.3336 937.489 91.906 936.99 92.6399C936.506 93.3738 936.249 94.2325 936.219 95.2159V102.438C936.219 103.524 936.447 104.492 936.902 105.344C937.357 106.195 938.01 106.863 938.861 107.347C939.713 107.832 940.74 108.074 941.944 108.074C942.78 108.074 943.544 107.956 944.233 107.722C944.938 107.487 945.54 107.149 946.039 106.709C946.538 106.254 946.905 105.711 947.14 105.08H958.236C957.855 107.428 956.952 109.468 955.528 111.2C954.104 112.918 952.218 114.253 949.87 115.207C947.536 116.147 944.806 116.616 941.68 116.616ZM995.715 82.1818V90.9886H973.434V82.1818H995.715ZM977.749 74.0795H989.902V105.124C989.902 105.593 989.983 105.99 990.145 106.312C990.306 106.621 990.556 106.856 990.893 107.017C991.231 107.164 991.664 107.237 992.192 107.237C992.559 107.237 992.985 107.193 993.469 107.105C993.968 107.017 994.335 106.944 994.57 106.885L996.331 115.428C995.788 115.589 995.01 115.787 993.998 116.022C992.999 116.257 991.81 116.411 990.431 116.484C987.642 116.631 985.301 116.345 983.407 115.626C981.514 114.892 980.09 113.74 979.136 112.169C978.182 110.598 977.72 108.632 977.749 106.268V74.0795ZM1013.55 96.9773V116H1001.4V70.9091H1013.11V88.6108H1013.47C1014.23 86.4531 1015.5 84.7725 1017.28 83.5689C1019.05 82.3506 1021.19 81.7415 1023.68 81.7415C1026.07 81.7415 1028.15 82.2846 1029.91 83.3707C1031.69 84.4569 1033.06 85.9541 1034.03 87.8622C1035.01 89.7704 1035.5 91.9574 1035.48 94.4233V116H1023.33V96.9773C1023.34 95.304 1022.93 93.9903 1022.07 93.0362C1021.24 92.0821 1020.04 91.6051 1018.49 91.6051C1017.5 91.6051 1016.64 91.8253 1015.89 92.2656C1015.15 92.6913 1014.58 93.3078 1014.17 94.1151C1013.77 94.9077 1013.57 95.8617 1013.55 96.9773ZM1057.69 116.616C1054.08 116.616 1050.96 115.927 1048.35 114.547C1045.75 113.152 1043.75 111.156 1042.34 108.558C1040.95 105.946 1040.25 102.819 1040.25 99.179C1040.25 95.6856 1040.95 92.6326 1042.36 90.0199C1043.77 87.4072 1045.76 85.3743 1048.33 83.9212C1050.9 82.468 1053.93 81.7415 1057.42 81.7415C1059.98 81.7415 1062.29 82.1378 1064.36 82.9304C1066.43 83.723 1068.2 84.8752 1069.66 86.3871C1071.13 87.8842 1072.26 89.7043 1073.06 91.8473C1073.85 93.9903 1074.24 96.4048 1074.24 99.0909V101.909H1044.04V95.2159H1063.06C1063.04 94.2472 1062.8 93.3958 1062.31 92.6619C1061.84 91.9134 1061.2 91.3336 1060.4 90.9226C1059.6 90.4969 1058.7 90.2841 1057.69 90.2841C1056.7 90.2841 1055.8 90.4969 1054.98 90.9226C1054.16 91.3336 1053.5 91.906 1053 92.6399C1052.51 93.3738 1052.26 94.2325 1052.23 95.2159V102.438C1052.23 103.524 1052.45 104.492 1052.91 105.344C1053.36 106.195 1054.02 106.863 1054.87 107.347C1055.72 107.832 1056.75 108.074 1057.95 108.074C1058.79 108.074 1059.55 107.956 1060.24 107.722C1060.95 107.487 1061.55 107.149 1062.05 106.709C1062.55 106.254 1062.91 105.711 1063.15 105.08H1074.24C1073.86 107.428 1072.96 109.468 1071.54 111.2C1070.11 112.918 1068.23 114.253 1065.88 115.207C1063.54 116.147 1060.81 116.616 1057.69 116.616ZM1111.72 82.1818V90.9886H1089.44V82.1818H1111.72ZM1093.76 74.0795H1105.91V105.124C1105.91 105.593 1105.99 105.99 1106.15 106.312C1106.31 106.621 1106.56 106.856 1106.9 107.017C1107.24 107.164 1107.67 107.237 1108.2 107.237C1108.57 107.237 1108.99 107.193 1109.48 107.105C1109.98 107.017 1110.34 106.944 1110.58 106.885L1112.34 115.428C1111.8 115.589 1111.02 115.787 1110.01 116.022C1109.01 116.257 1107.82 116.411 1106.44 116.484C1103.65 116.631 1101.31 116.345 1099.42 115.626C1097.52 114.892 1096.1 113.74 1095.14 112.169C1094.19 110.598 1093.73 108.632 1093.76 106.268V74.0795ZM1116.68 116V82.1818H1128.84V116H1116.68ZM1122.76 78.6591C1121.11 78.6591 1119.71 78.116 1118.53 77.0298C1117.36 75.9437 1116.77 74.6373 1116.77 73.1108C1116.77 71.5843 1117.36 70.2779 1118.53 69.1918C1119.71 68.1056 1121.11 67.5625 1122.76 67.5625C1124.42 67.5625 1125.83 68.1056 1126.99 69.1918C1128.16 70.2779 1128.75 71.5843 1128.75 73.1108C1128.75 74.6373 1128.16 75.9437 1126.99 77.0298C1125.83 78.116 1124.42 78.6591 1122.76 78.6591ZM1155.2 82.1818V90.9886H1132.91V82.1818H1155.2ZM1137.23 74.0795H1149.38V105.124C1149.38 105.593 1149.46 105.99 1149.62 106.312C1149.79 106.621 1150.04 106.856 1150.37 107.017C1150.71 107.164 1151.14 107.237 1151.67 107.237C1152.04 107.237 1152.47 107.193 1152.95 107.105C1153.45 107.017 1153.82 106.944 1154.05 106.885L1155.81 115.428C1155.27 115.589 1154.49 115.787 1153.48 116.022C1152.48 116.257 1151.29 116.411 1149.91 116.484C1147.12 116.631 1144.78 116.345 1142.89 115.626C1140.99 114.892 1139.57 113.74 1138.62 112.169C1137.66 110.598 1137.2 108.632 1137.23 106.268V74.0795ZM1173.03 70.9091V116H1160.88V70.9091H1173.03ZM1195.43 116.616C1191.82 116.616 1188.71 115.927 1186.1 114.547C1183.5 113.152 1181.49 111.156 1180.09 108.558C1178.69 105.946 1177.99 102.819 1177.99 99.179C1177.99 95.6856 1178.7 92.6326 1180.11 90.0199C1181.52 87.4072 1183.51 85.3743 1186.07 83.9212C1188.64 82.468 1191.67 81.7415 1195.17 81.7415C1197.72 81.7415 1200.03 82.1378 1202.1 82.9304C1204.17 83.723 1205.94 84.8752 1207.41 86.3871C1208.88 87.8842 1210.01 89.7043 1210.8 91.8473C1211.59 93.9903 1211.99 96.4048 1211.99 99.0909V101.909H1181.78V95.2159H1200.8C1200.79 94.2472 1200.54 93.3958 1200.06 92.6619C1199.59 91.9134 1198.95 91.3336 1198.14 90.9226C1197.35 90.4969 1196.44 90.2841 1195.43 90.2841C1194.45 90.2841 1193.55 90.4969 1192.72 90.9226C1191.9 91.3336 1191.24 91.906 1190.74 92.6399C1190.26 93.3738 1190 94.2325 1189.97 95.2159V102.438C1189.97 103.524 1190.2 104.492 1190.65 105.344C1191.11 106.195 1191.76 106.863 1192.61 107.347C1193.46 107.832 1194.49 108.074 1195.7 108.074C1196.53 108.074 1197.3 107.956 1197.99 107.722C1198.69 107.487 1199.29 107.149 1199.79 106.709C1200.29 106.254 1200.66 105.711 1200.89 105.08H1211.99C1211.61 107.428 1210.7 109.468 1209.28 111.2C1207.86 112.918 1205.97 114.253 1203.62 115.207C1201.29 116.147 1198.56 116.616 1195.43 116.616ZM324.338 157.182V165.989H301.705V157.182H324.338ZM306.02 191V156.213C306.02 153.424 306.519 151.112 307.517 149.278C308.515 147.443 309.924 146.071 311.744 145.161C313.564 144.25 315.707 143.795 318.173 143.795C319.714 143.795 321.212 143.913 322.665 144.148C324.133 144.383 325.219 144.588 325.923 144.764L324.162 153.483C323.722 153.351 323.208 153.248 322.621 153.175C322.034 153.087 321.52 153.043 321.08 153.043C319.935 153.043 319.164 153.285 318.768 153.769C318.371 154.254 318.173 154.892 318.173 155.685V191H306.02ZM344.291 191.616C340.622 191.616 337.48 190.89 334.868 189.437C332.255 187.969 330.251 185.929 328.857 183.316C327.463 180.689 326.765 177.643 326.765 174.179C326.765 170.715 327.463 167.677 328.857 165.064C330.251 162.437 332.255 160.396 334.868 158.943C337.48 157.475 340.622 156.741 344.291 156.741C347.961 156.741 351.102 157.475 353.714 158.943C356.327 160.396 358.331 162.437 359.725 165.064C361.119 167.677 361.817 170.715 361.817 174.179C361.817 177.643 361.119 180.689 359.725 183.316C358.331 185.929 356.327 187.969 353.714 189.437C351.102 190.89 347.961 191.616 344.291 191.616ZM344.379 182.634C345.407 182.634 346.295 182.289 347.043 181.599C347.792 180.909 348.372 179.925 348.782 178.648C349.193 177.371 349.399 175.852 349.399 174.091C349.399 172.315 349.193 170.796 348.782 169.533C348.372 168.256 347.792 167.273 347.043 166.583C346.295 165.893 345.407 165.548 344.379 165.548C343.293 165.548 342.361 165.893 341.583 166.583C340.805 167.273 340.211 168.256 339.8 169.533C339.389 170.796 339.183 172.315 339.183 174.091C339.183 175.852 339.389 177.371 339.8 178.648C340.211 179.925 340.805 180.909 341.583 181.599C342.361 182.289 343.293 182.634 344.379 182.634ZM366.748 191V157.182H378.55V163.611H378.902C379.518 161.233 380.494 159.494 381.83 158.393C383.18 157.292 384.758 156.741 386.564 156.741C387.092 156.741 387.613 156.786 388.127 156.874C388.655 156.947 389.162 157.057 389.646 157.204V167.574C389.044 167.368 388.303 167.214 387.422 167.112C386.542 167.009 385.786 166.957 385.155 166.957C383.966 166.957 382.894 167.229 381.94 167.772C381.001 168.3 380.26 169.049 379.716 170.018C379.173 170.972 378.902 172.095 378.902 173.386V191H366.748ZM444.821 145.909V191H434.605L418.312 167.31H418.048V191H405.807V145.909H416.199L432.227 169.511H432.579V145.909H444.821ZM450.611 191V145.909H482.316V155.773H462.853V163.523H480.378V173.386H462.853V191H450.611ZM528.915 162.818H516.497C516.409 161.791 516.174 160.859 515.793 160.022C515.426 159.185 514.912 158.466 514.252 157.864C513.606 157.248 512.82 156.778 511.896 156.455C510.971 156.118 509.922 155.949 508.747 155.949C506.692 155.949 504.953 156.448 503.529 157.446C502.12 158.444 501.049 159.875 500.315 161.739C499.596 163.603 499.236 165.842 499.236 168.455C499.236 171.214 499.603 173.526 500.337 175.39C501.085 177.239 502.164 178.634 503.573 179.573C504.982 180.498 506.678 180.96 508.659 180.96C509.789 180.96 510.802 180.821 511.698 180.542C512.593 180.248 513.371 179.83 514.031 179.287C514.692 178.744 515.228 178.091 515.639 177.327C516.064 176.549 516.351 175.676 516.497 174.707L528.915 174.795C528.768 176.704 528.232 178.648 527.308 180.63C526.383 182.597 525.069 184.417 523.367 186.09C521.679 187.749 519.587 189.085 517.092 190.097C514.597 191.11 511.698 191.616 508.395 191.616C504.256 191.616 500.542 190.728 497.254 188.952C493.981 187.176 491.391 184.564 489.482 181.114C487.589 177.665 486.642 173.445 486.642 168.455C486.642 163.435 487.611 159.207 489.548 155.773C491.486 152.323 494.099 149.718 497.387 147.957C500.674 146.181 504.344 145.293 508.395 145.293C511.243 145.293 513.863 145.682 516.255 146.46C518.648 147.237 520.747 148.375 522.552 149.872C524.357 151.355 525.811 153.182 526.911 155.354C528.012 157.527 528.68 160.015 528.915 162.818ZM546.996 191V157.182H559.15V191H546.996ZM553.073 153.659C551.429 153.659 550.02 153.116 548.846 152.03C547.672 150.944 547.085 149.637 547.085 148.111C547.085 146.584 547.672 145.278 548.846 144.192C550.02 143.106 551.429 142.562 553.073 142.562C554.732 142.562 556.141 143.106 557.3 144.192C558.475 145.278 559.062 146.584 559.062 148.111C559.062 149.637 558.475 150.944 557.3 152.03C556.141 153.116 554.732 153.659 553.073 153.659ZM577.496 171.977V191H565.342V157.182H576.879V163.611H577.231C577.965 161.468 579.257 159.787 581.106 158.569C582.97 157.351 585.143 156.741 587.623 156.741C590.016 156.741 592.093 157.292 593.854 158.393C595.63 159.479 597.003 160.976 597.971 162.884C598.955 164.792 599.439 166.972 599.425 169.423V191H587.271V171.977C587.286 170.304 586.86 168.99 585.994 168.036C585.143 167.082 583.954 166.605 582.427 166.605C581.429 166.605 580.556 166.825 579.807 167.266C579.073 167.691 578.508 168.308 578.112 169.115C577.716 169.908 577.51 170.862 577.496 171.977ZM630.017 191.44C627.61 191.44 625.394 190.809 623.368 189.547C621.357 188.285 619.743 186.369 618.524 183.8C617.321 181.232 616.719 177.995 616.719 174.091C616.719 170.01 617.35 166.693 618.612 164.139C619.889 161.585 621.533 159.714 623.544 158.525C625.57 157.336 627.698 156.741 629.929 156.741C631.602 156.741 633.07 157.035 634.333 157.622C635.595 158.195 636.652 158.965 637.503 159.934C638.354 160.888 639 161.937 639.441 163.082H639.617V145.909H651.77V191H639.705V185.452H639.441C638.971 186.597 638.296 187.624 637.415 188.534C636.549 189.429 635.492 190.141 634.244 190.67C633.012 191.183 631.602 191.44 630.017 191.44ZM634.509 182.105C635.624 182.105 636.578 181.782 637.371 181.136C638.178 180.476 638.795 179.551 639.22 178.362C639.661 177.159 639.881 175.735 639.881 174.091C639.881 172.418 639.661 170.987 639.22 169.798C638.795 168.594 638.178 167.677 637.371 167.045C636.578 166.4 635.624 166.077 634.509 166.077C633.393 166.077 632.439 166.4 631.646 167.045C630.869 167.677 630.267 168.594 629.841 169.798C629.43 170.987 629.225 172.418 629.225 174.091C629.225 175.764 629.43 177.203 629.841 178.406C630.267 179.595 630.869 180.513 631.646 181.158C632.439 181.79 633.393 182.105 634.509 182.105ZM657.737 191V157.182H669.538V163.611H669.89C670.507 161.233 671.483 159.494 672.818 158.393C674.169 157.292 675.747 156.741 677.552 156.741C678.08 156.741 678.602 156.786 679.115 156.874C679.644 156.947 680.15 157.057 680.634 157.204V167.574C680.033 167.368 679.291 167.214 678.411 167.112C677.53 167.009 676.774 166.957 676.143 166.957C674.954 166.957 673.883 167.229 672.928 167.772C671.989 168.3 671.248 169.049 670.705 170.018C670.162 170.972 669.89 172.095 669.89 173.386V191H657.737ZM692.469 191.528C690.311 191.528 688.403 191.176 686.744 190.472C685.1 189.752 683.809 188.666 682.869 187.213C681.93 185.76 681.46 183.911 681.46 181.665C681.46 179.815 681.776 178.237 682.407 176.931C683.038 175.61 683.919 174.531 685.049 173.695C686.179 172.858 687.493 172.219 688.99 171.779C690.502 171.339 692.131 171.053 693.878 170.92C695.771 170.774 697.29 170.598 698.435 170.392C699.595 170.172 700.431 169.871 700.945 169.489C701.459 169.093 701.716 168.572 701.716 167.926V167.838C701.716 166.957 701.378 166.282 700.703 165.812C700.028 165.343 699.162 165.108 698.105 165.108C696.945 165.108 695.999 165.365 695.265 165.879C694.546 166.378 694.113 167.148 693.966 168.19H682.781C682.928 166.135 683.581 164.242 684.741 162.51C685.915 160.763 687.625 159.369 689.871 158.327C692.116 157.27 694.92 156.741 698.281 156.741C700.703 156.741 702.875 157.028 704.798 157.6C706.721 158.158 708.358 158.943 709.708 159.956C711.058 160.954 712.086 162.128 712.79 163.479C713.51 164.814 713.869 166.268 713.869 167.838V191H702.508V186.244H702.244C701.569 187.507 700.747 188.527 699.778 189.305C698.824 190.083 697.731 190.648 696.498 191C695.279 191.352 693.936 191.528 692.469 191.528ZM696.432 183.866C697.356 183.866 698.222 183.676 699.03 183.294C699.852 182.912 700.519 182.362 701.033 181.643C701.547 180.924 701.804 180.05 701.804 179.023V176.205C701.481 176.337 701.136 176.461 700.769 176.579C700.417 176.696 700.035 176.806 699.624 176.909C699.228 177.012 698.802 177.107 698.347 177.195C697.907 177.283 697.444 177.364 696.96 177.438C696.021 177.584 695.25 177.826 694.648 178.164C694.061 178.487 693.621 178.891 693.327 179.375C693.048 179.845 692.909 180.373 692.909 180.96C692.909 181.9 693.239 182.619 693.9 183.118C694.56 183.617 695.404 183.866 696.432 183.866ZM719.676 191V157.182H731.213V163.611H731.565C732.27 161.497 733.473 159.824 735.176 158.591C736.879 157.358 738.904 156.741 741.253 156.741C743.631 156.741 745.678 157.373 747.396 158.635C749.113 159.883 750.148 161.541 750.5 163.611H750.852C751.425 161.541 752.643 159.883 754.507 158.635C756.371 157.373 758.558 156.741 761.068 156.741C764.312 156.741 766.939 157.784 768.95 159.868C770.976 161.952 771.989 164.726 771.989 168.19V191H759.835V171.273C759.835 169.79 759.461 168.631 758.712 167.794C757.964 166.943 756.958 166.517 755.696 166.517C754.448 166.517 753.458 166.943 752.724 167.794C752.004 168.631 751.645 169.79 751.645 171.273V191H740.02V171.273C740.02 169.79 739.646 168.631 738.897 167.794C738.148 166.943 737.143 166.517 735.881 166.517C735.044 166.517 734.325 166.708 733.723 167.089C733.121 167.471 732.652 168.022 732.314 168.741C731.991 169.445 731.83 170.289 731.83 171.273V191H719.676ZM787.406 191.528C785.248 191.528 783.34 191.176 781.682 190.472C780.038 189.752 778.746 188.666 777.807 187.213C776.867 185.76 776.398 183.911 776.398 181.665C776.398 179.815 776.713 178.237 777.344 176.931C777.975 175.61 778.856 174.531 779.986 173.695C781.117 172.858 782.43 172.219 783.927 171.779C785.439 171.339 787.068 171.053 788.815 170.92C790.709 170.774 792.228 170.598 793.373 170.392C794.532 170.172 795.369 169.871 795.883 169.489C796.396 169.093 796.653 168.572 796.653 167.926V167.838C796.653 166.957 796.316 166.282 795.64 165.812C794.965 165.343 794.099 165.108 793.042 165.108C791.883 165.108 790.936 165.365 790.202 165.879C789.483 166.378 789.05 167.148 788.903 168.19H777.719C777.865 166.135 778.519 164.242 779.678 162.51C780.852 160.763 782.562 159.369 784.808 158.327C787.054 157.27 789.857 156.741 793.219 156.741C795.64 156.741 797.813 157.028 799.736 157.6C801.658 158.158 803.295 158.943 804.645 159.956C805.996 160.954 807.023 162.128 807.728 163.479C808.447 164.814 808.807 166.268 808.807 167.838V191H797.446V186.244H797.182C796.506 187.507 795.684 188.527 794.716 189.305C793.762 190.083 792.668 190.648 791.435 191C790.217 191.352 788.874 191.528 787.406 191.528ZM791.369 183.866C792.294 183.866 793.16 183.676 793.967 183.294C794.789 182.912 795.457 182.362 795.971 181.643C796.484 180.924 796.741 180.05 796.741 179.023V176.205C796.418 176.337 796.073 176.461 795.706 176.579C795.354 176.696 794.973 176.806 794.562 176.909C794.165 177.012 793.74 177.107 793.285 177.195C792.844 177.283 792.382 177.364 791.898 177.438C790.958 177.584 790.188 177.826 789.586 178.164C788.999 178.487 788.558 178.891 788.265 179.375C787.986 179.845 787.846 180.373 787.846 180.96C787.846 181.9 788.177 182.619 788.837 183.118C789.498 183.617 790.342 183.866 791.369 183.866ZM834.781 157.182V165.989H812.5V157.182H834.781ZM816.815 149.08H828.969V180.124C828.969 180.593 829.049 180.99 829.211 181.312C829.372 181.621 829.622 181.856 829.96 182.017C830.297 182.164 830.73 182.237 831.259 182.237C831.625 182.237 832.051 182.193 832.536 182.105C833.035 182.017 833.402 181.944 833.636 181.885L835.398 190.428C834.855 190.589 834.077 190.787 833.064 191.022C832.066 191.257 830.877 191.411 829.497 191.484C826.708 191.631 824.367 191.345 822.474 190.626C820.58 189.892 819.156 188.74 818.202 187.169C817.248 185.598 816.786 183.632 816.815 181.268V149.08ZM839.741 191V157.182H851.894V191H839.741ZM845.817 153.659C844.173 153.659 842.764 153.116 841.59 152.03C840.416 150.944 839.829 149.637 839.829 148.111C839.829 146.584 840.416 145.278 841.59 144.192C842.764 143.106 844.173 142.562 845.817 142.562C847.476 142.562 848.885 143.106 850.045 144.192C851.219 145.278 851.806 146.584 851.806 148.111C851.806 149.637 851.219 150.944 850.045 152.03C848.885 153.116 847.476 153.659 845.817 153.659ZM874.379 191.616C870.709 191.616 867.568 190.89 864.956 189.437C862.343 187.969 860.339 185.929 858.945 183.316C857.551 180.689 856.853 177.643 856.853 174.179C856.853 170.715 857.551 167.677 858.945 165.064C860.339 162.437 862.343 160.396 864.956 158.943C867.568 157.475 870.709 156.741 874.379 156.741C877.696 156.741 880.566 157.343 882.988 158.547C885.424 159.736 887.31 161.424 888.646 163.611C889.982 165.783 890.657 168.337 890.672 171.273H879.399C879.237 169.497 878.724 168.146 877.858 167.222C877.006 166.282 875.905 165.812 874.555 165.812C873.498 165.812 872.574 166.121 871.781 166.737C870.988 167.339 870.372 168.256 869.931 169.489C869.491 170.708 869.271 172.241 869.271 174.091C869.271 175.94 869.491 177.482 869.931 178.714C870.372 179.933 870.988 180.85 871.781 181.467C872.574 182.068 873.498 182.369 874.555 182.369C875.45 182.369 876.243 182.164 876.933 181.753C877.623 181.327 878.181 180.711 878.606 179.903C879.047 179.081 879.311 178.083 879.399 176.909H890.672C890.627 179.889 889.945 182.487 888.624 184.703C887.303 186.905 885.431 188.607 883.01 189.811C880.602 191.015 877.725 191.616 874.379 191.616ZM907.949 191V182.193L924.77 168.278C925.886 167.354 926.84 166.488 927.633 165.68C928.44 164.858 929.056 164.014 929.482 163.148C929.922 162.282 930.143 161.321 930.143 160.264C930.143 159.105 929.893 158.114 929.394 157.292C928.91 156.47 928.234 155.839 927.368 155.398C926.502 154.943 925.504 154.716 924.374 154.716C923.244 154.716 922.246 154.943 921.38 155.398C920.528 155.853 919.868 156.521 919.398 157.402C918.929 158.283 918.694 159.354 918.694 160.616H907.069C907.069 157.446 907.781 154.716 909.204 152.426C910.628 150.136 912.639 148.375 915.237 147.142C917.835 145.909 920.881 145.293 924.374 145.293C927.985 145.293 931.111 145.872 933.753 147.032C936.41 148.177 938.458 149.791 939.896 151.876C941.349 153.96 942.076 156.404 942.076 159.207C942.076 160.939 941.716 162.664 940.997 164.381C940.278 166.084 938.986 167.97 937.122 170.04C935.258 172.109 932.608 174.575 929.174 177.438L924.947 180.96V181.224H942.56V191H907.949ZM970.313 163.875V173.034H949.176V163.875H970.313ZM999.562 145.909V191H987.321V157.182H987.057L977.193 163.082V152.69L988.29 145.909H999.562ZM1027.25 191L1018.79 157.182H1030.95L1034.82 177.79H1035.09L1039.4 157.182H1051.2L1055.69 177.614H1055.96L1059.66 157.182H1071.81L1063.36 191H1050.23L1045.48 172.858H1045.13L1040.37 191H1027.25ZM1075.51 191V157.182H1087.66V191H1075.51ZM1081.59 153.659C1079.94 153.659 1078.53 153.116 1077.36 152.03C1076.19 150.944 1075.6 149.637 1075.6 148.111C1075.6 146.584 1076.19 145.278 1077.36 144.192C1078.53 143.106 1079.94 142.562 1081.59 142.562C1083.25 142.562 1084.65 143.106 1085.81 144.192C1086.99 145.278 1087.58 146.584 1087.58 148.111C1087.58 149.637 1086.99 150.944 1085.81 152.03C1084.65 153.116 1083.25 153.659 1081.59 153.659ZM1106.01 171.977V191H1093.86V157.182H1105.39V163.611H1105.75C1106.48 161.468 1107.77 159.787 1109.62 158.569C1111.48 157.351 1113.66 156.741 1116.14 156.741C1118.53 156.741 1120.61 157.292 1122.37 158.393C1124.14 159.479 1125.52 160.976 1126.49 162.884C1127.47 164.792 1127.95 166.972 1127.94 169.423V191H1115.78V171.977C1115.8 170.304 1115.37 168.99 1114.51 168.036C1113.66 167.082 1112.47 166.605 1110.94 166.605C1109.94 166.605 1109.07 166.825 1108.32 167.266C1107.59 167.691 1107.02 168.308 1106.63 169.115C1106.23 169.908 1106.02 170.862 1106.01 171.977ZM320.375 266.616C316.705 266.616 313.564 265.89 310.952 264.437C308.339 262.969 306.335 260.929 304.941 258.316C303.547 255.689 302.849 252.643 302.849 249.179C302.849 245.715 303.547 242.677 304.941 240.064C306.335 237.437 308.339 235.396 310.952 233.943C313.564 232.475 316.705 231.741 320.375 231.741C324.045 231.741 327.186 232.475 329.798 233.943C332.411 235.396 334.415 237.437 335.809 240.064C337.203 242.677 337.901 245.715 337.901 249.179C337.901 252.643 337.203 255.689 335.809 258.316C334.415 260.929 332.411 262.969 329.798 264.437C327.186 265.89 324.045 266.616 320.375 266.616ZM320.463 257.634C321.491 257.634 322.379 257.289 323.127 256.599C323.876 255.909 324.455 254.925 324.866 253.648C325.277 252.371 325.483 250.852 325.483 249.091C325.483 247.315 325.277 245.796 324.866 244.533C324.455 243.256 323.876 242.273 323.127 241.583C322.379 240.893 321.491 240.548 320.463 240.548C319.377 240.548 318.445 240.893 317.667 241.583C316.889 242.273 316.295 243.256 315.884 244.533C315.473 245.796 315.267 247.315 315.267 249.091C315.267 250.852 315.473 252.371 315.884 253.648C316.295 254.925 316.889 255.909 317.667 256.599C318.445 257.289 319.377 257.634 320.463 257.634ZM375.885 232.182L364.525 266H350.434L339.073 232.182H351.843L357.303 254.551H357.655L363.116 232.182H375.885ZM394.517 266.616C390.907 266.616 387.795 265.927 385.182 264.547C382.584 263.152 380.581 261.156 379.172 258.558C377.777 255.946 377.08 252.819 377.08 249.179C377.08 245.686 377.784 242.633 379.194 240.02C380.603 237.407 382.592 235.374 385.16 233.921C387.729 232.468 390.76 231.741 394.253 231.741C396.807 231.741 399.119 232.138 401.189 232.93C403.258 233.723 405.027 234.875 406.495 236.387C407.962 237.884 409.093 239.704 409.885 241.847C410.678 243.99 411.074 246.405 411.074 249.091V251.909H380.867V245.216H399.89C399.875 244.247 399.625 243.396 399.141 242.662C398.671 241.913 398.033 241.334 397.225 240.923C396.433 240.497 395.53 240.284 394.517 240.284C393.534 240.284 392.631 240.497 391.809 240.923C390.987 241.334 390.327 241.906 389.828 242.64C389.343 243.374 389.087 244.232 389.057 245.216V252.438C389.057 253.524 389.285 254.492 389.74 255.344C390.195 256.195 390.848 256.863 391.699 257.347C392.551 257.832 393.578 258.074 394.782 258.074C395.618 258.074 396.382 257.956 397.071 257.722C397.776 257.487 398.378 257.149 398.877 256.709C399.376 256.254 399.743 255.711 399.978 255.08H411.074C410.693 257.428 409.79 259.468 408.366 261.2C406.942 262.918 405.056 264.253 402.708 265.207C400.374 266.147 397.644 266.616 394.517 266.616ZM416.034 266V232.182H427.835V238.611H428.187C428.803 236.233 429.78 234.494 431.115 233.393C432.466 232.292 434.044 231.741 435.849 231.741C436.377 231.741 436.898 231.786 437.412 231.874C437.941 231.947 438.447 232.057 438.931 232.204V242.574C438.329 242.368 437.588 242.214 436.708 242.112C435.827 242.009 435.071 241.957 434.44 241.957C433.251 241.957 432.179 242.229 431.225 242.772C430.286 243.3 429.545 244.049 429.002 245.018C428.459 245.972 428.187 247.095 428.187 248.386V266H416.034ZM472.441 266H455.092V220.909H472.265C476.903 220.909 480.91 221.812 484.286 223.617C487.677 225.408 490.29 227.991 492.124 231.367C493.974 234.728 494.899 238.758 494.899 243.455C494.899 248.152 493.981 252.188 492.146 255.564C490.312 258.925 487.714 261.509 484.352 263.314C480.991 265.105 477.021 266 472.441 266ZM467.333 255.608H472.001C474.232 255.608 476.133 255.248 477.703 254.529C479.289 253.81 480.492 252.57 481.314 250.808C482.151 249.047 482.569 246.596 482.569 243.455C482.569 240.313 482.143 237.862 481.292 236.101C480.455 234.339 479.222 233.099 477.593 232.38C475.979 231.661 473.997 231.301 471.649 231.301H467.333V255.608ZM500.562 266V220.909H520.026C523.372 220.909 526.3 221.57 528.81 222.891C531.32 224.212 533.272 226.068 534.667 228.461C536.061 230.853 536.759 233.65 536.759 236.849C536.759 240.079 536.039 242.875 534.601 245.238C533.177 247.601 531.174 249.421 528.59 250.698C526.022 251.975 523.02 252.614 519.585 252.614H507.96V243.102H517.119C518.558 243.102 519.783 242.853 520.796 242.354C521.824 241.84 522.609 241.113 523.152 240.174C523.71 239.235 523.989 238.126 523.989 236.849C523.989 235.558 523.71 234.457 523.152 233.547C522.609 232.622 521.824 231.918 520.796 231.433C519.783 230.934 518.558 230.685 517.119 230.685H512.804V266H500.562ZM565.557 235C565.439 233.532 564.889 232.387 563.906 231.565C562.937 230.743 561.462 230.332 559.48 230.332C558.218 230.332 557.183 230.487 556.376 230.795C555.583 231.088 554.996 231.492 554.614 232.006C554.233 232.519 554.035 233.107 554.02 233.767C553.991 234.31 554.086 234.802 554.306 235.242C554.541 235.668 554.908 236.057 555.407 236.409C555.906 236.747 556.545 237.055 557.322 237.334C558.1 237.613 559.025 237.862 560.097 238.082L563.795 238.875C566.291 239.403 568.426 240.101 570.202 240.967C571.978 241.833 573.432 242.853 574.562 244.027C575.692 245.187 576.521 246.493 577.05 247.946C577.593 249.399 577.872 250.984 577.886 252.702C577.872 255.667 577.13 258.177 575.663 260.232C574.195 262.286 572.096 263.85 569.366 264.921C566.65 265.993 563.384 266.528 559.568 266.528C555.649 266.528 552.229 265.949 549.308 264.789C546.402 263.629 544.142 261.846 542.527 259.439C540.927 257.017 540.12 253.92 540.105 250.148H551.73C551.804 251.527 552.148 252.687 552.765 253.626C553.381 254.566 554.247 255.278 555.363 255.762C556.493 256.246 557.836 256.489 559.392 256.489C560.698 256.489 561.792 256.327 562.673 256.004C563.553 255.681 564.221 255.234 564.676 254.661C565.131 254.089 565.366 253.436 565.381 252.702C565.366 252.012 565.138 251.41 564.698 250.896C564.272 250.368 563.568 249.898 562.585 249.487C561.601 249.062 560.273 248.665 558.599 248.298L554.108 247.33C550.116 246.464 546.967 245.018 544.663 242.992C542.373 240.952 541.235 238.17 541.25 234.648C541.235 231.786 541.999 229.283 543.54 227.14C545.096 224.982 547.246 223.302 549.991 222.098C552.75 220.894 555.913 220.293 559.48 220.293C563.12 220.293 566.269 220.902 568.925 222.12C571.582 223.338 573.63 225.056 575.068 227.272C576.521 229.474 577.255 232.05 577.27 235H565.557ZM595.071 266V232.182H607.224V266H595.071ZM601.147 228.659C599.503 228.659 598.094 228.116 596.92 227.03C595.746 225.944 595.159 224.637 595.159 223.111C595.159 221.584 595.746 220.278 596.92 219.192C598.094 218.106 599.503 217.562 601.147 217.562C602.806 217.562 604.215 218.106 605.375 219.192C606.549 220.278 607.136 221.584 607.136 223.111C607.136 224.637 606.549 225.944 605.375 227.03C604.215 228.116 602.806 228.659 601.147 228.659ZM625.57 246.977V266H613.416V232.182H624.953V238.611H625.306C626.039 236.468 627.331 234.787 629.181 233.569C631.045 232.351 633.217 231.741 635.698 231.741C638.09 231.741 640.167 232.292 641.928 233.393C643.704 234.479 645.077 235.976 646.046 237.884C647.029 239.792 647.513 241.972 647.499 244.423V266H635.345V246.977C635.36 245.304 634.934 243.99 634.068 243.036C633.217 242.082 632.028 241.605 630.502 241.605C629.503 241.605 628.63 241.825 627.882 242.266C627.148 242.691 626.583 243.308 626.186 244.115C625.79 244.908 625.584 245.862 625.57 246.977ZM686.018 232.182V240.989H663.736V232.182H686.018ZM668.052 224.08H680.205V255.124C680.205 255.593 680.286 255.99 680.447 256.312C680.609 256.621 680.858 256.856 681.196 257.017C681.533 257.164 681.966 257.237 682.495 257.237C682.862 257.237 683.287 257.193 683.772 257.105C684.271 257.017 684.638 256.944 684.873 256.885L686.634 265.428C686.091 265.589 685.313 265.787 684.3 266.022C683.302 266.257 682.113 266.411 680.733 266.484C677.945 266.631 675.604 266.345 673.71 265.626C671.817 264.892 670.393 263.74 669.439 262.169C668.485 260.598 668.022 258.632 668.052 256.268V224.08ZM703.857 246.977V266H691.703V220.909H703.417V238.611H703.769C704.532 236.453 705.802 234.772 707.578 233.569C709.354 232.351 711.489 231.741 713.985 231.741C716.377 231.741 718.454 232.285 720.216 233.371C721.992 234.457 723.364 235.954 724.333 237.862C725.316 239.77 725.801 241.957 725.786 244.423V266H713.632V246.977C713.647 245.304 713.229 243.99 712.377 243.036C711.541 242.082 710.345 241.605 708.789 241.605C707.805 241.605 706.939 241.825 706.191 242.266C705.457 242.691 704.884 243.308 704.473 244.115C704.077 244.908 703.872 245.862 703.857 246.977ZM747.99 266.616C744.379 266.616 741.268 265.927 738.655 264.547C736.057 263.152 734.053 261.156 732.644 258.558C731.25 255.946 730.553 252.819 730.553 249.179C730.553 245.686 731.257 242.633 732.666 240.02C734.075 237.407 736.064 235.374 738.633 233.921C741.201 232.468 744.232 231.741 747.726 231.741C750.28 231.741 752.592 232.138 754.661 232.93C756.731 233.723 758.5 234.875 759.967 236.387C761.435 237.884 762.565 239.704 763.358 241.847C764.151 243.99 764.547 246.405 764.547 249.091V251.909H734.339V245.216H753.362C753.348 244.247 753.098 243.396 752.614 242.662C752.144 241.913 751.505 241.334 750.698 240.923C749.906 240.497 749.003 240.284 747.99 240.284C747.007 240.284 746.104 240.497 745.282 240.923C744.46 241.334 743.799 241.906 743.3 242.64C742.816 243.374 742.559 244.232 742.53 245.216V252.438C742.53 253.524 742.757 254.492 743.212 255.344C743.667 256.195 744.321 256.863 745.172 257.347C746.023 257.832 747.051 258.074 748.254 258.074C749.091 258.074 749.854 257.956 750.544 257.722C751.249 257.487 751.85 257.149 752.349 256.709C752.848 256.254 753.215 255.711 753.45 255.08H764.547C764.165 257.428 763.263 259.468 761.839 261.2C760.415 262.918 758.529 264.253 756.18 265.207C753.847 266.147 751.116 266.616 747.99 266.616ZM802.113 232.182V240.989H779.48V232.182H802.113ZM783.795 266V231.213C783.795 228.424 784.294 226.112 785.292 224.278C786.291 222.443 787.7 221.071 789.52 220.161C791.34 219.25 793.483 218.795 795.949 218.795C797.49 218.795 798.987 218.913 800.44 219.148C801.908 219.383 802.994 219.588 803.699 219.764L801.937 228.483C801.497 228.351 800.983 228.248 800.396 228.175C799.809 228.087 799.295 228.043 798.855 228.043C797.71 228.043 796.939 228.285 796.543 228.769C796.147 229.254 795.949 229.892 795.949 230.685V266H783.795ZM806.803 266V232.182H818.956V266H806.803ZM812.88 228.659C811.236 228.659 809.827 228.116 808.653 227.03C807.478 225.944 806.891 224.637 806.891 223.111C806.891 221.584 807.478 220.278 808.653 219.192C809.827 218.106 811.236 217.562 812.88 217.562C814.538 217.562 815.948 218.106 817.107 219.192C818.281 220.278 818.868 221.584 818.868 223.111C818.868 224.637 818.281 225.944 817.107 227.03C815.948 228.116 814.538 228.659 812.88 228.659ZM837.302 246.977V266H825.149V232.182H836.686V238.611H837.038C837.772 236.468 839.064 234.787 840.913 233.569C842.777 232.351 844.949 231.741 847.43 231.741C849.823 231.741 851.9 232.292 853.661 233.393C855.437 234.479 856.809 235.976 857.778 237.884C858.761 239.792 859.246 241.972 859.231 244.423V266H847.078V246.977C847.092 245.304 846.667 243.99 845.801 243.036C844.949 242.082 843.761 241.605 842.234 241.605C841.236 241.605 840.363 241.825 839.614 242.266C838.88 242.691 838.315 243.308 837.919 244.115C837.522 244.908 837.317 245.862 837.302 246.977ZM874.654 266.528C872.496 266.528 870.588 266.176 868.93 265.472C867.286 264.752 865.994 263.666 865.055 262.213C864.115 260.76 863.646 258.911 863.646 256.665C863.646 254.815 863.961 253.237 864.592 251.931C865.223 250.61 866.104 249.531 867.234 248.695C868.365 247.858 869.678 247.219 871.175 246.779C872.687 246.339 874.317 246.053 876.063 245.92C877.957 245.774 879.476 245.598 880.621 245.392C881.78 245.172 882.617 244.871 883.131 244.489C883.644 244.093 883.901 243.572 883.901 242.926V242.838C883.901 241.957 883.564 241.282 882.888 240.812C882.213 240.343 881.347 240.108 880.29 240.108C879.131 240.108 878.184 240.365 877.45 240.879C876.731 241.378 876.298 242.148 876.151 243.19H864.967C865.113 241.135 865.767 239.242 866.926 237.51C868.1 235.763 869.81 234.369 872.056 233.327C874.302 232.27 877.105 231.741 880.467 231.741C882.888 231.741 885.061 232.028 886.984 232.6C888.906 233.158 890.543 233.943 891.893 234.956C893.244 235.954 894.271 237.128 894.976 238.479C895.695 239.814 896.055 241.268 896.055 242.838V266H884.694V261.244H884.43C883.754 262.507 882.933 263.527 881.964 264.305C881.01 265.083 879.916 265.648 878.683 266C877.465 266.352 876.122 266.528 874.654 266.528ZM878.617 258.866C879.542 258.866 880.408 258.676 881.215 258.294C882.037 257.912 882.705 257.362 883.219 256.643C883.732 255.924 883.989 255.05 883.989 254.023V251.205C883.666 251.337 883.321 251.461 882.955 251.579C882.602 251.696 882.221 251.806 881.81 251.909C881.413 252.012 880.988 252.107 880.533 252.195C880.092 252.283 879.63 252.364 879.146 252.438C878.206 252.584 877.436 252.826 876.834 253.164C876.247 253.487 875.806 253.891 875.513 254.375C875.234 254.845 875.094 255.373 875.094 255.96C875.094 256.9 875.425 257.619 876.085 258.118C876.746 258.617 877.59 258.866 878.617 258.866ZM914.015 220.909V266H901.862V220.909H914.015Z" fill="white"/>
</g>
<defs>
<filter id="filter0_f_158_48" x="-680" y="-338" width="2267" height="1247" filterUnits="userSpaceOnUse" color-interpolation-filters="sRGB">
<feFlood flood-opacity="0" result="BackgroundImageFix"/>
<feBlend mode="normal" in="SourceGraphic" in2="BackgroundImageFix" result="shape"/>
<feGaussianBlur stdDeviation="250" result="effect1_foregroundBlur_158_48"/>
</filter>
<linearGradient id="paint0_linear_158_48" x1="1448.5" y1="229.535" x2="1390.85" y2="-53.9909" gradientUnits="userSpaceOnUse">
<stop stop-color="#8E45FF"/>
<stop offset="0.835" stop-color="#548CFF" stop-opacity="0"/>
</linearGradient>
<linearGradient id="paint1_linear_158_48" x1="-21" y1="234.123" x2="-102.49" y2="-56.564" gradientUnits="userSpaceOnUse">
<stop stop-color="#AE85FF"/>
<stop offset="0.835" stop-color="#AD85FE" stop-opacity="0"/>
</linearGradient>
<linearGradient id="paint2_linear_158_48" x1="501.406" y1="330.517" x2="484.354" y2="-99.1053" gradientUnits="userSpaceOnUse">
<stop stop-color="#9E6EFE"/>
<stop offset="0.835" stop-color="#A070FE" stop-opacity="0"/>
</linearGradient>
<linearGradient id="paint3_linear_158_48" x1="937" y1="462.279" x2="837.648" y2="-161.518" gradientUnits="userSpaceOnUse">
<stop stop-color="#8B51FF"/>
<stop offset="0.835" stop-color="#9159FF" stop-opacity="0"/>
</linearGradient>
</defs>
</svg>
