<svg width="1440" height="345" viewBox="0 0 1440 345" fill="none" xmlns="http://www.w3.org/2000/svg">
<mask id="mask0_158_48" style="mask-type:alpha" maskUnits="userSpaceOnUse" x="0" y="0" width="1440" height="345">
<rect width="1440" height="345" fill="white"/>
</mask>
<g mask="url(#mask0_158_48)">
<rect width="1440" height="345" fill="#7762FF" fill-opacity="0.73"/>
<path d="M1223 -2H1374.34L1482.49 4.26392L1562.27 151.283L1658 261.72L1635.79 345H1498.36L1321.03 120.506L1223 -2Z" fill="url(#paint0_linear_158_48)"/>
<path d="M-173 -17H-39.4456L55.9863 -10.4653L196 95.6922L97.3297 154.242L191.269 345H69.9969L-86.4945 110.802L-173 -17Z" fill="url(#paint1_linear_158_48)"/>
<path d="M282 -2H442.587L557.335 4.26392L720 265.944L511.533 73.9504L720 345H574.181L386.015 120.506L339.696 197.148L282 -2Z" fill="url(#paint2_linear_158_48)"/>
<path d="M684 -2H867.502L998.623 4.26392L1191 106.023L946.286 73.9504L1184.5 345H1017.87L802.857 120.506L684 -2Z" fill="url(#paint3_linear_158_48)"/>
<g opacity="0.75" filter="url(#filter0_f_158_48)">
<rect x="-180" y="162" width="1267" height="247" fill="white"/>
</g>
<path d="M303.881 119V107.364H311.824V109.648H306.693V112.034H311.318V114.324H306.693V119H303.881ZM316.679 119.165C315.766 119.165 314.978 118.985 314.315 118.625C313.656 118.261 313.149 117.744 312.793 117.074C312.44 116.4 312.264 115.598 312.264 114.67C312.264 113.769 312.442 112.981 312.798 112.307C313.154 111.629 313.656 111.102 314.304 110.727C314.952 110.348 315.715 110.159 316.594 110.159C317.215 110.159 317.783 110.256 318.298 110.449C318.813 110.642 319.259 110.928 319.634 111.307C320.009 111.686 320.3 112.153 320.509 112.71C320.717 113.263 320.821 113.898 320.821 114.614V115.307H313.236V113.693H318.236C318.232 113.398 318.162 113.134 318.026 112.903C317.889 112.672 317.702 112.492 317.463 112.364C317.228 112.231 316.957 112.165 316.651 112.165C316.34 112.165 316.062 112.235 315.815 112.375C315.569 112.511 315.374 112.699 315.23 112.938C315.086 113.172 315.01 113.439 315.003 113.739V115.381C315.003 115.737 315.073 116.049 315.213 116.318C315.353 116.583 315.552 116.79 315.81 116.938C316.067 117.085 316.374 117.159 316.73 117.159C316.976 117.159 317.2 117.125 317.401 117.057C317.601 116.989 317.774 116.888 317.918 116.756C318.062 116.623 318.17 116.46 318.241 116.267L320.793 116.341C320.687 116.913 320.454 117.411 320.094 117.835C319.738 118.256 319.27 118.583 318.69 118.818C318.111 119.049 317.44 119.165 316.679 119.165ZM324.7 119.148C324.143 119.148 323.649 119.055 323.217 118.869C322.789 118.68 322.45 118.396 322.2 118.017C321.954 117.634 321.831 117.155 321.831 116.58C321.831 116.095 321.916 115.686 322.087 115.352C322.257 115.019 322.492 114.748 322.791 114.54C323.09 114.331 323.435 114.174 323.825 114.068C324.215 113.958 324.632 113.884 325.075 113.847C325.571 113.801 325.971 113.754 326.274 113.705C326.577 113.652 326.797 113.578 326.933 113.483C327.073 113.384 327.143 113.246 327.143 113.068V113.04C327.143 112.748 327.043 112.523 326.842 112.364C326.642 112.205 326.371 112.125 326.03 112.125C325.662 112.125 325.367 112.205 325.143 112.364C324.92 112.523 324.778 112.742 324.717 113.023L322.155 112.932C322.231 112.402 322.426 111.928 322.74 111.511C323.058 111.091 323.494 110.761 324.047 110.523C324.604 110.28 325.272 110.159 326.053 110.159C326.609 110.159 327.123 110.225 327.592 110.358C328.062 110.487 328.471 110.676 328.82 110.926C329.168 111.172 329.437 111.475 329.626 111.835C329.82 112.195 329.916 112.606 329.916 113.068V119H327.303V117.784H327.234C327.079 118.08 326.88 118.33 326.638 118.534C326.399 118.739 326.117 118.892 325.791 118.994C325.469 119.097 325.106 119.148 324.7 119.148ZM325.558 117.33C325.857 117.33 326.126 117.269 326.365 117.148C326.607 117.027 326.801 116.86 326.945 116.648C327.089 116.432 327.161 116.182 327.161 115.898V115.068C327.081 115.11 326.984 115.148 326.871 115.182C326.761 115.216 326.64 115.248 326.507 115.278C326.375 115.309 326.238 115.335 326.098 115.358C325.958 115.381 325.823 115.402 325.695 115.42C325.433 115.462 325.21 115.527 325.024 115.614C324.842 115.701 324.702 115.814 324.604 115.955C324.509 116.091 324.462 116.254 324.462 116.443C324.462 116.731 324.564 116.951 324.768 117.102C324.977 117.254 325.24 117.33 325.558 117.33ZM336.541 110.273V112.318H331.036V110.273H336.541ZM332.189 108.182H334.967V116.256C334.967 116.426 334.994 116.564 335.047 116.67C335.104 116.773 335.185 116.847 335.291 116.892C335.397 116.934 335.524 116.955 335.672 116.955C335.778 116.955 335.89 116.945 336.007 116.926C336.128 116.903 336.219 116.884 336.28 116.869L336.7 118.875C336.568 118.913 336.38 118.96 336.138 119.017C335.899 119.074 335.613 119.11 335.28 119.125C334.628 119.155 334.07 119.08 333.604 118.898C333.142 118.712 332.787 118.424 332.541 118.034C332.299 117.644 332.181 117.153 332.189 116.562V108.182ZM343.589 115.233V110.273H346.362V119H343.714V117.375H343.624C343.43 117.909 343.101 118.333 342.635 118.648C342.173 118.958 341.614 119.114 340.959 119.114C340.364 119.114 339.841 118.977 339.391 118.705C338.94 118.432 338.589 118.051 338.339 117.562C338.089 117.07 337.963 116.494 337.959 115.835V110.273H340.737V115.29C340.741 115.763 340.866 116.136 341.112 116.409C341.358 116.682 341.694 116.818 342.118 116.818C342.394 116.818 342.643 116.758 342.862 116.636C343.086 116.511 343.262 116.331 343.391 116.097C343.523 115.858 343.589 115.57 343.589 115.233ZM348.131 119V110.273H350.83V111.864H350.92C351.08 111.288 351.339 110.86 351.699 110.58C352.059 110.295 352.477 110.153 352.955 110.153C353.083 110.153 353.216 110.163 353.352 110.182C353.489 110.197 353.616 110.222 353.733 110.256V112.67C353.6 112.625 353.426 112.589 353.21 112.562C352.998 112.536 352.809 112.523 352.642 112.523C352.313 112.523 352.015 112.597 351.75 112.744C351.489 112.888 351.282 113.091 351.131 113.352C350.983 113.61 350.909 113.913 350.909 114.261V119H348.131ZM358.491 119.165C357.579 119.165 356.791 118.985 356.128 118.625C355.469 118.261 354.961 117.744 354.605 117.074C354.253 116.4 354.077 115.598 354.077 114.67C354.077 113.769 354.255 112.981 354.611 112.307C354.967 111.629 355.469 111.102 356.116 110.727C356.764 110.348 357.527 110.159 358.406 110.159C359.027 110.159 359.596 110.256 360.111 110.449C360.626 110.642 361.071 110.928 361.446 111.307C361.821 111.686 362.113 112.153 362.321 112.71C362.529 113.263 362.634 113.898 362.634 114.614V115.307H355.048V113.693H360.048C360.045 113.398 359.974 113.134 359.838 112.903C359.702 112.672 359.514 112.492 359.276 112.364C359.041 112.231 358.77 112.165 358.463 112.165C358.152 112.165 357.874 112.235 357.628 112.375C357.382 112.511 357.187 112.699 357.043 112.938C356.899 113.172 356.823 113.439 356.815 113.739V115.381C356.815 115.737 356.885 116.049 357.026 116.318C357.166 116.583 357.365 116.79 357.622 116.938C357.88 117.085 358.187 117.159 358.543 117.159C358.789 117.159 359.012 117.125 359.213 117.057C359.414 116.989 359.586 116.888 359.73 116.756C359.874 116.623 359.982 116.46 360.054 116.267L362.605 116.341C362.499 116.913 362.266 117.411 361.906 117.835C361.55 118.256 361.082 118.583 360.503 118.818C359.923 119.049 359.253 119.165 358.491 119.165Z" fill="white"/>
<path d="M301.295 217.364V229H299.886V218.841H299.818L296.977 220.727V219.295L299.886 217.364H301.295ZM305.006 229L310.21 218.705V218.614H304.21V217.364H311.665V218.682L306.483 229H305.006ZM322.078 229H318.487V217.364H322.237C323.366 217.364 324.332 217.597 325.135 218.062C325.938 218.525 326.554 219.189 326.982 220.057C327.41 220.92 327.624 221.955 327.624 223.159C327.624 224.371 327.408 225.415 326.976 226.29C326.544 227.161 325.915 227.831 325.089 228.301C324.264 228.767 323.26 229 322.078 229ZM319.896 227.75H321.987C322.949 227.75 323.747 227.564 324.379 227.193C325.012 226.822 325.483 226.294 325.794 225.608C326.105 224.922 326.26 224.106 326.26 223.159C326.26 222.22 326.107 221.411 325.8 220.733C325.493 220.051 325.035 219.528 324.425 219.165C323.815 218.797 323.055 218.614 322.146 218.614H319.896V227.75ZM333.464 229.182C332.624 229.182 331.898 228.996 331.288 228.625C330.682 228.25 330.214 227.727 329.885 227.057C329.559 226.383 329.396 225.598 329.396 224.705C329.396 223.811 329.559 223.023 329.885 222.341C330.214 221.655 330.673 221.121 331.26 220.739C331.851 220.352 332.54 220.159 333.328 220.159C333.783 220.159 334.232 220.235 334.675 220.386C335.118 220.538 335.521 220.784 335.885 221.125C336.249 221.462 336.538 221.909 336.754 222.466C336.97 223.023 337.078 223.708 337.078 224.523V225.091H330.351V223.932H335.714C335.714 223.439 335.616 223 335.419 222.614C335.226 222.227 334.949 221.922 334.589 221.699C334.233 221.475 333.813 221.364 333.328 221.364C332.794 221.364 332.332 221.496 331.942 221.761C331.555 222.023 331.258 222.364 331.05 222.784C330.841 223.205 330.737 223.655 330.737 224.136V224.909C330.737 225.568 330.851 226.127 331.078 226.585C331.309 227.04 331.629 227.386 332.038 227.625C332.447 227.86 332.923 227.977 333.464 227.977C333.817 227.977 334.135 227.928 334.419 227.83C334.707 227.727 334.955 227.576 335.163 227.375C335.372 227.17 335.533 226.917 335.646 226.614L336.942 226.977C336.805 227.417 336.576 227.803 336.254 228.136C335.932 228.466 335.535 228.723 335.061 228.909C334.588 229.091 334.055 229.182 333.464 229.182ZM342.663 229.182C341.845 229.182 341.141 228.989 340.55 228.602C339.959 228.216 339.504 227.684 339.186 227.006C338.868 226.328 338.709 225.553 338.709 224.682C338.709 223.795 338.872 223.013 339.197 222.335C339.527 221.653 339.985 221.121 340.572 220.739C341.163 220.352 341.853 220.159 342.641 220.159C343.254 220.159 343.807 220.273 344.3 220.5C344.792 220.727 345.196 221.045 345.51 221.455C345.824 221.864 346.019 222.341 346.095 222.886H344.754C344.652 222.489 344.425 222.136 344.072 221.83C343.724 221.519 343.254 221.364 342.663 221.364C342.141 221.364 341.682 221.5 341.288 221.773C340.898 222.042 340.593 222.422 340.374 222.915C340.158 223.403 340.05 223.977 340.05 224.636C340.05 225.311 340.156 225.898 340.368 226.398C340.584 226.898 340.887 227.286 341.277 227.562C341.671 227.839 342.133 227.977 342.663 227.977C343.012 227.977 343.328 227.917 343.612 227.795C343.896 227.674 344.137 227.5 344.334 227.273C344.531 227.045 344.671 226.773 344.754 226.455H346.095C346.019 226.97 345.832 227.434 345.533 227.847C345.237 228.256 344.845 228.581 344.357 228.824C343.872 229.062 343.307 229.182 342.663 229.182ZM352.533 229V227.977L356.374 223.773C356.824 223.28 357.196 222.852 357.487 222.489C357.779 222.121 357.995 221.777 358.135 221.455C358.279 221.129 358.351 220.788 358.351 220.432C358.351 220.023 358.252 219.669 358.055 219.369C357.862 219.07 357.597 218.839 357.26 218.676C356.923 218.513 356.544 218.432 356.124 218.432C355.677 218.432 355.286 218.525 354.953 218.71C354.624 218.892 354.368 219.148 354.186 219.477C354.008 219.807 353.919 220.193 353.919 220.636H352.578C352.578 219.955 352.735 219.356 353.05 218.841C353.364 218.326 353.792 217.924 354.334 217.636C354.879 217.348 355.491 217.205 356.169 217.205C356.851 217.205 357.455 217.348 357.982 217.636C358.508 217.924 358.921 218.312 359.22 218.801C359.519 219.29 359.669 219.833 359.669 220.432C359.669 220.86 359.591 221.278 359.436 221.688C359.285 222.093 359.019 222.545 358.641 223.045C358.266 223.542 357.745 224.148 357.078 224.864L354.464 227.659V227.75H359.874V229H352.533ZM366.016 229.159C365.16 229.159 364.43 228.926 363.828 228.46C363.226 227.991 362.766 227.311 362.447 226.42C362.129 225.527 361.97 224.447 361.97 223.182C361.97 221.924 362.129 220.85 362.447 219.96C362.769 219.066 363.232 218.384 363.834 217.915C364.44 217.441 365.167 217.205 366.016 217.205C366.864 217.205 367.589 217.441 368.192 217.915C368.798 218.384 369.26 219.066 369.578 219.96C369.9 220.85 370.061 221.924 370.061 223.182C370.061 224.447 369.902 225.527 369.584 226.42C369.266 227.311 368.805 227.991 368.203 228.46C367.601 228.926 366.872 229.159 366.016 229.159ZM366.016 227.909C366.864 227.909 367.523 227.5 367.993 226.682C368.463 225.864 368.697 224.697 368.697 223.182C368.697 222.174 368.589 221.316 368.374 220.608C368.161 219.9 367.855 219.36 367.453 218.989C367.055 218.617 366.576 218.432 366.016 218.432C365.175 218.432 364.518 218.847 364.044 219.676C363.571 220.502 363.334 221.67 363.334 223.182C363.334 224.189 363.44 225.045 363.652 225.75C363.864 226.455 364.169 226.991 364.567 227.358C364.968 227.725 365.451 227.909 366.016 227.909ZM372.22 229V227.977L376.061 223.773C376.512 223.28 376.883 222.852 377.175 222.489C377.466 222.121 377.682 221.777 377.822 221.455C377.966 221.129 378.038 220.788 378.038 220.432C378.038 220.023 377.94 219.669 377.743 219.369C377.55 219.07 377.285 218.839 376.947 218.676C376.61 218.513 376.232 218.432 375.811 218.432C375.364 218.432 374.974 218.525 374.641 218.71C374.311 218.892 374.055 219.148 373.874 219.477C373.696 219.807 373.607 220.193 373.607 220.636H372.266C372.266 219.955 372.423 219.356 372.737 218.841C373.052 218.326 373.48 217.924 374.021 217.636C374.567 217.348 375.179 217.205 375.857 217.205C376.538 217.205 377.143 217.348 377.669 217.636C378.196 217.924 378.608 218.312 378.908 218.801C379.207 219.29 379.357 219.833 379.357 220.432C379.357 220.86 379.279 221.278 379.124 221.688C378.972 222.093 378.707 222.545 378.328 223.045C377.953 223.542 377.432 224.148 376.766 224.864L374.152 227.659V227.75H379.561V229H372.22ZM385.839 229.159C385.089 229.159 384.421 229.03 383.834 228.773C383.25 228.515 382.786 228.157 382.442 227.699C382.101 227.237 381.915 226.701 381.885 226.091H383.317C383.347 226.466 383.476 226.79 383.703 227.062C383.93 227.331 384.228 227.54 384.595 227.688C384.963 227.835 385.37 227.909 385.817 227.909C386.317 227.909 386.76 227.822 387.146 227.648C387.533 227.473 387.836 227.231 388.055 226.92C388.275 226.61 388.385 226.25 388.385 225.841C388.385 225.413 388.279 225.036 388.067 224.71C387.855 224.381 387.544 224.123 387.135 223.938C386.726 223.752 386.226 223.659 385.635 223.659H384.703V222.409H385.635C386.097 222.409 386.502 222.326 386.851 222.159C387.203 221.992 387.478 221.758 387.675 221.455C387.875 221.152 387.976 220.795 387.976 220.386C387.976 219.992 387.889 219.65 387.714 219.358C387.54 219.066 387.294 218.839 386.976 218.676C386.661 218.513 386.29 218.432 385.862 218.432C385.461 218.432 385.082 218.506 384.726 218.653C384.374 218.797 384.086 219.008 383.862 219.284C383.639 219.557 383.518 219.886 383.499 220.273H382.135C382.158 219.663 382.341 219.129 382.686 218.67C383.031 218.208 383.482 217.848 384.038 217.591C384.599 217.333 385.214 217.205 385.885 217.205C386.605 217.205 387.222 217.35 387.737 217.642C388.252 217.93 388.648 218.311 388.925 218.784C389.201 219.258 389.339 219.769 389.339 220.318C389.339 220.973 389.167 221.532 388.822 221.994C388.482 222.456 388.018 222.777 387.43 222.955V223.045C388.165 223.167 388.739 223.479 389.152 223.983C389.565 224.483 389.771 225.102 389.771 225.841C389.771 226.473 389.599 227.042 389.254 227.545C388.913 228.045 388.447 228.439 387.857 228.727C387.266 229.015 386.593 229.159 385.839 229.159Z" fill="white"/>
<path d="M328.213 160C328.096 158.532 327.545 157.387 326.562 156.565C325.593 155.743 324.118 155.332 322.136 155.332C320.874 155.332 319.839 155.487 319.032 155.795C318.239 156.088 317.652 156.492 317.271 157.006C316.889 157.519 316.691 158.107 316.676 158.767C316.647 159.31 316.742 159.802 316.962 160.242C317.197 160.668 317.564 161.057 318.063 161.409C318.562 161.747 319.201 162.055 319.979 162.334C320.757 162.613 321.681 162.862 322.753 163.082L326.452 163.875C328.947 164.403 331.083 165.101 332.859 165.967C334.635 166.833 336.088 167.853 337.218 169.027C338.348 170.187 339.178 171.493 339.706 172.946C340.249 174.399 340.528 175.984 340.543 177.702C340.528 180.667 339.787 183.177 338.319 185.232C336.851 187.286 334.752 188.85 332.022 189.921C329.307 190.993 326.041 191.528 322.224 191.528C318.305 191.528 314.885 190.949 311.964 189.789C309.058 188.629 306.798 186.846 305.183 184.439C303.583 182.017 302.776 178.92 302.761 175.148H314.386C314.46 176.527 314.805 177.687 315.421 178.626C316.038 179.566 316.904 180.278 318.019 180.762C319.149 181.246 320.492 181.489 322.048 181.489C323.355 181.489 324.448 181.327 325.329 181.004C326.21 180.681 326.877 180.234 327.332 179.661C327.787 179.089 328.022 178.436 328.037 177.702C328.022 177.012 327.795 176.41 327.354 175.896C326.929 175.368 326.224 174.898 325.241 174.487C324.257 174.062 322.929 173.665 321.256 173.298L316.764 172.33C312.772 171.464 309.623 170.018 307.319 167.992C305.029 165.952 303.892 163.17 303.906 159.648C303.892 156.786 304.655 154.283 306.196 152.14C307.752 149.982 309.902 148.302 312.647 147.098C315.406 145.894 318.57 145.293 322.136 145.293C325.777 145.293 328.925 145.902 331.582 147.12C334.238 148.338 336.286 150.056 337.724 152.272C339.178 154.474 339.911 157.05 339.926 160H328.213ZM361.58 191.616C357.969 191.616 354.857 190.927 352.245 189.547C349.647 188.152 347.643 186.156 346.234 183.558C344.84 180.946 344.142 177.819 344.142 174.179C344.142 170.686 344.847 167.633 346.256 165.02C347.665 162.407 349.654 160.374 352.223 158.921C354.791 157.468 357.822 156.741 361.316 156.741C363.87 156.741 366.181 157.138 368.251 157.93C370.321 158.723 372.089 159.875 373.557 161.387C375.025 162.884 376.155 164.704 376.948 166.847C377.74 168.99 378.137 171.405 378.137 174.091V176.909H347.929V170.216H366.952C366.937 169.247 366.688 168.396 366.203 167.662C365.734 166.913 365.095 166.334 364.288 165.923C363.495 165.497 362.593 165.284 361.58 165.284C360.596 165.284 359.694 165.497 358.872 165.923C358.05 166.334 357.389 166.906 356.89 167.64C356.406 168.374 356.149 169.232 356.12 170.216V177.438C356.12 178.524 356.347 179.492 356.802 180.344C357.257 181.195 357.91 181.863 358.762 182.347C359.613 182.832 360.641 183.074 361.844 183.074C362.681 183.074 363.444 182.956 364.134 182.722C364.838 182.487 365.44 182.149 365.939 181.709C366.438 181.254 366.805 180.711 367.04 180.08H378.137C377.755 182.428 376.852 184.468 375.429 186.2C374.005 187.918 372.119 189.253 369.77 190.207C367.436 191.147 364.706 191.616 361.58 191.616ZM392.519 191.528C390.362 191.528 388.454 191.176 386.795 190.472C385.151 189.752 383.859 188.666 382.92 187.213C381.981 185.76 381.511 183.911 381.511 181.665C381.511 179.815 381.826 178.237 382.458 176.931C383.089 175.61 383.969 174.531 385.1 173.695C386.23 172.858 387.544 172.219 389.041 171.779C390.552 171.339 392.182 171.053 393.928 170.92C395.822 170.774 397.341 170.598 398.486 170.392C399.646 170.172 400.482 169.871 400.996 169.489C401.51 169.093 401.767 168.572 401.767 167.926V167.838C401.767 166.957 401.429 166.282 400.754 165.812C400.079 165.343 399.213 165.108 398.156 165.108C396.996 165.108 396.049 165.365 395.316 165.879C394.596 166.378 394.163 167.148 394.017 168.19H382.832C382.979 166.135 383.632 164.242 384.791 162.51C385.966 160.763 387.676 159.369 389.921 158.327C392.167 157.27 394.971 156.741 398.332 156.741C400.754 156.741 402.926 157.028 404.849 157.6C406.772 158.158 408.408 158.943 409.759 159.956C411.109 160.954 412.137 162.128 412.841 163.479C413.56 164.814 413.92 166.268 413.92 167.838V191H402.559V186.244H402.295C401.62 187.507 400.798 188.527 399.829 189.305C398.875 190.083 397.781 190.648 396.548 191C395.33 191.352 393.987 191.528 392.519 191.528ZM396.482 183.866C397.407 183.866 398.273 183.676 399.08 183.294C399.902 182.912 400.57 182.362 401.084 181.643C401.598 180.924 401.855 180.05 401.855 179.023V176.205C401.532 176.337 401.187 176.461 400.82 176.579C400.468 176.696 400.086 176.806 399.675 176.909C399.279 177.012 398.853 177.107 398.398 177.195C397.958 177.283 397.495 177.364 397.011 177.438C396.071 177.584 395.301 177.826 394.699 178.164C394.112 178.487 393.672 178.891 393.378 179.375C393.099 179.845 392.96 180.373 392.96 180.96C392.96 181.9 393.29 182.619 393.95 183.118C394.611 183.617 395.455 183.866 396.482 183.866ZM450.639 168.19H439.454C439.395 167.5 439.153 166.906 438.728 166.407C438.302 165.908 437.752 165.526 437.076 165.262C436.416 164.983 435.682 164.844 434.875 164.844C433.833 164.844 432.937 165.035 432.189 165.416C431.44 165.798 431.073 166.341 431.088 167.045C431.073 167.545 431.286 168.007 431.726 168.433C432.181 168.858 433.055 169.188 434.346 169.423L441.216 170.656C444.68 171.287 447.256 172.352 448.944 173.849C450.646 175.331 451.505 177.32 451.52 179.815C451.505 182.223 450.786 184.314 449.362 186.09C447.953 187.852 446.023 189.217 443.571 190.185C441.135 191.139 438.353 191.616 435.227 191.616C430.06 191.616 426.016 190.56 423.096 188.446C420.189 186.332 418.567 183.544 418.23 180.08H430.295C430.457 181.151 430.985 181.98 431.88 182.567C432.79 183.14 433.935 183.426 435.315 183.426C436.431 183.426 437.348 183.235 438.067 182.854C438.801 182.472 439.175 181.929 439.19 181.224C439.175 180.579 438.852 180.065 438.221 179.683C437.605 179.302 436.636 178.993 435.315 178.759L429.326 177.702C425.877 177.1 423.294 175.955 421.576 174.267C419.859 172.579 419.008 170.407 419.022 167.75C419.008 165.402 419.624 163.413 420.872 161.783C422.134 160.139 423.932 158.892 426.266 158.04C428.614 157.174 431.396 156.741 434.61 156.741C439.498 156.741 443.351 157.754 446.169 159.78C449.002 161.805 450.492 164.609 450.639 168.19ZM472.469 191.616C468.799 191.616 465.658 190.89 463.045 189.437C460.433 187.969 458.429 185.929 457.035 183.316C455.64 180.689 454.943 177.643 454.943 174.179C454.943 170.715 455.64 167.677 457.035 165.064C458.429 162.437 460.433 160.396 463.045 158.943C465.658 157.475 468.799 156.741 472.469 156.741C476.138 156.741 479.279 157.475 481.892 158.943C484.505 160.396 486.508 162.437 487.903 165.064C489.297 167.677 489.994 170.715 489.994 174.179C489.994 177.643 489.297 180.689 487.903 183.316C486.508 185.929 484.505 187.969 481.892 189.437C479.279 190.89 476.138 191.616 472.469 191.616ZM472.557 182.634C473.584 182.634 474.472 182.289 475.221 181.599C475.969 180.909 476.549 179.925 476.96 178.648C477.371 177.371 477.577 175.852 477.577 174.091C477.577 172.315 477.371 170.796 476.96 169.533C476.549 168.256 475.969 167.273 475.221 166.583C474.472 165.893 473.584 165.548 472.557 165.548C471.471 165.548 470.539 165.893 469.761 166.583C468.983 167.273 468.388 168.256 467.977 169.533C467.566 170.796 467.361 172.315 467.361 174.091C467.361 175.852 467.566 177.371 467.977 178.648C468.388 179.925 468.983 180.909 469.761 181.599C470.539 182.289 471.471 182.634 472.557 182.634ZM507.08 171.977V191H494.926V157.182H506.463V163.611H506.815C507.549 161.468 508.841 159.787 510.69 158.569C512.554 157.351 514.727 156.741 517.207 156.741C519.6 156.741 521.677 157.292 523.438 158.393C525.214 159.479 526.587 160.976 527.555 162.884C528.539 164.792 529.023 166.972 529.009 169.423V191H516.855V171.977C516.87 170.304 516.444 168.99 515.578 168.036C514.727 167.082 513.538 166.605 512.011 166.605C511.013 166.605 510.14 166.825 509.391 167.266C508.657 167.691 508.092 168.308 507.696 169.115C507.3 169.908 507.094 170.862 507.08 171.977ZM569.377 145.909V191H557.135V157.182H556.871L547.007 163.082V152.69L558.104 145.909H569.377ZM607.279 191.616C603.668 191.616 600.557 190.927 597.944 189.547C595.346 188.152 593.342 186.156 591.933 183.558C590.539 180.946 589.842 177.819 589.842 174.179C589.842 170.686 590.546 167.633 591.955 165.02C593.364 162.407 595.353 160.374 597.922 158.921C600.491 157.468 603.522 156.741 607.015 156.741C609.569 156.741 611.881 157.138 613.95 157.93C616.02 158.723 617.789 159.875 619.256 161.387C620.724 162.884 621.854 164.704 622.647 166.847C623.44 168.99 623.836 171.405 623.836 174.091V176.909H593.629V170.216H612.651C612.637 169.247 612.387 168.396 611.903 167.662C611.433 166.913 610.795 166.334 609.987 165.923C609.195 165.497 608.292 165.284 607.279 165.284C606.296 165.284 605.393 165.497 604.571 165.923C603.749 166.334 603.089 166.906 602.589 167.64C602.105 168.374 601.848 169.232 601.819 170.216V177.438C601.819 178.524 602.046 179.492 602.501 180.344C602.956 181.195 603.61 181.863 604.461 182.347C605.312 182.832 606.34 183.074 607.543 183.074C608.38 183.074 609.143 182.956 609.833 182.722C610.538 182.487 611.139 182.149 611.638 181.709C612.138 181.254 612.504 180.711 612.739 180.08H623.836C623.454 182.428 622.552 184.468 621.128 186.2C619.704 187.918 617.818 189.253 615.469 190.207C613.136 191.147 610.406 191.616 607.279 191.616ZM640.949 171.977V191H628.795V157.182H640.332V163.611H640.684C641.418 161.468 642.71 159.787 644.559 158.569C646.424 157.351 648.596 156.741 651.077 156.741C653.469 156.741 655.546 157.292 657.307 158.393C659.083 159.479 660.456 160.976 661.425 162.884C662.408 164.792 662.892 166.972 662.878 169.423V191H650.724V171.977C650.739 170.304 650.313 168.99 649.447 168.036C648.596 167.082 647.407 166.605 645.881 166.605C644.882 166.605 644.009 166.825 643.26 167.266C642.527 167.691 641.961 168.308 641.565 169.115C641.169 169.908 640.963 170.862 640.949 171.977ZM681.119 191.44C678.712 191.44 676.495 190.809 674.47 189.547C672.459 188.285 670.844 186.369 669.626 183.8C668.422 181.232 667.82 177.995 667.82 174.091C667.82 170.01 668.452 166.693 669.714 164.139C670.991 161.585 672.635 159.714 674.646 158.525C676.671 157.336 678.8 156.741 681.031 156.741C682.704 156.741 684.172 157.035 685.434 157.622C686.696 158.195 687.753 158.965 688.605 159.934C689.456 160.888 690.102 161.937 690.542 163.082H690.718V145.909H702.872V191H690.806V185.452H690.542C690.072 186.597 689.397 187.624 688.517 188.534C687.651 189.429 686.594 190.141 685.346 190.67C684.113 191.183 682.704 191.44 681.119 191.44ZM685.61 182.105C686.726 182.105 687.68 181.782 688.472 181.136C689.28 180.476 689.896 179.551 690.322 178.362C690.762 177.159 690.982 175.735 690.982 174.091C690.982 172.418 690.762 170.987 690.322 169.798C689.896 168.594 689.28 167.677 688.472 167.045C687.68 166.4 686.726 166.077 685.61 166.077C684.495 166.077 683.541 166.4 682.748 167.045C681.97 167.677 681.368 168.594 680.943 169.798C680.532 170.987 680.326 172.418 680.326 174.091C680.326 175.764 680.532 177.203 680.943 178.406C681.368 179.595 681.97 180.513 682.748 181.158C683.541 181.79 684.495 182.105 685.61 182.105ZM739.75 168.19H728.566C728.507 167.5 728.265 166.906 727.839 166.407C727.413 165.908 726.863 165.526 726.188 165.262C725.527 164.983 724.793 164.844 723.986 164.844C722.944 164.844 722.048 165.035 721.3 165.416C720.551 165.798 720.184 166.341 720.199 167.045C720.184 167.545 720.397 168.007 720.838 168.433C721.293 168.858 722.166 169.188 723.458 169.423L730.327 170.656C733.791 171.287 736.367 172.352 738.055 173.849C739.758 175.331 740.616 177.32 740.631 179.815C740.616 182.223 739.897 184.314 738.473 186.09C737.064 187.852 735.134 189.217 732.683 190.185C730.246 191.139 727.465 191.616 724.338 191.616C719.172 191.616 715.128 190.56 712.207 188.446C709.301 186.332 707.679 183.544 707.341 180.08H719.406C719.568 181.151 720.096 181.98 720.992 182.567C721.902 183.14 723.047 183.426 724.426 183.426C725.542 183.426 726.459 183.235 727.178 182.854C727.912 182.472 728.287 181.929 728.301 181.224C728.287 180.579 727.964 180.065 727.333 179.683C726.716 179.302 725.747 178.993 724.426 178.759L718.438 177.702C714.988 177.1 712.405 175.955 710.688 174.267C708.97 172.579 708.119 170.407 708.134 167.75C708.119 165.402 708.735 163.413 709.983 161.783C711.245 160.139 713.044 158.892 715.377 158.04C717.726 157.174 720.507 156.741 723.722 156.741C728.61 156.741 732.463 157.754 735.281 159.78C738.114 161.805 739.603 164.609 739.75 168.19Z" fill="white"/>
</g>
<defs>
<filter id="filter0_f_158_48" x="-680" y="-338" width="2267" height="1247" filterUnits="userSpaceOnUse" color-interpolation-filters="sRGB">
<feFlood flood-opacity="0" result="BackgroundImageFix"/>
<feBlend mode="normal" in="SourceGraphic" in2="BackgroundImageFix" result="shape"/>
<feGaussianBlur stdDeviation="250" result="effect1_foregroundBlur_158_48"/>
</filter>
<linearGradient id="paint0_linear_158_48" x1="1448.5" y1="229.535" x2="1390.85" y2="-53.9909" gradientUnits="userSpaceOnUse">
<stop stop-color="#8E45FF"/>
<stop offset="0.835" stop-color="#548CFF" stop-opacity="0"/>
</linearGradient>
<linearGradient id="paint1_linear_158_48" x1="-21" y1="234.123" x2="-102.49" y2="-56.564" gradientUnits="userSpaceOnUse">
<stop stop-color="#AE85FF"/>
<stop offset="0.835" stop-color="#AD85FE" stop-opacity="0"/>
</linearGradient>
<linearGradient id="paint2_linear_158_48" x1="501.406" y1="330.517" x2="484.354" y2="-99.1053" gradientUnits="userSpaceOnUse">
<stop stop-color="#9E6EFE"/>
<stop offset="0.835" stop-color="#A070FE" stop-opacity="0"/>
</linearGradient>
<linearGradient id="paint3_linear_158_48" x1="937" y1="462.279" x2="837.648" y2="-161.518" gradientUnits="userSpaceOnUse">
<stop stop-color="#8B51FF"/>
<stop offset="0.835" stop-color="#9159FF" stop-opacity="0"/>
</linearGradient>
</defs>
</svg>
