<svg width="166" height="50" viewBox="0 0 166 50" fill="none" xmlns="http://www.w3.org/2000/svg">
<circle cx="25" cy="25" r="25" fill="#32A72B"/>
<path d="M16.7436 36L10.5859 14.1818H14.8366L18.7678 30.2152H18.9702L23.1676 14.1818H27.0348L31.2429 30.2259H31.4347L35.3658 14.1818H39.6165L33.4588 36H29.5597L25.1918 20.6911H25.0213L20.6428 36H16.7436Z" fill="white"/>
<circle cx="83" cy="25" r="25" fill="#32A72B"/>
<path d="M74.7436 36L68.5859 14.1818H72.8366L76.7678 30.2152H76.9702L81.1676 14.1818H85.0348L89.2429 30.2259H89.4347L93.3658 14.1818H97.6165L91.4588 36H87.5597L83.1918 20.6911H83.0213L78.6428 36H74.7436Z" fill="white"/>
<circle cx="141" cy="25" r="25" fill="#C0C2D4"/>
<path d="M139.545 36H132.152V14.1818H139.695C141.861 14.1818 143.722 14.6186 145.277 15.4922C146.839 16.3587 148.04 17.6051 148.878 19.2315C149.716 20.858 150.135 22.804 150.135 25.0696C150.135 27.3423 149.712 29.2955 148.867 30.929C148.029 32.5625 146.818 33.8161 145.234 34.6896C143.658 35.5632 141.761 36 139.545 36ZM136.104 32.5803H139.354C140.874 32.5803 142.141 32.3033 143.157 31.7493C144.173 31.1882 144.936 30.3537 145.447 29.2457C145.959 28.1307 146.214 26.7386 146.214 25.0696C146.214 23.4006 145.959 22.0156 145.447 20.9148C144.936 19.8068 144.18 18.9794 143.178 18.4325C142.184 17.8786 140.948 17.6016 139.471 17.6016H136.104V32.5803Z" fill="black"/>
</svg>
