<svg width="1440" height="345" viewBox="0 0 1440 345" fill="none" xmlns="http://www.w3.org/2000/svg">
<mask id="mask0_158_48" style="mask-type:alpha" maskUnits="userSpaceOnUse" x="0" y="0" width="1440" height="345">
<rect width="1440" height="345" fill="white"/>
</mask>
<g mask="url(#mask0_158_48)">
<rect width="1440" height="345" fill="#7762FF" fill-opacity="0.73"/>
<path d="M1223 -2H1374.34L1482.49 4.26392L1562.27 151.283L1658 261.72L1635.79 345H1498.36L1321.03 120.506L1223 -2Z" fill="url(#paint0_linear_158_48)"/>
<path d="M-173 -17H-39.4456L55.9863 -10.4653L196 95.6922L97.3297 154.242L191.269 345H69.9969L-86.4945 110.802L-173 -17Z" fill="url(#paint1_linear_158_48)"/>
<path d="M282 -2H442.587L557.335 4.26392L720 265.944L511.533 73.9504L720 345H574.181L386.015 120.506L339.696 197.148L282 -2Z" fill="url(#paint2_linear_158_48)"/>
<path d="M684 -2H867.502L998.623 4.26392L1191 106.023L946.286 73.9504L1184.5 345H1017.87L802.857 120.506L684 -2Z" fill="url(#paint3_linear_158_48)"/>
<g opacity="0.75" filter="url(#filter0_f_158_48)">
<rect x="-180" y="162" width="1267" height="247" fill="white"/>
</g>
<path d="M303.881 101V89.3636H311.824V91.6477H306.693V94.0341H311.318V96.3239H306.693V101H303.881ZM316.679 101.165C315.766 101.165 314.978 100.985 314.315 100.625C313.656 100.261 313.149 99.7443 312.793 99.0739C312.44 98.3996 312.264 97.5985 312.264 96.6705C312.264 95.7689 312.442 94.9811 312.798 94.3068C313.154 93.6288 313.656 93.1023 314.304 92.7273C314.952 92.3485 315.715 92.1591 316.594 92.1591C317.215 92.1591 317.783 92.2557 318.298 92.4489C318.813 92.642 319.259 92.928 319.634 93.3068C320.009 93.6856 320.3 94.1534 320.509 94.7102C320.717 95.2633 320.821 95.8977 320.821 96.6136V97.3068H313.236V95.6932H318.236C318.232 95.3977 318.162 95.1345 318.026 94.9034C317.889 94.6723 317.702 94.4924 317.463 94.3636C317.228 94.2311 316.957 94.1648 316.651 94.1648C316.34 94.1648 316.062 94.2348 315.815 94.375C315.569 94.5114 315.374 94.6989 315.23 94.9375C315.086 95.1723 315.01 95.4394 315.003 95.7386V97.3807C315.003 97.7367 315.073 98.0492 315.213 98.3182C315.353 98.5833 315.552 98.7898 315.81 98.9375C316.067 99.0852 316.374 99.1591 316.73 99.1591C316.976 99.1591 317.2 99.125 317.401 99.0568C317.601 98.9886 317.774 98.8883 317.918 98.7557C318.062 98.6231 318.17 98.4602 318.241 98.267L320.793 98.3409C320.687 98.9129 320.454 99.411 320.094 99.8352C319.738 100.256 319.27 100.583 318.69 100.818C318.111 101.049 317.44 101.165 316.679 101.165ZM324.7 101.148C324.143 101.148 323.649 101.055 323.217 100.869C322.789 100.68 322.45 100.396 322.2 100.017C321.954 99.6345 321.831 99.1553 321.831 98.5795C321.831 98.0947 321.916 97.6856 322.087 97.3523C322.257 97.0189 322.492 96.7481 322.791 96.5398C323.09 96.3314 323.435 96.1742 323.825 96.0682C324.215 95.9583 324.632 95.8845 325.075 95.8466C325.571 95.8011 325.971 95.7538 326.274 95.7045C326.577 95.6515 326.797 95.5777 326.933 95.483C327.073 95.3845 327.143 95.2462 327.143 95.0682V95.0398C327.143 94.7481 327.043 94.5227 326.842 94.3636C326.642 94.2045 326.371 94.125 326.03 94.125C325.662 94.125 325.367 94.2045 325.143 94.3636C324.92 94.5227 324.778 94.7424 324.717 95.0227L322.155 94.9318C322.231 94.4015 322.426 93.928 322.74 93.5114C323.058 93.0909 323.494 92.7614 324.047 92.5227C324.604 92.2803 325.272 92.1591 326.053 92.1591C326.609 92.1591 327.123 92.2254 327.592 92.358C328.062 92.4867 328.471 92.6761 328.82 92.9261C329.168 93.1723 329.437 93.4754 329.626 93.8352C329.82 94.1951 329.916 94.6061 329.916 95.0682V101H327.303V99.7841H327.234C327.079 100.08 326.88 100.33 326.638 100.534C326.399 100.739 326.117 100.892 325.791 100.994C325.469 101.097 325.106 101.148 324.7 101.148ZM325.558 99.3295C325.857 99.3295 326.126 99.2689 326.365 99.1477C326.607 99.0265 326.801 98.8598 326.945 98.6477C327.089 98.4318 327.161 98.1818 327.161 97.8977V97.0682C327.081 97.1098 326.984 97.1477 326.871 97.1818C326.761 97.2159 326.64 97.2481 326.507 97.2784C326.375 97.3087 326.238 97.3352 326.098 97.358C325.958 97.3807 325.823 97.4015 325.695 97.4205C325.433 97.4621 325.21 97.5265 325.024 97.6136C324.842 97.7008 324.702 97.8144 324.604 97.9545C324.509 98.0909 324.462 98.2538 324.462 98.4432C324.462 98.7311 324.564 98.9508 324.768 99.1023C324.977 99.2538 325.24 99.3295 325.558 99.3295ZM336.541 92.2727V94.3182H331.036V92.2727H336.541ZM332.189 90.1818H334.967V98.2557C334.967 98.4261 334.994 98.5644 335.047 98.6705C335.104 98.7727 335.185 98.8466 335.291 98.892C335.397 98.9337 335.524 98.9545 335.672 98.9545C335.778 98.9545 335.89 98.9451 336.007 98.9261C336.128 98.9034 336.219 98.8845 336.28 98.8693L336.7 100.875C336.568 100.913 336.38 100.96 336.138 101.017C335.899 101.074 335.613 101.11 335.28 101.125C334.628 101.155 334.07 101.08 333.604 100.898C333.142 100.712 332.787 100.424 332.541 100.034C332.299 99.6439 332.181 99.1534 332.189 98.5625V90.1818ZM343.589 97.233V92.2727H346.362V101H343.714V99.375H343.624C343.43 99.9091 343.101 100.333 342.635 100.648C342.173 100.958 341.614 101.114 340.959 101.114C340.364 101.114 339.841 100.977 339.391 100.705C338.94 100.432 338.589 100.051 338.339 99.5625C338.089 99.0701 337.963 98.4943 337.959 97.8352V92.2727H340.737V97.2898C340.741 97.7633 340.866 98.1364 341.112 98.4091C341.358 98.6818 341.694 98.8182 342.118 98.8182C342.394 98.8182 342.643 98.7576 342.862 98.6364C343.086 98.5114 343.262 98.3314 343.391 98.0966C343.523 97.858 343.589 97.5701 343.589 97.233ZM348.131 101V92.2727H350.83V93.8636H350.92C351.08 93.2879 351.339 92.8598 351.699 92.5795C352.059 92.2955 352.477 92.1534 352.955 92.1534C353.083 92.1534 353.216 92.1629 353.352 92.1818C353.489 92.197 353.616 92.2216 353.733 92.2557V94.6705C353.6 94.625 353.426 94.589 353.21 94.5625C352.998 94.536 352.809 94.5227 352.642 94.5227C352.313 94.5227 352.015 94.5966 351.75 94.7443C351.489 94.8883 351.282 95.0909 351.131 95.3523C350.983 95.6098 350.909 95.9129 350.909 96.2614V101H348.131ZM358.491 101.165C357.579 101.165 356.791 100.985 356.128 100.625C355.469 100.261 354.961 99.7443 354.605 99.0739C354.253 98.3996 354.077 97.5985 354.077 96.6705C354.077 95.7689 354.255 94.9811 354.611 94.3068C354.967 93.6288 355.469 93.1023 356.116 92.7273C356.764 92.3485 357.527 92.1591 358.406 92.1591C359.027 92.1591 359.596 92.2557 360.111 92.4489C360.626 92.642 361.071 92.928 361.446 93.3068C361.821 93.6856 362.113 94.1534 362.321 94.7102C362.529 95.2633 362.634 95.8977 362.634 96.6136V97.3068H355.048V95.6932H360.048C360.045 95.3977 359.974 95.1345 359.838 94.9034C359.702 94.6723 359.514 94.4924 359.276 94.3636C359.041 94.2311 358.77 94.1648 358.463 94.1648C358.152 94.1648 357.874 94.2348 357.628 94.375C357.382 94.5114 357.187 94.6989 357.043 94.9375C356.899 95.1723 356.823 95.4394 356.815 95.7386V97.3807C356.815 97.7367 356.885 98.0492 357.026 98.3182C357.166 98.5833 357.365 98.7898 357.622 98.9375C357.88 99.0852 358.187 99.1591 358.543 99.1591C358.789 99.1591 359.012 99.125 359.213 99.0568C359.414 98.9886 359.586 98.8883 359.73 98.7557C359.874 98.6231 359.982 98.4602 360.054 98.267L362.605 98.3409C362.499 98.9129 362.266 99.411 361.906 99.8352C361.55 100.256 361.082 100.583 360.503 100.818C359.923 101.049 359.253 101.165 358.491 101.165Z" fill="white"/>
<path d="M300.295 272.364V284H298.886V273.841H298.818L295.977 275.727V274.295L298.886 272.364H300.295ZM307.506 284.159C307.028 284.152 306.551 284.061 306.074 283.886C305.597 283.712 305.161 283.419 304.767 283.006C304.373 282.589 304.057 282.027 303.818 281.318C303.58 280.606 303.46 279.712 303.46 278.636C303.46 277.606 303.557 276.693 303.75 275.898C303.943 275.098 304.223 274.426 304.591 273.881C304.958 273.331 305.402 272.915 305.92 272.631C306.443 272.347 307.032 272.205 307.688 272.205C308.339 272.205 308.919 272.335 309.426 272.597C309.938 272.854 310.354 273.214 310.676 273.676C310.998 274.138 311.206 274.67 311.301 275.273H309.915C309.786 274.75 309.536 274.316 309.165 273.972C308.794 273.627 308.301 273.455 307.688 273.455C306.786 273.455 306.076 273.847 305.557 274.631C305.042 275.415 304.782 276.515 304.778 277.932H304.869C305.081 277.61 305.333 277.335 305.625 277.108C305.92 276.877 306.246 276.699 306.602 276.574C306.958 276.449 307.335 276.386 307.733 276.386C308.4 276.386 309.009 276.553 309.562 276.886C310.116 277.216 310.559 277.672 310.892 278.256C311.225 278.835 311.392 279.5 311.392 280.25C311.392 280.97 311.231 281.629 310.909 282.227C310.587 282.822 310.134 283.295 309.551 283.648C308.972 283.996 308.29 284.167 307.506 284.159ZM307.506 282.909C307.983 282.909 308.411 282.79 308.79 282.551C309.172 282.312 309.473 281.992 309.693 281.591C309.917 281.189 310.028 280.742 310.028 280.25C310.028 279.769 309.92 279.331 309.705 278.938C309.492 278.54 309.199 278.223 308.824 277.989C308.453 277.754 308.028 277.636 307.551 277.636C307.191 277.636 306.856 277.708 306.545 277.852C306.235 277.992 305.962 278.186 305.727 278.432C305.496 278.678 305.314 278.96 305.182 279.278C305.049 279.593 304.983 279.924 304.983 280.273C304.983 280.735 305.091 281.167 305.307 281.568C305.527 281.97 305.826 282.294 306.205 282.54C306.587 282.786 307.021 282.909 307.506 282.909ZM321.922 284H318.331V272.364H322.081C323.21 272.364 324.176 272.597 324.979 273.062C325.782 273.525 326.397 274.189 326.825 275.057C327.253 275.92 327.467 276.955 327.467 278.159C327.467 279.371 327.251 280.415 326.82 281.29C326.388 282.161 325.759 282.831 324.933 283.301C324.107 283.767 323.104 284 321.922 284ZM319.74 282.75H321.831C322.793 282.75 323.59 282.564 324.223 282.193C324.856 281.822 325.327 281.294 325.638 280.608C325.948 279.922 326.104 279.106 326.104 278.159C326.104 277.22 325.95 276.411 325.643 275.733C325.337 275.051 324.878 274.528 324.268 274.165C323.659 273.797 322.899 273.614 321.99 273.614H319.74V282.75ZM333.308 284.182C332.467 284.182 331.742 283.996 331.132 283.625C330.526 283.25 330.058 282.727 329.729 282.057C329.403 281.383 329.24 280.598 329.24 279.705C329.24 278.811 329.403 278.023 329.729 277.341C330.058 276.655 330.517 276.121 331.104 275.739C331.695 275.352 332.384 275.159 333.172 275.159C333.626 275.159 334.075 275.235 334.518 275.386C334.962 275.538 335.365 275.784 335.729 276.125C336.092 276.462 336.382 276.909 336.598 277.466C336.814 278.023 336.922 278.708 336.922 279.523V280.091H330.195V278.932H335.558C335.558 278.439 335.46 278 335.263 277.614C335.07 277.227 334.793 276.922 334.433 276.699C334.077 276.475 333.657 276.364 333.172 276.364C332.638 276.364 332.176 276.496 331.786 276.761C331.399 277.023 331.102 277.364 330.893 277.784C330.685 278.205 330.581 278.655 330.581 279.136V279.909C330.581 280.568 330.695 281.127 330.922 281.585C331.153 282.04 331.473 282.386 331.882 282.625C332.291 282.86 332.767 282.977 333.308 282.977C333.661 282.977 333.979 282.928 334.263 282.83C334.551 282.727 334.799 282.576 335.007 282.375C335.215 282.17 335.376 281.917 335.49 281.614L336.786 281.977C336.649 282.417 336.42 282.803 336.098 283.136C335.776 283.466 335.378 283.723 334.905 283.909C334.431 284.091 333.899 284.182 333.308 284.182ZM342.507 284.182C341.689 284.182 340.984 283.989 340.393 283.602C339.803 283.216 339.348 282.684 339.03 282.006C338.712 281.328 338.553 280.553 338.553 279.682C338.553 278.795 338.715 278.013 339.041 277.335C339.371 276.653 339.829 276.121 340.416 275.739C341.007 275.352 341.696 275.159 342.484 275.159C343.098 275.159 343.651 275.273 344.143 275.5C344.636 275.727 345.039 276.045 345.354 276.455C345.668 276.864 345.863 277.341 345.939 277.886H344.598C344.496 277.489 344.268 277.136 343.916 276.83C343.568 276.519 343.098 276.364 342.507 276.364C341.984 276.364 341.526 276.5 341.132 276.773C340.742 277.042 340.437 277.422 340.217 277.915C340.001 278.403 339.893 278.977 339.893 279.636C339.893 280.311 340 280.898 340.212 281.398C340.428 281.898 340.731 282.286 341.121 282.562C341.515 282.839 341.977 282.977 342.507 282.977C342.856 282.977 343.172 282.917 343.456 282.795C343.74 282.674 343.981 282.5 344.178 282.273C344.375 282.045 344.515 281.773 344.598 281.455H345.939C345.863 281.97 345.676 282.434 345.376 282.847C345.081 283.256 344.689 283.581 344.2 283.824C343.715 284.062 343.151 284.182 342.507 284.182ZM352.376 284V282.977L356.217 278.773C356.668 278.28 357.039 277.852 357.331 277.489C357.623 277.121 357.839 276.777 357.979 276.455C358.123 276.129 358.195 275.788 358.195 275.432C358.195 275.023 358.096 274.669 357.899 274.369C357.706 274.07 357.441 273.839 357.104 273.676C356.767 273.513 356.388 273.432 355.967 273.432C355.52 273.432 355.13 273.525 354.797 273.71C354.467 273.892 354.212 274.148 354.03 274.477C353.852 274.807 353.763 275.193 353.763 275.636H352.422C352.422 274.955 352.579 274.356 352.893 273.841C353.208 273.326 353.636 272.924 354.178 272.636C354.723 272.348 355.335 272.205 356.013 272.205C356.695 272.205 357.299 272.348 357.825 272.636C358.352 272.924 358.765 273.312 359.064 273.801C359.363 274.29 359.513 274.833 359.513 275.432C359.513 275.86 359.435 276.278 359.28 276.688C359.128 277.093 358.863 277.545 358.484 278.045C358.109 278.542 357.589 279.148 356.922 279.864L354.308 282.659V282.75H359.717V284H352.376ZM365.859 284.159C365.003 284.159 364.274 283.926 363.672 283.46C363.07 282.991 362.609 282.311 362.291 281.42C361.973 280.527 361.814 279.447 361.814 278.182C361.814 276.924 361.973 275.85 362.291 274.96C362.613 274.066 363.075 273.384 363.678 272.915C364.284 272.441 365.011 272.205 365.859 272.205C366.708 272.205 367.433 272.441 368.036 272.915C368.642 273.384 369.104 274.066 369.422 274.96C369.744 275.85 369.905 276.924 369.905 278.182C369.905 279.447 369.746 280.527 369.428 281.42C369.109 282.311 368.649 282.991 368.047 283.46C367.445 283.926 366.715 284.159 365.859 284.159ZM365.859 282.909C366.708 282.909 367.367 282.5 367.837 281.682C368.306 280.864 368.541 279.697 368.541 278.182C368.541 277.174 368.433 276.316 368.217 275.608C368.005 274.9 367.698 274.36 367.297 273.989C366.899 273.617 366.42 273.432 365.859 273.432C365.018 273.432 364.361 273.847 363.888 274.676C363.414 275.502 363.178 276.67 363.178 278.182C363.178 279.189 363.284 280.045 363.496 280.75C363.708 281.455 364.013 281.991 364.411 282.358C364.812 282.725 365.295 282.909 365.859 282.909ZM372.064 284V282.977L375.905 278.773C376.356 278.28 376.727 277.852 377.018 277.489C377.31 277.121 377.526 276.777 377.666 276.455C377.81 276.129 377.882 275.788 377.882 275.432C377.882 275.023 377.784 274.669 377.587 274.369C377.393 274.07 377.128 273.839 376.791 273.676C376.454 273.513 376.075 273.432 375.655 273.432C375.208 273.432 374.818 273.525 374.484 273.71C374.155 273.892 373.899 274.148 373.717 274.477C373.539 274.807 373.45 275.193 373.45 275.636H372.109C372.109 274.955 372.267 274.356 372.581 273.841C372.895 273.326 373.323 272.924 373.865 272.636C374.411 272.348 375.022 272.205 375.7 272.205C376.382 272.205 376.986 272.348 377.513 272.636C378.039 272.924 378.452 273.312 378.751 273.801C379.051 274.29 379.2 274.833 379.2 275.432C379.2 275.86 379.123 276.278 378.967 276.688C378.816 277.093 378.551 277.545 378.172 278.045C377.797 278.542 377.276 279.148 376.609 279.864L373.996 282.659V282.75H379.405V284H372.064ZM385.683 284.159C384.933 284.159 384.265 284.03 383.678 283.773C383.094 283.515 382.63 283.157 382.286 282.699C381.945 282.237 381.759 281.701 381.729 281.091H383.161C383.191 281.466 383.32 281.79 383.547 282.062C383.774 282.331 384.071 282.54 384.439 282.688C384.806 282.835 385.214 282.909 385.661 282.909C386.161 282.909 386.604 282.822 386.99 282.648C387.376 282.473 387.679 282.231 387.899 281.92C388.119 281.61 388.229 281.25 388.229 280.841C388.229 280.413 388.123 280.036 387.911 279.71C387.698 279.381 387.388 279.123 386.979 278.938C386.57 278.752 386.07 278.659 385.479 278.659H384.547V277.409H385.479C385.941 277.409 386.346 277.326 386.695 277.159C387.047 276.992 387.321 276.758 387.518 276.455C387.719 276.152 387.82 275.795 387.82 275.386C387.82 274.992 387.732 274.65 387.558 274.358C387.384 274.066 387.138 273.839 386.82 273.676C386.505 273.513 386.134 273.432 385.706 273.432C385.304 273.432 384.926 273.506 384.57 273.653C384.217 273.797 383.929 274.008 383.706 274.284C383.482 274.557 383.361 274.886 383.342 275.273H381.979C382.001 274.663 382.185 274.129 382.53 273.67C382.875 273.208 383.325 272.848 383.882 272.591C384.443 272.333 385.058 272.205 385.729 272.205C386.448 272.205 387.066 272.35 387.581 272.642C388.096 272.93 388.492 273.311 388.768 273.784C389.045 274.258 389.183 274.769 389.183 275.318C389.183 275.973 389.011 276.532 388.666 276.994C388.325 277.456 387.861 277.777 387.274 277.955V278.045C388.009 278.167 388.583 278.479 388.996 278.983C389.409 279.483 389.615 280.102 389.615 280.841C389.615 281.473 389.443 282.042 389.098 282.545C388.757 283.045 388.291 283.439 387.7 283.727C387.109 284.015 386.437 284.159 385.683 284.159Z" fill="white"/>
<path d="M350.003 143.818H337.585C337.497 142.791 337.262 141.859 336.881 141.022C336.514 140.185 336 139.466 335.339 138.864C334.694 138.248 333.908 137.778 332.984 137.455C332.059 137.118 331.009 136.949 329.835 136.949C327.78 136.949 326.041 137.448 324.617 138.446C323.208 139.444 322.137 140.875 321.403 142.739C320.683 144.603 320.324 146.842 320.324 149.455C320.324 152.214 320.691 154.526 321.425 156.39C322.173 158.239 323.252 159.634 324.661 160.573C326.07 161.498 327.766 161.96 329.747 161.96C330.877 161.96 331.89 161.821 332.786 161.542C333.681 161.248 334.459 160.83 335.119 160.287C335.78 159.744 336.316 159.091 336.727 158.327C337.152 157.549 337.438 156.676 337.585 155.707L350.003 155.795C349.856 157.704 349.32 159.648 348.396 161.63C347.471 163.597 346.157 165.417 344.455 167.09C342.767 168.749 340.675 170.085 338.18 171.097C335.684 172.11 332.786 172.616 329.483 172.616C325.344 172.616 321.63 171.728 318.342 169.952C315.069 168.176 312.478 165.564 310.57 162.114C308.677 158.665 307.73 154.445 307.73 149.455C307.73 144.435 308.699 140.207 310.636 136.773C312.574 133.323 315.187 130.718 318.474 128.957C321.762 127.181 325.432 126.293 329.483 126.293C332.33 126.293 334.951 126.682 337.343 127.46C339.736 128.237 341.835 129.375 343.64 130.872C345.445 132.355 346.898 134.182 347.999 136.354C349.1 138.527 349.768 141.015 350.003 143.818ZM372.025 172.616C368.356 172.616 365.215 171.89 362.602 170.437C359.989 168.969 357.986 166.929 356.591 164.316C355.197 161.689 354.5 158.643 354.5 155.179C354.5 151.715 355.197 148.677 356.591 146.064C357.986 143.437 359.989 141.396 362.602 139.943C365.215 138.475 368.356 137.741 372.025 137.741C375.695 137.741 378.836 138.475 381.449 139.943C384.061 141.396 386.065 143.437 387.459 146.064C388.854 148.677 389.551 151.715 389.551 155.179C389.551 158.643 388.854 161.689 387.459 164.316C386.065 166.929 384.061 168.969 381.449 170.437C378.836 171.89 375.695 172.616 372.025 172.616ZM372.113 163.634C373.141 163.634 374.029 163.289 374.778 162.599C375.526 161.909 376.106 160.925 376.517 159.648C376.928 158.371 377.133 156.852 377.133 155.091C377.133 153.315 376.928 151.796 376.517 150.533C376.106 149.256 375.526 148.273 374.778 147.583C374.029 146.893 373.141 146.548 372.113 146.548C371.027 146.548 370.095 146.893 369.317 147.583C368.539 148.273 367.945 149.256 367.534 150.533C367.123 151.796 366.917 153.315 366.917 155.091C366.917 156.852 367.123 158.371 367.534 159.648C367.945 160.925 368.539 161.909 369.317 162.599C370.095 163.289 371.027 163.634 372.113 163.634ZM394.483 172V138.182H406.02V144.611H406.372C407.077 142.497 408.28 140.824 409.983 139.591C411.685 138.358 413.711 137.741 416.059 137.741C418.437 137.741 420.485 138.373 422.202 139.635C423.92 140.883 424.954 142.541 425.307 144.611H425.659C426.231 142.541 427.45 140.883 429.314 139.635C431.178 138.373 433.365 137.741 435.875 137.741C439.119 137.741 441.746 138.784 443.757 140.868C445.782 142.952 446.795 145.726 446.795 149.19V172H434.642V152.273C434.642 150.79 434.268 149.631 433.519 148.794C432.77 147.943 431.765 147.517 430.503 147.517C429.255 147.517 428.264 147.943 427.53 148.794C426.811 149.631 426.452 150.79 426.452 152.273V172H414.827V152.273C414.827 150.79 414.452 149.631 413.704 148.794C412.955 147.943 411.95 147.517 410.687 147.517C409.851 147.517 409.131 147.708 408.53 148.089C407.928 148.471 407.458 149.022 407.121 149.741C406.798 150.445 406.636 151.289 406.636 152.273V172H394.483ZM452.789 184.682V138.182H464.855V144.082H465.119C465.559 142.937 466.205 141.888 467.056 140.934C467.908 139.965 468.965 139.195 470.227 138.622C471.489 138.035 472.957 137.741 474.63 137.741C476.861 137.741 478.982 138.336 480.993 139.525C483.019 140.714 484.663 142.585 485.925 145.139C487.202 147.693 487.841 151.01 487.841 155.091C487.841 158.995 487.231 162.232 486.013 164.8C484.81 167.369 483.195 169.285 481.169 170.547C479.158 171.809 476.949 172.44 474.542 172.44C472.957 172.44 471.541 172.183 470.293 171.67C469.06 171.141 468.003 170.429 467.123 169.534C466.257 168.624 465.589 167.597 465.119 166.452H464.943V184.682H452.789ZM464.679 155.091C464.679 156.735 464.891 158.159 465.317 159.362C465.757 160.551 466.374 161.476 467.167 162.136C467.974 162.782 468.935 163.105 470.051 163.105C471.166 163.105 472.113 162.79 472.891 162.158C473.684 161.513 474.285 160.595 474.696 159.406C475.122 158.203 475.335 156.764 475.335 155.091C475.335 153.418 475.122 151.987 474.696 150.798C474.285 149.594 473.684 148.677 472.891 148.045C472.113 147.4 471.166 147.077 470.051 147.077C468.935 147.077 467.974 147.4 467.167 148.045C466.374 148.677 465.757 149.594 465.317 150.798C464.891 151.987 464.679 153.418 464.679 155.091ZM509.225 172.616C505.555 172.616 502.414 171.89 499.801 170.437C497.189 168.969 495.185 166.929 493.791 164.316C492.396 161.689 491.699 158.643 491.699 155.179C491.699 151.715 492.396 148.677 493.791 146.064C495.185 143.437 497.189 141.396 499.801 139.943C502.414 138.475 505.555 137.741 509.225 137.741C512.894 137.741 516.035 138.475 518.648 139.943C521.261 141.396 523.264 143.437 524.659 146.064C526.053 148.677 526.75 151.715 526.75 155.179C526.75 158.643 526.053 161.689 524.659 164.316C523.264 166.929 521.261 168.969 518.648 170.437C516.035 171.89 512.894 172.616 509.225 172.616ZM509.313 163.634C510.34 163.634 511.228 163.289 511.977 162.599C512.725 161.909 513.305 160.925 513.716 159.648C514.127 158.371 514.333 156.852 514.333 155.091C514.333 153.315 514.127 151.796 513.716 150.533C513.305 149.256 512.725 148.273 511.977 147.583C511.228 146.893 510.34 146.548 509.313 146.548C508.227 146.548 507.294 146.893 506.517 147.583C505.739 148.273 505.144 149.256 504.733 150.533C504.322 151.796 504.117 153.315 504.117 155.091C504.117 156.852 504.322 158.371 504.733 159.648C505.144 160.925 505.739 161.909 506.517 162.599C507.294 163.289 508.227 163.634 509.313 163.634ZM562.594 149.19H551.409C551.351 148.5 551.108 147.906 550.683 147.407C550.257 146.908 549.707 146.526 549.031 146.262C548.371 145.983 547.637 145.844 546.83 145.844C545.788 145.844 544.892 146.035 544.144 146.416C543.395 146.798 543.028 147.341 543.043 148.045C543.028 148.545 543.241 149.007 543.681 149.433C544.136 149.858 545.01 150.188 546.301 150.423L553.171 151.656C556.635 152.287 559.211 153.352 560.899 154.849C562.601 156.331 563.46 158.32 563.475 160.815C563.46 163.223 562.741 165.314 561.317 167.09C559.908 168.852 557.978 170.217 555.526 171.185C553.09 172.139 550.308 172.616 547.182 172.616C542.015 172.616 537.972 171.56 535.051 169.446C532.144 167.332 530.522 164.544 530.185 161.08H542.25C542.412 162.151 542.94 162.98 543.835 163.567C544.745 164.14 545.89 164.426 547.27 164.426C548.386 164.426 549.303 164.235 550.022 163.854C550.756 163.472 551.13 162.929 551.145 162.224C551.13 161.579 550.807 161.065 550.176 160.683C549.56 160.302 548.591 159.993 547.27 159.759L541.281 158.702C537.832 158.1 535.249 156.955 533.531 155.267C531.814 153.579 530.963 151.407 530.977 148.75C530.963 146.402 531.579 144.413 532.827 142.783C534.089 141.139 535.887 139.892 538.221 139.04C540.57 138.174 543.351 137.741 546.566 137.741C551.453 137.741 555.306 138.754 558.124 140.78C560.957 142.805 562.447 145.609 562.594 149.19ZM584.336 172.616C580.725 172.616 577.613 171.927 575.001 170.547C572.403 169.152 570.399 167.156 568.99 164.558C567.595 161.946 566.898 158.819 566.898 155.179C566.898 151.686 567.603 148.633 569.012 146.02C570.421 143.407 572.41 141.374 574.979 139.921C577.547 138.468 580.578 137.741 584.072 137.741C586.626 137.741 588.937 138.138 591.007 138.93C593.077 139.723 594.845 140.875 596.313 142.387C597.781 143.884 598.911 145.704 599.704 147.847C600.496 149.99 600.893 152.405 600.893 155.091V157.909H570.685V151.216H589.708C589.693 150.247 589.444 149.396 588.959 148.662C588.49 147.913 587.851 147.334 587.044 146.923C586.251 146.497 585.349 146.284 584.336 146.284C583.352 146.284 582.45 146.497 581.628 146.923C580.806 147.334 580.145 147.906 579.646 148.64C579.162 149.374 578.905 150.232 578.876 151.216V158.438C578.876 159.524 579.103 160.492 579.558 161.344C580.013 162.195 580.666 162.863 581.518 163.347C582.369 163.832 583.396 164.074 584.6 164.074C585.437 164.074 586.2 163.956 586.89 163.722C587.594 163.487 588.196 163.149 588.695 162.709C589.194 162.254 589.561 161.711 589.796 161.08H600.893C600.511 163.428 599.608 165.468 598.184 167.2C596.761 168.918 594.875 170.253 592.526 171.207C590.192 172.147 587.462 172.616 584.336 172.616ZM618.093 172.44C615.686 172.44 613.47 171.809 611.444 170.547C609.433 169.285 607.819 167.369 606.6 164.8C605.397 162.232 604.795 158.995 604.795 155.091C604.795 151.01 605.426 147.693 606.689 145.139C607.966 142.585 609.609 140.714 611.62 139.525C613.646 138.336 615.774 137.741 618.005 137.741C619.679 137.741 621.146 138.035 622.409 138.622C623.671 139.195 624.728 139.965 625.579 140.934C626.431 141.888 627.076 142.937 627.517 144.082H627.693V126.909H639.846V172H627.781V166.452H627.517C627.047 167.597 626.372 168.624 625.491 169.534C624.625 170.429 623.568 171.141 622.321 171.67C621.088 172.183 619.679 172.44 618.093 172.44ZM622.585 163.105C623.7 163.105 624.654 162.782 625.447 162.136C626.254 161.476 626.871 160.551 627.297 159.362C627.737 158.159 627.957 156.735 627.957 155.091C627.957 153.418 627.737 151.987 627.297 150.798C626.871 149.594 626.254 148.677 625.447 148.045C624.654 147.4 623.7 147.077 622.585 147.077C621.469 147.077 620.515 147.4 619.723 148.045C618.945 148.677 618.343 149.594 617.917 150.798C617.506 151.987 617.301 153.418 617.301 155.091C617.301 156.764 617.506 158.203 617.917 159.406C618.343 160.595 618.945 161.513 619.723 162.158C620.515 162.79 621.469 163.105 622.585 163.105ZM675.338 172H657.988V126.909H675.162C679.8 126.909 683.807 127.812 687.183 129.617C690.574 131.408 693.186 133.991 695.021 137.367C696.87 140.728 697.795 144.758 697.795 149.455C697.795 154.152 696.878 158.188 695.043 161.564C693.208 164.925 690.61 167.509 687.249 169.314C683.888 171.105 679.917 172 675.338 172ZM670.23 161.608H674.897C677.128 161.608 679.029 161.248 680.6 160.529C682.185 159.81 683.389 158.57 684.211 156.808C685.047 155.047 685.466 152.596 685.466 149.455C685.466 146.313 685.04 143.862 684.189 142.101C683.352 140.339 682.119 139.099 680.49 138.38C678.875 137.661 676.894 137.301 674.545 137.301H670.23V161.608ZM703.459 172V126.909H722.922C726.269 126.909 729.197 127.57 731.707 128.891C734.217 130.212 736.169 132.068 737.563 134.461C738.958 136.853 739.655 139.65 739.655 142.849C739.655 146.079 738.936 148.875 737.497 151.238C736.074 153.601 734.07 155.421 731.487 156.698C728.918 157.975 725.916 158.614 722.482 158.614H710.857V149.102H720.016C721.454 149.102 722.68 148.853 723.693 148.354C724.72 147.84 725.505 147.113 726.048 146.174C726.606 145.235 726.885 144.126 726.885 142.849C726.885 141.558 726.606 140.457 726.048 139.547C725.505 138.622 724.72 137.918 723.693 137.433C722.68 136.934 721.454 136.685 720.016 136.685H715.7V172H703.459ZM768.453 141C768.336 139.532 767.785 138.387 766.802 137.565C765.833 136.743 764.358 136.332 762.377 136.332C761.114 136.332 760.079 136.487 759.272 136.795C758.48 137.088 757.892 137.492 757.511 138.006C757.129 138.519 756.931 139.107 756.916 139.767C756.887 140.31 756.982 140.802 757.203 141.242C757.437 141.668 757.804 142.057 758.303 142.409C758.802 142.747 759.441 143.055 760.219 143.334C760.997 143.613 761.922 143.862 762.993 144.082L766.692 144.875C769.187 145.403 771.323 146.101 773.099 146.967C774.875 147.833 776.328 148.853 777.458 150.027C778.588 151.187 779.418 152.493 779.946 153.946C780.489 155.399 780.768 156.984 780.783 158.702C780.768 161.667 780.027 164.177 778.559 166.232C777.091 168.286 774.992 169.85 772.262 170.921C769.547 171.993 766.281 172.528 762.465 172.528C758.546 172.528 755.126 171.949 752.205 170.789C749.298 169.629 747.038 167.846 745.423 165.439C743.824 163.017 743.016 159.92 743.002 156.148H754.627C754.7 157.527 755.045 158.687 755.661 159.626C756.278 160.566 757.144 161.278 758.259 161.762C759.39 162.246 760.733 162.489 762.289 162.489C763.595 162.489 764.688 162.327 765.569 162.004C766.45 161.681 767.118 161.234 767.573 160.661C768.028 160.089 768.262 159.436 768.277 158.702C768.262 158.012 768.035 157.41 767.595 156.896C767.169 156.368 766.464 155.898 765.481 155.487C764.498 155.062 763.169 154.665 761.496 154.298L757.004 153.33C753.012 152.464 749.864 151.018 747.559 148.992C745.269 146.952 744.132 144.17 744.146 140.648C744.132 137.786 744.895 135.283 746.436 133.14C747.992 130.982 750.142 129.302 752.887 128.098C755.647 126.894 758.81 126.293 762.377 126.293C766.017 126.293 769.165 126.902 771.822 128.12C774.479 129.338 776.526 131.056 777.965 133.272C779.418 135.474 780.152 138.05 780.166 141H768.453ZM828.879 149.19H817.694C817.636 148.5 817.394 147.906 816.968 147.407C816.542 146.908 815.992 146.526 815.317 146.262C814.656 145.983 813.922 145.844 813.115 145.844C812.073 145.844 811.177 146.035 810.429 146.416C809.68 146.798 809.313 147.341 809.328 148.045C809.313 148.545 809.526 149.007 809.966 149.433C810.421 149.858 811.295 150.188 812.586 150.423L819.456 151.656C822.92 152.287 825.496 153.352 827.184 154.849C828.886 156.331 829.745 158.32 829.76 160.815C829.745 163.223 829.026 165.314 827.602 167.09C826.193 168.852 824.263 170.217 821.812 171.185C819.375 172.139 816.594 172.616 813.467 172.616C808.3 172.616 804.257 171.56 801.336 169.446C798.43 167.332 796.808 164.544 796.47 161.08H808.535C808.697 162.151 809.225 162.98 810.121 163.567C811.031 164.14 812.175 164.426 813.555 164.426C814.671 164.426 815.588 164.235 816.307 163.854C817.041 163.472 817.416 162.929 817.43 162.224C817.416 161.579 817.093 161.065 816.461 160.683C815.845 160.302 814.876 159.993 813.555 159.759L807.567 158.702C804.117 158.1 801.534 156.955 799.817 155.267C798.099 153.579 797.248 151.407 797.263 148.75C797.248 146.402 797.864 144.413 799.112 142.783C800.374 141.139 802.172 139.892 804.506 139.04C806.855 138.174 809.636 137.741 812.851 137.741C817.738 137.741 821.591 138.754 824.41 140.78C827.242 142.805 828.732 145.609 828.879 149.19ZM850.709 172.616C847.039 172.616 843.898 171.89 841.286 170.437C838.673 168.969 836.669 166.929 835.275 164.316C833.881 161.689 833.183 158.643 833.183 155.179C833.183 151.715 833.881 148.677 835.275 146.064C836.669 143.437 838.673 141.396 841.286 139.943C843.898 138.475 847.039 137.741 850.709 137.741C854.026 137.741 856.896 138.343 859.318 139.547C861.754 140.736 863.64 142.424 864.976 144.611C866.312 146.783 866.987 149.337 867.002 152.273H855.729C855.567 150.497 855.054 149.146 854.188 148.222C853.336 147.282 852.235 146.812 850.885 146.812C849.828 146.812 848.904 147.121 848.111 147.737C847.318 148.339 846.702 149.256 846.262 150.489C845.821 151.708 845.601 153.241 845.601 155.091C845.601 156.94 845.821 158.482 846.262 159.714C846.702 160.933 847.318 161.85 848.111 162.467C848.904 163.068 849.828 163.369 850.885 163.369C851.78 163.369 852.573 163.164 853.263 162.753C853.953 162.327 854.511 161.711 854.936 160.903C855.377 160.081 855.641 159.083 855.729 157.909H867.002C866.958 160.889 866.275 163.487 864.954 165.703C863.633 167.905 861.762 169.607 859.34 170.811C856.932 172.015 854.056 172.616 850.709 172.616ZM872.016 172V138.182H883.817V144.611H884.169C884.786 142.233 885.762 140.494 887.098 139.393C888.448 138.292 890.026 137.741 891.831 137.741C892.36 137.741 892.881 137.786 893.395 137.874C893.923 137.947 894.429 138.057 894.914 138.204V148.574C894.312 148.368 893.571 148.214 892.69 148.112C891.809 148.009 891.053 147.957 890.422 147.957C889.233 147.957 888.162 148.229 887.208 148.772C886.268 149.3 885.527 150.049 884.984 151.018C884.441 151.972 884.169 153.095 884.169 154.386V172H872.016ZM906.748 172.528C904.59 172.528 902.682 172.176 901.023 171.472C899.379 170.752 898.088 169.666 897.148 168.213C896.209 166.76 895.739 164.911 895.739 162.665C895.739 160.815 896.055 159.237 896.686 157.931C897.317 156.61 898.198 155.531 899.328 154.695C900.458 153.858 901.772 153.219 903.269 152.779C904.781 152.339 906.41 152.053 908.157 151.92C910.05 151.774 911.57 151.598 912.714 151.392C913.874 151.172 914.711 150.871 915.224 150.489C915.738 150.093 915.995 149.572 915.995 148.926V148.838C915.995 147.957 915.657 147.282 914.982 146.812C914.307 146.343 913.441 146.108 912.384 146.108C911.225 146.108 910.278 146.365 909.544 146.879C908.825 147.378 908.392 148.148 908.245 149.19H897.06C897.207 147.135 897.86 145.242 899.02 143.51C900.194 141.763 901.904 140.369 904.15 139.327C906.396 138.27 909.199 137.741 912.56 137.741C914.982 137.741 917.155 138.028 919.077 138.6C921 139.158 922.637 139.943 923.987 140.956C925.338 141.954 926.365 143.128 927.07 144.479C927.789 145.814 928.148 147.268 928.148 148.838V172H916.788V167.244H916.523C915.848 168.507 915.026 169.527 914.058 170.305C913.103 171.083 912.01 171.648 910.777 172C909.559 172.352 908.216 172.528 906.748 172.528ZM910.711 164.866C911.636 164.866 912.502 164.676 913.309 164.294C914.131 163.912 914.799 163.362 915.312 162.643C915.826 161.924 916.083 161.05 916.083 160.023V157.205C915.76 157.337 915.415 157.461 915.048 157.579C914.696 157.696 914.314 157.806 913.903 157.909C913.507 158.012 913.081 158.107 912.626 158.195C912.186 158.283 911.724 158.364 911.239 158.438C910.3 158.584 909.529 158.826 908.928 159.164C908.34 159.487 907.9 159.891 907.607 160.375C907.328 160.845 907.188 161.373 907.188 161.96C907.188 162.9 907.518 163.619 908.179 164.118C908.839 164.617 909.683 164.866 910.711 164.866ZM933.955 184.682V138.182H946.021V144.082H946.285C946.725 142.937 947.371 141.888 948.222 140.934C949.074 139.965 950.131 139.195 951.393 138.622C952.655 138.035 954.123 137.741 955.796 137.741C958.027 137.741 960.148 138.336 962.159 139.525C964.185 140.714 965.829 142.585 967.091 145.139C968.368 147.693 969.007 151.01 969.007 155.091C969.007 158.995 968.397 162.232 967.179 164.8C965.976 167.369 964.361 169.285 962.335 170.547C960.325 171.809 958.115 172.44 955.708 172.44C954.123 172.44 952.707 172.183 951.459 171.67C950.226 171.141 949.169 170.429 948.289 169.534C947.423 168.624 946.755 167.597 946.285 166.452H946.109V184.682H933.955ZM945.845 155.091C945.845 156.735 946.057 158.159 946.483 159.362C946.923 160.551 947.54 161.476 948.333 162.136C949.14 162.782 950.101 163.105 951.217 163.105C952.332 163.105 953.279 162.79 954.057 162.158C954.85 161.513 955.451 160.595 955.862 159.406C956.288 158.203 956.501 156.764 956.501 155.091C956.501 153.418 956.288 151.987 955.862 150.798C955.451 149.594 954.85 148.677 954.057 148.045C953.279 147.4 952.332 147.077 951.217 147.077C950.101 147.077 949.14 147.4 948.333 148.045C947.54 148.677 946.923 149.594 946.483 150.798C946.057 151.987 945.845 153.418 945.845 155.091ZM990.303 172.616C986.692 172.616 983.58 171.927 980.967 170.547C978.369 169.152 976.366 167.156 974.957 164.558C973.562 161.946 972.865 158.819 972.865 155.179C972.865 151.686 973.57 148.633 974.979 146.02C976.388 143.407 978.377 141.374 980.945 139.921C983.514 138.468 986.545 137.741 990.038 137.741C992.592 137.741 994.904 138.138 996.974 138.93C999.043 139.723 1000.81 140.875 1002.28 142.387C1003.75 143.884 1004.88 145.704 1005.67 147.847C1006.46 149.99 1006.86 152.405 1006.86 155.091V157.909H976.652V151.216H995.675C995.66 150.247 995.411 149.396 994.926 148.662C994.456 147.913 993.818 147.334 993.011 146.923C992.218 146.497 991.315 146.284 990.303 146.284C989.319 146.284 988.416 146.497 987.594 146.923C986.772 147.334 986.112 147.906 985.613 148.64C985.129 149.374 984.872 150.232 984.842 151.216V158.438C984.842 159.524 985.07 160.492 985.525 161.344C985.98 162.195 986.633 162.863 987.484 163.347C988.336 163.832 989.363 164.074 990.567 164.074C991.403 164.074 992.167 163.956 992.857 163.722C993.561 163.487 994.163 163.149 994.662 162.709C995.161 162.254 995.528 161.711 995.763 161.08H1006.86C1006.48 163.428 1005.58 165.468 1004.15 167.2C1002.73 168.918 1000.84 170.253 998.493 171.207C996.159 172.147 993.429 172.616 990.303 172.616ZM328.25 213.182V221.989H305.969V213.182H328.25ZM310.284 205.08H322.438V236.124C322.438 236.593 322.518 236.99 322.68 237.312C322.841 237.621 323.091 237.856 323.428 238.017C323.766 238.164 324.199 238.237 324.727 238.237C325.094 238.237 325.52 238.193 326.004 238.105C326.503 238.017 326.87 237.944 327.105 237.885L328.866 246.428C328.323 246.589 327.545 246.787 326.533 247.022C325.535 247.257 324.346 247.411 322.966 247.484C320.177 247.631 317.836 247.345 315.942 246.626C314.049 245.892 312.625 244.74 311.671 243.169C310.717 241.598 310.255 239.632 310.284 237.268V205.08ZM346.089 227.977V247H333.936V201.909H345.649V219.611H346.001C346.765 217.453 348.034 215.772 349.81 214.569C351.586 213.351 353.722 212.741 356.217 212.741C358.61 212.741 360.687 213.285 362.448 214.371C364.224 215.457 365.596 216.954 366.565 218.862C367.549 220.77 368.033 222.957 368.018 225.423V247H355.865V227.977C355.88 226.304 355.461 224.99 354.61 224.036C353.773 223.082 352.577 222.605 351.021 222.605C350.038 222.605 349.172 222.825 348.423 223.266C347.689 223.691 347.117 224.308 346.706 225.115C346.309 225.908 346.104 226.862 346.089 227.977ZM374.018 247V213.182H385.819V219.611H386.171C386.788 217.233 387.764 215.494 389.1 214.393C390.45 213.292 392.028 212.741 393.833 212.741C394.362 212.741 394.883 212.786 395.396 212.874C395.925 212.947 396.431 213.057 396.916 213.204V223.574C396.314 223.368 395.573 223.214 394.692 223.112C393.811 223.009 393.055 222.957 392.424 222.957C391.235 222.957 390.164 223.229 389.21 223.772C388.27 224.3 387.529 225.049 386.986 226.018C386.443 226.972 386.171 228.095 386.171 229.386V247H374.018ZM415.256 247.616C411.586 247.616 408.445 246.89 405.833 245.437C403.22 243.969 401.216 241.929 399.822 239.316C398.427 236.689 397.73 233.643 397.73 230.179C397.73 226.715 398.427 223.677 399.822 221.064C401.216 218.437 403.22 216.396 405.833 214.943C408.445 213.475 411.586 212.741 415.256 212.741C418.925 212.741 422.066 213.475 424.679 214.943C427.292 216.396 429.295 218.437 430.69 221.064C432.084 223.677 432.781 226.715 432.781 230.179C432.781 233.643 432.084 236.689 430.69 239.316C429.295 241.929 427.292 243.969 424.679 245.437C422.066 246.89 418.925 247.616 415.256 247.616ZM415.344 238.634C416.371 238.634 417.259 238.289 418.008 237.599C418.757 236.909 419.336 235.925 419.747 234.648C420.158 233.371 420.364 231.852 420.364 230.091C420.364 228.315 420.158 226.796 419.747 225.533C419.336 224.256 418.757 223.273 418.008 222.583C417.259 221.893 416.371 221.548 415.344 221.548C414.258 221.548 413.326 221.893 412.548 222.583C411.77 223.273 411.175 224.256 410.764 225.533C410.353 226.796 410.148 228.315 410.148 230.091C410.148 231.852 410.353 233.371 410.764 234.648C411.175 235.925 411.77 236.909 412.548 237.599C413.326 238.289 414.258 238.634 415.344 238.634ZM459.642 232.205V213.182H471.796V247H460.259V240.571H459.906C459.173 242.729 457.888 244.417 456.053 245.635C454.219 246.839 452.039 247.44 449.514 247.44C447.151 247.44 445.082 246.897 443.306 245.811C441.544 244.725 440.172 243.228 439.188 241.32C438.22 239.411 437.728 237.224 437.713 234.759V213.182H449.867V232.205C449.881 233.878 450.307 235.192 451.144 236.146C451.995 237.1 453.184 237.577 454.71 237.577C455.723 237.577 456.597 237.364 457.33 236.938C458.079 236.498 458.651 235.881 459.048 235.089C459.459 234.281 459.657 233.32 459.642 232.205ZM494.27 260.386C490.879 260.386 487.973 259.902 485.551 258.933C483.144 257.979 481.272 256.658 479.936 254.97C478.615 253.297 477.874 251.374 477.713 249.202H489.426C489.543 249.921 489.837 250.501 490.306 250.941C490.776 251.381 491.378 251.697 492.112 251.888C492.86 252.093 493.697 252.196 494.622 252.196C496.192 252.196 497.491 251.814 498.519 251.051C499.561 250.288 500.082 248.908 500.082 246.912V241.188H499.73C499.289 242.332 498.614 243.308 497.704 244.116C496.794 244.908 495.701 245.518 494.424 245.943C493.147 246.354 491.745 246.56 490.218 246.56C487.811 246.56 485.595 246.002 483.569 244.886C481.558 243.771 479.944 242.002 478.725 239.58C477.522 237.158 476.92 233.995 476.92 230.091C476.92 226.01 477.551 222.693 478.814 220.139C480.091 217.585 481.734 215.714 483.745 214.525C485.771 213.336 487.899 212.741 490.13 212.741C491.804 212.741 493.271 213.035 494.534 213.622C495.796 214.195 496.853 214.965 497.704 215.934C498.556 216.888 499.201 217.937 499.642 219.082H499.906V213.182H512.059V246.912C512.059 249.774 511.318 252.203 509.836 254.2C508.368 256.21 506.298 257.744 503.627 258.801C500.955 259.858 497.836 260.386 494.27 260.386ZM494.71 237.929C495.825 237.929 496.779 237.621 497.572 237.004C498.379 236.373 498.996 235.478 499.422 234.318C499.862 233.144 500.082 231.735 500.082 230.091C500.082 228.418 499.862 226.987 499.422 225.798C498.996 224.594 498.379 223.677 497.572 223.045C496.779 222.4 495.825 222.077 494.71 222.077C493.594 222.077 492.64 222.4 491.848 223.045C491.07 223.677 490.468 224.594 490.042 225.798C489.631 226.987 489.426 228.418 489.426 230.091C489.426 231.764 489.631 233.188 490.042 234.362C490.468 235.522 491.07 236.41 491.848 237.026C492.64 237.628 493.594 237.929 494.71 237.929ZM530.394 227.977V247H518.241V201.909H529.954V219.611H530.306C531.069 217.453 532.339 215.772 534.115 214.569C535.891 213.351 538.027 212.741 540.522 212.741C542.914 212.741 544.991 213.285 546.753 214.371C548.529 215.457 549.901 216.954 550.87 218.862C551.853 220.77 552.338 222.957 552.323 225.423V247H540.17V227.977C540.184 226.304 539.766 224.99 538.915 224.036C538.078 223.082 536.882 222.605 535.326 222.605C534.342 222.605 533.476 222.825 532.728 223.266C531.994 223.691 531.421 224.308 531.01 225.115C530.614 225.908 530.409 226.862 530.394 227.977ZM580.097 247.528C577.94 247.528 576.032 247.176 574.373 246.472C572.729 245.752 571.437 244.666 570.498 243.213C569.559 241.76 569.089 239.911 569.089 237.665C569.089 235.815 569.405 234.237 570.036 232.931C570.667 231.61 571.548 230.531 572.678 229.695C573.808 228.858 575.122 228.219 576.619 227.779C578.131 227.339 579.76 227.053 581.507 226.92C583.4 226.774 584.919 226.598 586.064 226.392C587.224 226.172 588.06 225.871 588.574 225.489C589.088 225.093 589.345 224.572 589.345 223.926V223.838C589.345 222.957 589.007 222.282 588.332 221.812C587.657 221.343 586.791 221.108 585.734 221.108C584.574 221.108 583.628 221.365 582.894 221.879C582.174 222.378 581.741 223.148 581.595 224.19H570.41C570.557 222.135 571.21 220.242 572.369 218.51C573.544 216.763 575.254 215.369 577.499 214.327C579.745 213.27 582.549 212.741 585.91 212.741C588.332 212.741 590.504 213.028 592.427 213.6C594.35 214.158 595.986 214.943 597.337 215.956C598.687 216.954 599.715 218.128 600.419 219.479C601.138 220.814 601.498 222.268 601.498 223.838V247H590.137V242.244H589.873C589.198 243.507 588.376 244.527 587.407 245.305C586.453 246.083 585.36 246.648 584.127 247C582.908 247.352 581.565 247.528 580.097 247.528ZM584.061 239.866C584.985 239.866 585.851 239.676 586.659 239.294C587.481 238.912 588.148 238.362 588.662 237.643C589.176 236.924 589.433 236.05 589.433 235.023V232.205C589.11 232.337 588.765 232.461 588.398 232.579C588.046 232.696 587.664 232.806 587.253 232.909C586.857 233.012 586.431 233.107 585.976 233.195C585.536 233.283 585.073 233.364 584.589 233.438C583.65 233.584 582.879 233.826 582.277 234.164C581.69 234.487 581.25 234.891 580.956 235.375C580.677 235.845 580.538 236.373 580.538 236.96C580.538 237.9 580.868 238.619 581.529 239.118C582.189 239.617 583.033 239.866 584.061 239.866ZM619.458 227.977V247H607.305V213.182H618.842V219.611H619.194C619.928 217.468 621.22 215.787 623.069 214.569C624.933 213.351 627.106 212.741 629.586 212.741C631.979 212.741 634.056 213.292 635.817 214.393C637.593 215.479 638.966 216.976 639.934 218.884C640.918 220.792 641.402 222.972 641.387 225.423V247H629.234V227.977C629.249 226.304 628.823 224.99 627.957 224.036C627.106 223.082 625.917 222.605 624.39 222.605C623.392 222.605 622.519 222.825 621.77 223.266C621.036 223.691 620.471 224.308 620.075 225.115C619.679 225.908 619.473 226.862 619.458 227.977ZM659.629 247.44C657.221 247.44 655.005 246.809 652.979 245.547C650.969 244.285 649.354 242.369 648.136 239.8C646.932 237.232 646.33 233.995 646.33 230.091C646.33 226.01 646.961 222.693 648.224 220.139C649.501 217.585 651.145 215.714 653.156 214.525C655.181 213.336 657.309 212.741 659.54 212.741C661.214 212.741 662.682 213.035 663.944 213.622C665.206 214.195 666.263 214.965 667.114 215.934C667.966 216.888 668.612 217.937 669.052 219.082H669.228V201.909H681.381V247H669.316V241.452H669.052C668.582 242.597 667.907 243.624 667.026 244.534C666.16 245.429 665.103 246.141 663.856 246.67C662.623 247.183 661.214 247.44 659.629 247.44ZM664.12 238.105C665.236 238.105 666.19 237.782 666.982 237.136C667.79 236.476 668.406 235.551 668.832 234.362C669.272 233.159 669.492 231.735 669.492 230.091C669.492 228.418 669.272 226.987 668.832 225.798C668.406 224.594 667.79 223.677 666.982 223.045C666.19 222.4 665.236 222.077 664.12 222.077C663.004 222.077 662.05 222.4 661.258 223.045C660.48 223.677 659.878 224.594 659.452 225.798C659.041 226.987 658.836 228.418 658.836 230.091C658.836 231.764 659.041 233.203 659.452 234.406C659.878 235.595 660.48 236.513 661.258 237.158C662.05 237.79 663.004 238.105 664.12 238.105ZM715.904 247.616C712.293 247.616 709.182 246.927 706.569 245.547C703.971 244.152 701.967 242.156 700.558 239.558C699.164 236.946 698.467 233.819 698.467 230.179C698.467 226.686 699.171 223.633 700.58 221.02C701.989 218.407 703.978 216.374 706.547 214.921C709.116 213.468 712.147 212.741 715.64 212.741C718.194 212.741 720.506 213.138 722.575 213.93C724.645 214.723 726.414 215.875 727.881 217.387C729.349 218.884 730.479 220.704 731.272 222.847C732.065 224.99 732.461 227.405 732.461 230.091V232.909H702.254V226.216H721.276C721.262 225.247 721.012 224.396 720.528 223.662C720.058 222.913 719.42 222.334 718.612 221.923C717.82 221.497 716.917 221.284 715.904 221.284C714.921 221.284 714.018 221.497 713.196 221.923C712.374 222.334 711.714 222.906 711.214 223.64C710.73 224.374 710.473 225.232 710.444 226.216V233.438C710.444 234.524 710.671 235.492 711.126 236.344C711.581 237.195 712.235 237.863 713.086 238.347C713.937 238.832 714.965 239.074 716.168 239.074C717.005 239.074 717.768 238.956 718.458 238.722C719.163 238.487 719.764 238.149 720.263 237.709C720.763 237.254 721.129 236.711 721.364 236.08H732.461C732.079 238.428 731.177 240.468 729.753 242.2C728.329 243.918 726.443 245.253 724.094 246.207C721.761 247.147 719.031 247.616 715.904 247.616ZM746.844 247.528C744.686 247.528 742.778 247.176 741.119 246.472C739.475 245.752 738.184 244.666 737.244 243.213C736.305 241.76 735.835 239.911 735.835 237.665C735.835 235.815 736.151 234.237 736.782 232.931C737.413 231.61 738.294 230.531 739.424 229.695C740.554 228.858 741.868 228.219 743.365 227.779C744.877 227.339 746.506 227.053 748.253 226.92C750.146 226.774 751.665 226.598 752.81 226.392C753.97 226.172 754.806 225.871 755.32 225.489C755.834 225.093 756.091 224.572 756.091 223.926V223.838C756.091 222.957 755.753 222.282 755.078 221.812C754.403 221.343 753.537 221.108 752.48 221.108C751.32 221.108 750.374 221.365 749.64 221.879C748.921 222.378 748.488 223.148 748.341 224.19H737.156C737.303 222.135 737.956 220.242 739.116 218.51C740.29 216.763 742 215.369 744.246 214.327C746.491 213.27 749.295 212.741 752.656 212.741C755.078 212.741 757.25 213.028 759.173 213.6C761.096 214.158 762.733 214.943 764.083 215.956C765.433 216.954 766.461 218.128 767.165 219.479C767.885 220.814 768.244 222.268 768.244 223.838V247H756.883V242.244H756.619C755.944 243.507 755.122 244.527 754.153 245.305C753.199 246.083 752.106 246.648 750.873 247C749.654 247.352 748.311 247.528 746.844 247.528ZM750.807 239.866C751.731 239.866 752.597 239.676 753.405 239.294C754.227 238.912 754.894 238.362 755.408 237.643C755.922 236.924 756.179 236.05 756.179 235.023V232.205C755.856 232.337 755.511 232.461 755.144 232.579C754.792 232.696 754.41 232.806 753.999 232.909C753.603 233.012 753.177 233.107 752.722 233.195C752.282 233.283 751.819 233.364 751.335 233.438C750.396 233.584 749.625 233.826 749.023 234.164C748.436 234.487 747.996 234.891 747.702 235.375C747.423 235.845 747.284 236.373 747.284 236.96C747.284 237.9 747.614 238.619 748.275 239.118C748.935 239.617 749.779 239.866 750.807 239.866ZM774.051 247V213.182H785.852V219.611H786.205C786.821 217.233 787.797 215.494 789.133 214.393C790.483 213.292 792.061 212.741 793.866 212.741C794.395 212.741 794.916 212.786 795.43 212.874C795.958 212.947 796.464 213.057 796.949 213.204V223.574C796.347 223.368 795.606 223.214 794.725 223.112C793.844 223.009 793.089 222.957 792.457 222.957C791.268 222.957 790.197 223.229 789.243 223.772C788.304 224.3 787.562 225.049 787.019 226.018C786.476 226.972 786.205 228.095 786.205 229.386V247H774.051ZM813.087 227.977V247H800.934V213.182H812.471V219.611H812.823C813.557 217.468 814.849 215.787 816.698 214.569C818.562 213.351 820.735 212.741 823.215 212.741C825.608 212.741 827.685 213.292 829.446 214.393C831.222 215.479 832.594 216.976 833.563 218.884C834.547 220.792 835.031 222.972 835.016 225.423V247H822.863V227.977C822.878 226.304 822.452 224.99 821.586 224.036C820.735 223.082 819.546 222.605 818.019 222.605C817.021 222.605 816.148 222.825 815.399 223.266C814.665 223.691 814.1 224.308 813.704 225.115C813.308 225.908 813.102 226.862 813.087 227.977ZM862.791 247.528C860.633 247.528 858.725 247.176 857.066 246.472C855.422 245.752 854.131 244.666 853.191 243.213C852.252 241.76 851.782 239.911 851.782 237.665C851.782 235.815 852.098 234.237 852.729 232.931C853.36 231.61 854.241 230.531 855.371 229.695C856.501 228.858 857.815 228.219 859.312 227.779C860.824 227.339 862.453 227.053 864.2 226.92C866.093 226.774 867.613 226.598 868.757 226.392C869.917 226.172 870.754 225.871 871.267 225.489C871.781 225.093 872.038 224.572 872.038 223.926V223.838C872.038 222.957 871.7 222.282 871.025 221.812C870.35 221.343 869.484 221.108 868.427 221.108C867.268 221.108 866.321 221.365 865.587 221.879C864.868 222.378 864.435 223.148 864.288 224.19H853.103C853.25 222.135 853.903 220.242 855.063 218.51C856.237 216.763 857.947 215.369 860.193 214.327C862.439 213.27 865.242 212.741 868.603 212.741C871.025 212.741 873.198 213.028 875.12 213.6C877.043 214.158 878.68 214.943 880.03 215.956C881.381 216.954 882.408 218.128 883.113 219.479C883.832 220.814 884.191 222.268 884.191 223.838V247H872.831V242.244H872.566C871.891 243.507 871.069 244.527 870.1 245.305C869.146 246.083 868.053 246.648 866.82 247C865.602 247.352 864.259 247.528 862.791 247.528ZM866.754 239.866C867.679 239.866 868.545 239.676 869.352 239.294C870.174 238.912 870.842 238.362 871.355 237.643C871.869 236.924 872.126 236.05 872.126 235.023V232.205C871.803 232.337 871.458 232.461 871.091 232.579C870.739 232.696 870.357 232.806 869.946 232.909C869.55 233.012 869.124 233.107 868.669 233.195C868.229 233.283 867.767 233.364 867.282 233.438C866.343 233.584 865.572 233.826 864.971 234.164C864.383 234.487 863.943 234.891 863.65 235.375C863.371 235.845 863.231 236.373 863.231 236.96C863.231 237.9 863.561 238.619 864.222 239.118C864.882 239.617 865.726 239.866 866.754 239.866ZM922.606 213.182V221.989H899.972V213.182H922.606ZM904.287 247V212.213C904.287 209.424 904.787 207.112 905.785 205.278C906.783 203.443 908.192 202.071 910.012 201.161C911.832 200.25 913.975 199.795 916.441 199.795C917.982 199.795 919.479 199.913 920.932 200.148C922.4 200.383 923.486 200.588 924.191 200.764L922.43 209.483C921.989 209.351 921.475 209.248 920.888 209.175C920.301 209.087 919.787 209.043 919.347 209.043C918.202 209.043 917.432 209.285 917.035 209.769C916.639 210.254 916.441 210.892 916.441 211.685V247H904.287ZM927.295 247V213.182H939.449V247H927.295ZM933.372 209.659C931.728 209.659 930.319 209.116 929.145 208.03C927.97 206.944 927.383 205.637 927.383 204.111C927.383 202.584 927.97 201.278 929.145 200.192C930.319 199.106 931.728 198.562 933.372 198.562C935.031 198.562 936.44 199.106 937.599 200.192C938.773 201.278 939.361 202.584 939.361 204.111C939.361 205.637 938.773 206.944 937.599 208.03C936.44 209.116 935.031 209.659 933.372 209.659ZM957.794 227.977V247H945.641V213.182H957.178V219.611H957.53C958.264 217.468 959.556 215.787 961.405 214.569C963.269 213.351 965.442 212.741 967.922 212.741C970.315 212.741 972.392 213.292 974.153 214.393C975.929 215.479 977.301 216.976 978.27 218.884C979.254 220.792 979.738 222.972 979.723 225.423V247H967.57V227.977C967.585 226.304 967.159 224.99 966.293 224.036C965.442 223.082 964.253 222.605 962.726 222.605C961.728 222.605 960.855 222.825 960.106 223.266C959.372 223.691 958.807 224.308 958.411 225.115C958.015 225.908 957.809 226.862 957.794 227.977ZM995.146 247.528C992.989 247.528 991.08 247.176 989.422 246.472C987.778 245.752 986.486 244.666 985.547 243.213C984.607 241.76 984.138 239.911 984.138 237.665C984.138 235.815 984.453 234.237 985.085 232.931C985.716 231.61 986.596 230.531 987.727 229.695C988.857 228.858 990.17 228.219 991.668 227.779C993.179 227.339 994.809 227.053 996.555 226.92C998.449 226.774 999.968 226.598 1001.11 226.392C1002.27 226.172 1003.11 225.871 1003.62 225.489C1004.14 225.093 1004.39 224.572 1004.39 223.926V223.838C1004.39 222.957 1004.06 222.282 1003.38 221.812C1002.71 221.343 1001.84 221.108 1000.78 221.108C999.623 221.108 998.676 221.365 997.942 221.879C997.223 222.378 996.79 223.148 996.643 224.19H985.459C985.606 222.135 986.259 220.242 987.418 218.51C988.593 216.763 990.303 215.369 992.548 214.327C994.794 213.27 997.598 212.741 1000.96 212.741C1003.38 212.741 1005.55 213.028 1007.48 213.6C1009.4 214.158 1011.04 214.943 1012.39 215.956C1013.74 216.954 1014.76 218.128 1015.47 219.479C1016.19 220.814 1016.55 222.268 1016.55 223.838V247H1005.19V242.244H1004.92C1004.25 243.507 1003.42 244.527 1002.46 245.305C1001.5 246.083 1000.41 246.648 999.175 247C997.957 247.352 996.614 247.528 995.146 247.528ZM999.109 239.866C1000.03 239.866 1000.9 239.676 1001.71 239.294C1002.53 238.912 1003.2 238.362 1003.71 237.643C1004.22 236.924 1004.48 236.05 1004.48 235.023V232.205C1004.16 232.337 1003.81 232.461 1003.45 232.579C1003.09 232.696 1002.71 232.806 1002.3 232.909C1001.91 233.012 1001.48 233.107 1001.02 233.195C1000.58 233.283 1000.12 233.364 999.638 233.438C998.698 233.584 997.928 233.826 997.326 234.164C996.739 234.487 996.299 234.891 996.005 235.375C995.726 235.845 995.587 236.373 995.587 236.96C995.587 237.9 995.917 238.619 996.577 239.118C997.238 239.617 998.082 239.866 999.109 239.866ZM1034.51 201.909V247H1022.35V201.909H1034.51ZM1071.61 224.19H1060.43C1060.37 223.5 1060.13 222.906 1059.7 222.407C1059.27 221.908 1058.72 221.526 1058.05 221.262C1057.39 220.983 1056.65 220.844 1055.85 220.844C1054.81 220.844 1053.91 221.035 1053.16 221.416C1052.41 221.798 1052.05 222.341 1052.06 223.045C1052.05 223.545 1052.26 224.007 1052.7 224.433C1053.15 224.858 1054.03 225.188 1055.32 225.423L1062.19 226.656C1065.65 227.287 1068.23 228.352 1069.92 229.849C1071.62 231.331 1072.48 233.32 1072.49 235.815C1072.48 238.223 1071.76 240.314 1070.33 242.09C1068.93 243.852 1067 245.217 1064.54 246.185C1062.11 247.139 1059.33 247.616 1056.2 247.616C1051.03 247.616 1046.99 246.56 1044.07 244.446C1041.16 242.332 1039.54 239.544 1039.2 236.08H1051.27C1051.43 237.151 1051.96 237.98 1052.85 238.567C1053.76 239.14 1054.91 239.426 1056.29 239.426C1057.4 239.426 1058.32 239.235 1059.04 238.854C1059.77 238.472 1060.15 237.929 1060.16 237.224C1060.15 236.579 1059.83 236.065 1059.19 235.683C1058.58 235.302 1057.61 234.993 1056.29 234.759L1050.3 233.702C1046.85 233.1 1044.27 231.955 1042.55 230.267C1040.83 228.579 1039.98 226.407 1040 223.75C1039.98 221.402 1040.6 219.413 1041.84 217.783C1043.11 216.139 1044.9 214.892 1047.24 214.04C1049.59 213.174 1052.37 212.741 1055.58 212.741C1060.47 212.741 1064.32 213.754 1067.14 215.78C1069.97 217.805 1071.46 220.609 1071.61 224.19ZM1120.41 224.19H1109.23C1109.17 223.5 1108.93 222.906 1108.5 222.407C1108.08 221.908 1107.52 221.526 1106.85 221.262C1106.19 220.983 1105.46 220.844 1104.65 220.844C1103.61 220.844 1102.71 221.035 1101.96 221.416C1101.21 221.798 1100.85 222.341 1100.86 223.045C1100.85 223.545 1101.06 224.007 1101.5 224.433C1101.95 224.858 1102.83 225.188 1104.12 225.423L1110.99 226.656C1114.45 227.287 1117.03 228.352 1118.72 229.849C1120.42 231.331 1121.28 233.32 1121.29 235.815C1121.28 238.223 1120.56 240.314 1119.14 242.09C1117.73 243.852 1115.8 245.217 1113.34 246.185C1110.91 247.139 1108.13 247.616 1105 247.616C1099.83 247.616 1095.79 246.56 1092.87 244.446C1089.96 242.332 1088.34 239.544 1088 236.08H1100.07C1100.23 237.151 1100.76 237.98 1101.65 238.567C1102.56 239.14 1103.71 239.426 1105.09 239.426C1106.2 239.426 1107.12 239.235 1107.84 238.854C1108.57 238.472 1108.95 237.929 1108.96 237.224C1108.95 236.579 1108.63 236.065 1107.99 235.683C1107.38 235.302 1106.41 234.993 1105.09 234.759L1099.1 233.702C1095.65 233.1 1093.07 231.955 1091.35 230.267C1089.63 228.579 1088.78 226.407 1088.8 223.75C1088.78 221.402 1089.4 219.413 1090.65 217.783C1091.91 216.139 1093.71 214.892 1096.04 214.04C1098.39 213.174 1101.17 212.741 1104.38 212.741C1109.27 212.741 1113.12 213.754 1115.94 215.78C1118.78 217.805 1120.27 220.609 1120.41 224.19ZM1125.95 259.682V213.182H1138.01V219.082H1138.28C1138.72 217.937 1139.37 216.888 1140.22 215.934C1141.07 214.965 1142.12 214.195 1143.39 213.622C1144.65 213.035 1146.12 212.741 1147.79 212.741C1150.02 212.741 1152.14 213.336 1154.15 214.525C1156.18 215.714 1157.82 217.585 1159.09 220.139C1160.36 222.693 1161 226.01 1161 230.091C1161 233.995 1160.39 237.232 1159.17 239.8C1157.97 242.369 1156.36 244.285 1154.33 245.547C1152.32 246.809 1150.11 247.44 1147.7 247.44C1146.12 247.44 1144.7 247.183 1143.45 246.67C1142.22 246.141 1141.16 245.429 1140.28 244.534C1139.42 243.624 1138.75 242.597 1138.28 241.452H1138.1V259.682H1125.95ZM1137.84 230.091C1137.84 231.735 1138.05 233.159 1138.48 234.362C1138.92 235.551 1139.53 236.476 1140.33 237.136C1141.13 237.782 1142.1 238.105 1143.21 238.105C1144.33 238.105 1145.27 237.79 1146.05 237.158C1146.84 236.513 1147.45 235.595 1147.86 234.406C1148.28 233.203 1148.5 231.764 1148.5 230.091C1148.5 228.418 1148.28 226.987 1147.86 225.798C1147.45 224.594 1146.84 223.677 1146.05 223.045C1145.27 222.4 1144.33 222.077 1143.21 222.077C1142.1 222.077 1141.13 222.4 1140.33 223.045C1139.53 223.677 1138.92 224.594 1138.48 225.798C1138.05 226.987 1137.84 228.418 1137.84 230.091ZM1182.38 247.616C1178.72 247.616 1175.57 246.89 1172.96 245.437C1170.35 243.969 1168.35 241.929 1166.95 239.316C1165.56 236.689 1164.86 233.643 1164.86 230.179C1164.86 226.715 1165.56 223.677 1166.95 221.064C1168.35 218.437 1170.35 216.396 1172.96 214.943C1175.57 213.475 1178.72 212.741 1182.38 212.741C1186.05 212.741 1189.2 213.475 1191.81 214.943C1194.42 216.396 1196.42 218.437 1197.82 221.064C1199.21 223.677 1199.91 226.715 1199.91 230.179C1199.91 233.643 1199.21 236.689 1197.82 239.316C1196.42 241.929 1194.42 243.969 1191.81 245.437C1189.2 246.89 1186.05 247.616 1182.38 247.616ZM1182.47 238.634C1183.5 238.634 1184.39 238.289 1185.14 237.599C1185.89 236.909 1186.47 235.925 1186.88 234.648C1187.29 233.371 1187.49 231.852 1187.49 230.091C1187.49 228.315 1187.29 226.796 1186.88 225.533C1186.47 224.256 1185.89 223.273 1185.14 222.583C1184.39 221.893 1183.5 221.548 1182.47 221.548C1181.39 221.548 1180.45 221.893 1179.68 222.583C1178.9 223.273 1178.3 224.256 1177.89 225.533C1177.48 226.796 1177.28 228.315 1177.28 230.091C1177.28 231.852 1177.48 233.371 1177.89 234.648C1178.3 235.925 1178.9 236.909 1179.68 237.599C1180.45 238.289 1181.39 238.634 1182.47 238.634ZM1225.01 213.182V221.989H1202.73V213.182H1225.01ZM1207.04 205.08H1219.2V236.124C1219.2 236.593 1219.28 236.99 1219.44 237.312C1219.6 237.621 1219.85 237.856 1220.19 238.017C1220.53 238.164 1220.96 238.237 1221.49 238.237C1221.85 238.237 1222.28 238.193 1222.76 238.105C1223.26 238.017 1223.63 237.944 1223.86 237.885L1225.63 246.428C1225.08 246.589 1224.31 246.787 1223.29 247.022C1222.29 247.257 1221.11 247.411 1219.73 247.484C1216.94 247.631 1214.6 247.345 1212.7 246.626C1210.81 245.892 1209.39 244.74 1208.43 243.169C1207.48 241.598 1207.01 239.632 1207.04 237.268V205.08Z" fill="white"/>
</g>
<defs>
<filter id="filter0_f_158_48" x="-680" y="-338" width="2267" height="1247" filterUnits="userSpaceOnUse" color-interpolation-filters="sRGB">
<feFlood flood-opacity="0" result="BackgroundImageFix"/>
<feBlend mode="normal" in="SourceGraphic" in2="BackgroundImageFix" result="shape"/>
<feGaussianBlur stdDeviation="250" result="effect1_foregroundBlur_158_48"/>
</filter>
<linearGradient id="paint0_linear_158_48" x1="1448.5" y1="229.535" x2="1390.85" y2="-53.9909" gradientUnits="userSpaceOnUse">
<stop stop-color="#8E45FF"/>
<stop offset="0.835" stop-color="#548CFF" stop-opacity="0"/>
</linearGradient>
<linearGradient id="paint1_linear_158_48" x1="-21" y1="234.123" x2="-102.49" y2="-56.564" gradientUnits="userSpaceOnUse">
<stop stop-color="#AE85FF"/>
<stop offset="0.835" stop-color="#AD85FE" stop-opacity="0"/>
</linearGradient>
<linearGradient id="paint2_linear_158_48" x1="501.406" y1="330.517" x2="484.354" y2="-99.1053" gradientUnits="userSpaceOnUse">
<stop stop-color="#9E6EFE"/>
<stop offset="0.835" stop-color="#A070FE" stop-opacity="0"/>
</linearGradient>
<linearGradient id="paint3_linear_158_48" x1="937" y1="462.279" x2="837.648" y2="-161.518" gradientUnits="userSpaceOnUse">
<stop stop-color="#8B51FF"/>
<stop offset="0.835" stop-color="#9159FF" stop-opacity="0"/>
</linearGradient>
</defs>
</svg>
