<svg width="1440" height="345" viewBox="0 0 1440 345" fill="none" xmlns="http://www.w3.org/2000/svg">
<mask id="mask0_158_48" style="mask-type:alpha" maskUnits="userSpaceOnUse" x="0" y="0" width="1440" height="345">
<rect width="1440" height="345" fill="white"/>
</mask>
<g mask="url(#mask0_158_48)">
<rect width="1440" height="345" fill="#7762FF" fill-opacity="0.73"/>
<path d="M1223 -2H1374.34L1482.49 4.26392L1562.27 151.283L1658 261.72L1635.79 345H1498.36L1321.03 120.506L1223 -2Z" fill="url(#paint0_linear_158_48)"/>
<path d="M-173 -17H-39.4456L55.9863 -10.4653L196 95.6922L97.3297 154.242L191.269 345H69.9969L-86.4945 110.802L-173 -17Z" fill="url(#paint1_linear_158_48)"/>
<path d="M282 -2H442.587L557.335 4.26392L720 265.944L511.533 73.9504L720 345H574.181L386.015 120.506L339.696 197.148L282 -2Z" fill="url(#paint2_linear_158_48)"/>
<path d="M684 -2H867.502L998.623 4.26392L1191 106.023L946.286 73.9504L1184.5 345H1017.87L802.857 120.506L684 -2Z" fill="url(#paint3_linear_158_48)"/>
<g opacity="0.75" filter="url(#filter0_f_158_48)">
<rect x="-180" y="162" width="1267" height="247" fill="white"/>
</g>
<path d="M303.5 91.6477V89.3636H313.335V91.6477H309.807V101H307.034V91.6477H303.5ZM317.523 101.165C316.61 101.165 315.822 100.985 315.159 100.625C314.5 100.261 313.992 99.7443 313.636 99.0739C313.284 98.3996 313.108 97.5985 313.108 96.6705C313.108 95.7689 313.286 94.9811 313.642 94.3068C313.998 93.6288 314.5 93.1023 315.148 92.7273C315.795 92.3485 316.559 92.1591 317.438 92.1591C318.059 92.1591 318.627 92.2557 319.142 92.4489C319.657 92.642 320.102 92.928 320.477 93.3068C320.852 93.6856 321.144 94.1534 321.352 94.7102C321.561 95.2633 321.665 95.8977 321.665 96.6136V97.3068H314.08V95.6932H319.08C319.076 95.3977 319.006 95.1345 318.869 94.9034C318.733 94.6723 318.545 94.4924 318.307 94.3636C318.072 94.2311 317.801 94.1648 317.494 94.1648C317.184 94.1648 316.905 94.2348 316.659 94.375C316.413 94.5114 316.218 94.6989 316.074 94.9375C315.93 95.1723 315.854 95.4394 315.847 95.7386V97.3807C315.847 97.7367 315.917 98.0492 316.057 98.3182C316.197 98.5833 316.396 98.7898 316.653 98.9375C316.911 99.0852 317.218 99.1591 317.574 99.1591C317.82 99.1591 318.044 99.125 318.244 99.0568C318.445 98.9886 318.617 98.8883 318.761 98.7557C318.905 98.6231 319.013 98.4602 319.085 98.267L321.636 98.3409C321.53 98.9129 321.297 99.411 320.938 99.8352C320.581 100.256 320.114 100.583 319.534 100.818C318.955 101.049 318.284 101.165 317.523 101.165ZM325.544 101.148C324.987 101.148 324.493 101.055 324.061 100.869C323.633 100.68 323.294 100.396 323.044 100.017C322.798 99.6345 322.675 99.1553 322.675 98.5795C322.675 98.0947 322.76 97.6856 322.93 97.3523C323.101 97.0189 323.336 96.7481 323.635 96.5398C323.934 96.3314 324.279 96.1742 324.669 96.0682C325.059 95.9583 325.476 95.8845 325.919 95.8466C326.415 95.8011 326.815 95.7538 327.118 95.7045C327.421 95.6515 327.641 95.5777 327.777 95.483C327.917 95.3845 327.987 95.2462 327.987 95.0682V95.0398C327.987 94.7481 327.887 94.5227 327.686 94.3636C327.485 94.2045 327.214 94.125 326.874 94.125C326.506 94.125 326.211 94.2045 325.987 94.3636C325.764 94.5227 325.622 94.7424 325.561 95.0227L322.999 94.9318C323.074 94.4015 323.269 93.928 323.584 93.5114C323.902 93.0909 324.338 92.7614 324.891 92.5227C325.447 92.2803 326.116 92.1591 326.896 92.1591C327.453 92.1591 327.966 92.2254 328.436 92.358C328.906 92.4867 329.315 92.6761 329.663 92.9261C330.012 93.1723 330.281 93.4754 330.47 93.8352C330.663 94.1951 330.76 94.6061 330.76 95.0682V101H328.146V99.7841H328.078C327.923 100.08 327.724 100.33 327.482 100.534C327.243 100.739 326.961 100.892 326.635 100.994C326.313 101.097 325.949 101.148 325.544 101.148ZM326.402 99.3295C326.701 99.3295 326.97 99.2689 327.209 99.1477C327.451 99.0265 327.644 98.8598 327.788 98.6477C327.932 98.4318 328.004 98.1818 328.004 97.8977V97.0682C327.925 97.1098 327.828 97.1477 327.714 97.1818C327.605 97.2159 327.483 97.2481 327.351 97.2784C327.218 97.3087 327.082 97.3352 326.942 97.358C326.802 97.3807 326.667 97.4015 326.538 97.4205C326.277 97.4621 326.054 97.5265 325.868 97.6136C325.686 97.7008 325.546 97.8144 325.447 97.9545C325.353 98.0909 325.305 98.2538 325.305 98.4432C325.305 98.7311 325.408 98.9508 325.612 99.1023C325.821 99.2538 326.084 99.3295 326.402 99.3295ZM332.459 101V92.2727H335.101V93.875H335.197C335.379 93.3447 335.686 92.9261 336.118 92.6193C336.55 92.3125 337.065 92.1591 337.663 92.1591C338.269 92.1591 338.788 92.3144 339.22 92.625C339.652 92.9356 339.927 93.3523 340.044 93.875H340.135C340.298 93.3561 340.616 92.9413 341.089 92.6307C341.563 92.3163 342.122 92.1591 342.766 92.1591C343.591 92.1591 344.262 92.4242 344.777 92.9545C345.292 93.4811 345.55 94.2045 345.55 95.125V101H342.771V95.7614C342.771 95.3258 342.66 94.9943 342.436 94.767C342.213 94.536 341.923 94.4205 341.567 94.4205C341.184 94.4205 340.883 94.5455 340.663 94.7955C340.447 95.0417 340.339 95.3731 340.339 95.7898V101H337.669V95.733C337.669 95.3277 337.559 95.0076 337.339 94.7727C337.12 94.5379 336.83 94.4205 336.47 94.4205C336.228 94.4205 336.014 94.4792 335.828 94.5966C335.643 94.7102 335.497 94.8731 335.391 95.0852C335.288 95.2973 335.237 95.5473 335.237 95.8352V101H332.459ZM354.891 94.9375L352.339 95.0057C352.313 94.8239 352.241 94.6629 352.124 94.5227C352.006 94.3788 351.853 94.267 351.663 94.1875C351.478 94.1042 351.262 94.0625 351.016 94.0625C350.694 94.0625 350.419 94.1269 350.192 94.2557C349.968 94.3845 349.858 94.5587 349.862 94.7784C349.858 94.9489 349.927 95.0966 350.067 95.2216C350.211 95.3466 350.466 95.447 350.834 95.5227L352.516 95.8409C353.387 96.0076 354.035 96.2841 354.459 96.6705C354.887 97.0568 355.103 97.5682 355.107 98.2045C355.103 98.803 354.925 99.3239 354.572 99.767C354.224 100.21 353.747 100.555 353.141 100.801C352.535 101.044 351.841 101.165 351.061 101.165C349.815 101.165 348.832 100.909 348.112 100.398C347.396 99.8826 346.987 99.1932 346.885 98.3295L349.629 98.2614C349.69 98.5795 349.847 98.822 350.101 98.9886C350.355 99.1553 350.679 99.2386 351.072 99.2386C351.429 99.2386 351.718 99.1723 351.942 99.0398C352.165 98.9072 352.279 98.7311 352.283 98.5114C352.279 98.3144 352.192 98.1572 352.021 98.0398C351.851 97.9186 351.584 97.8239 351.22 97.7557L349.697 97.4659C348.822 97.3068 348.171 97.0133 347.743 96.5852C347.315 96.1534 347.103 95.6042 347.107 94.9375C347.103 94.3542 347.258 93.8561 347.572 93.4432C347.887 93.0265 348.334 92.7083 348.913 92.4886C349.493 92.2689 350.177 92.1591 350.964 92.1591C352.146 92.1591 353.078 92.4072 353.76 92.9034C354.442 93.3958 354.819 94.0739 354.891 94.9375Z" fill="white"/>
<path d="M300.295 272.364V284H298.886V273.841H298.818L295.977 275.727V274.295L298.886 272.364H300.295ZM307.369 284.159C306.589 284.159 305.9 284.021 305.301 283.744C304.706 283.464 304.242 283.08 303.909 282.591C303.576 282.098 303.411 281.538 303.415 280.909C303.411 280.417 303.508 279.962 303.705 279.545C303.902 279.125 304.17 278.775 304.511 278.494C304.856 278.21 305.241 278.03 305.665 277.955V277.886C305.108 277.742 304.665 277.43 304.335 276.949C304.006 276.464 303.843 275.913 303.847 275.295C303.843 274.705 303.992 274.176 304.295 273.71C304.598 273.244 305.015 272.877 305.545 272.608C306.08 272.339 306.688 272.205 307.369 272.205C308.044 272.205 308.646 272.339 309.176 272.608C309.706 272.877 310.123 273.244 310.426 273.71C310.733 274.176 310.888 274.705 310.892 275.295C310.888 275.913 310.72 276.464 310.386 276.949C310.057 277.43 309.619 277.742 309.074 277.886V277.955C309.494 278.03 309.873 278.21 310.21 278.494C310.547 278.775 310.816 279.125 311.017 279.545C311.218 279.962 311.32 280.417 311.324 280.909C311.32 281.538 311.15 282.098 310.812 282.591C310.479 283.08 310.015 283.464 309.42 283.744C308.83 284.021 308.146 284.159 307.369 284.159ZM307.369 282.909C307.896 282.909 308.35 282.824 308.733 282.653C309.116 282.483 309.411 282.242 309.619 281.932C309.828 281.621 309.934 281.258 309.938 280.841C309.934 280.402 309.82 280.013 309.597 279.676C309.373 279.339 309.068 279.074 308.682 278.881C308.299 278.687 307.862 278.591 307.369 278.591C306.873 278.591 306.43 278.687 306.04 278.881C305.653 279.074 305.348 279.339 305.125 279.676C304.905 280.013 304.797 280.402 304.801 280.841C304.797 281.258 304.898 281.621 305.102 281.932C305.311 282.242 305.608 282.483 305.994 282.653C306.381 282.824 306.839 282.909 307.369 282.909ZM307.369 277.386C307.786 277.386 308.155 277.303 308.477 277.136C308.803 276.97 309.059 276.737 309.244 276.438C309.43 276.138 309.525 275.788 309.528 275.386C309.525 274.992 309.432 274.65 309.25 274.358C309.068 274.062 308.816 273.835 308.494 273.676C308.172 273.513 307.797 273.432 307.369 273.432C306.934 273.432 306.553 273.513 306.227 273.676C305.902 273.835 305.65 274.062 305.472 274.358C305.294 274.65 305.206 274.992 305.21 275.386C305.206 275.788 305.295 276.138 305.477 276.438C305.663 276.737 305.919 276.97 306.244 277.136C306.57 277.303 306.945 277.386 307.369 277.386ZM321.797 284H318.206V272.364H321.956C323.085 272.364 324.051 272.597 324.854 273.062C325.657 273.525 326.272 274.189 326.7 275.057C327.128 275.92 327.342 276.955 327.342 278.159C327.342 279.371 327.126 280.415 326.695 281.29C326.263 282.161 325.634 282.831 324.808 283.301C323.982 283.767 322.979 284 321.797 284ZM319.615 282.75H321.706C322.668 282.75 323.465 282.564 324.098 282.193C324.731 281.822 325.202 281.294 325.513 280.608C325.823 279.922 325.979 279.106 325.979 278.159C325.979 277.22 325.825 276.411 325.518 275.733C325.212 275.051 324.753 274.528 324.143 274.165C323.534 273.797 322.774 273.614 321.865 273.614H319.615V282.75ZM333.183 284.182C332.342 284.182 331.617 283.996 331.007 283.625C330.401 283.25 329.933 282.727 329.604 282.057C329.278 281.383 329.115 280.598 329.115 279.705C329.115 278.811 329.278 278.023 329.604 277.341C329.933 276.655 330.392 276.121 330.979 275.739C331.57 275.352 332.259 275.159 333.047 275.159C333.501 275.159 333.95 275.235 334.393 275.386C334.837 275.538 335.24 275.784 335.604 276.125C335.967 276.462 336.257 276.909 336.473 277.466C336.689 278.023 336.797 278.708 336.797 279.523V280.091H330.07V278.932H335.433C335.433 278.439 335.335 278 335.138 277.614C334.945 277.227 334.668 276.922 334.308 276.699C333.952 276.475 333.532 276.364 333.047 276.364C332.513 276.364 332.051 276.496 331.661 276.761C331.274 277.023 330.977 277.364 330.768 277.784C330.56 278.205 330.456 278.655 330.456 279.136V279.909C330.456 280.568 330.57 281.127 330.797 281.585C331.028 282.04 331.348 282.386 331.757 282.625C332.166 282.86 332.642 282.977 333.183 282.977C333.536 282.977 333.854 282.928 334.138 282.83C334.426 282.727 334.674 282.576 334.882 282.375C335.09 282.17 335.251 281.917 335.365 281.614L336.661 281.977C336.524 282.417 336.295 282.803 335.973 283.136C335.651 283.466 335.253 283.723 334.78 283.909C334.306 284.091 333.774 284.182 333.183 284.182ZM342.382 284.182C341.564 284.182 340.859 283.989 340.268 283.602C339.678 283.216 339.223 282.684 338.905 282.006C338.587 281.328 338.428 280.553 338.428 279.682C338.428 278.795 338.59 278.013 338.916 277.335C339.246 276.653 339.704 276.121 340.291 275.739C340.882 275.352 341.571 275.159 342.359 275.159C342.973 275.159 343.526 275.273 344.018 275.5C344.511 275.727 344.914 276.045 345.229 276.455C345.543 276.864 345.738 277.341 345.814 277.886H344.473C344.371 277.489 344.143 277.136 343.791 276.83C343.443 276.519 342.973 276.364 342.382 276.364C341.859 276.364 341.401 276.5 341.007 276.773C340.617 277.042 340.312 277.422 340.092 277.915C339.876 278.403 339.768 278.977 339.768 279.636C339.768 280.311 339.875 280.898 340.087 281.398C340.303 281.898 340.606 282.286 340.996 282.562C341.39 282.839 341.852 282.977 342.382 282.977C342.731 282.977 343.047 282.917 343.331 282.795C343.615 282.674 343.856 282.5 344.053 282.273C344.25 282.045 344.39 281.773 344.473 281.455H345.814C345.738 281.97 345.551 282.434 345.251 282.847C344.956 283.256 344.564 283.581 344.075 283.824C343.59 284.062 343.026 284.182 342.382 284.182ZM352.251 284V282.977L356.092 278.773C356.543 278.28 356.914 277.852 357.206 277.489C357.498 277.121 357.714 276.777 357.854 276.455C357.998 276.129 358.07 275.788 358.07 275.432C358.07 275.023 357.971 274.669 357.774 274.369C357.581 274.07 357.316 273.839 356.979 273.676C356.642 273.513 356.263 273.432 355.842 273.432C355.395 273.432 355.005 273.525 354.672 273.71C354.342 273.892 354.087 274.148 353.905 274.477C353.727 274.807 353.638 275.193 353.638 275.636H352.297C352.297 274.955 352.454 274.356 352.768 273.841C353.083 273.326 353.511 272.924 354.053 272.636C354.598 272.348 355.21 272.205 355.888 272.205C356.57 272.205 357.174 272.348 357.7 272.636C358.227 272.924 358.64 273.312 358.939 273.801C359.238 274.29 359.388 274.833 359.388 275.432C359.388 275.86 359.31 276.278 359.155 276.688C359.003 277.093 358.738 277.545 358.359 278.045C357.984 278.542 357.464 279.148 356.797 279.864L354.183 282.659V282.75H359.592V284H352.251ZM365.734 284.159C364.878 284.159 364.149 283.926 363.547 283.46C362.945 282.991 362.484 282.311 362.166 281.42C361.848 280.527 361.689 279.447 361.689 278.182C361.689 276.924 361.848 275.85 362.166 274.96C362.488 274.066 362.95 273.384 363.553 272.915C364.159 272.441 364.886 272.205 365.734 272.205C366.583 272.205 367.308 272.441 367.911 272.915C368.517 273.384 368.979 274.066 369.297 274.96C369.619 275.85 369.78 276.924 369.78 278.182C369.78 279.447 369.621 280.527 369.303 281.42C368.984 282.311 368.524 282.991 367.922 283.46C367.32 283.926 366.59 284.159 365.734 284.159ZM365.734 282.909C366.583 282.909 367.242 282.5 367.712 281.682C368.181 280.864 368.416 279.697 368.416 278.182C368.416 277.174 368.308 276.316 368.092 275.608C367.88 274.9 367.573 274.36 367.172 273.989C366.774 273.617 366.295 273.432 365.734 273.432C364.893 273.432 364.236 273.847 363.763 274.676C363.289 275.502 363.053 276.67 363.053 278.182C363.053 279.189 363.159 280.045 363.371 280.75C363.583 281.455 363.888 281.991 364.286 282.358C364.687 282.725 365.17 282.909 365.734 282.909ZM371.939 284V282.977L375.78 278.773C376.231 278.28 376.602 277.852 376.893 277.489C377.185 277.121 377.401 276.777 377.541 276.455C377.685 276.129 377.757 275.788 377.757 275.432C377.757 275.023 377.659 274.669 377.462 274.369C377.268 274.07 377.003 273.839 376.666 273.676C376.329 273.513 375.95 273.432 375.53 273.432C375.083 273.432 374.693 273.525 374.359 273.71C374.03 273.892 373.774 274.148 373.592 274.477C373.414 274.807 373.325 275.193 373.325 275.636H371.984C371.984 274.955 372.142 274.356 372.456 273.841C372.77 273.326 373.198 272.924 373.74 272.636C374.286 272.348 374.897 272.205 375.575 272.205C376.257 272.205 376.861 272.348 377.388 272.636C377.914 272.924 378.327 273.312 378.626 273.801C378.926 274.29 379.075 274.833 379.075 275.432C379.075 275.86 378.998 276.278 378.842 276.688C378.691 277.093 378.426 277.545 378.047 278.045C377.672 278.542 377.151 279.148 376.484 279.864L373.871 282.659V282.75H379.28V284H371.939ZM385.558 284.159C384.808 284.159 384.14 284.03 383.553 283.773C382.969 283.515 382.505 283.157 382.161 282.699C381.82 282.237 381.634 281.701 381.604 281.091H383.036C383.066 281.466 383.195 281.79 383.422 282.062C383.649 282.331 383.946 282.54 384.314 282.688C384.681 282.835 385.089 282.909 385.536 282.909C386.036 282.909 386.479 282.822 386.865 282.648C387.251 282.473 387.554 282.231 387.774 281.92C387.994 281.61 388.104 281.25 388.104 280.841C388.104 280.413 387.998 280.036 387.786 279.71C387.573 279.381 387.263 279.123 386.854 278.938C386.445 278.752 385.945 278.659 385.354 278.659H384.422V277.409H385.354C385.816 277.409 386.221 277.326 386.57 277.159C386.922 276.992 387.196 276.758 387.393 276.455C387.594 276.152 387.695 275.795 387.695 275.386C387.695 274.992 387.607 274.65 387.433 274.358C387.259 274.066 387.013 273.839 386.695 273.676C386.38 273.513 386.009 273.432 385.581 273.432C385.179 273.432 384.801 273.506 384.445 273.653C384.092 273.797 383.804 274.008 383.581 274.284C383.357 274.557 383.236 274.886 383.217 275.273H381.854C381.876 274.663 382.06 274.129 382.405 273.67C382.75 273.208 383.2 272.848 383.757 272.591C384.318 272.333 384.933 272.205 385.604 272.205C386.323 272.205 386.941 272.35 387.456 272.642C387.971 272.93 388.367 273.311 388.643 273.784C388.92 274.258 389.058 274.769 389.058 275.318C389.058 275.973 388.886 276.532 388.541 276.994C388.2 277.456 387.736 277.777 387.149 277.955V278.045C387.884 278.167 388.458 278.479 388.871 278.983C389.284 279.483 389.49 280.102 389.49 280.841C389.49 281.473 389.318 282.042 388.973 282.545C388.632 283.045 388.166 283.439 387.575 283.727C386.984 284.015 386.312 284.159 385.558 284.159Z" fill="white"/>
<path d="M319.355 172L306.057 126.909H319.707L325.872 154.651H326.224L333.534 126.909H344.278L351.588 154.739H351.94L358.105 126.909H371.756L358.457 172H346.744L339.082 146.812H338.73L331.068 172H319.355ZM388.048 152.977V172H375.895V126.909H387.608V144.611H387.96C388.723 142.453 389.993 140.772 391.769 139.569C393.545 138.351 395.681 137.741 398.176 137.741C400.569 137.741 402.646 138.285 404.407 139.371C406.183 140.457 407.555 141.954 408.524 143.862C409.508 145.77 409.992 147.957 409.977 150.423V172H397.824V152.977C397.839 151.304 397.42 149.99 396.569 149.036C395.732 148.082 394.536 147.605 392.98 147.605C391.997 147.605 391.131 147.825 390.382 148.266C389.648 148.691 389.076 149.308 388.665 150.115C388.268 150.908 388.063 151.862 388.048 152.977ZM425.4 172.528C423.243 172.528 421.334 172.176 419.676 171.472C418.032 170.752 416.74 169.666 415.801 168.213C414.861 166.76 414.392 164.911 414.392 162.665C414.392 160.815 414.707 159.237 415.338 157.931C415.97 156.61 416.85 155.531 417.98 154.695C419.111 153.858 420.424 153.219 421.922 152.779C423.433 152.339 425.063 152.053 426.809 151.92C428.703 151.774 430.222 151.598 431.367 151.392C432.526 151.172 433.363 150.871 433.877 150.489C434.391 150.093 434.647 149.572 434.647 148.926V148.838C434.647 147.957 434.31 147.282 433.635 146.812C432.959 146.343 432.093 146.108 431.037 146.108C429.877 146.108 428.93 146.365 428.196 146.879C427.477 147.378 427.044 148.148 426.897 149.19H415.713C415.859 147.135 416.513 145.242 417.672 143.51C418.846 141.763 420.556 140.369 422.802 139.327C425.048 138.27 427.851 137.741 431.213 137.741C433.635 137.741 435.807 138.028 437.73 138.6C439.653 139.158 441.289 139.943 442.64 140.956C443.99 141.954 445.017 143.128 445.722 144.479C446.441 145.814 446.801 147.268 446.801 148.838V172H435.44V167.244H435.176C434.501 168.507 433.679 169.527 432.71 170.305C431.756 171.083 430.662 171.648 429.429 172C428.211 172.352 426.868 172.528 425.4 172.528ZM429.363 164.866C430.288 164.866 431.154 164.676 431.961 164.294C432.783 163.912 433.451 163.362 433.965 162.643C434.479 161.924 434.735 161.05 434.735 160.023V157.205C434.413 157.337 434.068 157.461 433.701 157.579C433.348 157.696 432.967 157.806 432.556 157.909C432.159 158.012 431.734 158.107 431.279 158.195C430.838 158.283 430.376 158.364 429.892 158.438C428.952 158.584 428.182 158.826 427.58 159.164C426.993 159.487 426.552 159.891 426.259 160.375C425.98 160.845 425.841 161.373 425.841 161.96C425.841 162.9 426.171 163.619 426.831 164.118C427.492 164.617 428.336 164.866 429.363 164.866ZM472.775 138.182V146.989H450.494V138.182H472.775ZM454.809 130.08H466.963V161.124C466.963 161.593 467.044 161.99 467.205 162.312C467.367 162.621 467.616 162.856 467.954 163.017C468.291 163.164 468.724 163.237 469.253 163.237C469.62 163.237 470.045 163.193 470.53 163.105C471.029 163.017 471.396 162.944 471.631 162.885L473.392 171.428C472.849 171.589 472.071 171.787 471.058 172.022C470.06 172.257 468.871 172.411 467.491 172.484C464.702 172.631 462.361 172.345 460.468 171.626C458.574 170.892 457.151 169.74 456.197 168.169C455.242 166.598 454.78 164.632 454.809 162.268V130.08ZM499.51 172.528C497.352 172.528 495.444 172.176 493.785 171.472C492.141 170.752 490.85 169.666 489.91 168.213C488.971 166.76 488.501 164.911 488.501 162.665C488.501 160.815 488.817 159.237 489.448 157.931C490.079 156.61 490.96 155.531 492.09 154.695C493.22 153.858 494.534 153.219 496.031 152.779C497.543 152.339 499.172 152.053 500.919 151.92C502.812 151.774 504.331 151.598 505.476 151.392C506.636 151.172 507.472 150.871 507.986 150.489C508.5 150.093 508.757 149.572 508.757 148.926V148.838C508.757 147.957 508.419 147.282 507.744 146.812C507.069 146.343 506.203 146.108 505.146 146.108C503.986 146.108 503.04 146.365 502.306 146.879C501.587 147.378 501.154 148.148 501.007 149.19H489.822C489.969 147.135 490.622 145.242 491.782 143.51C492.956 141.763 494.666 140.369 496.912 139.327C499.157 138.27 501.961 137.741 505.322 137.741C507.744 137.741 509.916 138.028 511.839 138.6C513.762 139.158 515.399 139.943 516.749 140.956C518.099 141.954 519.127 143.128 519.831 144.479C520.551 145.814 520.91 147.268 520.91 148.838V172H509.549V167.244H509.285C508.61 168.507 507.788 169.527 506.819 170.305C505.865 171.083 504.772 171.648 503.539 172C502.32 172.352 500.977 172.528 499.51 172.528ZM503.473 164.866C504.397 164.866 505.263 164.676 506.071 164.294C506.893 163.912 507.56 163.362 508.074 162.643C508.588 161.924 508.845 161.05 508.845 160.023V157.205C508.522 157.337 508.177 157.461 507.81 157.579C507.458 157.696 507.076 157.806 506.665 157.909C506.269 158.012 505.843 158.107 505.388 158.195C504.948 158.283 504.485 158.364 504.001 158.438C503.062 158.584 502.291 158.826 501.689 159.164C501.102 159.487 500.662 159.891 500.368 160.375C500.089 160.845 499.95 161.373 499.95 161.96C499.95 162.9 500.28 163.619 500.941 164.118C501.601 164.617 502.445 164.866 503.473 164.866ZM538.871 152.977V172H526.717V138.182H538.254V144.611H538.606C539.34 142.468 540.632 140.787 542.481 139.569C544.345 138.351 546.518 137.741 548.998 137.741C551.391 137.741 553.468 138.292 555.229 139.393C557.005 140.479 558.378 141.976 559.346 143.884C560.33 145.792 560.814 147.972 560.8 150.423V172H548.646V152.977C548.661 151.304 548.235 149.99 547.369 149.036C546.518 148.082 545.329 147.605 543.802 147.605C542.804 147.605 541.931 147.825 541.182 148.266C540.448 148.691 539.883 149.308 539.487 150.115C539.091 150.908 538.885 151.862 538.871 152.977ZM595.355 172.616C591.744 172.616 588.633 171.927 586.02 170.547C583.422 169.152 581.419 167.156 580.009 164.558C578.615 161.946 577.918 158.819 577.918 155.179C577.918 151.686 578.622 148.633 580.031 146.02C581.441 143.407 583.429 141.374 585.998 139.921C588.567 138.468 591.598 137.741 595.091 137.741C597.645 137.741 599.957 138.138 602.026 138.93C604.096 139.723 605.865 140.875 607.333 142.387C608.8 143.884 609.931 145.704 610.723 147.847C611.516 149.99 611.912 152.405 611.912 155.091V157.909H581.705V151.216H600.727C600.713 150.247 600.463 149.396 599.979 148.662C599.509 147.913 598.871 147.334 598.063 146.923C597.271 146.497 596.368 146.284 595.355 146.284C594.372 146.284 593.469 146.497 592.647 146.923C591.825 147.334 591.165 147.906 590.666 148.64C590.181 149.374 589.924 150.232 589.895 151.216V158.438C589.895 159.524 590.123 160.492 590.578 161.344C591.033 162.195 591.686 162.863 592.537 163.347C593.388 163.832 594.416 164.074 595.619 164.074C596.456 164.074 597.219 163.956 597.909 163.722C598.614 163.487 599.216 163.149 599.715 162.709C600.214 162.254 600.581 161.711 600.816 161.08H611.912C611.53 163.428 610.628 165.468 609.204 167.2C607.78 168.918 605.894 170.253 603.546 171.207C601.212 172.147 598.482 172.616 595.355 172.616ZM637.127 138.182V146.989H614.494V138.182H637.127ZM618.809 172V137.213C618.809 134.424 619.308 132.112 620.306 130.278C621.304 128.443 622.713 127.071 624.533 126.161C626.353 125.25 628.496 124.795 630.962 124.795C632.504 124.795 634.001 124.913 635.454 125.148C636.922 125.383 638.008 125.588 638.712 125.764L636.951 134.483C636.511 134.351 635.997 134.248 635.41 134.175C634.823 134.087 634.309 134.043 633.869 134.043C632.724 134.043 631.953 134.285 631.557 134.769C631.161 135.254 630.962 135.892 630.962 136.685V172H618.809ZM662.072 138.182V146.989H639.439V138.182H662.072ZM643.754 172V137.213C643.754 134.424 644.253 132.112 645.251 130.278C646.25 128.443 647.659 127.071 649.479 126.161C651.299 125.25 653.442 124.795 655.908 124.795C657.449 124.795 658.946 124.913 660.399 125.148C661.867 125.383 662.953 125.588 663.658 125.764L661.896 134.483C661.456 134.351 660.942 134.248 660.355 134.175C659.768 134.087 659.254 134.043 658.814 134.043C657.669 134.043 656.898 134.285 656.502 134.769C656.106 135.254 655.908 135.892 655.908 136.685V172H643.754ZM682.025 172.616C678.356 172.616 675.215 171.89 672.602 170.437C669.989 168.969 667.986 166.929 666.591 164.316C665.197 161.689 664.5 158.643 664.5 155.179C664.5 151.715 665.197 148.677 666.591 146.064C667.986 143.437 669.989 141.396 672.602 139.943C675.215 138.475 678.356 137.741 682.025 137.741C685.695 137.741 688.836 138.475 691.449 139.943C694.061 141.396 696.065 143.437 697.459 146.064C698.854 148.677 699.551 151.715 699.551 155.179C699.551 158.643 698.854 161.689 697.459 164.316C696.065 166.929 694.061 168.969 691.449 170.437C688.836 171.89 685.695 172.616 682.025 172.616ZM682.113 163.634C683.141 163.634 684.029 163.289 684.778 162.599C685.526 161.909 686.106 160.925 686.517 159.648C686.928 158.371 687.133 156.852 687.133 155.091C687.133 153.315 686.928 151.796 686.517 150.533C686.106 149.256 685.526 148.273 684.778 147.583C684.029 146.893 683.141 146.548 682.113 146.548C681.027 146.548 680.095 146.893 679.317 147.583C678.539 148.273 677.945 149.256 677.534 150.533C677.123 151.796 676.917 153.315 676.917 155.091C676.917 156.852 677.123 158.371 677.534 159.648C677.945 160.925 678.539 161.909 679.317 162.599C680.095 163.289 681.027 163.634 682.113 163.634ZM704.483 172V138.182H716.284V144.611H716.636C717.253 142.233 718.229 140.494 719.564 139.393C720.915 138.292 722.493 137.741 724.298 137.741C724.827 137.741 725.348 137.786 725.861 137.874C726.39 137.947 726.896 138.057 727.381 138.204V148.574C726.779 148.368 726.037 148.214 725.157 148.112C724.276 148.009 723.52 147.957 722.889 147.957C721.7 147.957 720.629 148.229 719.675 148.772C718.735 149.3 717.994 150.049 717.451 151.018C716.908 151.972 716.636 153.095 716.636 154.386V172H704.483ZM752.926 138.182V146.989H730.645V138.182H752.926ZM734.96 130.08H747.113V161.124C747.113 161.593 747.194 161.99 747.355 162.312C747.517 162.621 747.766 162.856 748.104 163.017C748.442 163.164 748.875 163.237 749.403 163.237C749.77 163.237 750.196 163.193 750.68 163.105C751.179 163.017 751.546 162.944 751.781 162.885L753.542 171.428C752.999 171.589 752.221 171.787 751.208 172.022C750.21 172.257 749.021 172.411 747.642 172.484C744.853 172.631 742.512 172.345 740.618 171.626C738.725 170.892 737.301 169.74 736.347 168.169C735.393 166.598 734.931 164.632 734.96 162.268V130.08ZM771.976 126.909L770.831 157.909H760.791L759.646 126.909H771.976ZM765.811 172.705C764.109 172.705 762.648 172.11 761.43 170.921C760.226 169.718 759.632 168.257 759.646 166.54C759.632 164.866 760.226 163.435 761.43 162.246C762.648 161.058 764.109 160.463 765.811 160.463C767.426 160.463 768.85 161.058 770.083 162.246C771.33 163.435 771.961 164.866 771.976 166.54C771.961 167.685 771.66 168.727 771.073 169.666C770.501 170.591 769.752 171.332 768.828 171.89C767.903 172.433 766.897 172.705 765.811 172.705ZM809.449 172H792.1V126.909H809.273C813.911 126.909 817.918 127.812 821.294 129.617C824.685 131.408 827.298 133.991 829.132 137.367C830.982 140.728 831.906 144.758 831.906 149.455C831.906 154.152 830.989 158.188 829.154 161.564C827.32 164.925 824.722 167.509 821.36 169.314C817.999 171.105 814.029 172 809.449 172ZM804.341 161.608H809.009C811.24 161.608 813.141 161.248 814.711 160.529C816.296 159.81 817.5 158.57 818.322 156.808C819.159 155.047 819.577 152.596 819.577 149.455C819.577 146.313 819.151 143.862 818.3 142.101C817.463 140.339 816.23 139.099 814.601 138.38C812.986 137.661 811.005 137.301 808.656 137.301H804.341V161.608ZM837.57 172V126.909H857.033C860.38 126.909 863.308 127.57 865.818 128.891C868.328 130.212 870.28 132.068 871.675 134.461C873.069 136.853 873.766 139.65 873.766 142.849C873.766 146.079 873.047 148.875 871.609 151.238C870.185 153.601 868.181 155.421 865.598 156.698C863.029 157.975 860.028 158.614 856.593 158.614H844.968V149.102H854.127C855.566 149.102 856.791 148.853 857.804 148.354C858.831 147.84 859.617 147.113 860.16 146.174C860.718 145.235 860.996 144.126 860.996 142.849C860.996 141.558 860.718 140.457 860.16 139.547C859.617 138.622 858.831 137.918 857.804 137.433C856.791 136.934 855.566 136.685 854.127 136.685H849.812V172H837.57ZM902.565 141C902.447 139.532 901.897 138.387 900.913 137.565C899.945 136.743 898.469 136.332 896.488 136.332C895.226 136.332 894.191 136.487 893.384 136.795C892.591 137.088 892.004 137.492 891.622 138.006C891.241 138.519 891.042 139.107 891.028 139.767C890.998 140.31 891.094 140.802 891.314 141.242C891.549 141.668 891.916 142.057 892.415 142.409C892.914 142.747 893.552 143.055 894.33 143.334C895.108 143.613 896.033 143.862 897.104 144.082L900.803 144.875C903.299 145.403 905.434 146.101 907.21 146.967C908.986 147.833 910.439 148.853 911.57 150.027C912.7 151.187 913.529 152.493 914.058 153.946C914.601 155.399 914.879 156.984 914.894 158.702C914.879 161.667 914.138 164.177 912.67 166.232C911.203 168.286 909.104 169.85 906.374 170.921C903.658 171.993 900.392 172.528 896.576 172.528C892.657 172.528 889.237 171.949 886.316 170.789C883.41 169.629 881.149 167.846 879.535 165.439C877.935 163.017 877.128 159.92 877.113 156.148H888.738C888.811 157.527 889.156 158.687 889.773 159.626C890.389 160.566 891.255 161.278 892.371 161.762C893.501 162.246 894.844 162.489 896.4 162.489C897.706 162.489 898.8 162.327 899.68 162.004C900.561 161.681 901.229 161.234 901.684 160.661C902.139 160.089 902.374 159.436 902.388 158.702C902.374 158.012 902.146 157.41 901.706 156.896C901.28 156.368 900.576 155.898 899.592 155.487C898.609 155.062 897.281 154.665 895.607 154.298L891.116 153.33C887.123 152.464 883.975 151.018 881.67 148.992C879.381 146.952 878.243 144.17 878.258 140.648C878.243 137.786 879.006 135.283 880.548 133.14C882.103 130.982 884.254 129.302 886.999 128.098C889.758 126.894 892.921 126.293 896.488 126.293C900.128 126.293 903.277 126.902 905.933 128.12C908.59 129.338 910.638 131.056 912.076 133.272C913.529 135.474 914.263 138.05 914.278 141H902.565ZM944.232 126.909V172H932.078V126.909H944.232ZM966.629 172.616C963.018 172.616 959.906 171.927 957.294 170.547C954.695 169.152 952.692 167.156 951.283 164.558C949.888 161.946 949.191 158.819 949.191 155.179C949.191 151.686 949.896 148.633 951.305 146.02C952.714 143.407 954.703 141.374 957.271 139.921C959.84 138.468 962.871 137.741 966.365 137.741C968.919 137.741 971.23 138.138 973.3 138.93C975.369 139.723 977.138 140.875 978.606 142.387C980.074 143.884 981.204 145.704 981.997 147.847C982.789 149.99 983.186 152.405 983.186 155.091V157.909H952.978V151.216H972.001C971.986 150.247 971.737 149.396 971.252 148.662C970.783 147.913 970.144 147.334 969.337 146.923C968.544 146.497 967.642 146.284 966.629 146.284C965.645 146.284 964.743 146.497 963.921 146.923C963.099 147.334 962.438 147.906 961.939 148.64C961.455 149.374 961.198 150.232 961.169 151.216V158.438C961.169 159.524 961.396 160.492 961.851 161.344C962.306 162.195 962.959 162.863 963.811 163.347C964.662 163.832 965.689 164.074 966.893 164.074C967.73 164.074 968.493 163.956 969.183 163.722C969.887 163.487 970.489 163.149 970.988 162.709C971.487 162.254 971.854 161.711 972.089 161.08H983.186C982.804 163.428 981.901 165.468 980.477 167.2C979.054 168.918 977.168 170.253 974.819 171.207C972.485 172.147 969.755 172.616 966.629 172.616ZM1008.4 138.182V146.989H985.767V138.182H1008.4ZM990.082 172V137.213C990.082 134.424 990.581 132.112 991.58 130.278C992.578 128.443 993.987 127.071 995.807 126.161C997.627 125.25 999.77 124.795 1002.24 124.795C1003.78 124.795 1005.27 124.913 1006.73 125.148C1008.2 125.383 1009.28 125.588 1009.99 125.764L1008.22 134.483C1007.78 134.351 1007.27 134.248 1006.68 134.175C1006.1 134.087 1005.58 134.043 1005.14 134.043C1004 134.043 1003.23 134.285 1002.83 134.769C1002.43 135.254 1002.24 135.892 1002.24 136.685V172H990.082ZM1033.26 138.182V146.989H1010.98V138.182H1033.26ZM1015.29 130.08H1027.45V161.124C1027.45 161.593 1027.53 161.99 1027.69 162.312C1027.85 162.621 1028.1 162.856 1028.44 163.017C1028.77 163.164 1029.21 163.237 1029.74 163.237C1030.1 163.237 1030.53 163.193 1031.01 163.105C1031.51 163.017 1031.88 162.944 1032.11 162.885L1033.87 171.428C1033.33 171.589 1032.55 171.787 1031.54 172.022C1030.54 172.257 1029.35 172.411 1027.97 172.484C1025.18 172.631 1022.84 172.345 1020.95 171.626C1019.06 170.892 1017.63 169.74 1016.68 168.169C1015.72 166.598 1015.26 164.632 1015.29 162.268V130.08ZM1050.57 172V138.182H1062.72V172H1050.57ZM1056.65 134.659C1055 134.659 1053.59 134.116 1052.42 133.03C1051.24 131.944 1050.66 130.637 1050.66 129.111C1050.66 127.584 1051.24 126.278 1052.42 125.192C1053.59 124.106 1055 123.562 1056.65 123.562C1058.3 123.562 1059.71 124.106 1060.87 125.192C1062.05 126.278 1062.63 127.584 1062.63 129.111C1062.63 130.637 1062.05 131.944 1060.87 133.03C1059.71 134.116 1058.3 134.659 1056.65 134.659ZM1089.08 138.182V146.989H1066.8V138.182H1089.08ZM1071.12 130.08H1083.27V161.124C1083.27 161.593 1083.35 161.99 1083.51 162.312C1083.67 162.621 1083.92 162.856 1084.26 163.017C1084.6 163.164 1085.03 163.237 1085.56 163.237C1085.93 163.237 1086.35 163.193 1086.84 163.105C1087.34 163.017 1087.7 162.944 1087.94 162.885L1089.7 171.428C1089.16 171.589 1088.38 171.787 1087.36 172.022C1086.37 172.257 1085.18 172.411 1083.8 172.484C1081.01 172.631 1078.67 172.345 1076.77 171.626C1074.88 170.892 1073.46 169.74 1072.5 168.169C1071.55 166.598 1071.09 164.632 1071.12 162.268V130.08ZM1115.82 172.528C1113.66 172.528 1111.75 172.176 1110.09 171.472C1108.45 170.752 1107.16 169.666 1106.22 168.213C1105.28 166.76 1104.81 164.911 1104.81 162.665C1104.81 160.815 1105.12 159.237 1105.75 157.931C1106.39 156.61 1107.27 155.531 1108.4 154.695C1109.53 153.858 1110.84 153.219 1112.34 152.779C1113.85 152.339 1115.48 152.053 1117.23 151.92C1119.12 151.774 1120.64 151.598 1121.78 151.392C1122.94 151.172 1123.78 150.871 1124.29 150.489C1124.81 150.093 1125.06 149.572 1125.06 148.926V148.838C1125.06 147.957 1124.73 147.282 1124.05 146.812C1123.38 146.343 1122.51 146.108 1121.45 146.108C1120.29 146.108 1119.35 146.365 1118.61 146.879C1117.89 147.378 1117.46 148.148 1117.31 149.19H1106.13C1106.28 147.135 1106.93 145.242 1108.09 143.51C1109.26 141.763 1110.97 140.369 1113.22 139.327C1115.46 138.27 1118.27 137.741 1121.63 137.741C1124.05 137.741 1126.22 138.028 1128.15 138.6C1130.07 139.158 1131.71 139.943 1133.06 140.956C1134.41 141.954 1135.43 143.128 1136.14 144.479C1136.86 145.814 1137.22 147.268 1137.22 148.838V172H1125.86V167.244H1125.59C1124.92 168.507 1124.09 169.527 1123.13 170.305C1122.17 171.083 1121.08 171.648 1119.85 172C1118.63 172.352 1117.28 172.528 1115.82 172.528ZM1119.78 164.866C1120.7 164.866 1121.57 164.676 1122.38 164.294C1123.2 163.912 1123.87 163.362 1124.38 162.643C1124.89 161.924 1125.15 161.05 1125.15 160.023V157.205C1124.83 157.337 1124.48 157.461 1124.12 157.579C1123.76 157.696 1123.38 157.806 1122.97 157.909C1122.58 158.012 1122.15 158.107 1121.69 158.195C1121.25 158.283 1120.79 158.364 1120.31 158.438C1119.37 158.584 1118.6 158.826 1118 159.164C1117.41 159.487 1116.97 159.891 1116.67 160.375C1116.4 160.845 1116.26 161.373 1116.26 161.96C1116.26 162.9 1116.59 163.619 1117.25 164.118C1117.91 164.617 1118.75 164.866 1119.78 164.866ZM1155.18 126.909V172H1143.02V126.909H1155.18ZM1173.52 126.909V172H1161.37V126.909H1173.52ZM324.375 247.616C320.705 247.616 317.564 246.89 314.952 245.437C312.339 243.969 310.335 241.929 308.941 239.316C307.547 236.689 306.849 233.643 306.849 230.179C306.849 226.715 307.547 223.677 308.941 221.064C310.335 218.437 312.339 216.396 314.952 214.943C317.564 213.475 320.705 212.741 324.375 212.741C328.045 212.741 331.186 213.475 333.798 214.943C336.411 216.396 338.415 218.437 339.809 221.064C341.203 223.677 341.901 226.715 341.901 230.179C341.901 233.643 341.203 236.689 339.809 239.316C338.415 241.929 336.411 243.969 333.798 245.437C331.186 246.89 328.045 247.616 324.375 247.616ZM324.463 238.634C325.491 238.634 326.379 238.289 327.127 237.599C327.876 236.909 328.455 235.925 328.866 234.648C329.277 233.371 329.483 231.852 329.483 230.091C329.483 228.315 329.277 226.796 328.866 225.533C328.455 224.256 327.876 223.273 327.127 222.583C326.379 221.893 325.491 221.548 324.463 221.548C323.377 221.548 322.445 221.893 321.667 222.583C320.889 223.273 320.295 224.256 319.884 225.533C319.473 226.796 319.267 228.315 319.267 230.091C319.267 231.852 319.473 233.371 319.884 234.648C320.295 235.925 320.889 236.909 321.667 237.599C322.445 238.289 323.377 238.634 324.463 238.634ZM358.986 227.977V247H346.832V213.182H358.369V219.611H358.722C359.455 217.468 360.747 215.787 362.597 214.569C364.461 213.351 366.633 212.741 369.114 212.741C371.506 212.741 373.583 213.292 375.344 214.393C377.121 215.479 378.493 216.976 379.462 218.884C380.445 220.792 380.929 222.972 380.915 225.423V247H368.761V227.977C368.776 226.304 368.35 224.99 367.484 224.036C366.633 223.082 365.444 222.605 363.918 222.605C362.92 222.605 362.046 222.825 361.298 223.266C360.564 223.691 359.999 224.308 359.602 225.115C359.206 225.908 359 226.862 358.986 227.977ZM419.434 213.182V221.989H397.152V213.182H419.434ZM401.468 205.08H413.621V236.124C413.621 236.593 413.702 236.99 413.863 237.312C414.025 237.621 414.274 237.856 414.612 238.017C414.949 238.164 415.382 238.237 415.911 238.237C416.278 238.237 416.703 238.193 417.188 238.105C417.687 238.017 418.054 237.944 418.289 237.885L420.05 246.428C419.507 246.589 418.729 246.787 417.716 247.022C416.718 247.257 415.529 247.411 414.15 247.484C411.361 247.631 409.02 247.345 407.126 246.626C405.233 245.892 403.809 244.74 402.855 243.169C401.901 241.598 401.438 239.632 401.468 237.268V205.08ZM437.273 227.977V247H425.119V201.909H436.833V219.611H437.185C437.948 217.453 439.218 215.772 440.994 214.569C442.77 213.351 444.905 212.741 447.401 212.741C449.793 212.741 451.87 213.285 453.632 214.371C455.408 215.457 456.78 216.954 457.749 218.862C458.732 220.77 459.217 222.957 459.202 225.423V247H447.048V227.977C447.063 226.304 446.645 224.99 445.794 224.036C444.957 223.082 443.761 222.605 442.205 222.605C441.221 222.605 440.355 222.825 439.607 223.266C438.873 223.691 438.3 224.308 437.889 225.115C437.493 225.908 437.288 226.862 437.273 227.977ZM481.406 247.616C477.795 247.616 474.684 246.927 472.071 245.547C469.473 244.152 467.469 242.156 466.06 239.558C464.666 236.946 463.969 233.819 463.969 230.179C463.969 226.686 464.673 223.633 466.082 221.02C467.491 218.407 469.48 216.374 472.049 214.921C474.617 213.468 477.648 212.741 481.142 212.741C483.696 212.741 486.008 213.138 488.077 213.93C490.147 214.723 491.916 215.875 493.383 217.387C494.851 218.884 495.981 220.704 496.774 222.847C497.567 224.99 497.963 227.405 497.963 230.091V232.909H467.756V226.216H486.778C486.764 225.247 486.514 224.396 486.03 223.662C485.56 222.913 484.921 222.334 484.114 221.923C483.322 221.497 482.419 221.284 481.406 221.284C480.423 221.284 479.52 221.497 478.698 221.923C477.876 222.334 477.215 222.906 476.716 223.64C476.232 224.374 475.975 225.232 475.946 226.216V233.438C475.946 234.524 476.173 235.492 476.628 236.344C477.083 237.195 477.737 237.863 478.588 238.347C479.439 238.832 480.467 239.074 481.67 239.074C482.507 239.074 483.27 238.956 483.96 238.722C484.665 238.487 485.266 238.149 485.765 237.709C486.265 237.254 486.631 236.711 486.866 236.08H497.963C497.581 238.428 496.679 240.468 495.255 242.2C493.831 243.918 491.945 245.253 489.596 246.207C487.263 247.147 484.532 247.616 481.406 247.616ZM515.274 259.682V213.182H527.339V219.082H527.603C528.044 217.937 528.69 216.888 529.541 215.934C530.392 214.965 531.449 214.195 532.711 213.622C533.974 213.035 535.441 212.741 537.115 212.741C539.346 212.741 541.467 213.336 543.478 214.525C545.503 215.714 547.147 217.585 548.409 220.139C549.686 222.693 550.325 226.01 550.325 230.091C550.325 233.995 549.716 237.232 548.498 239.8C547.294 242.369 545.679 244.285 543.654 245.547C541.643 246.809 539.434 247.44 537.027 247.44C535.441 247.44 534.025 247.183 532.777 246.67C531.544 246.141 530.488 245.429 529.607 244.534C528.741 243.624 528.073 242.597 527.603 241.452H527.427V259.682H515.274ZM527.163 230.091C527.163 231.735 527.376 233.159 527.801 234.362C528.242 235.551 528.858 236.476 529.651 237.136C530.458 237.782 531.42 238.105 532.535 238.105C533.651 238.105 534.597 237.79 535.375 237.158C536.168 236.513 536.77 235.595 537.181 234.406C537.606 233.203 537.819 231.764 537.819 230.091C537.819 228.418 537.606 226.987 537.181 225.798C536.77 224.594 536.168 223.677 535.375 223.045C534.597 222.4 533.651 222.077 532.535 222.077C531.42 222.077 530.458 222.4 529.651 223.045C528.858 223.677 528.242 224.594 527.801 225.798C527.376 226.987 527.163 228.418 527.163 230.091ZM555.416 247V213.182H567.57V247H555.416ZM561.493 209.659C559.849 209.659 558.44 209.116 557.266 208.03C556.092 206.944 555.504 205.637 555.504 204.111C555.504 202.584 556.092 201.278 557.266 200.192C558.44 199.106 559.849 198.562 561.493 198.562C563.152 198.562 564.561 199.106 565.72 200.192C566.895 201.278 567.482 202.584 567.482 204.111C567.482 205.637 566.895 206.944 565.72 208.03C564.561 209.116 563.152 209.659 561.493 209.659ZM593.93 213.182V221.989H571.648V213.182H593.93ZM575.964 205.08H588.117V236.124C588.117 236.593 588.198 236.99 588.359 237.312C588.521 237.621 588.77 237.856 589.108 238.017C589.446 238.164 589.879 238.237 590.407 238.237C590.774 238.237 591.2 238.193 591.684 238.105C592.183 238.017 592.55 237.944 592.785 237.885L594.546 246.428C594.003 246.589 593.225 246.787 592.212 247.022C591.214 247.257 590.025 247.411 588.646 247.484C585.857 247.631 583.516 247.345 581.622 246.626C579.729 245.892 578.305 244.74 577.351 243.169C576.397 241.598 575.934 239.632 575.964 237.268V205.08ZM614.818 247.616C611.149 247.616 608.008 246.89 605.395 245.437C602.782 243.969 600.779 241.929 599.384 239.316C597.99 236.689 597.293 233.643 597.293 230.179C597.293 226.715 597.99 223.677 599.384 221.064C600.779 218.437 602.782 216.396 605.395 214.943C608.008 213.475 611.149 212.741 614.818 212.741C618.136 212.741 621.005 213.343 623.427 214.547C625.864 215.736 627.75 217.424 629.085 219.611C630.421 221.783 631.096 224.337 631.111 227.273H619.838C619.677 225.497 619.163 224.146 618.297 223.222C617.446 222.282 616.345 221.812 614.994 221.812C613.938 221.812 613.013 222.121 612.22 222.737C611.428 223.339 610.811 224.256 610.371 225.489C609.931 226.708 609.71 228.241 609.71 230.091C609.71 231.94 609.931 233.482 610.371 234.714C610.811 235.933 611.428 236.85 612.22 237.467C613.013 238.068 613.938 238.369 614.994 238.369C615.89 238.369 616.682 238.164 617.372 237.753C618.062 237.327 618.62 236.711 619.046 235.903C619.486 235.081 619.75 234.083 619.838 232.909H631.111C631.067 235.889 630.384 238.487 629.063 240.703C627.742 242.905 625.871 244.607 623.449 245.811C621.042 247.015 618.165 247.616 614.818 247.616ZM648.279 227.977V247H636.125V201.909H647.838V219.611H648.191C648.954 217.453 650.224 215.772 652 214.569C653.776 213.351 655.911 212.741 658.407 212.741C660.799 212.741 662.876 213.285 664.637 214.371C666.413 215.457 667.786 216.954 668.755 218.862C669.738 220.77 670.222 222.957 670.208 225.423V247H658.054V227.977C658.069 226.304 657.651 224.99 656.799 224.036C655.963 223.082 654.766 222.605 653.211 222.605C652.227 222.605 651.361 222.825 650.613 223.266C649.879 223.691 649.306 224.308 648.895 225.115C648.499 225.908 648.293 226.862 648.279 227.977Z" fill="white"/>
</g>
<defs>
<filter id="filter0_f_158_48" x="-680" y="-338" width="2267" height="1247" filterUnits="userSpaceOnUse" color-interpolation-filters="sRGB">
<feFlood flood-opacity="0" result="BackgroundImageFix"/>
<feBlend mode="normal" in="SourceGraphic" in2="BackgroundImageFix" result="shape"/>
<feGaussianBlur stdDeviation="250" result="effect1_foregroundBlur_158_48"/>
</filter>
<linearGradient id="paint0_linear_158_48" x1="1448.5" y1="229.535" x2="1390.85" y2="-53.9909" gradientUnits="userSpaceOnUse">
<stop stop-color="#8E45FF"/>
<stop offset="0.835" stop-color="#548CFF" stop-opacity="0"/>
</linearGradient>
<linearGradient id="paint1_linear_158_48" x1="-21" y1="234.123" x2="-102.49" y2="-56.564" gradientUnits="userSpaceOnUse">
<stop stop-color="#AE85FF"/>
<stop offset="0.835" stop-color="#AD85FE" stop-opacity="0"/>
</linearGradient>
<linearGradient id="paint2_linear_158_48" x1="501.406" y1="330.517" x2="484.354" y2="-99.1053" gradientUnits="userSpaceOnUse">
<stop stop-color="#9E6EFE"/>
<stop offset="0.835" stop-color="#A070FE" stop-opacity="0"/>
</linearGradient>
<linearGradient id="paint3_linear_158_48" x1="937" y1="462.279" x2="837.648" y2="-161.518" gradientUnits="userSpaceOnUse">
<stop stop-color="#8B51FF"/>
<stop offset="0.835" stop-color="#9159FF" stop-opacity="0"/>
</linearGradient>
</defs>
</svg>
