<svg width="1440" height="345" viewBox="0 0 1440 345" fill="none" xmlns="http://www.w3.org/2000/svg">
<mask id="mask0_158_48" style="mask-type:alpha" maskUnits="userSpaceOnUse" x="0" y="0" width="1440" height="345">
<rect width="1440" height="345" fill="white"/>
</mask>
<g mask="url(#mask0_158_48)">
<rect width="1440" height="345" fill="#7762FF" fill-opacity="0.73"/>
<path d="M1223 -2H1374.34L1482.49 4.26392L1562.27 151.283L1658 261.72L1635.79 345H1498.36L1321.03 120.506L1223 -2Z" fill="url(#paint0_linear_158_48)"/>
<path d="M-173 -17H-39.4456L55.9863 -10.4653L196 95.6922L97.3297 154.242L191.269 345H69.9969L-86.4945 110.802L-173 -17Z" fill="url(#paint1_linear_158_48)"/>
<path d="M282 -2H442.587L557.335 4.26392L720 265.944L511.533 73.9504L720 345H574.181L386.015 120.506L339.696 197.148L282 -2Z" fill="url(#paint2_linear_158_48)"/>
<path d="M684 -2H867.502L998.623 4.26392L1191 106.023L946.286 73.9504L1184.5 345H1017.87L802.857 120.506L684 -2Z" fill="url(#paint3_linear_158_48)"/>
<g opacity="0.75" filter="url(#filter0_f_158_48)">
<rect x="-180" y="162" width="1267" height="247" fill="white"/>
</g>
<path d="M306.321 54V36.5455H318.236V39.9716H310.54V43.5511H317.477V46.9858H310.54V54H306.321ZM325.518 54.2472C324.149 54.2472 322.967 53.9773 321.973 53.4375C320.984 52.892 320.223 52.1165 319.689 51.1108C319.161 50.0994 318.896 48.8977 318.896 47.5057C318.896 46.1534 319.163 44.9716 319.697 43.9602C320.232 42.9432 320.984 42.1534 321.956 41.5909C322.928 41.0227 324.072 40.7386 325.391 40.7386C326.322 40.7386 327.175 40.8835 327.947 41.1733C328.72 41.4631 329.388 41.892 329.95 42.4602C330.513 43.0284 330.95 43.7301 331.263 44.5653C331.575 45.3949 331.732 46.3466 331.732 47.4205V48.4602H320.354V46.0398H327.854C327.848 45.5966 327.743 45.2017 327.538 44.8551C327.334 44.5085 327.053 44.2386 326.695 44.0455C326.342 43.8466 325.936 43.7472 325.476 43.7472C325.01 43.7472 324.592 43.8523 324.223 44.0625C323.854 44.267 323.561 44.5483 323.345 44.9062C323.129 45.2585 323.016 45.6591 323.004 46.108V48.571C323.004 49.1051 323.109 49.5739 323.32 49.9773C323.53 50.375 323.828 50.6847 324.214 50.9062C324.601 51.1278 325.061 51.2386 325.595 51.2386C325.964 51.2386 326.3 51.1875 326.601 51.0852C326.902 50.983 327.161 50.8324 327.376 50.6335C327.592 50.4347 327.754 50.1903 327.862 49.9006L331.689 50.0114C331.53 50.8693 331.18 51.6165 330.641 52.2528C330.107 52.8835 329.405 53.375 328.536 53.7273C327.666 54.0739 326.661 54.2472 325.518 54.2472ZM337.55 54.2216C336.715 54.2216 335.974 54.0824 335.326 53.804C334.684 53.5199 334.175 53.0937 333.8 52.5256C333.431 51.9517 333.246 51.233 333.246 50.3693C333.246 49.642 333.374 49.0284 333.63 48.5284C333.886 48.0284 334.238 47.6222 334.687 47.3097C335.136 46.9972 335.653 46.7614 336.238 46.6023C336.823 46.4375 337.448 46.3267 338.113 46.2699C338.857 46.2017 339.457 46.1307 339.911 46.0568C340.366 45.9773 340.695 45.8665 340.9 45.7244C341.11 45.5767 341.215 45.3693 341.215 45.1023V45.0597C341.215 44.6222 341.065 44.2841 340.763 44.0455C340.462 43.8068 340.056 43.6875 339.545 43.6875C338.994 43.6875 338.55 43.8068 338.215 44.0455C337.88 44.2841 337.667 44.6136 337.576 45.0341L333.732 44.8977C333.846 44.1023 334.138 43.392 334.61 42.767C335.087 42.1364 335.741 41.642 336.57 41.2841C337.406 40.9205 338.408 40.7386 339.579 40.7386C340.414 40.7386 341.184 40.8381 341.888 41.0369C342.593 41.2301 343.207 41.5142 343.729 41.8892C344.252 42.2585 344.656 42.7131 344.94 43.2528C345.229 43.7926 345.374 44.4091 345.374 45.1023V54H341.454V52.1761H341.352C341.119 52.6193 340.82 52.9943 340.457 53.3011C340.099 53.608 339.675 53.8381 339.187 53.9915C338.704 54.1449 338.158 54.2216 337.55 54.2216ZM338.837 51.4943C339.286 51.4943 339.69 51.4034 340.048 51.2216C340.411 51.0398 340.701 50.7898 340.917 50.4716C341.133 50.1477 341.241 49.7727 341.241 49.3466V48.1023C341.121 48.1648 340.977 48.2216 340.806 48.2727C340.641 48.3239 340.46 48.3722 340.261 48.4176C340.062 48.4631 339.857 48.5028 339.647 48.5369C339.437 48.571 339.235 48.6023 339.042 48.6307C338.65 48.6932 338.315 48.7898 338.036 48.9205C337.763 49.0511 337.553 49.2216 337.406 49.4318C337.263 49.6364 337.192 49.8807 337.192 50.1648C337.192 50.5966 337.346 50.9261 337.653 51.1534C337.965 51.3807 338.36 51.4943 338.837 51.4943ZM355.312 40.9091V43.9773H347.053V40.9091H355.312ZM348.783 37.7727H352.951V49.8835C352.951 50.1392 352.991 50.3466 353.07 50.5057C353.156 50.6591 353.278 50.7699 353.437 50.8381C353.596 50.9006 353.786 50.9318 354.008 50.9318C354.167 50.9318 354.335 50.9176 354.511 50.8892C354.692 50.8551 354.829 50.8267 354.92 50.804L355.55 53.8125C355.352 53.8693 355.07 53.9403 354.707 54.0256C354.349 54.1108 353.92 54.1648 353.42 54.1875C352.442 54.233 351.604 54.1193 350.906 53.8466C350.212 53.5682 349.681 53.1364 349.312 52.5511C348.948 51.9659 348.772 51.2301 348.783 50.3438V37.7727ZM365.884 48.3494V40.9091H370.043V54H366.072V51.5625H365.935C365.646 52.3636 365.151 53 364.452 53.4716C363.759 53.9375 362.921 54.1705 361.938 54.1705C361.046 54.1705 360.262 53.9659 359.586 53.5568C358.91 53.1477 358.384 52.5767 358.009 51.8438C357.634 51.1051 357.444 50.2415 357.438 49.2528V40.9091H361.606V48.4347C361.612 49.1449 361.799 49.7045 362.168 50.1136C362.538 50.5227 363.04 50.7273 363.677 50.7273C364.092 50.7273 364.464 50.6364 364.793 50.4545C365.129 50.267 365.393 49.9972 365.586 49.6449C365.785 49.2869 365.884 48.8551 365.884 48.3494ZM372.696 54V40.9091H376.744V43.2955H376.881C377.119 42.4318 377.509 41.7898 378.048 41.3693C378.588 40.9432 379.216 40.7301 379.932 40.7301C380.125 40.7301 380.324 40.7443 380.528 40.7727C380.733 40.7955 380.923 40.8324 381.099 40.8835V44.5057C380.901 44.4375 380.639 44.3835 380.315 44.3438C379.997 44.304 379.713 44.2841 379.463 44.2841C378.969 44.2841 378.523 44.3949 378.125 44.6165C377.733 44.8324 377.423 45.1364 377.196 45.5284C376.974 45.9148 376.864 46.3693 376.864 46.892V54H372.696ZM388.237 54.2472C386.868 54.2472 385.686 53.9773 384.692 53.4375C383.703 52.892 382.942 52.1165 382.408 51.1108C381.879 50.0994 381.615 48.8977 381.615 47.5057C381.615 46.1534 381.882 44.9716 382.416 43.9602C382.95 42.9432 383.703 42.1534 384.675 41.5909C385.646 41.0227 386.791 40.7386 388.109 40.7386C389.041 40.7386 389.893 40.8835 390.666 41.1733C391.439 41.4631 392.107 41.892 392.669 42.4602C393.232 43.0284 393.669 43.7301 393.982 44.5653C394.294 45.3949 394.45 46.3466 394.45 47.4205V48.4602H383.072V46.0398H390.572C390.567 45.5966 390.462 45.2017 390.257 44.8551C390.053 44.5085 389.771 44.2386 389.413 44.0455C389.061 43.8466 388.655 43.7472 388.195 43.7472C387.729 43.7472 387.311 43.8523 386.942 44.0625C386.572 44.267 386.28 44.5483 386.064 44.9062C385.848 45.2585 385.734 45.6591 385.723 46.108V48.571C385.723 49.1051 385.828 49.5739 386.038 49.9773C386.249 50.375 386.547 50.6847 386.933 50.9062C387.32 51.1278 387.78 51.2386 388.314 51.2386C388.683 51.2386 389.018 51.1875 389.32 51.0852C389.621 50.983 389.879 50.8324 390.095 50.6335C390.311 50.4347 390.473 50.1903 390.581 49.9006L394.408 50.0114C394.249 50.8693 393.899 51.6165 393.359 52.2528C392.825 52.8835 392.124 53.375 391.254 53.7273C390.385 54.0739 389.379 54.2472 388.237 54.2472Z" fill="white"/>
<path d="M306.943 293.545V311H304.83V295.761H304.727L300.466 298.591V296.443L304.83 293.545H306.943ZM312.509 311L320.315 295.557V295.42H311.315V293.545H322.497V295.523L314.724 311H312.509ZM338.117 311H332.731V293.545H338.356C340.049 293.545 341.498 293.895 342.702 294.594C343.907 295.287 344.83 296.284 345.472 297.585C346.114 298.881 346.435 300.432 346.435 302.239C346.435 304.057 346.112 305.622 345.464 306.935C344.816 308.241 343.873 309.247 342.634 309.952C341.396 310.651 339.89 311 338.117 311ZM334.844 309.125H337.981C339.424 309.125 340.62 308.847 341.569 308.29C342.518 307.733 343.225 306.94 343.691 305.912C344.157 304.884 344.39 303.659 344.39 302.239C344.39 300.83 344.16 299.616 343.7 298.599C343.239 297.577 342.552 296.793 341.637 296.247C340.722 295.696 339.583 295.42 338.219 295.42H334.844V309.125ZM355.197 311.273C353.935 311.273 352.847 310.994 351.933 310.438C351.023 309.875 350.322 309.091 349.827 308.085C349.339 307.074 349.094 305.898 349.094 304.557C349.094 303.216 349.339 302.034 349.827 301.011C350.322 299.983 351.009 299.182 351.89 298.608C352.776 298.028 353.81 297.739 354.992 297.739C355.674 297.739 356.347 297.852 357.012 298.08C357.677 298.307 358.282 298.676 358.827 299.188C359.373 299.693 359.808 300.364 360.131 301.199C360.455 302.034 360.617 303.062 360.617 304.284V305.136H350.526V303.398H358.572C358.572 302.659 358.424 302 358.129 301.42C357.839 300.841 357.424 300.384 356.884 300.048C356.35 299.713 355.719 299.545 354.992 299.545C354.191 299.545 353.498 299.744 352.913 300.142C352.333 300.534 351.887 301.045 351.575 301.676C351.262 302.307 351.106 302.983 351.106 303.705V304.864C351.106 305.852 351.276 306.69 351.617 307.378C351.964 308.06 352.444 308.58 353.058 308.938C353.671 309.29 354.384 309.466 355.197 309.466C355.725 309.466 356.202 309.392 356.629 309.244C357.06 309.091 357.433 308.864 357.745 308.562C358.058 308.256 358.299 307.875 358.469 307.42L360.413 307.966C360.208 308.625 359.864 309.205 359.381 309.705C358.898 310.199 358.302 310.585 357.592 310.864C356.881 311.136 356.083 311.273 355.197 311.273ZM368.995 311.273C367.768 311.273 366.711 310.983 365.825 310.403C364.938 309.824 364.256 309.026 363.779 308.009C363.302 306.991 363.063 305.83 363.063 304.523C363.063 303.193 363.308 302.02 363.796 301.003C364.29 299.98 364.978 299.182 365.859 298.608C366.745 298.028 367.779 297.739 368.961 297.739C369.881 297.739 370.711 297.909 371.45 298.25C372.188 298.591 372.793 299.068 373.265 299.682C373.737 300.295 374.029 301.011 374.143 301.83H372.131C371.978 301.233 371.637 300.705 371.109 300.244C370.586 299.778 369.881 299.545 368.995 299.545C368.211 299.545 367.523 299.75 366.933 300.159C366.347 300.562 365.89 301.134 365.56 301.872C365.237 302.605 365.075 303.466 365.075 304.455C365.075 305.466 365.234 306.347 365.552 307.097C365.876 307.847 366.33 308.429 366.915 308.844C367.506 309.259 368.2 309.466 368.995 309.466C369.518 309.466 369.992 309.375 370.418 309.193C370.844 309.011 371.205 308.75 371.501 308.409C371.796 308.068 372.006 307.659 372.131 307.182H374.143C374.029 307.955 373.748 308.651 373.299 309.27C372.856 309.884 372.268 310.372 371.535 310.736C370.808 311.094 369.961 311.273 368.995 311.273ZM383.799 311V309.466L389.56 303.159C390.237 302.42 390.793 301.778 391.231 301.233C391.668 300.682 391.992 300.165 392.202 299.682C392.418 299.193 392.526 298.682 392.526 298.148C392.526 297.534 392.379 297.003 392.083 296.554C391.793 296.105 391.396 295.759 390.89 295.514C390.384 295.27 389.816 295.148 389.185 295.148C388.515 295.148 387.93 295.287 387.43 295.565C386.935 295.838 386.552 296.222 386.279 296.716C386.012 297.21 385.879 297.79 385.879 298.455H383.867C383.867 297.432 384.103 296.534 384.575 295.761C385.046 294.989 385.688 294.386 386.501 293.955C387.319 293.523 388.237 293.307 389.254 293.307C390.276 293.307 391.183 293.523 391.972 293.955C392.762 294.386 393.381 294.969 393.83 295.702C394.279 296.435 394.504 297.25 394.504 298.148C394.504 298.79 394.387 299.418 394.154 300.031C393.927 300.639 393.529 301.318 392.961 302.068C392.398 302.812 391.617 303.722 390.617 304.795L386.697 308.989V309.125H394.81V311H383.799ZM404.023 311.239C402.739 311.239 401.646 310.889 400.742 310.19C399.839 309.486 399.148 308.466 398.671 307.131C398.194 305.79 397.955 304.17 397.955 302.273C397.955 300.386 398.194 298.776 398.671 297.44C399.154 296.099 399.847 295.077 400.751 294.372C401.66 293.662 402.751 293.307 404.023 293.307C405.296 293.307 406.384 293.662 407.288 294.372C408.197 295.077 408.89 296.099 409.367 297.44C409.85 298.776 410.092 300.386 410.092 302.273C410.092 304.17 409.853 305.79 409.376 307.131C408.898 308.466 408.208 309.486 407.305 310.19C406.401 310.889 405.308 311.239 404.023 311.239ZM404.023 309.364C405.296 309.364 406.285 308.75 406.989 307.523C407.694 306.295 408.046 304.545 408.046 302.273C408.046 300.761 407.884 299.474 407.56 298.412C407.242 297.349 406.782 296.54 406.18 295.983C405.583 295.426 404.864 295.148 404.023 295.148C402.762 295.148 401.776 295.77 401.066 297.014C400.356 298.253 400.001 300.006 400.001 302.273C400.001 303.784 400.16 305.068 400.478 306.125C400.796 307.182 401.254 307.986 401.85 308.537C402.452 309.088 403.177 309.364 404.023 309.364ZM413.33 311V309.466L419.092 303.159C419.768 302.42 420.325 301.778 420.762 301.233C421.2 300.682 421.523 300.165 421.734 299.682C421.95 299.193 422.058 298.682 422.058 298.148C422.058 297.534 421.91 297.003 421.614 296.554C421.325 296.105 420.927 295.759 420.421 295.514C419.915 295.27 419.347 295.148 418.717 295.148C418.046 295.148 417.461 295.287 416.961 295.565C416.467 295.838 416.083 296.222 415.81 296.716C415.543 297.21 415.41 297.79 415.41 298.455H413.398C413.398 297.432 413.634 296.534 414.106 295.761C414.577 294.989 415.219 294.386 416.032 293.955C416.85 293.523 417.768 293.307 418.785 293.307C419.808 293.307 420.714 293.523 421.504 293.955C422.293 294.386 422.913 294.969 423.362 295.702C423.81 296.435 424.035 297.25 424.035 298.148C424.035 298.79 423.918 299.418 423.685 300.031C423.458 300.639 423.06 301.318 422.492 302.068C421.93 302.812 421.148 303.722 420.148 304.795L416.228 308.989V309.125H424.342V311H413.33ZM433.759 311.239C432.634 311.239 431.631 311.045 430.751 310.659C429.876 310.273 429.18 309.736 428.663 309.048C428.151 308.355 427.873 307.551 427.827 306.636H429.975C430.021 307.199 430.214 307.685 430.555 308.094C430.896 308.497 431.342 308.81 431.893 309.031C432.444 309.253 433.055 309.364 433.725 309.364C434.475 309.364 435.14 309.233 435.719 308.972C436.299 308.71 436.754 308.347 437.083 307.881C437.413 307.415 437.577 306.875 437.577 306.261C437.577 305.619 437.418 305.054 437.1 304.565C436.782 304.071 436.316 303.685 435.702 303.406C435.089 303.128 434.339 302.989 433.452 302.989H432.055V301.114H433.452C434.146 301.114 434.754 300.989 435.276 300.739C435.805 300.489 436.217 300.136 436.512 299.682C436.813 299.227 436.964 298.693 436.964 298.08C436.964 297.489 436.833 296.974 436.572 296.537C436.31 296.099 435.941 295.759 435.464 295.514C434.992 295.27 434.435 295.148 433.793 295.148C433.191 295.148 432.623 295.259 432.089 295.48C431.56 295.696 431.129 296.011 430.793 296.426C430.458 296.835 430.276 297.33 430.248 297.909H428.202C428.237 296.994 428.512 296.193 429.029 295.506C429.546 294.812 430.222 294.273 431.058 293.886C431.898 293.5 432.822 293.307 433.827 293.307C434.907 293.307 435.833 293.526 436.606 293.963C437.379 294.395 437.972 294.966 438.387 295.676C438.802 296.386 439.009 297.153 439.009 297.977C439.009 298.96 438.751 299.798 438.234 300.491C437.722 301.185 437.026 301.665 436.146 301.932V302.068C437.248 302.25 438.109 302.719 438.728 303.474C439.347 304.224 439.657 305.153 439.657 306.261C439.657 307.21 439.398 308.062 438.881 308.818C438.37 309.568 437.671 310.159 436.785 310.591C435.898 311.023 434.89 311.239 433.759 311.239Z" fill="white"/>
<path d="M316.619 120H303.409L318.293 74.9091H335.026L349.909 120H336.699L326.835 87.3267H326.483L316.619 120ZM314.153 102.21H338.989V111.369H314.153V102.21ZM354.428 120V86.1818H366.229V92.6108H366.581C367.198 90.233 368.174 88.4936 369.51 87.3928C370.86 86.2919 372.438 85.7415 374.243 85.7415C374.772 85.7415 375.293 85.7855 375.807 85.8736C376.335 85.947 376.841 86.0571 377.326 86.2038V96.5739C376.724 96.3684 375.983 96.2143 375.102 96.1115C374.221 96.0088 373.465 95.9574 372.834 95.9574C371.645 95.9574 370.574 96.2289 369.62 96.772C368.68 97.3004 367.939 98.049 367.396 99.0178C366.853 99.9718 366.581 101.095 366.581 102.386V120H354.428ZM381.311 86.1818H393.464V121.145C393.464 124.11 392.84 126.429 391.593 128.102C390.36 129.776 388.628 130.957 386.397 131.647C384.166 132.337 381.56 132.682 378.581 132.682C378.14 132.682 377.737 132.674 377.37 132.66C376.988 132.645 376.57 132.623 376.115 132.594V123.611C376.408 123.64 376.665 123.662 376.885 123.677C377.091 123.692 377.304 123.699 377.524 123.699C378.977 123.699 379.968 123.471 380.496 123.016C381.039 122.576 381.311 121.864 381.311 120.881V86.1818ZM387.388 82.6591C385.744 82.6591 384.335 82.116 383.16 81.0298C381.986 79.9437 381.399 78.6373 381.399 77.1108C381.399 75.5843 381.986 74.2779 383.16 73.1918C384.335 72.1056 385.744 71.5625 387.388 71.5625C389.046 71.5625 390.455 72.1056 391.615 73.1918C392.789 74.2779 393.376 75.5843 393.376 77.1108C393.376 78.6373 392.789 79.9437 391.615 81.0298C390.455 82.116 389.046 82.6591 387.388 82.6591ZM399.657 120V86.1818H411.81V120H399.657ZM405.733 82.6591C404.089 82.6591 402.68 82.116 401.506 81.0298C400.332 79.9437 399.745 78.6373 399.745 77.1108C399.745 75.5843 400.332 74.2779 401.506 73.1918C402.68 72.1056 404.089 71.5625 405.733 71.5625C407.392 71.5625 408.801 72.1056 409.961 73.1918C411.135 74.2779 411.722 75.5843 411.722 77.1108C411.722 78.6373 411.135 79.9437 409.961 81.0298C408.801 82.116 407.392 82.6591 405.733 82.6591ZM438.17 86.1818V94.9886H415.889V86.1818H438.17ZM420.204 78.0795H432.357V109.124C432.357 109.593 432.438 109.99 432.6 110.312C432.761 110.621 433.011 110.856 433.348 111.017C433.686 111.164 434.119 111.237 434.647 111.237C435.014 111.237 435.44 111.193 435.924 111.105C436.423 111.017 436.79 110.944 437.025 110.885L438.786 119.428C438.243 119.589 437.465 119.787 436.453 120.022C435.454 120.257 434.266 120.411 432.886 120.484C430.097 120.631 427.756 120.345 425.862 119.626C423.969 118.892 422.545 117.74 421.591 116.169C420.637 114.598 420.175 112.632 420.204 110.268V78.0795ZM464.904 120.528C462.746 120.528 460.838 120.176 459.18 119.472C457.536 118.752 456.244 117.666 455.305 116.213C454.365 114.76 453.896 112.911 453.896 110.665C453.896 108.815 454.211 107.237 454.842 105.931C455.473 104.61 456.354 103.531 457.484 102.695C458.615 101.858 459.928 101.219 461.425 100.779C462.937 100.339 464.567 100.053 466.313 99.9205C468.207 99.7737 469.726 99.5975 470.871 99.392C472.03 99.1719 472.867 98.871 473.381 98.4893C473.894 98.093 474.151 97.572 474.151 96.9261V96.8381C474.151 95.9574 473.814 95.2822 473.138 94.8125C472.463 94.3428 471.597 94.108 470.54 94.108C469.381 94.108 468.434 94.3648 467.7 94.8786C466.981 95.3776 466.548 96.1482 466.401 97.1903H455.217C455.363 95.1354 456.017 93.2419 457.176 91.5099C458.35 89.7633 460.06 88.3688 462.306 87.3267C464.552 86.2699 467.355 85.7415 470.717 85.7415C473.138 85.7415 475.311 86.0277 477.234 86.6001C479.156 87.1579 480.793 87.9432 482.143 88.956C483.494 89.9541 484.521 91.1283 485.226 92.4787C485.945 93.8144 486.305 95.2675 486.305 96.8381V120H474.944V115.244H474.68C474.004 116.507 473.183 117.527 472.214 118.305C471.26 119.083 470.166 119.648 468.933 120C467.715 120.352 466.372 120.528 464.904 120.528ZM468.867 112.866C469.792 112.866 470.658 112.676 471.465 112.294C472.287 111.912 472.955 111.362 473.469 110.643C473.982 109.924 474.239 109.05 474.239 108.023V105.205C473.916 105.337 473.571 105.461 473.205 105.579C472.852 105.696 472.471 105.806 472.06 105.909C471.663 106.012 471.238 106.107 470.783 106.195C470.342 106.283 469.88 106.364 469.396 106.438C468.456 106.584 467.686 106.826 467.084 107.164C466.497 107.487 466.056 107.891 465.763 108.375C465.484 108.845 465.344 109.373 465.344 109.96C465.344 110.9 465.675 111.619 466.335 112.118C466.996 112.617 467.84 112.866 468.867 112.866ZM504.265 100.977V120H492.112V86.1818H503.649V92.6108H504.001C504.735 90.4678 506.026 88.7872 507.876 87.5689C509.74 86.3506 511.912 85.7415 514.393 85.7415C516.785 85.7415 518.862 86.2919 520.624 87.3928C522.4 88.4789 523.772 89.9761 524.741 91.8842C525.724 93.7924 526.209 95.9721 526.194 98.4233V120H514.041V100.977C514.055 99.304 513.63 97.9903 512.764 97.0362C511.912 96.0821 510.723 95.6051 509.197 95.6051C508.199 95.6051 507.325 95.8253 506.577 96.2656C505.843 96.6913 505.278 97.3078 504.882 98.1151C504.485 98.9077 504.28 99.8617 504.265 100.977ZM544.435 120.44C542.028 120.44 539.812 119.809 537.786 118.547C535.775 117.285 534.161 115.369 532.942 112.8C531.739 110.232 531.137 106.995 531.137 103.091C531.137 99.0104 531.768 95.6932 533.03 93.1392C534.307 90.5852 535.951 88.7138 537.962 87.5249C539.988 86.3359 542.116 85.7415 544.347 85.7415C546.02 85.7415 547.488 86.035 548.751 86.6222C550.013 87.1946 551.07 87.9652 551.921 88.9339C552.772 89.888 553.418 90.9375 553.858 92.0824H554.035V74.9091H566.188V120H554.123V114.452H553.858C553.389 115.597 552.714 116.624 551.833 117.534C550.967 118.429 549.91 119.141 548.662 119.67C547.43 120.183 546.02 120.44 544.435 120.44ZM548.927 111.105C550.042 111.105 550.996 110.782 551.789 110.136C552.596 109.476 553.213 108.551 553.638 107.362C554.079 106.159 554.299 104.735 554.299 103.091C554.299 101.418 554.079 99.9865 553.638 98.7976C553.213 97.594 552.596 96.6766 551.789 96.0455C550.996 95.3996 550.042 95.0767 548.927 95.0767C547.811 95.0767 546.857 95.3996 546.064 96.0455C545.287 96.6766 544.685 97.594 544.259 98.7976C543.848 99.9865 543.643 101.418 543.643 103.091C543.643 104.764 543.848 106.203 544.259 107.406C544.685 108.595 545.287 109.513 546.064 110.158C546.857 110.79 547.811 111.105 548.927 111.105ZM582.481 74.9091H596.131L604.938 93.2273H605.29L614.097 74.9091H627.748L611.191 105.821V120H599.037V105.821L582.481 74.9091ZM633.406 120.528C631.248 120.528 629.34 120.176 627.682 119.472C626.038 118.752 624.746 117.666 623.807 116.213C622.867 114.76 622.398 112.911 622.398 110.665C622.398 108.815 622.713 107.237 623.344 105.931C623.975 104.61 624.856 103.531 625.986 102.695C627.117 101.858 628.43 101.219 629.927 100.779C631.439 100.339 633.068 100.053 634.815 99.9205C636.709 99.7737 638.228 99.5975 639.373 99.392C640.532 99.1719 641.369 98.871 641.883 98.4893C642.396 98.093 642.653 97.572 642.653 96.9261V96.8381C642.653 95.9574 642.316 95.2822 641.64 94.8125C640.965 94.3428 640.099 94.108 639.042 94.108C637.883 94.108 636.936 94.3648 636.202 94.8786C635.483 95.3776 635.05 96.1482 634.903 97.1903H623.719C623.865 95.1354 624.519 93.2419 625.678 91.5099C626.852 89.7633 628.562 88.3688 630.808 87.3267C633.054 86.2699 635.857 85.7415 639.219 85.7415C641.64 85.7415 643.813 86.0277 645.736 86.6001C647.658 87.1579 649.295 87.9432 650.645 88.956C651.996 89.9541 653.023 91.1283 653.728 92.4787C654.447 93.8144 654.807 95.2675 654.807 96.8381V120H643.446V115.244H643.182C642.506 116.507 641.684 117.527 640.716 118.305C639.762 119.083 638.668 119.648 637.435 120C636.217 120.352 634.874 120.528 633.406 120.528ZM637.369 112.866C638.294 112.866 639.16 112.676 639.967 112.294C640.789 111.912 641.457 111.362 641.971 110.643C642.484 109.924 642.741 109.05 642.741 108.023V105.205C642.418 105.337 642.073 105.461 641.706 105.579C641.354 105.696 640.973 105.806 640.562 105.909C640.165 106.012 639.74 106.107 639.285 106.195C638.844 106.283 638.382 106.364 637.898 106.438C636.958 106.584 636.188 106.826 635.586 107.164C634.999 107.487 634.558 107.891 634.265 108.375C633.986 108.845 633.846 109.373 633.846 109.96C633.846 110.9 634.177 111.619 634.837 112.118C635.498 112.617 636.342 112.866 637.369 112.866ZM691.526 97.1903H680.341C680.282 96.5005 680.04 95.906 679.614 95.407C679.189 94.9079 678.638 94.5263 677.963 94.2621C677.303 93.9832 676.569 93.8438 675.761 93.8438C674.719 93.8438 673.824 94.0346 673.075 94.4162C672.327 94.7978 671.96 95.3409 671.974 96.0455C671.96 96.5445 672.173 97.0069 672.613 97.4325C673.068 97.8582 673.941 98.1884 675.233 98.4233L682.102 99.6562C685.566 100.287 688.142 101.352 689.83 102.849C691.533 104.331 692.392 106.32 692.406 108.815C692.392 111.223 691.672 113.314 690.249 115.09C688.839 116.852 686.909 118.217 684.458 119.185C682.022 120.139 679.24 120.616 676.114 120.616C670.947 120.616 666.903 119.56 663.982 117.446C661.076 115.332 659.454 112.544 659.116 109.08H671.182C671.343 110.151 671.872 110.98 672.767 111.567C673.677 112.14 674.822 112.426 676.202 112.426C677.317 112.426 678.235 112.235 678.954 111.854C679.688 111.472 680.062 110.929 680.077 110.224C680.062 109.579 679.739 109.065 679.108 108.683C678.491 108.302 677.523 107.993 676.202 107.759L670.213 106.702C666.764 106.1 664.18 104.955 662.463 103.267C660.746 101.579 659.894 99.4067 659.909 96.75C659.894 94.4015 660.511 92.4126 661.759 90.7834C663.021 89.1394 664.819 87.8918 667.153 87.0405C669.501 86.1745 672.283 85.7415 675.497 85.7415C680.385 85.7415 684.238 86.7543 687.056 88.7798C689.889 90.8054 691.379 93.6089 691.526 97.1903ZM709.216 100.977V120H697.063V74.9091H708.776V92.6108H709.128C709.891 90.4531 711.161 88.7725 712.937 87.5689C714.713 86.3506 716.849 85.7415 719.344 85.7415C721.737 85.7415 723.814 86.2846 725.575 87.3707C727.351 88.4569 728.723 89.9541 729.692 91.8622C730.676 93.7704 731.16 95.9574 731.145 98.4233V120H718.992V100.977C719.007 99.304 718.588 97.9903 717.737 97.0362C716.9 96.0821 715.704 95.6051 714.148 95.6051C713.165 95.6051 712.299 95.8253 711.55 96.2656C710.816 96.6913 710.244 97.3078 709.833 98.1151C709.436 98.9077 709.231 99.8617 709.216 100.977ZM780.408 97.1903H769.224C769.165 96.5005 768.923 95.906 768.497 95.407C768.071 94.9079 767.521 94.5263 766.846 94.2621C766.185 93.9832 765.451 93.8438 764.644 93.8438C763.602 93.8438 762.707 94.0346 761.958 94.4162C761.21 94.7978 760.843 95.3409 760.857 96.0455C760.843 96.5445 761.055 97.0069 761.496 97.4325C761.951 97.8582 762.824 98.1884 764.116 98.4233L770.985 99.6562C774.449 100.287 777.025 101.352 778.713 102.849C780.416 104.331 781.274 106.32 781.289 108.815C781.274 111.223 780.555 113.314 779.131 115.09C777.722 116.852 775.792 118.217 773.341 119.185C770.904 120.139 768.123 120.616 764.996 120.616C759.83 120.616 755.786 119.56 752.865 117.446C749.959 115.332 748.337 112.544 747.999 109.08H760.065C760.226 110.151 760.754 110.98 761.65 111.567C762.56 112.14 763.705 112.426 765.085 112.426C766.2 112.426 767.117 112.235 767.837 111.854C768.571 111.472 768.945 110.929 768.96 110.224C768.945 109.579 768.622 109.065 767.991 108.683C767.374 108.302 766.406 107.993 765.085 107.759L759.096 106.702C755.647 106.1 753.063 104.955 751.346 103.267C749.629 101.579 748.777 99.4067 748.792 96.75C748.777 94.4015 749.394 92.4126 750.641 90.7834C751.904 89.1394 753.702 87.8918 756.036 87.0405C758.384 86.1745 761.165 85.7415 764.38 85.7415C769.268 85.7415 773.121 86.7543 775.939 88.7798C778.772 90.8054 780.262 93.6089 780.408 97.1903ZM802.15 120.616C798.539 120.616 795.428 119.927 792.815 118.547C790.217 117.152 788.213 115.156 786.804 112.558C785.41 109.946 784.713 106.819 784.713 103.179C784.713 99.6856 785.417 96.6326 786.826 94.0199C788.235 91.4072 790.224 89.3743 792.793 87.9212C795.362 86.468 798.393 85.7415 801.886 85.7415C804.44 85.7415 806.752 86.1378 808.821 86.9304C810.891 87.723 812.66 88.8752 814.127 90.3871C815.595 91.8842 816.725 93.7043 817.518 95.8473C818.311 97.9903 818.707 100.405 818.707 103.091V105.909H788.5V99.2159H807.522C807.508 98.2472 807.258 97.3958 806.774 96.6619C806.304 95.9134 805.666 95.3336 804.858 94.9226C804.066 94.4969 803.163 94.2841 802.15 94.2841C801.167 94.2841 800.264 94.4969 799.442 94.9226C798.62 95.3336 797.96 95.906 797.461 96.6399C796.976 97.3738 796.719 98.2325 796.69 99.2159V106.438C796.69 107.524 796.917 108.492 797.373 109.344C797.828 110.195 798.481 110.863 799.332 111.347C800.183 111.832 801.211 112.074 802.414 112.074C803.251 112.074 804.014 111.956 804.704 111.722C805.409 111.487 806.011 111.149 806.51 110.709C807.009 110.254 807.376 109.711 807.61 109.08H818.707C818.325 111.428 817.423 113.468 815.999 115.2C814.575 116.918 812.689 118.253 810.341 119.207C808.007 120.147 805.277 120.616 802.15 120.616ZM839.959 120.616C836.289 120.616 833.148 119.89 830.536 118.437C827.923 116.969 825.919 114.929 824.525 112.316C823.131 109.689 822.433 106.643 822.433 103.179C822.433 99.715 823.131 96.6766 824.525 94.0639C825.919 91.4366 827.923 89.3963 830.536 87.9432C833.148 86.4754 836.289 85.7415 839.959 85.7415C843.276 85.7415 846.146 86.3433 848.568 87.5469C851.004 88.7358 852.89 90.4238 854.226 92.6108C855.562 94.7831 856.237 97.3371 856.252 100.273H844.979C844.817 98.4967 844.304 97.1463 843.438 96.2216C842.586 95.2822 841.485 94.8125 840.135 94.8125C839.078 94.8125 838.154 95.1207 837.361 95.7372C836.568 96.339 835.952 97.2564 835.512 98.4893C835.071 99.7076 834.851 101.241 834.851 103.091C834.851 104.94 835.071 106.482 835.512 107.714C835.952 108.933 836.568 109.85 837.361 110.467C838.154 111.068 839.078 111.369 840.135 111.369C841.03 111.369 841.823 111.164 842.513 110.753C843.203 110.327 843.761 109.711 844.186 108.903C844.627 108.081 844.891 107.083 844.979 105.909H856.252C856.208 108.889 855.525 111.487 854.204 113.703C852.883 115.905 851.012 117.607 848.59 118.811C846.182 120.015 843.306 120.616 839.959 120.616ZM883.195 105.205V86.1818H895.348V120H883.811V113.571H883.459C882.725 115.729 881.441 117.417 879.606 118.635C877.771 119.839 875.592 120.44 873.067 120.44C870.704 120.44 868.634 119.897 866.858 118.811C865.097 117.725 863.725 116.228 862.741 114.32C861.772 112.411 861.281 110.224 861.266 107.759V86.1818H873.419V105.205C873.434 106.878 873.86 108.192 874.696 109.146C875.548 110.1 876.737 110.577 878.263 110.577C879.276 110.577 880.149 110.364 880.883 109.938C881.632 109.498 882.204 108.881 882.6 108.089C883.011 107.281 883.21 106.32 883.195 105.205ZM901.53 120V86.1818H913.331V92.6108H913.683C914.3 90.233 915.276 88.4936 916.611 87.3928C917.962 86.2919 919.54 85.7415 921.345 85.7415C921.873 85.7415 922.394 85.7855 922.908 85.8736C923.437 85.947 923.943 86.0571 924.427 86.2038V96.5739C923.826 96.3684 923.084 96.2143 922.204 96.1115C921.323 96.0088 920.567 95.9574 919.936 95.9574C918.747 95.9574 917.675 96.2289 916.721 96.772C915.782 97.3004 915.041 98.049 914.498 99.0178C913.955 99.9718 913.683 101.095 913.683 102.386V120H901.53ZM942.68 120.616C939.069 120.616 935.957 119.927 933.344 118.547C930.746 117.152 928.743 115.156 927.334 112.558C925.939 109.946 925.242 106.819 925.242 103.179C925.242 99.6856 925.947 96.6326 927.356 94.0199C928.765 91.4072 930.754 89.3743 933.322 87.9212C935.891 86.468 938.922 85.7415 942.415 85.7415C944.969 85.7415 947.281 86.1378 949.351 86.9304C951.42 87.723 953.189 88.8752 954.657 90.3871C956.125 91.8842 957.255 93.7043 958.047 95.8473C958.84 97.9903 959.236 100.405 959.236 103.091V105.909H929.029V99.2159H948.052C948.037 98.2472 947.787 97.3958 947.303 96.6619C946.833 95.9134 946.195 95.3336 945.388 94.9226C944.595 94.4969 943.692 94.2841 942.68 94.2841C941.696 94.2841 940.793 94.4969 939.971 94.9226C939.149 95.3336 938.489 95.906 937.99 96.6399C937.506 97.3738 937.249 98.2325 937.219 99.2159V106.438C937.219 107.524 937.447 108.492 937.902 109.344C938.357 110.195 939.01 110.863 939.861 111.347C940.713 111.832 941.74 112.074 942.944 112.074C943.78 112.074 944.544 111.956 945.233 111.722C945.938 111.487 946.54 111.149 947.039 110.709C947.538 110.254 947.905 109.711 948.14 109.08H959.236C958.855 111.428 957.952 113.468 956.528 115.2C955.104 116.918 953.218 118.253 950.87 119.207C948.536 120.147 945.806 120.616 942.68 120.616ZM996.715 86.1818V94.9886H974.434V86.1818H996.715ZM978.749 78.0795H990.902V109.124C990.902 109.593 990.983 109.99 991.145 110.312C991.306 110.621 991.556 110.856 991.893 111.017C992.231 111.164 992.664 111.237 993.192 111.237C993.559 111.237 993.985 111.193 994.469 111.105C994.968 111.017 995.335 110.944 995.57 110.885L997.331 119.428C996.788 119.589 996.01 119.787 994.998 120.022C993.999 120.257 992.81 120.411 991.431 120.484C988.642 120.631 986.301 120.345 984.407 119.626C982.514 118.892 981.09 117.74 980.136 116.169C979.182 114.598 978.72 112.632 978.749 110.268V78.0795ZM1014.55 100.977V120H1002.4V74.9091H1014.11V92.6108H1014.47C1015.23 90.4531 1016.5 88.7725 1018.28 87.5689C1020.05 86.3506 1022.19 85.7415 1024.68 85.7415C1027.07 85.7415 1029.15 86.2846 1030.91 87.3707C1032.69 88.4569 1034.06 89.9541 1035.03 91.8622C1036.01 93.7704 1036.5 95.9574 1036.48 98.4233V120H1024.33V100.977C1024.34 99.304 1023.93 97.9903 1023.07 97.0362C1022.24 96.0821 1021.04 95.6051 1019.49 95.6051C1018.5 95.6051 1017.64 95.8253 1016.89 96.2656C1016.15 96.6913 1015.58 97.3078 1015.17 98.1151C1014.77 98.9077 1014.57 99.8617 1014.55 100.977ZM1058.69 120.616C1055.08 120.616 1051.96 119.927 1049.35 118.547C1046.75 117.152 1044.75 115.156 1043.34 112.558C1041.95 109.946 1041.25 106.819 1041.25 103.179C1041.25 99.6856 1041.95 96.6326 1043.36 94.0199C1044.77 91.4072 1046.76 89.3743 1049.33 87.9212C1051.9 86.468 1054.93 85.7415 1058.42 85.7415C1060.98 85.7415 1063.29 86.1378 1065.36 86.9304C1067.43 87.723 1069.2 88.8752 1070.66 90.3871C1072.13 91.8842 1073.26 93.7043 1074.06 95.8473C1074.85 97.9903 1075.24 100.405 1075.24 103.091V105.909H1045.04V99.2159H1064.06C1064.04 98.2472 1063.8 97.3958 1063.31 96.6619C1062.84 95.9134 1062.2 95.3336 1061.4 94.9226C1060.6 94.4969 1059.7 94.2841 1058.69 94.2841C1057.7 94.2841 1056.8 94.4969 1055.98 94.9226C1055.16 95.3336 1054.5 95.906 1054 96.6399C1053.51 97.3738 1053.26 98.2325 1053.23 99.2159V106.438C1053.23 107.524 1053.45 108.492 1053.91 109.344C1054.36 110.195 1055.02 110.863 1055.87 111.347C1056.72 111.832 1057.75 112.074 1058.95 112.074C1059.79 112.074 1060.55 111.956 1061.24 111.722C1061.95 111.487 1062.55 111.149 1063.05 110.709C1063.55 110.254 1063.91 109.711 1064.15 109.08H1075.24C1074.86 111.428 1073.96 113.468 1072.54 115.2C1071.11 116.918 1069.23 118.253 1066.88 119.207C1064.54 120.147 1061.81 120.616 1058.69 120.616ZM1112.72 86.1818V94.9886H1090.44V86.1818H1112.72ZM1094.76 78.0795H1106.91V109.124C1106.91 109.593 1106.99 109.99 1107.15 110.312C1107.31 110.621 1107.56 110.856 1107.9 111.017C1108.24 111.164 1108.67 111.237 1109.2 111.237C1109.57 111.237 1109.99 111.193 1110.48 111.105C1110.98 111.017 1111.34 110.944 1111.58 110.885L1113.34 119.428C1112.8 119.589 1112.02 119.787 1111.01 120.022C1110.01 120.257 1108.82 120.411 1107.44 120.484C1104.65 120.631 1102.31 120.345 1100.42 119.626C1098.52 118.892 1097.1 117.74 1096.14 116.169C1095.19 114.598 1094.73 112.632 1094.76 110.268V78.0795ZM1117.68 120V86.1818H1129.84V120H1117.68ZM1123.76 82.6591C1122.11 82.6591 1120.71 82.116 1119.53 81.0298C1118.36 79.9437 1117.77 78.6373 1117.77 77.1108C1117.77 75.5843 1118.36 74.2779 1119.53 73.1918C1120.71 72.1056 1122.11 71.5625 1123.76 71.5625C1125.42 71.5625 1126.83 72.1056 1127.99 73.1918C1129.16 74.2779 1129.75 75.5843 1129.75 77.1108C1129.75 78.6373 1129.16 79.9437 1127.99 81.0298C1126.83 82.116 1125.42 82.6591 1123.76 82.6591ZM1156.2 86.1818V94.9886H1133.91V86.1818H1156.2ZM1138.23 78.0795H1150.38V109.124C1150.38 109.593 1150.46 109.99 1150.62 110.312C1150.79 110.621 1151.04 110.856 1151.37 111.017C1151.71 111.164 1152.14 111.237 1152.67 111.237C1153.04 111.237 1153.47 111.193 1153.95 111.105C1154.45 111.017 1154.82 110.944 1155.05 110.885L1156.81 119.428C1156.27 119.589 1155.49 119.787 1154.48 120.022C1153.48 120.257 1152.29 120.411 1150.91 120.484C1148.12 120.631 1145.78 120.345 1143.89 119.626C1141.99 118.892 1140.57 117.74 1139.62 116.169C1138.66 114.598 1138.2 112.632 1138.23 110.268V78.0795ZM1174.03 74.9091V120H1161.88V74.9091H1174.03ZM1196.43 120.616C1192.82 120.616 1189.71 119.927 1187.1 118.547C1184.5 117.152 1182.49 115.156 1181.09 112.558C1179.69 109.946 1178.99 106.819 1178.99 103.179C1178.99 99.6856 1179.7 96.6326 1181.11 94.0199C1182.52 91.4072 1184.51 89.3743 1187.07 87.9212C1189.64 86.468 1192.67 85.7415 1196.17 85.7415C1198.72 85.7415 1201.03 86.1378 1203.1 86.9304C1205.17 87.723 1206.94 88.8752 1208.41 90.3871C1209.88 91.8842 1211.01 93.7043 1211.8 95.8473C1212.59 97.9903 1212.99 100.405 1212.99 103.091V105.909H1182.78V99.2159H1201.8C1201.79 98.2472 1201.54 97.3958 1201.06 96.6619C1200.59 95.9134 1199.95 95.3336 1199.14 94.9226C1198.35 94.4969 1197.44 94.2841 1196.43 94.2841C1195.45 94.2841 1194.55 94.4969 1193.72 94.9226C1192.9 95.3336 1192.24 95.906 1191.74 96.6399C1191.26 97.3738 1191 98.2325 1190.97 99.2159V106.438C1190.97 107.524 1191.2 108.492 1191.65 109.344C1192.11 110.195 1192.76 110.863 1193.61 111.347C1194.46 111.832 1195.49 112.074 1196.7 112.074C1197.53 112.074 1198.3 111.956 1198.99 111.722C1199.69 111.487 1200.29 111.149 1200.79 110.709C1201.29 110.254 1201.66 109.711 1201.89 109.08H1212.99C1212.61 111.428 1211.7 113.468 1210.28 115.2C1208.86 116.918 1206.97 118.253 1204.62 119.207C1202.29 120.147 1199.56 120.616 1196.43 120.616ZM325.338 161.182V169.989H302.705V161.182H325.338ZM307.02 195V160.213C307.02 157.424 307.519 155.112 308.517 153.278C309.515 151.443 310.924 150.071 312.744 149.161C314.564 148.25 316.707 147.795 319.173 147.795C320.714 147.795 322.212 147.913 323.665 148.148C325.133 148.383 326.219 148.588 326.923 148.764L325.162 157.483C324.722 157.351 324.208 157.248 323.621 157.175C323.034 157.087 322.52 157.043 322.08 157.043C320.935 157.043 320.164 157.285 319.768 157.769C319.371 158.254 319.173 158.892 319.173 159.685V195H307.02ZM345.291 195.616C341.622 195.616 338.48 194.89 335.868 193.437C333.255 191.969 331.251 189.929 329.857 187.316C328.463 184.689 327.765 181.643 327.765 178.179C327.765 174.715 328.463 171.677 329.857 169.064C331.251 166.437 333.255 164.396 335.868 162.943C338.48 161.475 341.622 160.741 345.291 160.741C348.961 160.741 352.102 161.475 354.714 162.943C357.327 164.396 359.331 166.437 360.725 169.064C362.119 171.677 362.817 174.715 362.817 178.179C362.817 181.643 362.119 184.689 360.725 187.316C359.331 189.929 357.327 191.969 354.714 193.437C352.102 194.89 348.961 195.616 345.291 195.616ZM345.379 186.634C346.407 186.634 347.295 186.289 348.043 185.599C348.792 184.909 349.372 183.925 349.782 182.648C350.193 181.371 350.399 179.852 350.399 178.091C350.399 176.315 350.193 174.796 349.782 173.533C349.372 172.256 348.792 171.273 348.043 170.583C347.295 169.893 346.407 169.548 345.379 169.548C344.293 169.548 343.361 169.893 342.583 170.583C341.805 171.273 341.211 172.256 340.8 173.533C340.389 174.796 340.183 176.315 340.183 178.091C340.183 179.852 340.389 181.371 340.8 182.648C341.211 183.925 341.805 184.909 342.583 185.599C343.361 186.289 344.293 186.634 345.379 186.634ZM367.748 195V161.182H379.55V167.611H379.902C380.518 165.233 381.494 163.494 382.83 162.393C384.18 161.292 385.758 160.741 387.564 160.741C388.092 160.741 388.613 160.786 389.127 160.874C389.655 160.947 390.162 161.057 390.646 161.204V171.574C390.044 171.368 389.303 171.214 388.422 171.112C387.542 171.009 386.786 170.957 386.155 170.957C384.966 170.957 383.894 171.229 382.94 171.772C382.001 172.3 381.26 173.049 380.716 174.018C380.173 174.972 379.902 176.095 379.902 177.386V195H367.748ZM445.821 149.909V195H435.605L419.312 171.31H419.048V195H406.807V149.909H417.199L433.227 173.511H433.579V149.909H445.821ZM451.611 195V149.909H483.316V159.773H463.853V167.523H481.378V177.386H463.853V195H451.611ZM529.915 166.818H517.497C517.409 165.791 517.174 164.859 516.793 164.022C516.426 163.185 515.912 162.466 515.252 161.864C514.606 161.248 513.82 160.778 512.896 160.455C511.971 160.118 510.922 159.949 509.747 159.949C507.692 159.949 505.953 160.448 504.529 161.446C503.12 162.444 502.049 163.875 501.315 165.739C500.596 167.603 500.236 169.842 500.236 172.455C500.236 175.214 500.603 177.526 501.337 179.39C502.085 181.239 503.164 182.634 504.573 183.573C505.982 184.498 507.678 184.96 509.659 184.96C510.789 184.96 511.802 184.821 512.698 184.542C513.593 184.248 514.371 183.83 515.031 183.287C515.692 182.744 516.228 182.091 516.639 181.327C517.064 180.549 517.351 179.676 517.497 178.707L529.915 178.795C529.768 180.704 529.232 182.648 528.308 184.63C527.383 186.597 526.069 188.417 524.367 190.09C522.679 191.749 520.587 193.085 518.092 194.097C515.597 195.11 512.698 195.616 509.395 195.616C505.256 195.616 501.542 194.728 498.254 192.952C494.981 191.176 492.391 188.564 490.482 185.114C488.589 181.665 487.642 177.445 487.642 172.455C487.642 167.435 488.611 163.207 490.548 159.773C492.486 156.323 495.099 153.718 498.387 151.957C501.674 150.181 505.344 149.293 509.395 149.293C512.243 149.293 514.863 149.682 517.255 150.46C519.648 151.237 521.747 152.375 523.552 153.872C525.357 155.355 526.811 157.182 527.911 159.354C529.012 161.527 529.68 164.015 529.915 166.818ZM547.996 195V161.182H560.15V195H547.996ZM554.073 157.659C552.429 157.659 551.02 157.116 549.846 156.03C548.672 154.944 548.085 153.637 548.085 152.111C548.085 150.584 548.672 149.278 549.846 148.192C551.02 147.106 552.429 146.562 554.073 146.562C555.732 146.562 557.141 147.106 558.3 148.192C559.475 149.278 560.062 150.584 560.062 152.111C560.062 153.637 559.475 154.944 558.3 156.03C557.141 157.116 555.732 157.659 554.073 157.659ZM578.496 175.977V195H566.342V161.182H577.879V167.611H578.231C578.965 165.468 580.257 163.787 582.106 162.569C583.97 161.351 586.143 160.741 588.623 160.741C591.016 160.741 593.093 161.292 594.854 162.393C596.63 163.479 598.003 164.976 598.971 166.884C599.955 168.792 600.439 170.972 600.425 173.423V195H588.271V175.977C588.286 174.304 587.86 172.99 586.994 172.036C586.143 171.082 584.954 170.605 583.427 170.605C582.429 170.605 581.556 170.825 580.807 171.266C580.073 171.691 579.508 172.308 579.112 173.115C578.716 173.908 578.51 174.862 578.496 175.977ZM631.017 195.44C628.61 195.44 626.394 194.809 624.368 193.547C622.357 192.285 620.743 190.369 619.524 187.8C618.321 185.232 617.719 181.995 617.719 178.091C617.719 174.01 618.35 170.693 619.612 168.139C620.889 165.585 622.533 163.714 624.544 162.525C626.57 161.336 628.698 160.741 630.929 160.741C632.602 160.741 634.07 161.035 635.333 161.622C636.595 162.195 637.652 162.965 638.503 163.934C639.354 164.888 640 165.937 640.441 167.082H640.617V149.909H652.77V195H640.705V189.452H640.441C639.971 190.597 639.296 191.624 638.415 192.534C637.549 193.429 636.492 194.141 635.244 194.67C634.012 195.183 632.602 195.44 631.017 195.44ZM635.509 186.105C636.624 186.105 637.578 185.782 638.371 185.136C639.178 184.476 639.795 183.551 640.22 182.362C640.661 181.159 640.881 179.735 640.881 178.091C640.881 176.418 640.661 174.987 640.22 173.798C639.795 172.594 639.178 171.677 638.371 171.045C637.578 170.4 636.624 170.077 635.509 170.077C634.393 170.077 633.439 170.4 632.646 171.045C631.869 171.677 631.267 172.594 630.841 173.798C630.43 174.987 630.225 176.418 630.225 178.091C630.225 179.764 630.43 181.203 630.841 182.406C631.267 183.595 631.869 184.513 632.646 185.158C633.439 185.79 634.393 186.105 635.509 186.105ZM658.737 195V161.182H670.538V167.611H670.89C671.507 165.233 672.483 163.494 673.818 162.393C675.169 161.292 676.747 160.741 678.552 160.741C679.08 160.741 679.602 160.786 680.115 160.874C680.644 160.947 681.15 161.057 681.634 161.204V171.574C681.033 171.368 680.291 171.214 679.411 171.112C678.53 171.009 677.774 170.957 677.143 170.957C675.954 170.957 674.883 171.229 673.928 171.772C672.989 172.3 672.248 173.049 671.705 174.018C671.162 174.972 670.89 176.095 670.89 177.386V195H658.737ZM693.469 195.528C691.311 195.528 689.403 195.176 687.744 194.472C686.1 193.752 684.809 192.666 683.869 191.213C682.93 189.76 682.46 187.911 682.46 185.665C682.46 183.815 682.776 182.237 683.407 180.931C684.038 179.61 684.919 178.531 686.049 177.695C687.179 176.858 688.493 176.219 689.99 175.779C691.502 175.339 693.131 175.053 694.878 174.92C696.771 174.774 698.29 174.598 699.435 174.392C700.595 174.172 701.431 173.871 701.945 173.489C702.459 173.093 702.716 172.572 702.716 171.926V171.838C702.716 170.957 702.378 170.282 701.703 169.812C701.028 169.343 700.162 169.108 699.105 169.108C697.945 169.108 696.999 169.365 696.265 169.879C695.546 170.378 695.113 171.148 694.966 172.19H683.781C683.928 170.135 684.581 168.242 685.741 166.51C686.915 164.763 688.625 163.369 690.871 162.327C693.116 161.27 695.92 160.741 699.281 160.741C701.703 160.741 703.875 161.028 705.798 161.6C707.721 162.158 709.358 162.943 710.708 163.956C712.058 164.954 713.086 166.128 713.79 167.479C714.51 168.814 714.869 170.268 714.869 171.838V195H703.508V190.244H703.244C702.569 191.507 701.747 192.527 700.778 193.305C699.824 194.083 698.731 194.648 697.498 195C696.279 195.352 694.936 195.528 693.469 195.528ZM697.432 187.866C698.356 187.866 699.222 187.676 700.03 187.294C700.852 186.912 701.519 186.362 702.033 185.643C702.547 184.924 702.804 184.05 702.804 183.023V180.205C702.481 180.337 702.136 180.461 701.769 180.579C701.417 180.696 701.035 180.806 700.624 180.909C700.228 181.012 699.802 181.107 699.347 181.195C698.907 181.283 698.444 181.364 697.96 181.438C697.021 181.584 696.25 181.826 695.648 182.164C695.061 182.487 694.621 182.891 694.327 183.375C694.048 183.845 693.909 184.373 693.909 184.96C693.909 185.9 694.239 186.619 694.9 187.118C695.56 187.617 696.404 187.866 697.432 187.866ZM720.676 195V161.182H732.213V167.611H732.565C733.27 165.497 734.473 163.824 736.176 162.591C737.879 161.358 739.904 160.741 742.253 160.741C744.631 160.741 746.678 161.373 748.396 162.635C750.113 163.883 751.148 165.541 751.5 167.611H751.852C752.425 165.541 753.643 163.883 755.507 162.635C757.371 161.373 759.558 160.741 762.068 160.741C765.312 160.741 767.939 161.784 769.95 163.868C771.976 165.952 772.989 168.726 772.989 172.19V195H760.835V175.273C760.835 173.79 760.461 172.631 759.712 171.794C758.964 170.943 757.958 170.517 756.696 170.517C755.448 170.517 754.458 170.943 753.724 171.794C753.004 172.631 752.645 173.79 752.645 175.273V195H741.02V175.273C741.02 173.79 740.646 172.631 739.897 171.794C739.148 170.943 738.143 170.517 736.881 170.517C736.044 170.517 735.325 170.708 734.723 171.089C734.121 171.471 733.652 172.022 733.314 172.741C732.991 173.445 732.83 174.289 732.83 175.273V195H720.676ZM788.406 195.528C786.248 195.528 784.34 195.176 782.682 194.472C781.038 193.752 779.746 192.666 778.807 191.213C777.867 189.76 777.398 187.911 777.398 185.665C777.398 183.815 777.713 182.237 778.344 180.931C778.975 179.61 779.856 178.531 780.986 177.695C782.117 176.858 783.43 176.219 784.927 175.779C786.439 175.339 788.068 175.053 789.815 174.92C791.709 174.774 793.228 174.598 794.373 174.392C795.532 174.172 796.369 173.871 796.883 173.489C797.396 173.093 797.653 172.572 797.653 171.926V171.838C797.653 170.957 797.316 170.282 796.64 169.812C795.965 169.343 795.099 169.108 794.042 169.108C792.883 169.108 791.936 169.365 791.202 169.879C790.483 170.378 790.05 171.148 789.903 172.19H778.719C778.865 170.135 779.519 168.242 780.678 166.51C781.852 164.763 783.562 163.369 785.808 162.327C788.054 161.27 790.857 160.741 794.219 160.741C796.64 160.741 798.813 161.028 800.736 161.6C802.658 162.158 804.295 162.943 805.645 163.956C806.996 164.954 808.023 166.128 808.728 167.479C809.447 168.814 809.807 170.268 809.807 171.838V195H798.446V190.244H798.182C797.506 191.507 796.684 192.527 795.716 193.305C794.762 194.083 793.668 194.648 792.435 195C791.217 195.352 789.874 195.528 788.406 195.528ZM792.369 187.866C793.294 187.866 794.16 187.676 794.967 187.294C795.789 186.912 796.457 186.362 796.971 185.643C797.484 184.924 797.741 184.05 797.741 183.023V180.205C797.418 180.337 797.073 180.461 796.706 180.579C796.354 180.696 795.973 180.806 795.562 180.909C795.165 181.012 794.74 181.107 794.285 181.195C793.844 181.283 793.382 181.364 792.898 181.438C791.958 181.584 791.188 181.826 790.586 182.164C789.999 182.487 789.558 182.891 789.265 183.375C788.986 183.845 788.846 184.373 788.846 184.96C788.846 185.9 789.177 186.619 789.837 187.118C790.498 187.617 791.342 187.866 792.369 187.866ZM835.781 161.182V169.989H813.5V161.182H835.781ZM817.815 153.08H829.969V184.124C829.969 184.593 830.049 184.99 830.211 185.312C830.372 185.621 830.622 185.856 830.96 186.017C831.297 186.164 831.73 186.237 832.259 186.237C832.625 186.237 833.051 186.193 833.536 186.105C834.035 186.017 834.402 185.944 834.636 185.885L836.398 194.428C835.855 194.589 835.077 194.787 834.064 195.022C833.066 195.257 831.877 195.411 830.497 195.484C827.708 195.631 825.367 195.345 823.474 194.626C821.58 193.892 820.156 192.74 819.202 191.169C818.248 189.598 817.786 187.632 817.815 185.268V153.08ZM840.741 195V161.182H852.894V195H840.741ZM846.817 157.659C845.173 157.659 843.764 157.116 842.59 156.03C841.416 154.944 840.829 153.637 840.829 152.111C840.829 150.584 841.416 149.278 842.59 148.192C843.764 147.106 845.173 146.562 846.817 146.562C848.476 146.562 849.885 147.106 851.045 148.192C852.219 149.278 852.806 150.584 852.806 152.111C852.806 153.637 852.219 154.944 851.045 156.03C849.885 157.116 848.476 157.659 846.817 157.659ZM875.379 195.616C871.709 195.616 868.568 194.89 865.956 193.437C863.343 191.969 861.339 189.929 859.945 187.316C858.551 184.689 857.853 181.643 857.853 178.179C857.853 174.715 858.551 171.677 859.945 169.064C861.339 166.437 863.343 164.396 865.956 162.943C868.568 161.475 871.709 160.741 875.379 160.741C878.696 160.741 881.566 161.343 883.988 162.547C886.424 163.736 888.31 165.424 889.646 167.611C890.982 169.783 891.657 172.337 891.672 175.273H880.399C880.237 173.497 879.724 172.146 878.858 171.222C878.006 170.282 876.905 169.812 875.555 169.812C874.498 169.812 873.574 170.121 872.781 170.737C871.988 171.339 871.372 172.256 870.931 173.489C870.491 174.708 870.271 176.241 870.271 178.091C870.271 179.94 870.491 181.482 870.931 182.714C871.372 183.933 871.988 184.85 872.781 185.467C873.574 186.068 874.498 186.369 875.555 186.369C876.45 186.369 877.243 186.164 877.933 185.753C878.623 185.327 879.181 184.711 879.606 183.903C880.047 183.081 880.311 182.083 880.399 180.909H891.672C891.627 183.889 890.945 186.487 889.624 188.703C888.303 190.905 886.431 192.607 884.01 193.811C881.602 195.015 878.725 195.616 875.379 195.616ZM908.949 195V186.193L925.77 172.278C926.886 171.354 927.84 170.488 928.633 169.68C929.44 168.858 930.056 168.014 930.482 167.148C930.922 166.282 931.143 165.321 931.143 164.264C931.143 163.105 930.893 162.114 930.394 161.292C929.91 160.47 929.234 159.839 928.368 159.398C927.502 158.943 926.504 158.716 925.374 158.716C924.244 158.716 923.246 158.943 922.38 159.398C921.528 159.853 920.868 160.521 920.398 161.402C919.929 162.283 919.694 163.354 919.694 164.616H908.069C908.069 161.446 908.781 158.716 910.204 156.426C911.628 154.136 913.639 152.375 916.237 151.142C918.835 149.909 921.881 149.293 925.374 149.293C928.985 149.293 932.111 149.872 934.753 151.032C937.41 152.177 939.458 153.791 940.896 155.876C942.349 157.96 943.076 160.404 943.076 163.207C943.076 164.939 942.716 166.664 941.997 168.381C941.278 170.084 939.986 171.97 938.122 174.04C936.258 176.109 933.608 178.575 930.174 181.438L925.947 184.96V185.224H943.56V195H908.949ZM971.313 167.875V177.034H950.176V167.875H971.313ZM1000.56 149.909V195H988.321V161.182H988.057L978.193 167.082V156.69L989.29 149.909H1000.56ZM1028.25 195L1019.79 161.182H1031.95L1035.82 181.79H1036.09L1040.4 161.182H1052.2L1056.69 181.614H1056.96L1060.66 161.182H1072.81L1064.36 195H1051.23L1046.48 176.858H1046.13L1041.37 195H1028.25ZM1076.51 195V161.182H1088.66V195H1076.51ZM1082.59 157.659C1080.94 157.659 1079.53 157.116 1078.36 156.03C1077.19 154.944 1076.6 153.637 1076.6 152.111C1076.6 150.584 1077.19 149.278 1078.36 148.192C1079.53 147.106 1080.94 146.562 1082.59 146.562C1084.25 146.562 1085.65 147.106 1086.81 148.192C1087.99 149.278 1088.58 150.584 1088.58 152.111C1088.58 153.637 1087.99 154.944 1086.81 156.03C1085.65 157.116 1084.25 157.659 1082.59 157.659ZM1107.01 175.977V195H1094.86V161.182H1106.39V167.611H1106.75C1107.48 165.468 1108.77 163.787 1110.62 162.569C1112.48 161.351 1114.66 160.741 1117.14 160.741C1119.53 160.741 1121.61 161.292 1123.37 162.393C1125.14 163.479 1126.52 164.976 1127.49 166.884C1128.47 168.792 1128.95 170.972 1128.94 173.423V195H1116.78V175.977C1116.8 174.304 1116.37 172.99 1115.51 172.036C1114.66 171.082 1113.47 170.605 1111.94 170.605C1110.94 170.605 1110.07 170.825 1109.32 171.266C1108.59 171.691 1108.02 172.308 1107.63 173.115C1107.23 173.908 1107.02 174.862 1107.01 175.977ZM321.375 270.616C317.705 270.616 314.564 269.89 311.952 268.437C309.339 266.969 307.335 264.929 305.941 262.316C304.547 259.689 303.849 256.643 303.849 253.179C303.849 249.715 304.547 246.677 305.941 244.064C307.335 241.437 309.339 239.396 311.952 237.943C314.564 236.475 317.705 235.741 321.375 235.741C325.045 235.741 328.186 236.475 330.798 237.943C333.411 239.396 335.415 241.437 336.809 244.064C338.203 246.677 338.901 249.715 338.901 253.179C338.901 256.643 338.203 259.689 336.809 262.316C335.415 264.929 333.411 266.969 330.798 268.437C328.186 269.89 325.045 270.616 321.375 270.616ZM321.463 261.634C322.491 261.634 323.379 261.289 324.127 260.599C324.876 259.909 325.455 258.925 325.866 257.648C326.277 256.371 326.483 254.852 326.483 253.091C326.483 251.315 326.277 249.796 325.866 248.533C325.455 247.256 324.876 246.273 324.127 245.583C323.379 244.893 322.491 244.548 321.463 244.548C320.377 244.548 319.445 244.893 318.667 245.583C317.889 246.273 317.295 247.256 316.884 248.533C316.473 249.796 316.267 251.315 316.267 253.091C316.267 254.852 316.473 256.371 316.884 257.648C317.295 258.925 317.889 259.909 318.667 260.599C319.445 261.289 320.377 261.634 321.463 261.634ZM376.885 236.182L365.525 270H351.434L340.073 236.182H352.843L358.303 258.551H358.655L364.116 236.182H376.885ZM395.517 270.616C391.907 270.616 388.795 269.927 386.182 268.547C383.584 267.152 381.581 265.156 380.172 262.558C378.777 259.946 378.08 256.819 378.08 253.179C378.08 249.686 378.784 246.633 380.194 244.02C381.603 241.407 383.592 239.374 386.16 237.921C388.729 236.468 391.76 235.741 395.253 235.741C397.807 235.741 400.119 236.138 402.189 236.93C404.258 237.723 406.027 238.875 407.495 240.387C408.962 241.884 410.093 243.704 410.885 245.847C411.678 247.99 412.074 250.405 412.074 253.091V255.909H381.867V249.216H400.89C400.875 248.247 400.625 247.396 400.141 246.662C399.671 245.913 399.033 245.334 398.225 244.923C397.433 244.497 396.53 244.284 395.517 244.284C394.534 244.284 393.631 244.497 392.809 244.923C391.987 245.334 391.327 245.906 390.828 246.64C390.343 247.374 390.087 248.232 390.057 249.216V256.438C390.057 257.524 390.285 258.492 390.74 259.344C391.195 260.195 391.848 260.863 392.699 261.347C393.551 261.832 394.578 262.074 395.782 262.074C396.618 262.074 397.382 261.956 398.071 261.722C398.776 261.487 399.378 261.149 399.877 260.709C400.376 260.254 400.743 259.711 400.978 259.08H412.074C411.693 261.428 410.79 263.468 409.366 265.2C407.942 266.918 406.056 268.253 403.708 269.207C401.374 270.147 398.644 270.616 395.517 270.616ZM417.034 270V236.182H428.835V242.611H429.187C429.803 240.233 430.78 238.494 432.115 237.393C433.466 236.292 435.044 235.741 436.849 235.741C437.377 235.741 437.898 235.786 438.412 235.874C438.941 235.947 439.447 236.057 439.931 236.204V246.574C439.329 246.368 438.588 246.214 437.708 246.112C436.827 246.009 436.071 245.957 435.44 245.957C434.251 245.957 433.179 246.229 432.225 246.772C431.286 247.3 430.545 248.049 430.002 249.018C429.459 249.972 429.187 251.095 429.187 252.386V270H417.034ZM473.441 270H456.092V224.909H473.265C477.903 224.909 481.91 225.812 485.286 227.617C488.677 229.408 491.29 231.991 493.124 235.367C494.974 238.728 495.899 242.758 495.899 247.455C495.899 252.152 494.981 256.188 493.146 259.564C491.312 262.925 488.714 265.509 485.352 267.314C481.991 269.105 478.021 270 473.441 270ZM468.333 259.608H473.001C475.232 259.608 477.133 259.248 478.703 258.529C480.289 257.81 481.492 256.57 482.314 254.808C483.151 253.047 483.569 250.596 483.569 247.455C483.569 244.313 483.143 241.862 482.292 240.101C481.455 238.339 480.222 237.099 478.593 236.38C476.979 235.661 474.997 235.301 472.649 235.301H468.333V259.608ZM501.562 270V224.909H521.026C524.372 224.909 527.3 225.57 529.81 226.891C532.32 228.212 534.272 230.068 535.667 232.461C537.061 234.853 537.759 237.65 537.759 240.849C537.759 244.079 537.039 246.875 535.601 249.238C534.177 251.601 532.174 253.421 529.59 254.698C527.022 255.975 524.02 256.614 520.585 256.614H508.96V247.102H518.119C519.558 247.102 520.783 246.853 521.796 246.354C522.824 245.84 523.609 245.113 524.152 244.174C524.71 243.235 524.989 242.126 524.989 240.849C524.989 239.558 524.71 238.457 524.152 237.547C523.609 236.622 522.824 235.918 521.796 235.433C520.783 234.934 519.558 234.685 518.119 234.685H513.804V270H501.562ZM566.557 239C566.439 237.532 565.889 236.387 564.906 235.565C563.937 234.743 562.462 234.332 560.48 234.332C559.218 234.332 558.183 234.487 557.376 234.795C556.583 235.088 555.996 235.492 555.614 236.006C555.233 236.519 555.035 237.107 555.02 237.767C554.991 238.31 555.086 238.802 555.306 239.242C555.541 239.668 555.908 240.057 556.407 240.409C556.906 240.747 557.545 241.055 558.322 241.334C559.1 241.613 560.025 241.862 561.097 242.082L564.795 242.875C567.291 243.403 569.426 244.101 571.202 244.967C572.978 245.833 574.432 246.853 575.562 248.027C576.692 249.187 577.521 250.493 578.05 251.946C578.593 253.399 578.872 254.984 578.886 256.702C578.872 259.667 578.13 262.177 576.663 264.232C575.195 266.286 573.096 267.85 570.366 268.921C567.65 269.993 564.384 270.528 560.568 270.528C556.649 270.528 553.229 269.949 550.308 268.789C547.402 267.629 545.142 265.846 543.527 263.439C541.927 261.017 541.12 257.92 541.105 254.148H552.73C552.804 255.527 553.148 256.687 553.765 257.626C554.381 258.566 555.247 259.278 556.363 259.762C557.493 260.246 558.836 260.489 560.392 260.489C561.698 260.489 562.792 260.327 563.673 260.004C564.553 259.681 565.221 259.234 565.676 258.661C566.131 258.089 566.366 257.436 566.381 256.702C566.366 256.012 566.138 255.41 565.698 254.896C565.272 254.368 564.568 253.898 563.585 253.487C562.601 253.062 561.273 252.665 559.599 252.298L555.108 251.33C551.116 250.464 547.967 249.018 545.663 246.992C543.373 244.952 542.235 242.17 542.25 238.648C542.235 235.786 542.999 233.283 544.54 231.14C546.096 228.982 548.246 227.302 550.991 226.098C553.75 224.894 556.913 224.293 560.48 224.293C564.12 224.293 567.269 224.902 569.925 226.12C572.582 227.338 574.63 229.056 576.068 231.272C577.521 233.474 578.255 236.05 578.27 239H566.557ZM596.071 270V236.182H608.224V270H596.071ZM602.147 232.659C600.503 232.659 599.094 232.116 597.92 231.03C596.746 229.944 596.159 228.637 596.159 227.111C596.159 225.584 596.746 224.278 597.92 223.192C599.094 222.106 600.503 221.562 602.147 221.562C603.806 221.562 605.215 222.106 606.375 223.192C607.549 224.278 608.136 225.584 608.136 227.111C608.136 228.637 607.549 229.944 606.375 231.03C605.215 232.116 603.806 232.659 602.147 232.659ZM626.57 250.977V270H614.416V236.182H625.953V242.611H626.306C627.039 240.468 628.331 238.787 630.181 237.569C632.045 236.351 634.217 235.741 636.698 235.741C639.09 235.741 641.167 236.292 642.928 237.393C644.704 238.479 646.077 239.976 647.046 241.884C648.029 243.792 648.513 245.972 648.499 248.423V270H636.345V250.977C636.36 249.304 635.934 247.99 635.068 247.036C634.217 246.082 633.028 245.605 631.502 245.605C630.503 245.605 629.63 245.825 628.882 246.266C628.148 246.691 627.583 247.308 627.186 248.115C626.79 248.908 626.584 249.862 626.57 250.977ZM687.018 236.182V244.989H664.736V236.182H687.018ZM669.052 228.08H681.205V259.124C681.205 259.593 681.286 259.99 681.447 260.312C681.609 260.621 681.858 260.856 682.196 261.017C682.533 261.164 682.966 261.237 683.495 261.237C683.862 261.237 684.287 261.193 684.772 261.105C685.271 261.017 685.638 260.944 685.873 260.885L687.634 269.428C687.091 269.589 686.313 269.787 685.3 270.022C684.302 270.257 683.113 270.411 681.733 270.484C678.945 270.631 676.604 270.345 674.71 269.626C672.817 268.892 671.393 267.74 670.439 266.169C669.485 264.598 669.022 262.632 669.052 260.268V228.08ZM704.857 250.977V270H692.703V224.909H704.417V242.611H704.769C705.532 240.453 706.802 238.772 708.578 237.569C710.354 236.351 712.489 235.741 714.985 235.741C717.377 235.741 719.454 236.285 721.216 237.371C722.992 238.457 724.364 239.954 725.333 241.862C726.316 243.77 726.801 245.957 726.786 248.423V270H714.632V250.977C714.647 249.304 714.229 247.99 713.377 247.036C712.541 246.082 711.345 245.605 709.789 245.605C708.805 245.605 707.939 245.825 707.191 246.266C706.457 246.691 705.884 247.308 705.473 248.115C705.077 248.908 704.872 249.862 704.857 250.977ZM748.99 270.616C745.379 270.616 742.268 269.927 739.655 268.547C737.057 267.152 735.053 265.156 733.644 262.558C732.25 259.946 731.553 256.819 731.553 253.179C731.553 249.686 732.257 246.633 733.666 244.02C735.075 241.407 737.064 239.374 739.633 237.921C742.201 236.468 745.232 235.741 748.726 235.741C751.28 235.741 753.592 236.138 755.661 236.93C757.731 237.723 759.5 238.875 760.967 240.387C762.435 241.884 763.565 243.704 764.358 245.847C765.151 247.99 765.547 250.405 765.547 253.091V255.909H735.339V249.216H754.362C754.348 248.247 754.098 247.396 753.614 246.662C753.144 245.913 752.505 245.334 751.698 244.923C750.906 244.497 750.003 244.284 748.99 244.284C748.007 244.284 747.104 244.497 746.282 244.923C745.46 245.334 744.799 245.906 744.3 246.64C743.816 247.374 743.559 248.232 743.53 249.216V256.438C743.53 257.524 743.757 258.492 744.212 259.344C744.667 260.195 745.321 260.863 746.172 261.347C747.023 261.832 748.051 262.074 749.254 262.074C750.091 262.074 750.854 261.956 751.544 261.722C752.249 261.487 752.85 261.149 753.349 260.709C753.848 260.254 754.215 259.711 754.45 259.08H765.547C765.165 261.428 764.263 263.468 762.839 265.2C761.415 266.918 759.529 268.253 757.18 269.207C754.847 270.147 752.116 270.616 748.99 270.616ZM803.113 236.182V244.989H780.48V236.182H803.113ZM784.795 270V235.213C784.795 232.424 785.294 230.112 786.292 228.278C787.291 226.443 788.7 225.071 790.52 224.161C792.34 223.25 794.483 222.795 796.949 222.795C798.49 222.795 799.987 222.913 801.44 223.148C802.908 223.383 803.994 223.588 804.699 223.764L802.937 232.483C802.497 232.351 801.983 232.248 801.396 232.175C800.809 232.087 800.295 232.043 799.855 232.043C798.71 232.043 797.939 232.285 797.543 232.769C797.147 233.254 796.949 233.892 796.949 234.685V270H784.795ZM807.803 270V236.182H819.956V270H807.803ZM813.88 232.659C812.236 232.659 810.827 232.116 809.653 231.03C808.478 229.944 807.891 228.637 807.891 227.111C807.891 225.584 808.478 224.278 809.653 223.192C810.827 222.106 812.236 221.562 813.88 221.562C815.538 221.562 816.948 222.106 818.107 223.192C819.281 224.278 819.868 225.584 819.868 227.111C819.868 228.637 819.281 229.944 818.107 231.03C816.948 232.116 815.538 232.659 813.88 232.659ZM838.302 250.977V270H826.149V236.182H837.686V242.611H838.038C838.772 240.468 840.064 238.787 841.913 237.569C843.777 236.351 845.949 235.741 848.43 235.741C850.823 235.741 852.9 236.292 854.661 237.393C856.437 238.479 857.809 239.976 858.778 241.884C859.761 243.792 860.246 245.972 860.231 248.423V270H848.078V250.977C848.092 249.304 847.667 247.99 846.801 247.036C845.949 246.082 844.761 245.605 843.234 245.605C842.236 245.605 841.363 245.825 840.614 246.266C839.88 246.691 839.315 247.308 838.919 248.115C838.522 248.908 838.317 249.862 838.302 250.977ZM875.654 270.528C873.496 270.528 871.588 270.176 869.93 269.472C868.286 268.752 866.994 267.666 866.055 266.213C865.115 264.76 864.646 262.911 864.646 260.665C864.646 258.815 864.961 257.237 865.592 255.931C866.223 254.61 867.104 253.531 868.234 252.695C869.365 251.858 870.678 251.219 872.175 250.779C873.687 250.339 875.317 250.053 877.063 249.92C878.957 249.774 880.476 249.598 881.621 249.392C882.78 249.172 883.617 248.871 884.131 248.489C884.644 248.093 884.901 247.572 884.901 246.926V246.838C884.901 245.957 884.564 245.282 883.888 244.812C883.213 244.343 882.347 244.108 881.29 244.108C880.131 244.108 879.184 244.365 878.45 244.879C877.731 245.378 877.298 246.148 877.151 247.19H865.967C866.113 245.135 866.767 243.242 867.926 241.51C869.1 239.763 870.81 238.369 873.056 237.327C875.302 236.27 878.105 235.741 881.467 235.741C883.888 235.741 886.061 236.028 887.984 236.6C889.906 237.158 891.543 237.943 892.893 238.956C894.244 239.954 895.271 241.128 895.976 242.479C896.695 243.814 897.055 245.268 897.055 246.838V270H885.694V265.244H885.43C884.754 266.507 883.933 267.527 882.964 268.305C882.01 269.083 880.916 269.648 879.683 270C878.465 270.352 877.122 270.528 875.654 270.528ZM879.617 262.866C880.542 262.866 881.408 262.676 882.215 262.294C883.037 261.912 883.705 261.362 884.219 260.643C884.732 259.924 884.989 259.05 884.989 258.023V255.205C884.666 255.337 884.321 255.461 883.955 255.579C883.602 255.696 883.221 255.806 882.81 255.909C882.413 256.012 881.988 256.107 881.533 256.195C881.092 256.283 880.63 256.364 880.146 256.438C879.206 256.584 878.436 256.826 877.834 257.164C877.247 257.487 876.806 257.891 876.513 258.375C876.234 258.845 876.094 259.373 876.094 259.96C876.094 260.9 876.425 261.619 877.085 262.118C877.746 262.617 878.59 262.866 879.617 262.866ZM915.015 224.909V270H902.862V224.909H915.015Z" fill="white"/>
</g>
<defs>
<filter id="filter0_f_158_48" x="-680" y="-338" width="2267" height="1247" filterUnits="userSpaceOnUse" color-interpolation-filters="sRGB">
<feFlood flood-opacity="0" result="BackgroundImageFix"/>
<feBlend mode="normal" in="SourceGraphic" in2="BackgroundImageFix" result="shape"/>
<feGaussianBlur stdDeviation="250" result="effect1_foregroundBlur_158_48"/>
</filter>
<linearGradient id="paint0_linear_158_48" x1="1448.5" y1="229.535" x2="1390.85" y2="-53.9909" gradientUnits="userSpaceOnUse">
<stop stop-color="#8E45FF"/>
<stop offset="0.835" stop-color="#548CFF" stop-opacity="0"/>
</linearGradient>
<linearGradient id="paint1_linear_158_48" x1="-21" y1="234.123" x2="-102.49" y2="-56.564" gradientUnits="userSpaceOnUse">
<stop stop-color="#AE85FF"/>
<stop offset="0.835" stop-color="#AD85FE" stop-opacity="0"/>
</linearGradient>
<linearGradient id="paint2_linear_158_48" x1="501.406" y1="330.517" x2="484.354" y2="-99.1053" gradientUnits="userSpaceOnUse">
<stop stop-color="#9E6EFE"/>
<stop offset="0.835" stop-color="#A070FE" stop-opacity="0"/>
</linearGradient>
<linearGradient id="paint3_linear_158_48" x1="937" y1="462.279" x2="837.648" y2="-161.518" gradientUnits="userSpaceOnUse">
<stop stop-color="#8B51FF"/>
<stop offset="0.835" stop-color="#9159FF" stop-opacity="0"/>
</linearGradient>
</defs>
</svg>
