<svg width="312" height="99" viewBox="0 0 312 99" fill="none" xmlns="http://www.w3.org/2000/svg">
<path d="M15.5734 8.3076C16.3976 3.50802 20.5594 0 25.4292 0H298.294C304.923 0 309.717 6.33108 307.92 12.711L285.67 91.711C284.456 96.022 280.523 99 276.044 99H11.8635C5.66422 99 0.958618 93.4175 2.00779 87.3076L15.5734 8.3076Z" fill="#C03838"/>
<path d="M84.6591 27.3636L90.3267 61.7102H90.7741L107.798 27.3636H116.491L93.8636 71H84.1051L75.9872 27.3636H84.6591ZM111.654 71L117.108 38.2727H124.821L119.367 71H111.654ZM122.094 33.5852C120.858 33.5852 119.836 33.1733 119.026 32.3494C118.216 31.5256 117.861 30.5384 117.961 29.3878C118.06 28.2372 118.578 27.25 119.516 26.4261C120.468 25.6023 121.554 25.1903 122.776 25.1903C124.012 25.1903 125.027 25.6023 125.823 26.4261C126.632 27.25 126.988 28.2372 126.888 29.3878C126.803 30.5384 126.284 31.5256 125.333 32.3494C124.395 33.1733 123.316 33.5852 122.094 33.5852ZM136.401 71.5753C133.83 71.5753 131.635 70.9148 129.817 69.5938C127.999 68.2727 126.706 66.3551 125.939 63.8409C125.186 61.3267 125.101 58.2727 125.683 54.679C126.294 51.0426 127.409 47.9744 129.028 45.4744C130.648 42.9602 132.58 41.0639 134.824 39.7855C137.082 38.4929 139.469 37.8466 141.983 37.8466C143.915 37.8466 145.442 38.1733 146.564 38.8267C147.7 39.4659 148.553 40.2401 149.121 41.1491C149.689 42.044 150.108 42.8892 150.378 43.6847H150.697L153.403 27.3636H161.138L153.893 71H146.308L147.182 65.8438H146.713C146.173 66.6392 145.456 67.4844 144.561 68.3793C143.666 69.2599 142.551 70.0128 141.216 70.6378C139.881 71.2628 138.276 71.5753 136.401 71.5753ZM139.469 65.2472C141.116 65.2472 142.594 64.8068 143.901 63.9261C145.222 63.0312 146.322 61.7884 147.203 60.1974C148.084 58.6065 148.702 56.7528 149.057 54.6364C149.412 52.5199 149.412 50.6804 149.057 49.1179C148.702 47.5554 148.013 46.3409 146.99 45.4744C145.967 44.608 144.625 44.1747 142.963 44.1747C141.259 44.1747 139.76 44.6222 138.467 45.517C137.189 46.4119 136.138 47.6477 135.314 49.2244C134.49 50.8011 133.908 52.6051 133.567 54.6364C133.226 56.6818 133.205 58.5071 133.503 60.1122C133.815 61.7031 134.462 62.9602 135.442 63.8835C136.436 64.7926 137.778 65.2472 139.469 65.2472ZM173.553 71.6392C170.272 71.6392 167.559 70.9574 165.414 69.5938C163.269 68.2159 161.763 66.2699 160.897 63.7557C160.045 61.2273 159.903 58.2514 160.471 54.8281C161.025 51.4616 162.154 48.5071 163.859 45.9645C165.563 43.4077 167.694 41.419 170.251 39.9986C172.822 38.5639 175.663 37.8466 178.773 37.8466C180.79 37.8466 182.644 38.1733 184.335 38.8267C186.025 39.4659 187.452 40.4602 188.617 41.8097C189.782 43.1591 190.585 44.8778 191.025 46.9659C191.465 49.0398 191.444 51.5114 190.961 54.3807L190.599 56.7457H163.752L164.583 51.5469H184.015C184.271 50.0696 184.185 48.7557 183.759 47.6051C183.333 46.4403 182.623 45.5241 181.629 44.8565C180.634 44.1889 179.391 43.8551 177.9 43.8551C176.38 43.8551 174.96 44.2457 173.638 45.027C172.332 45.794 171.231 46.7884 170.336 48.0099C169.441 49.2315 168.873 50.517 168.631 51.8665L167.758 56.8523C167.445 58.8977 167.516 60.5668 167.971 61.8594C168.425 63.152 169.221 64.1037 170.357 64.7145C171.494 65.3253 172.928 65.6307 174.661 65.6307C175.798 65.6307 176.849 65.4744 177.815 65.1619C178.781 64.8494 179.64 64.3807 180.393 63.7557C181.16 63.1165 181.799 62.3352 182.31 61.4119L189.363 62.2216C188.582 64.125 187.438 65.7869 185.933 67.2074C184.427 68.6136 182.623 69.7074 180.521 70.4886C178.433 71.2557 176.11 71.6392 173.553 71.6392ZM206.136 71.6392C202.911 71.6392 200.227 70.929 198.082 69.5085C195.951 68.0881 194.452 66.0923 193.586 63.5213C192.719 60.9503 192.563 57.9673 193.117 54.5724C193.671 51.2202 194.779 48.2869 196.441 45.7727C198.117 43.2585 200.227 41.3125 202.769 39.9347C205.326 38.5426 208.188 37.8466 211.356 37.8466C214.58 37.8466 217.258 38.5639 219.388 39.9986C221.519 41.419 223.018 43.4148 223.884 45.9858C224.765 48.5568 224.928 51.554 224.374 54.9773C223.835 58.3153 222.719 61.2344 221.029 63.7344C219.353 66.2344 217.244 68.1804 214.701 69.5724C212.158 70.9503 209.303 71.6392 206.136 71.6392ZM206.775 65.4602C208.565 65.4602 210.134 64.9773 211.484 64.0114C212.847 63.0312 213.962 61.7173 214.829 60.0696C215.71 58.4077 216.32 56.5611 216.661 54.5298C216.974 52.5696 216.981 50.794 216.683 49.2031C216.384 47.598 215.745 46.3267 214.765 45.3892C213.799 44.4375 212.457 43.9616 210.738 43.9616C208.948 43.9616 207.364 44.4588 205.987 45.4531C204.623 46.4332 203.508 47.7543 202.641 49.4162C201.775 51.0639 201.178 52.9034 200.852 54.9347C200.525 56.8949 200.511 58.6705 200.809 60.2614C201.107 61.8523 201.746 63.1165 202.727 64.054C203.707 64.9915 205.056 65.4602 206.775 65.4602Z" fill="white"/>
</svg>
